<svg width="62" height="58" viewBox="0 0 62 58" fill="none" xmlns="http://www.w3.org/2000/svg">
<path d="M20.1066 0.0688324C15.9485 0.494911 12.2017 1.93476 8.9913 4.33697C4.65684 7.56929 1.65945 12.2415 0.572163 17.4352C0.219529 19.0955 0.124023 20.0872 0.124023 22.0266C0.124023 23.966 0.219529 24.9577 0.572163 26.6179C1.49783 31.0404 3.94423 35.3085 7.27221 38.3131C10.7104 41.4058 14.729 43.2571 19.3646 43.8888C20.3785 44.0284 23.6477 44.0798 24.1987 43.9696L24.4705 43.9109V40.6051V37.2993L23.7946 37.3581C22.6632 37.4536 20.7678 37.4168 19.8495 37.2773C17.1386 36.8659 14.5379 35.7272 12.4148 34.0156C11.6508 33.4058 10.1961 31.8778 9.67453 31.1432C8.24196 29.145 7.34568 27.022 6.89754 24.5977C6.7653 23.8925 6.73592 23.4738 6.73592 22.0266C6.73592 20.5794 6.7653 20.1607 6.89754 19.4554C7.33833 17.0385 8.22726 14.9449 9.67453 12.91C10.2329 12.1166 12.2091 10.1405 13.0025 9.58214C15.0522 8.12025 17.1827 7.22402 19.585 6.80529C20.5401 6.63632 22.7734 6.57755 23.9048 6.69509L24.4705 6.75386V3.44808C24.4705 1.10464 24.4484 0.127602 24.3897 0.0908699C24.2574 0.0100632 20.8266 -0.0119743 20.1066 0.0688324Z" fill="#323232"/>
<path d="M57.5736 0.0687866C49.867 0.810753 43.1743 5.43885 39.7876 12.3663C38.7076 14.5849 38.0685 16.7153 37.7232 19.2717C37.5395 20.6014 37.5395 23.4517 37.7232 24.7814C38.0685 27.3378 38.7076 29.4682 39.7876 31.6868C42.7703 37.7841 48.4124 42.1992 54.9949 43.5729C56.6699 43.9255 57.647 44.021 59.66 44.021C60.6885 44.0284 61.5921 44.0063 61.6656 43.977C61.7831 43.9255 61.7905 43.6978 61.7905 40.6124V37.3066L61.1881 37.358C60.1595 37.4535 58.2201 37.4168 57.3164 37.2772C54.5982 36.8658 52.0049 35.7272 49.8817 34.0155C49.1177 33.4058 47.6631 31.8778 47.1415 31.1432C46.0542 29.6225 45.2607 28.0063 44.7759 26.3388C44.6363 25.8613 44.5261 25.4352 44.5261 25.3984C44.5261 25.3617 47.09 25.3323 50.9543 25.3323H57.3825V22.0265V18.7208H50.9543C47.09 18.7208 44.5261 18.6914 44.5261 18.6546C44.5261 18.6179 44.6363 18.1918 44.7759 17.7143C45.2534 16.0541 46.0395 14.4526 47.1415 12.9099C47.6998 12.1165 49.676 10.1404 50.4694 9.5821C52.5191 8.12756 54.6349 7.23132 57.052 6.80524C57.7499 6.68036 58.2421 6.64363 59.4396 6.64363C60.2697 6.63628 61.1366 6.65832 61.3717 6.69505L61.7905 6.74648V3.41865V0.0834808L61.1881 0.039402C60.3799 -0.0267143 58.389 -0.004673 57.5736 0.0687866Z" fill="#323232"/>
</svg>
