<svg width="223" height="49" viewBox="0 0 223 49" fill="none" xmlns="http://www.w3.org/2000/svg">
<path d="M92.389 8.41309V0.98022H94.0242V6.92651H97.7301V8.41309H92.389ZM103.68 7.68042C103.093 8.25381 102.36 8.54051 101.482 8.54051C100.605 8.54051 99.8719 8.25735 99.2843 7.69104C98.7039 7.11764 98.4136 6.41329 98.4136 5.57798C98.4136 4.74975 98.7074 4.04893 99.2949 3.47554C99.8896 2.90215 100.626 2.61545 101.504 2.61545C102.381 2.61545 103.11 2.90215 103.691 3.47554C104.279 4.04185 104.572 4.74267 104.572 5.57798C104.572 6.40621 104.275 7.10703 103.68 7.68042ZM101.504 7.1495C101.95 7.1495 102.307 7.00084 102.576 6.70353C102.845 6.39913 102.98 6.02395 102.98 5.57798C102.98 5.14616 102.838 4.77806 102.555 4.47367C102.279 4.16219 101.921 4.00646 101.482 4.00646C101.036 4.00646 100.679 4.15866 100.41 4.46305C100.141 4.76036 100.006 5.13201 100.006 5.57798C100.006 6.00979 100.144 6.38144 100.42 6.69291C100.704 6.9973 101.065 7.1495 101.504 7.1495ZM105.741 8.41309V2.72163H107.355V3.52863C107.829 2.91984 108.385 2.61545 109.022 2.61545C109.631 2.61545 110.105 2.80304 110.445 3.17822C110.785 3.55341 110.955 4.07017 110.955 4.72851V8.41309H109.341V5.23819C109.341 4.86301 109.256 4.57631 109.086 4.3781C108.916 4.17989 108.675 4.08079 108.364 4.08079C108.052 4.08079 107.804 4.17989 107.62 4.3781C107.443 4.57631 107.355 4.86301 107.355 5.23819V8.41309H105.741ZM114.693 8.51927C113.985 8.51927 113.376 8.25381 112.866 7.72289C112.357 7.19197 112.102 6.46992 112.102 5.55674C112.102 4.65064 112.353 3.93567 112.856 3.41183C113.365 2.88091 113.978 2.61545 114.693 2.61545C115.401 2.61545 115.992 2.89861 116.466 3.46492V0.661669H118.08V8.41309H116.466V7.59547C116.013 8.21134 115.422 8.51927 114.693 8.51927ZM114.119 6.71415C114.388 7.00438 114.718 7.1495 115.107 7.1495C115.496 7.1495 115.822 7.00438 116.084 6.71415C116.353 6.41683 116.487 6.03103 116.487 5.55674C116.487 5.09661 116.353 4.72143 116.084 4.43119C115.822 4.13388 115.496 3.98522 115.107 3.98522C114.718 3.98522 114.388 4.13388 114.119 4.43119C113.85 4.72143 113.716 5.10369 113.716 5.57798C113.716 6.03811 113.85 6.41683 114.119 6.71415ZM124.513 7.68042C123.925 8.25381 123.192 8.54051 122.315 8.54051C121.437 8.54051 120.704 8.25735 120.117 7.69104C119.536 7.11764 119.246 6.41329 119.246 5.57798C119.246 4.74975 119.54 4.04893 120.127 3.47554C120.722 2.90215 121.458 2.61545 122.336 2.61545C123.214 2.61545 123.943 2.90215 124.523 3.47554C125.111 4.04185 125.405 4.74267 125.405 5.57798C125.405 6.40621 125.107 7.10703 124.513 7.68042ZM122.336 7.1495C122.782 7.1495 123.139 7.00084 123.408 6.70353C123.677 6.39913 123.812 6.02395 123.812 5.57798C123.812 5.14616 123.67 4.77806 123.387 4.47367C123.111 4.16219 122.754 4.00646 122.315 4.00646C121.869 4.00646 121.511 4.15866 121.242 4.46305C120.973 4.76036 120.839 5.13201 120.839 5.57798C120.839 6.00979 120.977 6.38144 121.253 6.69291C121.536 6.9973 121.897 7.1495 122.336 7.1495ZM126.573 8.41309V2.72163H128.187V3.52863C128.662 2.91984 129.217 2.61545 129.854 2.61545C130.463 2.61545 130.937 2.80304 131.277 3.17822C131.617 3.55341 131.787 4.07017 131.787 4.72851V8.41309H130.173V5.23819C130.173 4.86301 130.088 4.57631 129.918 4.3781C129.748 4.17989 129.508 4.08079 129.196 4.08079C128.885 4.08079 128.637 4.17989 128.453 4.3781C128.276 4.57631 128.187 4.86301 128.187 5.23819V8.41309H126.573ZM136.542 8.41309V0.98022H139.441C140.602 0.98022 141.551 1.33417 142.287 2.04206C143.023 2.74287 143.391 3.62774 143.391 4.69665C143.391 5.75849 143.02 6.64336 142.276 7.35125C141.54 8.05914 140.595 8.41309 139.441 8.41309H136.542ZM138.178 6.93713H139.441C140.114 6.93713 140.655 6.73184 141.066 6.32127C141.476 5.90361 141.682 5.36207 141.682 4.69665C141.682 4.03831 141.473 3.50032 141.055 3.08266C140.645 2.665 140.107 2.45617 139.441 2.45617H138.178V6.93713ZM147.376 8.54051C146.512 8.54051 145.8 8.26797 145.241 7.72289C144.682 7.17074 144.402 6.45576 144.402 5.57798C144.402 4.74975 144.668 4.04893 145.199 3.47554C145.73 2.90215 146.402 2.61545 147.216 2.61545C148.115 2.61545 148.802 2.91277 149.276 3.50739C149.751 4.10202 149.988 4.83469 149.988 5.7054C149.988 5.79035 149.981 5.93192 149.966 6.13013H146.006C146.084 6.49116 146.243 6.76724 146.484 6.95837C146.724 7.1495 147.029 7.24506 147.397 7.24506C147.899 7.24506 148.36 7.05039 148.777 6.66105L149.701 7.47867C149.128 8.18656 148.352 8.54051 147.376 8.54051ZM145.985 5.12139H148.416C148.367 4.75328 148.236 4.45951 148.023 4.24006C147.818 4.02062 147.549 3.91089 147.216 3.91089C146.891 3.91089 146.618 4.02062 146.399 4.24006C146.186 4.45243 146.048 4.74621 145.985 5.12139ZM153.187 8.51927C152.288 8.51927 151.474 8.23257 150.745 7.65918L151.435 6.59734C152.058 7.05039 152.656 7.27692 153.229 7.27692C153.682 7.27692 153.909 7.12826 153.909 6.83095C153.909 6.79555 153.902 6.76016 153.888 6.72476C153.881 6.68937 153.863 6.65751 153.835 6.6292C153.806 6.60088 153.774 6.57611 153.739 6.55487C153.711 6.52655 153.668 6.50178 153.612 6.48054C153.562 6.45223 153.516 6.43099 153.473 6.41683C153.438 6.39559 153.385 6.37436 153.314 6.35312C153.243 6.3248 153.183 6.30357 153.134 6.28941C153.084 6.27525 153.017 6.25755 152.932 6.23632C152.847 6.208 152.78 6.18677 152.73 6.17261C152.49 6.10182 152.284 6.03103 152.114 5.96024C151.952 5.88237 151.778 5.77973 151.594 5.65231C151.41 5.51781 151.268 5.35145 151.169 5.15324C151.077 4.94795 151.031 4.71081 151.031 4.44181C151.031 3.88258 151.229 3.44368 151.626 3.12513C152.022 2.7995 152.518 2.63669 153.112 2.63669C153.877 2.63669 154.585 2.85613 155.236 3.29503L154.62 4.40996C154.019 4.05601 153.505 3.87904 153.081 3.87904C152.684 3.87904 152.486 4.01708 152.486 4.29315C152.486 4.48429 152.812 4.68957 153.463 4.90902C153.541 4.93734 153.601 4.95857 153.643 4.97273C153.835 5.03644 153.997 5.09661 154.132 5.15324C154.266 5.20987 154.419 5.28774 154.588 5.38685C154.758 5.48595 154.893 5.59214 154.992 5.7054C155.098 5.81158 155.187 5.94962 155.257 6.11952C155.328 6.28941 155.364 6.477 155.364 6.68229C155.364 7.29108 155.162 7.75121 154.758 8.06268C154.362 8.36707 153.838 8.51927 153.187 8.51927ZM156.552 2.09515V0.661669H158.251V2.09515H156.552ZM156.595 8.41309V2.72163H158.209V8.41309H156.595ZM162.273 10.1333C161.346 10.1333 160.507 9.93505 159.756 9.53863L160.309 8.32814C160.925 8.67501 161.565 8.84844 162.231 8.84844C163.314 8.84844 163.855 8.33168 163.855 7.29816V7.02208C163.6 7.33355 163.328 7.56716 163.038 7.72289C162.754 7.87155 162.408 7.94588 161.997 7.94588C161.296 7.94588 160.698 7.70519 160.202 7.22383C159.714 6.74246 159.47 6.0912 159.47 5.27005C159.47 4.45597 159.718 3.81179 160.213 3.3375C160.709 2.85613 161.303 2.61545 161.997 2.61545C162.705 2.61545 163.317 2.89861 163.834 3.46492V2.72163H165.448V7.12826C165.448 8.14055 165.207 8.88737 164.726 9.36874C164.216 9.87842 163.399 10.1333 162.273 10.1333ZM161.477 6.24694C161.739 6.48762 162.068 6.60796 162.464 6.60796C162.861 6.60796 163.19 6.48408 163.452 6.23632C163.721 5.98856 163.855 5.66647 163.855 5.27005C163.855 4.88778 163.721 4.57277 163.452 4.32501C163.19 4.07725 162.861 3.95337 162.464 3.95337C162.068 3.95337 161.739 4.07725 161.477 4.32501C161.215 4.57277 161.084 4.89486 161.084 5.29128C161.084 5.68062 161.215 5.99917 161.477 6.24694ZM166.89 8.41309V2.72163H168.504V3.52863C168.978 2.91984 169.534 2.61545 170.171 2.61545C170.78 2.61545 171.254 2.80304 171.594 3.17822C171.934 3.55341 172.104 4.07017 172.104 4.72851V8.41309H170.49V5.23819C170.49 4.86301 170.405 4.57631 170.235 4.3781C170.065 4.17989 169.824 4.08079 169.513 4.08079C169.201 4.08079 168.953 4.17989 168.769 4.3781C168.592 4.57631 168.504 4.86301 168.504 5.23819V8.41309H166.89Z" fill="#1E1E1C"/>
<path d="M91.7519 21.1035L94.9374 13.6176H96.4452L99.6307 21.1035H97.9212L97.2416 19.4364H94.0986L93.419 21.1035H91.7519ZM94.6826 17.9923H96.6576L95.6701 15.582L94.6826 17.9923ZM101.312 21.146L99.5602 15.4121H101.195L102.109 18.863L103.181 15.3908H104.572L105.655 18.8737L106.59 15.4121H108.193L106.42 21.146H104.965L103.871 17.6525L102.756 21.146H101.312ZM110.58 21.2097C110.021 21.2097 109.553 21.054 109.178 20.7425C108.81 20.431 108.626 19.9992 108.626 19.447C108.626 18.8453 108.831 18.3923 109.242 18.0879C109.66 17.7835 110.219 17.6313 110.92 17.6313C111.394 17.6313 111.858 17.7092 112.311 17.8649V17.7693C112.311 17.0756 111.904 16.7287 111.09 16.7287C110.601 16.7287 110.077 16.8314 109.518 17.0367L109.115 15.8049C109.808 15.5006 110.544 15.3484 111.323 15.3484C112.18 15.3484 112.82 15.5607 113.245 15.9855C113.656 16.396 113.861 17.0013 113.861 17.8012V21.1035H112.3V20.4876C111.868 20.969 111.295 21.2097 110.58 21.2097ZM111.068 20.0948C111.444 20.0948 111.748 20.0027 111.981 19.8187C112.215 19.6276 112.332 19.3869 112.332 19.0966V18.8099C112.028 18.6684 111.684 18.5976 111.302 18.5976C110.948 18.5976 110.672 18.6684 110.474 18.8099C110.283 18.9444 110.187 19.1427 110.187 19.4046C110.187 19.6169 110.268 19.7868 110.431 19.9143C110.594 20.0346 110.806 20.0948 111.068 20.0948ZM115.25 21.1035V15.4121H116.864V16.5588C117.232 15.6881 117.837 15.2705 118.68 15.3059V16.9942H118.595C118.042 16.9942 117.614 17.1641 117.31 17.5039C117.012 17.8366 116.864 18.3357 116.864 19.0011V21.1035H115.25ZM121.92 21.2097C121.212 21.2097 120.604 20.9442 120.094 20.4133C119.584 19.8824 119.329 19.1604 119.329 18.2472C119.329 17.3411 119.581 16.6261 120.083 16.1023C120.593 15.5713 121.205 15.3059 121.92 15.3059C122.628 15.3059 123.219 15.589 123.694 16.1554V13.3521H125.308V21.1035H123.694V20.2859C123.241 20.9018 122.649 21.2097 121.92 21.2097ZM121.347 19.4046C121.616 19.6948 121.945 19.8399 122.334 19.8399C122.724 19.8399 123.049 19.6948 123.311 19.4046C123.58 19.1073 123.715 18.7215 123.715 18.2472C123.715 17.787 123.58 17.4119 123.311 17.1216C123.049 16.8243 122.724 16.6757 122.334 16.6757C121.945 16.6757 121.616 16.8243 121.347 17.1216C121.078 17.4119 120.943 17.7941 120.943 18.2684C120.943 18.7285 121.078 19.1073 121.347 19.4046ZM128.746 21.2097C127.847 21.2097 127.033 20.923 126.304 20.3496L126.994 19.2878C127.617 19.7408 128.215 19.9673 128.788 19.9673C129.241 19.9673 129.468 19.8187 129.468 19.5214C129.468 19.486 129.461 19.4506 129.447 19.4152C129.44 19.3798 129.422 19.3479 129.394 19.3196C129.365 19.2913 129.333 19.2665 129.298 19.2453C129.27 19.217 129.227 19.1922 129.171 19.171C129.121 19.1427 129.075 19.1214 129.033 19.1073C128.997 19.086 128.944 19.0648 128.873 19.0436C128.802 19.0152 128.742 18.994 128.693 18.9798C128.643 18.9657 128.576 18.948 128.491 18.9267C128.406 18.8984 128.339 18.8772 128.289 18.863C128.049 18.7922 127.843 18.7215 127.673 18.6507C127.511 18.5728 127.337 18.4702 127.153 18.3427C126.969 18.2082 126.827 18.0419 126.728 17.8437C126.636 17.6384 126.59 17.4012 126.59 17.1322C126.59 16.573 126.789 16.1341 127.185 15.8156C127.581 15.4899 128.077 15.3271 128.672 15.3271C129.436 15.3271 130.144 15.5466 130.795 15.9855L130.179 17.1004C129.578 16.7464 129.064 16.5695 128.64 16.5695C128.243 16.5695 128.045 16.7075 128.045 16.9836C128.045 17.1747 128.371 17.38 129.022 17.5995C129.1 17.6278 129.16 17.649 129.202 17.6632C129.394 17.7269 129.556 17.787 129.691 17.8437C129.825 17.9003 129.978 17.9782 130.147 18.0773C130.317 18.1764 130.452 18.2826 130.551 18.3958C130.657 18.502 130.746 18.6401 130.816 18.8099C130.887 18.9798 130.923 19.1674 130.923 19.3727C130.923 19.9815 130.721 20.4416 130.317 20.7531C129.921 21.0575 129.397 21.2097 128.746 21.2097ZM135.061 21.1035V19.8081L137.535 17.78C138.024 17.3765 138.36 17.0544 138.544 16.8137C138.728 16.5659 138.82 16.2934 138.82 15.9961C138.82 15.6917 138.728 15.4545 138.544 15.2846C138.36 15.1147 138.119 15.0298 137.822 15.0298C137.546 15.0298 137.295 15.1077 137.068 15.2634C136.849 15.4121 136.594 15.6669 136.304 16.0279L135.157 15.1041C135.546 14.5732 135.946 14.1839 136.357 13.9361C136.774 13.6883 137.298 13.5645 137.928 13.5645C138.7 13.5645 139.319 13.7768 139.786 14.2016C140.254 14.6192 140.487 15.1785 140.487 15.8793C140.487 16.2828 140.409 16.6473 140.254 16.973C140.098 17.2915 139.896 17.5747 139.648 17.8224C139.401 18.0631 139.029 18.3746 138.533 18.7569L137.323 19.6913H140.562V21.1035H135.061ZM147.411 20.1372C146.795 20.8664 145.999 21.2309 145.022 21.2309C144.045 21.2309 143.252 20.8664 142.643 20.1372C142.034 19.4081 141.73 18.4914 141.73 17.3871C141.73 16.2899 142.038 15.3767 142.654 14.6475C143.27 13.9113 144.066 13.5432 145.043 13.5432C146.013 13.5432 146.802 13.9078 147.411 14.6369C148.027 15.3661 148.335 16.2828 148.335 17.3871C148.335 18.4843 148.027 19.401 147.411 20.1372ZM143.854 19.086C144.158 19.532 144.555 19.755 145.043 19.755C145.531 19.755 145.921 19.5355 146.211 19.0966C146.508 18.6507 146.657 18.0808 146.657 17.3871C146.657 16.7075 146.505 16.1447 146.2 15.6988C145.896 15.2457 145.503 15.0192 145.022 15.0192C144.54 15.0192 144.151 15.2422 143.854 15.6881C143.556 16.127 143.408 16.6933 143.408 17.3871C143.408 18.0737 143.556 18.6401 143.854 19.086ZM149.33 21.1035V19.8081L151.804 17.78C152.292 17.3765 152.628 17.0544 152.812 16.8137C152.997 16.5659 153.089 16.2934 153.089 15.9961C153.089 15.6917 152.997 15.4545 152.812 15.2846C152.628 15.1147 152.388 15.0298 152.09 15.0298C151.814 15.0298 151.563 15.1077 151.337 15.2634C151.117 15.4121 150.862 15.6669 150.572 16.0279L149.425 15.1041C149.815 14.5732 150.215 14.1839 150.625 13.9361C151.043 13.6883 151.567 13.5645 152.197 13.5645C152.968 13.5645 153.588 13.7768 154.055 14.2016C154.522 14.6192 154.756 15.1785 154.756 15.8793C154.756 16.2828 154.678 16.6473 154.522 16.973C154.366 17.2915 154.165 17.5747 153.917 17.8224C153.669 18.0631 153.297 18.3746 152.802 18.7569L151.591 19.6913H154.83V21.1035H149.33ZM158.727 21.2309C157.517 21.2309 156.551 20.8027 155.829 19.9461L156.954 18.8737C157.485 19.4683 158.083 19.7656 158.749 19.7656C159.06 19.7656 159.311 19.6842 159.503 19.5214C159.701 19.3515 159.8 19.125 159.8 18.8418C159.8 18.5374 159.672 18.3038 159.418 18.141C159.163 17.9782 158.805 17.8968 158.345 17.8968H157.666L157.411 16.8562L159.184 15.0723H156.264V13.6707H161.286V14.9024L159.407 16.6969C160.738 16.9234 161.403 17.6242 161.403 18.7993C161.403 19.5143 161.159 20.0983 160.671 20.5514C160.189 21.0044 159.541 21.2309 158.727 21.2309Z" fill="#1E1E1C"/>
<path d="M97.5094 32.7701C96.6599 33.5275 95.6653 33.9062 94.5256 33.9062C93.3859 33.9062 92.4692 33.5417 91.7755 32.8125C91.0888 32.0763 90.7455 31.1596 90.7455 30.0624C90.7455 29.0147 91.0959 28.1121 91.7967 27.3547C92.4975 26.5972 93.3895 26.2185 94.4725 26.2185C95.0672 26.2185 95.5768 26.2999 96.0016 26.4627C96.4334 26.6256 96.8475 26.8733 97.2439 27.206L96.7024 27.8431C96.0511 27.2768 95.2972 26.9937 94.4407 26.9937C93.6266 26.9937 92.9506 27.2945 92.4126 27.8962C91.8817 28.4909 91.6162 29.2129 91.6162 30.0624C91.6162 30.9614 91.8817 31.7011 92.4126 32.2816C92.9506 32.8621 93.6655 33.1523 94.5575 33.1523C95.3786 33.1523 96.0936 32.9046 96.7024 32.409V30.5614H94.4407V29.8075H97.5094V32.7701ZM103.819 33.0674C103.266 33.6266 102.583 33.9062 101.769 33.9062C100.955 33.9062 100.276 33.6266 99.7305 33.0674C99.1925 32.5081 98.9235 31.8321 98.9235 31.0393C98.9235 30.2535 99.1961 29.581 99.7412 29.0218C100.293 28.4555 100.976 28.1723 101.791 28.1723C102.605 28.1723 103.284 28.4519 103.829 29.0112C104.374 29.5704 104.647 30.2464 104.647 31.0393C104.647 31.825 104.371 32.5011 103.819 33.0674ZM101.791 33.1736C102.378 33.1736 102.859 32.9683 103.235 32.5577C103.617 32.1471 103.808 31.641 103.808 31.0393C103.808 30.4446 103.61 29.9385 103.213 29.5208C102.824 29.1032 102.343 28.8944 101.769 28.8944C101.182 28.8944 100.7 29.1032 100.325 29.5208C99.95 29.9314 99.7624 30.4376 99.7624 31.0393C99.7624 31.6339 99.9571 32.14 100.346 32.5577C100.736 32.9683 101.217 33.1736 101.791 33.1736ZM106.202 33.7788V26.0274H107.02V33.7788H106.202ZM111.222 33.8956C110.521 33.8956 109.908 33.6372 109.385 33.1205C108.861 32.5966 108.599 31.8994 108.599 31.0286C108.599 30.1721 108.861 29.4819 109.385 28.9581C109.908 28.4342 110.521 28.1723 111.222 28.1723C112.085 28.1723 112.786 28.5616 113.324 29.3403V26.0274H114.142V33.7788H113.324V32.6745C112.772 33.4886 112.071 33.8956 111.222 33.8956ZM111.37 33.1629C111.901 33.1629 112.365 32.9612 112.761 32.5577C113.158 32.1542 113.356 31.641 113.356 31.018C113.356 30.4092 113.158 29.9066 112.761 29.5102C112.365 29.1067 111.901 28.905 111.37 28.905C110.818 28.905 110.358 29.0996 109.99 29.489C109.622 29.8712 109.438 30.388 109.438 31.0393C109.438 31.6693 109.625 32.1825 110 32.5789C110.376 32.9683 110.832 33.1629 111.37 33.1629ZM124.652 33.9275L123.484 32.7276C122.769 33.4992 121.959 33.885 121.053 33.885C120.373 33.885 119.814 33.6903 119.375 33.301C118.936 32.9116 118.717 32.4055 118.717 31.7826C118.717 30.8198 119.315 30.1048 120.511 29.6376C120.249 29.3332 120.058 29.0572 119.938 28.8094C119.825 28.5546 119.768 28.2785 119.768 27.9812C119.768 27.4856 119.948 27.068 120.309 26.7282C120.678 26.3884 121.152 26.2185 121.732 26.2185C122.249 26.2185 122.677 26.3849 123.017 26.7176C123.364 27.0432 123.537 27.4432 123.537 27.9175C123.537 28.7952 122.953 29.4394 121.785 29.85L123.484 31.5808C123.803 31.1207 124.1 30.5685 124.376 29.9243L125.066 30.2429C124.691 31.0428 124.334 31.6658 123.994 32.1117L125.289 33.439L124.652 33.9275ZM121.318 29.3722C122.274 29.0466 122.752 28.5687 122.752 27.9387C122.752 27.6414 122.653 27.3972 122.454 27.206C122.256 27.0078 122.005 26.9087 121.7 26.9087C121.368 26.9087 121.095 27.0114 120.883 27.2167C120.678 27.4219 120.575 27.6839 120.575 28.0024C120.575 28.2219 120.628 28.4307 120.734 28.6289C120.84 28.82 121.035 29.0678 121.318 29.3722ZM121.116 33.1736C121.768 33.1736 122.387 32.8515 122.975 32.2073L120.989 30.1579C120.515 30.3349 120.157 30.565 119.917 30.8481C119.683 31.1242 119.566 31.4321 119.566 31.7719C119.566 32.1754 119.711 32.5117 120.002 32.7807C120.292 33.0426 120.663 33.1736 121.116 33.1736ZM129.867 33.7788V26.3459H132.649C133.498 26.3459 134.175 26.5583 134.677 26.983C135.18 27.4078 135.431 27.9883 135.431 28.7245C135.431 29.4961 135.151 30.0942 134.592 30.519C134.04 30.9437 133.346 31.1561 132.511 31.1561H130.706V33.7788H129.867ZM130.706 30.3915H132.543C133.159 30.3915 133.651 30.2429 134.019 29.9456C134.394 29.6412 134.582 29.2377 134.582 28.7351C134.582 28.2183 134.401 27.8219 134.04 27.5458C133.686 27.2627 133.201 27.1211 132.585 27.1211H130.706V30.3915ZM136.896 33.7788V26.0274H137.714V33.7788H136.896ZM141.246 33.8956C140.687 33.8956 140.206 33.7434 139.802 33.439C139.399 33.1346 139.197 32.7099 139.197 32.1648C139.197 31.5914 139.409 31.149 139.834 30.8375C140.259 30.526 140.829 30.3703 141.544 30.3703C142.11 30.3703 142.669 30.4482 143.221 30.6039V30.434C143.221 29.9527 143.08 29.5845 142.797 29.3297C142.513 29.0749 142.113 28.9474 141.597 28.9474C141.059 28.9474 140.503 29.0784 139.93 29.3403L139.685 28.6714C140.365 28.3599 141.03 28.2042 141.682 28.2042C142.46 28.2042 143.051 28.4059 143.455 28.8094C143.837 29.1917 144.028 29.7297 144.028 30.4234V33.7788H143.221V32.9612C142.733 33.5841 142.075 33.8956 141.246 33.8956ZM141.406 33.2373C141.915 33.2373 142.347 33.0992 142.701 32.8232C143.055 32.5471 143.232 32.1931 143.232 31.7613V31.2516C142.694 31.0959 142.16 31.018 141.629 31.018C141.126 31.018 140.733 31.1207 140.45 31.326C140.167 31.5242 140.025 31.7967 140.025 32.1436C140.025 32.4763 140.156 32.7417 140.418 32.94C140.687 33.1382 141.016 33.2373 141.406 33.2373ZM147.597 33.8744C147.123 33.8744 146.744 33.7505 146.461 33.5027C146.185 33.2479 146.047 32.855 146.047 32.3241V29.0112H145.282V28.2891H146.047V26.6326H146.865V28.2891H148.606V29.0112H146.865V32.2179C146.865 32.8267 147.172 33.1311 147.788 33.1311C148.057 33.1311 148.323 33.0674 148.585 32.94V33.6408C148.287 33.7965 147.958 33.8744 147.597 33.8744ZM150.074 27.0892V26.1867H151.009V27.0892H150.074ZM150.128 33.7788V28.2891H150.945V33.7788H150.128ZM152.843 33.7788V28.2891H153.66V29.2448C154.092 28.5298 154.719 28.1723 155.54 28.1723C156.191 28.1723 156.704 28.3741 157.079 28.7776C157.455 29.174 157.642 29.7049 157.642 30.3703V33.7788H156.824V30.5721C156.824 30.0553 156.69 29.6518 156.421 29.3616C156.159 29.0642 155.787 28.9156 155.306 28.9156C154.832 28.9156 154.439 29.0749 154.127 29.3934C153.816 29.712 153.66 30.1261 153.66 30.6358V33.7788H152.843ZM161.403 33.8956C160.752 33.8956 160.239 33.6974 159.864 33.301C159.488 32.8975 159.301 32.363 159.301 31.6976V28.2891H160.118V31.4959C160.118 32.0126 160.249 32.4197 160.511 32.717C160.78 33.0072 161.155 33.1523 161.637 33.1523C162.111 33.1523 162.504 32.993 162.815 32.6745C163.127 32.3559 163.283 31.9418 163.283 31.4321V28.2891H164.09V33.7788H163.283V32.8232C162.837 33.5381 162.21 33.8956 161.403 33.8956ZM165.929 33.7788V28.2891H166.747V29.2129C167.207 28.5192 167.798 28.1723 168.52 28.1723C169.341 28.1723 169.929 28.5369 170.282 29.266C170.757 28.5369 171.401 28.1723 172.215 28.1723C172.845 28.1723 173.341 28.3705 173.702 28.7669C174.07 29.1634 174.254 29.7014 174.254 30.3809V33.7788H173.436V30.5721C173.436 30.0411 173.309 29.6341 173.054 29.3509C172.806 29.0607 172.459 28.9156 172.013 28.9156C171.581 28.9156 171.22 29.0678 170.93 29.3722C170.64 29.6766 170.495 30.0907 170.495 30.6145V33.7788H169.688V30.5508C169.688 30.0411 169.56 29.6412 169.306 29.3509C169.058 29.0607 168.714 28.9156 168.276 28.9156C167.837 28.9156 167.472 29.0784 167.182 29.404C166.892 29.7297 166.747 30.1438 166.747 30.6464V33.7788H165.929ZM181.432 33.8319L178.777 26.3459H179.69L181.814 32.5365L183.852 26.3247H184.543L186.581 32.5365L188.705 26.3459H189.586L186.932 33.8319H186.22L184.182 27.8007L182.132 33.8319H181.432ZM190.837 27.0892V26.1867H191.771V27.0892H190.837ZM190.89 33.7788V28.2891H191.708V33.7788H190.89ZM193.605 33.7788V28.2891H194.423V29.2448C194.855 28.5298 195.481 28.1723 196.302 28.1723C196.953 28.1723 197.467 28.3741 197.842 28.7776C198.217 29.174 198.405 29.7049 198.405 30.3703V33.7788H197.587V30.5721C197.587 30.0553 197.453 29.6518 197.184 29.3616C196.922 29.0642 196.55 28.9156 196.069 28.9156C195.594 28.9156 195.201 29.0749 194.89 29.3934C194.578 29.712 194.423 30.1261 194.423 30.6358V33.7788H193.605ZM200.148 33.7788V28.2891H200.966V29.2448C201.398 28.5298 202.024 28.1723 202.845 28.1723C203.497 28.1723 204.01 28.3741 204.385 28.7776C204.76 29.174 204.948 29.7049 204.948 30.3703V33.7788H204.13V30.5721C204.13 30.0553 203.996 29.6518 203.727 29.3616C203.465 29.0642 203.093 28.9156 202.612 28.9156C202.137 28.9156 201.745 29.0749 201.433 29.3934C201.122 29.712 200.966 30.1261 200.966 30.6358V33.7788H200.148ZM207.18 31.3684C207.237 31.9277 207.445 32.3736 207.806 32.7064C208.174 33.032 208.61 33.1948 209.112 33.1948C209.771 33.1948 210.348 32.9364 210.843 32.4197L211.353 32.8762C210.737 33.5629 209.983 33.9062 209.091 33.9062C208.32 33.9062 207.668 33.6408 207.137 33.1099C206.614 32.5719 206.352 31.8817 206.352 31.0393C206.352 30.2393 206.603 29.5633 207.106 29.0112C207.608 28.4519 208.235 28.1723 208.985 28.1723C209.771 28.1723 210.394 28.4484 210.854 29.0005C211.314 29.5527 211.544 30.2464 211.544 31.0817C211.544 31.1879 211.541 31.2835 211.533 31.3684H207.18ZM207.18 30.7101H210.716C210.666 30.1792 210.489 29.7403 210.185 29.3934C209.888 29.0395 209.481 28.8625 208.964 28.8625C208.497 28.8625 208.097 29.0359 207.764 29.3828C207.431 29.7297 207.237 30.1721 207.18 30.7101ZM212.975 33.7788V28.2891H213.793V29.7226C214.005 29.2483 214.306 28.8696 214.696 28.5864C215.085 28.3033 215.531 28.1723 216.033 28.1935V29.0749H215.97C215.34 29.0749 214.819 29.2943 214.409 29.7332C213.998 30.1721 213.793 30.7915 213.793 31.5914V33.7788H212.975ZM219.094 33.885C218.698 33.885 218.295 33.8142 217.884 33.6726C217.48 33.524 217.127 33.3258 216.822 33.078L217.236 32.494C217.859 32.9612 218.493 33.1948 219.137 33.1948C219.47 33.1948 219.742 33.1134 219.955 32.9506C220.167 32.7878 220.273 32.5719 220.273 32.3029C220.273 32.0551 220.156 31.864 219.923 31.7295C219.696 31.595 219.356 31.464 218.903 31.3366C218.627 31.2587 218.408 31.1879 218.245 31.1242C218.082 31.0605 217.898 30.972 217.693 30.8588C217.488 30.7384 217.335 30.5898 217.236 30.4128C217.137 30.2287 217.088 30.0128 217.088 29.7651C217.088 29.2979 217.261 28.9191 217.608 28.6289C217.962 28.3387 218.411 28.1935 218.956 28.1935C219.664 28.1935 220.323 28.3953 220.931 28.7988L220.56 29.4147C220.015 29.0607 219.473 28.8837 218.935 28.8837C218.617 28.8837 218.358 28.9616 218.16 29.1173C217.969 29.266 217.873 29.4607 217.873 29.7014C217.873 29.8005 217.902 29.8925 217.958 29.9774C218.015 30.0624 218.079 30.1332 218.149 30.1898C218.22 30.2464 218.33 30.3066 218.479 30.3703C218.634 30.434 218.758 30.48 218.85 30.5083C218.942 30.5367 219.087 30.5827 219.286 30.6464C219.548 30.7243 219.763 30.7986 219.933 30.8694C220.103 30.9402 220.284 31.0357 220.475 31.1561C220.666 31.2764 220.808 31.4286 220.9 31.6127C220.999 31.7896 221.048 31.9985 221.048 32.2391C221.048 32.7488 220.864 33.1523 220.496 33.4496C220.128 33.7399 219.661 33.885 219.094 33.885Z" fill="#1E1E1C"/>
<path d="M91.0747 46.4658V39.033H93.8567C94.7061 39.033 95.3822 39.2453 95.8848 39.6701C96.3874 40.0948 96.6387 40.6753 96.6387 41.4115C96.6387 42.1831 96.3591 42.7812 95.7998 43.206C95.2477 43.6307 94.5539 43.8431 93.7186 43.8431H91.9135V46.4658H91.0747ZM91.9135 43.0786H93.7505C94.3664 43.0786 94.8583 42.9299 95.2264 42.6326C95.6016 42.3282 95.7892 41.9247 95.7892 41.4221C95.7892 40.9053 95.6087 40.5089 95.2477 40.2328C94.8937 39.9497 94.4088 39.8081 93.793 39.8081H91.9135V43.0786ZM98.0294 46.4658V40.9761H98.847V42.4096C99.0593 41.9353 99.3602 41.5566 99.7495 41.2734C100.139 40.9903 100.585 40.8593 101.087 40.8806V41.7619H101.024C100.394 41.7619 99.8734 41.9813 99.4628 42.4202C99.0523 42.8591 98.847 43.4785 98.847 44.2784V46.4658H98.0294ZM106.649 45.7544C106.097 46.3136 105.414 46.5932 104.6 46.5932C103.786 46.5932 103.106 46.3136 102.561 45.7544C102.023 45.1952 101.754 44.5191 101.754 43.7263C101.754 42.9405 102.027 42.268 102.572 41.7088C103.124 41.1425 103.807 40.8593 104.621 40.8593C105.435 40.8593 106.115 41.1389 106.66 41.6982C107.205 42.2574 107.478 42.9334 107.478 43.7263C107.478 44.512 107.202 45.1881 106.649 45.7544ZM104.621 45.8606C105.209 45.8606 105.69 45.6553 106.065 45.2447C106.448 44.8341 106.639 44.328 106.639 43.7263C106.639 43.1316 106.441 42.6255 106.044 42.2079C105.655 41.7902 105.174 41.5814 104.6 41.5814C104.013 41.5814 103.531 41.7902 103.156 42.2079C102.781 42.6184 102.593 43.1246 102.593 43.7263C102.593 44.3209 102.788 44.8271 103.177 45.2447C103.567 45.6553 104.048 45.8606 104.621 45.8606ZM111.263 46.5826C110.562 46.5826 109.95 46.3242 109.426 45.8075C108.902 45.2836 108.64 44.5864 108.64 43.7157C108.64 42.8591 108.902 42.1689 109.426 41.6451C109.95 41.1212 110.562 40.8593 111.263 40.8593C112.127 40.8593 112.827 41.2487 113.365 42.0273V38.7144H114.183V46.4658H113.365V45.3615C112.813 46.1756 112.112 46.5826 111.263 46.5826ZM111.412 45.85C111.943 45.85 112.406 45.6482 112.803 45.2447C113.199 44.8412 113.397 44.328 113.397 43.705C113.397 43.0963 113.199 42.5937 112.803 42.1972C112.406 41.7937 111.943 41.592 111.412 41.592C110.86 41.592 110.399 41.7867 110.031 42.176C109.663 42.5583 109.479 43.075 109.479 43.7263C109.479 44.3563 109.667 44.8695 110.042 45.2659C110.417 45.6553 110.874 45.85 111.412 45.85ZM118.028 46.5826C117.376 46.5826 116.863 46.3844 116.488 45.988C116.113 45.5845 115.925 45.05 115.925 44.3846V40.9761H116.743V44.1829C116.743 44.6996 116.874 45.1067 117.136 45.404C117.405 45.6942 117.78 45.8393 118.261 45.8393C118.735 45.8393 119.128 45.6801 119.44 45.3615C119.751 45.043 119.907 44.6288 119.907 44.1192V40.9761H120.714V46.4658H119.907V45.5102C119.461 46.2251 118.835 46.5826 118.028 46.5826ZM125.027 46.5932C124.234 46.5932 123.566 46.3136 123.02 45.7544C122.482 45.1881 122.213 44.512 122.213 43.7263C122.213 42.9405 122.482 42.268 123.02 41.7088C123.566 41.1425 124.234 40.8593 125.027 40.8593C125.877 40.8593 126.609 41.1849 127.225 41.8362L126.705 42.3884C126.195 41.8504 125.633 41.5814 125.017 41.5814C124.465 41.5814 123.997 41.7902 123.615 42.2079C123.24 42.6184 123.052 43.1246 123.052 43.7263C123.052 44.3209 123.243 44.8271 123.626 45.2447C124.015 45.6553 124.496 45.8606 125.07 45.8606C125.657 45.8606 126.21 45.5845 126.726 45.0323L127.268 45.5314C126.631 46.2393 125.884 46.5932 125.027 46.5932ZM130.456 46.5614C129.982 46.5614 129.603 46.4375 129.32 46.1897C129.044 45.9349 128.906 45.542 128.906 45.0111V41.6982H128.142V40.9761H128.906V39.3197H129.724V40.9761H131.465V41.6982H129.724V44.9049C129.724 45.5137 130.032 45.8181 130.648 45.8181C130.917 45.8181 131.182 45.7544 131.444 45.627V46.3278C131.147 46.4835 130.817 46.5614 130.456 46.5614ZM136.234 46.4658V39.033H138.814C139.975 39.033 140.924 39.3869 141.66 40.0948C142.396 40.7956 142.764 41.6805 142.764 42.7494C142.764 43.8112 142.393 44.6961 141.649 45.404C140.913 46.1119 139.968 46.4658 138.814 46.4658H136.234ZM137.073 45.6907H138.814C139.741 45.6907 140.485 45.4146 141.044 44.8624C141.61 44.3032 141.893 43.5989 141.893 42.7494C141.893 41.907 141.61 41.2062 141.044 40.6469C140.478 40.0877 139.734 39.8081 138.814 39.8081H137.073V45.6907ZM144.89 44.0554C144.947 44.6147 145.156 45.0607 145.517 45.3934C145.885 45.719 146.32 45.8818 146.823 45.8818C147.481 45.8818 148.058 45.6234 148.554 45.1067L149.063 45.5633C148.447 46.2499 147.694 46.5932 146.802 46.5932C146.03 46.5932 145.379 46.3278 144.848 45.7969C144.324 45.2589 144.062 44.5687 144.062 43.7263C144.062 42.9264 144.313 42.2503 144.816 41.6982C145.319 41.1389 145.945 40.8593 146.695 40.8593C147.481 40.8593 148.104 41.1354 148.564 41.6875C149.024 42.2397 149.254 42.9334 149.254 43.7688C149.254 43.8749 149.251 43.9705 149.244 44.0554H144.89ZM144.89 43.3971H148.426C148.377 42.8662 148.2 42.4273 147.895 42.0804C147.598 41.7265 147.191 41.5495 146.674 41.5495C146.207 41.5495 145.807 41.7229 145.474 42.0698C145.142 42.4167 144.947 42.8591 144.89 43.3971ZM152.501 46.572C152.105 46.572 151.702 46.5012 151.291 46.3596C150.887 46.211 150.534 46.0128 150.229 45.765L150.643 45.181C151.266 45.6482 151.9 45.8818 152.544 45.8818C152.877 45.8818 153.149 45.8004 153.362 45.6376C153.574 45.4748 153.68 45.2589 153.68 44.9899C153.68 44.7421 153.563 44.551 153.33 44.4165C153.103 44.282 152.763 44.151 152.31 44.0236C152.034 43.9457 151.815 43.8749 151.652 43.8112C151.489 43.7475 151.305 43.659 151.1 43.5458C150.895 43.4254 150.742 43.2768 150.643 43.0998C150.544 42.9157 150.495 42.6998 150.495 42.4521C150.495 41.9849 150.668 41.6061 151.015 41.3159C151.369 41.0257 151.818 40.8806 152.363 40.8806C153.071 40.8806 153.73 41.0823 154.338 41.4858L153.967 42.1017C153.422 41.7477 152.88 41.5707 152.342 41.5707C152.024 41.5707 151.765 41.6486 151.567 41.8044C151.376 41.953 151.28 42.1477 151.28 42.3884C151.28 42.4875 151.309 42.5795 151.365 42.6644C151.422 42.7494 151.486 42.8202 151.556 42.8768C151.627 42.9334 151.737 42.9936 151.886 43.0573C152.041 43.121 152.165 43.167 152.257 43.1954C152.349 43.2237 152.494 43.2697 152.693 43.3334C152.955 43.4113 153.17 43.4856 153.34 43.5564C153.51 43.6272 153.691 43.7227 153.882 43.8431C154.073 43.9634 154.215 44.1156 154.307 44.2997C154.406 44.4766 154.455 44.6855 154.455 44.9262C154.455 45.4358 154.271 45.8393 153.903 46.1367C153.535 46.4269 153.068 46.572 152.501 46.572ZM155.995 39.7762V38.8737H156.93V39.7762H155.995ZM156.049 46.4658V40.9761H156.866V46.4658H156.049ZM161.195 48.186C160.268 48.186 159.436 47.9312 158.7 47.4215L159.072 46.7844C159.716 47.2516 160.42 47.4852 161.185 47.4852C161.8 47.4852 162.285 47.3153 162.639 46.9755C163 46.6428 163.181 46.1614 163.181 45.5314V44.8837C162.6 45.6553 161.882 46.0411 161.025 46.0411C160.332 46.0411 159.726 45.8039 159.21 45.3297C158.7 44.8483 158.445 44.2218 158.445 43.4502C158.445 42.6786 158.703 42.0557 159.22 41.5814C159.737 41.1 160.339 40.8593 161.025 40.8593C161.903 40.8593 162.618 41.2274 163.17 41.9636V40.9761H163.988V45.5102C163.988 46.3384 163.754 46.9861 163.287 47.4533C162.799 47.9418 162.101 48.186 161.195 48.186ZM161.185 45.319C161.723 45.319 162.193 45.1421 162.597 44.7881C163 44.4342 163.202 43.9847 163.202 43.4396C163.202 42.8945 163 42.4485 162.597 42.1017C162.2 41.7548 161.73 41.5814 161.185 41.5814C160.647 41.5814 160.194 41.7548 159.825 42.1017C159.464 42.4415 159.284 42.891 159.284 43.4502C159.284 43.9882 159.468 44.4342 159.836 44.7881C160.211 45.1421 160.661 45.319 161.185 45.319ZM165.815 46.4658V40.9761H166.632V41.9318C167.064 41.2168 167.691 40.8593 168.512 40.8593C169.163 40.8593 169.676 41.0611 170.052 41.4646C170.427 41.861 170.614 42.3919 170.614 43.0573V46.4658H169.797V43.2591C169.797 42.7423 169.662 42.3388 169.393 42.0486C169.131 41.7513 168.76 41.6026 168.278 41.6026C167.804 41.6026 167.411 41.7619 167.1 42.0804C166.788 42.399 166.632 42.8131 166.632 43.3228V46.4658H165.815Z" fill="#1E1E1C"/>
<path d="M71.2538 25.6457C70.444 24.6033 69.9635 23.3431 69.8736 22.0261C69.7838 20.7092 70.0887 19.3954 70.7494 18.2527C69.1356 17.4992 67.3803 17.0966 65.5995 17.0714C62.8757 17.0178 60.2046 17.8261 57.9675 19.3809L57.7949 19.0889C57.1784 17.9295 56.4398 16.8394 55.5917 15.837C53.6864 13.5486 51.3112 11.6969 48.6271 10.4075C45.943 9.11815 43.0129 8.42132 40.0358 8.36431C37.7902 8.28271 35.5468 8.57883 33.3993 9.24032C28.1144 10.7526 23.6313 14.2733 20.9094 19.049C20.8664 19.0997 20.8266 19.1529 20.79 19.2083C18.9403 17.9894 16.81 17.2631 14.601 17.0982C12.392 16.9333 10.1775 17.3352 8.16736 18.2659C8.80633 19.4108 9.10325 20.7151 9.02285 22.0237C8.94244 23.3324 8.4881 24.5904 7.71378 25.6485C6.93946 26.7066 5.87766 27.5201 4.65461 27.9925C3.43156 28.4649 2.0986 28.5764 0.814082 28.3136C0.456977 30.9805 0.940903 33.6924 2.19841 36.0712C3.45592 38.45 5.4244 40.3771 7.8293 41.5839C10.2342 42.7908 12.9557 43.2171 15.6145 42.8036C18.2732 42.3901 20.7367 41.1573 22.6614 39.2771L22.5022 38.9585C20.9283 35.9355 20.0572 32.5962 19.9538 29.1896C19.8942 27.8594 19.9563 26.5266 20.1395 25.2077C20.2749 24.1493 20.506 23.1053 20.8298 22.0886C22.0213 18.4585 24.2669 15.2656 27.2804 12.9169C30.2504 10.5466 33.8494 9.09777 37.6333 8.74923C40.2666 8.50594 42.9219 8.79938 45.4385 9.61182C47.9551 10.4243 50.2807 11.7388 52.2746 13.4759C54.2686 15.213 55.8894 17.3366 57.039 19.7181C58.1887 22.0996 58.8431 24.6896 58.963 27.3314C59.0424 28.9016 58.9623 30.4759 58.7241 32.03C58.3669 34.4795 57.6043 36.8524 56.4677 39.0514L56.3217 39.3567C57.85 40.8318 59.7178 41.908 61.7605 42.4904C63.8031 43.0728 65.9577 43.1435 68.0341 42.6962C70.1105 42.2489 72.0449 41.2974 73.6666 39.9257C75.2883 38.5539 76.5474 36.8041 77.3328 34.8306C78.1788 32.7599 78.4538 30.5002 78.1292 28.287C76.8504 28.575 75.5151 28.4778 74.2915 28.0077C73.0679 27.5376 72.0108 26.7158 71.2538 25.6457Z" fill="black"/>
<path d="M47.7218 29.346C47.6554 27.7931 47.6156 26.2269 47.5359 24.674C47.4692 23.1111 47.2962 21.5545 47.0183 20.0151C46.5829 23.093 46.3655 26.1977 46.3679 29.3062C45.0515 29.4358 43.8225 30.0239 42.8957 30.9677C41.9689 31.9114 41.4033 33.1509 41.2976 34.4694C41.2054 35.648 41.4938 36.8251 42.1205 37.8275C42.5739 38.5692 43.1938 39.1952 43.931 39.656C44.6682 40.1167 45.5025 40.3995 46.3679 40.4821C46.4005 41.833 46.6194 43.1729 47.0183 44.464C47.2633 43.8338 47.4197 43.1727 47.4829 42.4995C47.5625 41.8226 47.6155 41.1723 47.6819 40.4555C49.0117 40.2597 50.2268 39.5922 51.1054 38.5749C51.9839 37.5576 52.4673 36.2582 52.4673 34.914C52.4673 33.5699 51.9839 32.2705 51.1054 31.2532C50.2268 30.2358 49.0117 29.5684 47.6819 29.3726L47.7218 29.346ZM51.332 34.0181C51.332 34.3101 51.332 34.6021 51.332 34.7614C51.3782 35.9613 51.0688 37.148 50.4427 38.1726C50.0363 38.8412 49.4419 39.3754 48.7337 39.7082C48.0255 40.041 47.235 40.1579 46.4608 40.0441C45.6546 39.9982 44.8814 39.7084 44.2437 39.2129C43.606 38.7175 43.134 38.0399 42.8904 37.27C42.5602 36.4172 42.4098 35.5055 42.4486 34.5918C42.4874 33.6782 42.7146 32.7825 43.116 31.9608C43.4978 31.1755 44.1219 30.5336 44.8961 30.1297C45.6704 29.7259 46.554 29.5814 47.4165 29.7177C48.3013 29.8191 49.1316 30.1969 49.7893 30.7974C50.447 31.3979 50.8985 32.1905 51.0798 33.0625C51.1851 33.375 51.2693 33.6943 51.332 34.0181Z" fill="black"/>
<path d="M36.7702 39.3295C35.6942 37.9574 34.509 36.6746 33.2263 35.4936L32.9475 35.2281L33.2263 34.883C34.0662 33.8886 34.8547 32.8519 35.5889 31.7771C35.841 31.379 36.0799 30.9675 36.3189 30.5693C36.362 30.5216 36.3921 30.4635 36.406 30.4006C36.42 30.3378 36.4174 30.2725 36.3985 30.2109C36.2775 30.2664 36.162 30.3331 36.0535 30.41C35.8411 30.556 35.642 30.7153 35.4429 30.8746C34.2628 31.8469 33.1497 32.8979 32.1113 34.0203L31.8592 34.2725L31.5937 34.0601C30.5505 33.1774 29.4558 32.3575 28.3153 31.6046C27.8773 31.3259 27.426 31.087 26.988 30.8348C26.9356 30.7901 26.8735 30.7585 26.8066 30.7423C26.7397 30.7262 26.67 30.726 26.603 30.7419C26.6184 30.9374 26.7032 31.1209 26.842 31.2595C27.4346 32.0681 28.0867 32.8312 28.7931 33.5425L30.7575 35.5069L30.5849 35.7325C29.8416 36.6616 29.0851 37.5907 28.3684 38.5464C27.9038 39.1569 27.5056 39.8737 27.0411 40.4842C26.9712 40.6086 26.9091 40.7371 26.8552 40.8691C26.9553 40.8212 27.0528 40.768 27.1473 40.7099L27.864 40.1657C29.1542 39.0767 30.3734 37.9063 31.514 36.6616L31.7529 36.4227L32.0317 36.6483C33.1421 37.6068 34.3125 38.4934 35.5358 39.3029C35.9207 39.5684 36.3321 39.8073 36.7436 40.0462C36.8709 40.1086 37.0043 40.1575 37.1418 40.1922C37.1076 40.097 37.0678 40.0039 37.0224 39.9135C37.0091 39.7277 36.9162 39.5418 36.7702 39.3295Z" fill="black"/>
</svg>
