<svg width="15" height="14" viewBox="0 0 15 14" fill="none" xmlns="http://www.w3.org/2000/svg">
<g clip-path="url(#clip0_104_84541)">
<path d="M5.40132 0.0273781C5.23725 0.0738621 5.02925 0.226987 4.9355 0.36644L4.84761 0.500424L4.83882 1.24964L4.83003 1.99613H2.77046C0.400341 1.99613 0.50288 1.98792 0.247997 2.22308C-0.0801281 2.52933 -0.0830578 2.97777 0.242138 3.27582C0.464794 3.47816 0.567333 3.50003 1.35835 3.50003H2.04097L3.12495 4.68128C3.71968 5.33207 4.28804 5.95277 4.38765 6.05941L4.56636 6.25082L3.16011 7.78207C2.38667 8.62152 1.72456 9.3598 1.6894 9.41996C1.6396 9.50746 1.62495 9.57582 1.62495 9.74808C1.62495 9.99144 1.68061 10.1227 1.84761 10.2785C2.00874 10.4317 2.15522 10.4864 2.40132 10.4864C2.79975 10.4864 2.7353 10.541 4.25874 8.88675C4.99702 8.08285 5.60932 7.42113 5.62104 7.41839C5.62983 7.41566 5.73237 7.51683 5.8437 7.64535C6.15132 7.99261 6.33296 8.09378 6.64643 8.09378C7.21479 8.09378 7.6103 7.49769 7.35249 7.02464C7.32026 6.96722 7.1562 6.77035 6.98921 6.58714L6.68452 6.25082L6.75776 6.16878C6.79878 6.1223 7.36714 5.5016 8.02046 4.79066L9.20698 3.50003H9.8896C10.6865 3.50003 10.7919 3.47816 11.0087 3.27308C11.331 2.96683 11.3251 2.52933 10.9999 2.22308C10.7451 1.98792 10.8476 1.99613 8.47456 1.99613H6.41499V1.27699C6.41499 0.492222 6.4062 0.451206 6.22456 0.251596C6.05464 0.0629244 5.6562 -0.0464506 5.40132 0.0273781ZM6.94819 3.65589C6.86909 3.74339 6.54389 4.09613 6.22749 4.44339C5.90815 4.78792 5.63862 5.0723 5.62397 5.0723C5.60932 5.0723 5.33979 4.78792 5.02046 4.44339C4.70405 4.09613 4.37886 3.74339 4.29975 3.65589L4.15327 3.50003H5.62397H7.09468L6.94819 3.65589Z" fill="#898A8D"/>
<path d="M10.335 5.04492C9.83691 5.15977 9.35645 5.52617 9.15137 5.94727C9.11621 6.02109 8.50391 7.66719 7.79492 9.60313C6.84277 12.198 6.50293 13.1578 6.50293 13.248C6.50293 13.5406 6.72852 13.8441 7.02441 13.9453C7.33496 14.0547 7.62793 13.9945 7.86523 13.7703C8.0293 13.6172 7.9707 13.7539 8.55664 12.1598L8.79395 11.5117H10.751H12.7051L13.0801 12.5289C13.2852 13.0895 13.4785 13.5898 13.5107 13.6363C13.6455 13.8469 13.9355 14 14.1963 14C14.6475 14 15.043 13.5898 14.9902 13.1824C14.9697 13.032 12.4238 6.09219 12.3154 5.88984C12.0957 5.48516 11.6387 5.15156 11.1582 5.04492C10.9297 4.9957 10.5576 4.9957 10.335 5.04492ZM10.8623 6.54336C10.8975 6.58164 12.1279 9.92031 12.1279 9.97227C12.1279 9.99961 11.835 10.0078 10.7363 10.0078H9.34766L9.66699 9.13828C9.83984 8.6625 10.124 7.89141 10.2939 7.42656C10.4639 6.96172 10.6191 6.56523 10.6367 6.54609C10.6777 6.49688 10.8213 6.49688 10.8623 6.54336Z" fill="#898A8D"/>
</g>
<defs>
<clipPath id="clip0_104_84541">
<rect width="15" height="14" fill="white"/>
</clipPath>
</defs>
</svg>
