<svg width="159" height="59" viewBox="0 0 159 59" fill="none" xmlns="http://www.w3.org/2000/svg">
<path d="M59.6474 11.7035L57.1096 4.21753H58.8616L60.4013 9.25064L62.0683 4.19629H63.47L65.1371 9.25064L66.6767 4.21753H68.3863L65.8485 11.7035H64.4256L62.7479 6.84027L61.0702 11.7035H59.6474ZM69.4276 11.6504V3.89897H71.0416V6.76594C71.5159 6.15715 72.0716 5.85276 72.7087 5.85276C73.3175 5.85276 73.7918 6.04035 74.1316 6.41553C74.4714 6.79071 74.6413 7.30747 74.6413 7.96581V11.6504H73.0273V8.4755C73.0273 8.10031 72.9423 7.81362 72.7724 7.61541C72.6025 7.4172 72.3618 7.31809 72.0504 7.31809C71.7389 7.31809 71.4911 7.4172 71.3071 7.61541C71.1301 7.81362 71.0416 8.10031 71.0416 8.4755V11.6504H69.4276ZM76.0752 5.33246V3.89897H77.7742V5.33246H76.0752ZM76.1177 11.6504V5.95894H77.7317V11.6504H76.1177ZM81.1695 11.746C80.6386 11.746 80.228 11.6185 79.9378 11.3637C79.6546 11.1018 79.513 10.6593 79.513 10.0364V7.33933H78.8334V5.95894H79.513V4.50422H81.127V5.95894H82.4649V7.33933H81.127V9.77094C81.127 10.139 81.3004 10.3231 81.6473 10.3231C81.9305 10.3231 82.1959 10.2558 82.4437 10.1213V11.4168C82.0756 11.6362 81.6509 11.746 81.1695 11.746ZM86.1961 11.7778C85.3325 11.7778 84.6211 11.5053 84.0618 10.9602C83.5026 10.408 83.223 9.69307 83.223 8.81528C83.223 7.98705 83.4884 7.28624 84.0194 6.71284C84.5503 6.13945 85.2228 5.85276 86.0369 5.85276C86.9359 5.85276 87.6225 6.15007 88.0968 6.7447C88.5711 7.33933 88.8082 8.072 88.8082 8.9427C88.8082 9.02765 88.8012 9.16923 88.787 9.36744H84.8264C84.9042 9.72846 85.0635 10.0045 85.3042 10.1957C85.5449 10.3868 85.8493 10.4824 86.2174 10.4824C86.72 10.4824 87.1801 10.2877 87.5978 9.89836L88.5216 10.716C87.9482 11.4239 87.173 11.7778 86.1961 11.7778ZM84.8051 8.35869H87.2367C87.1872 7.99059 87.0562 7.69681 86.8438 7.47737C86.6386 7.25792 86.3696 7.1482 86.0369 7.1482C85.7112 7.1482 85.4387 7.25792 85.2192 7.47737C85.0069 7.68974 84.8688 7.98351 84.8051 8.35869ZM93.3644 11.6504V4.21753H94.9997V10.1638H98.7055V11.6504H93.3644ZM101.383 11.7566C100.824 11.7566 100.356 11.6008 99.9812 11.2894C99.6131 10.9779 99.429 10.5461 99.429 9.99392C99.429 9.39222 99.6343 8.93916 100.045 8.63477C100.463 8.33038 101.022 8.17818 101.723 8.17818C102.197 8.17818 102.661 8.25605 103.114 8.41179V8.31622C103.114 7.62249 102.707 7.27562 101.892 7.27562C101.404 7.27562 100.88 7.37826 100.321 7.58355L99.9175 6.35182C100.611 6.04743 101.347 5.89523 102.126 5.89523C102.983 5.89523 103.623 6.1076 104.048 6.53233C104.459 6.94291 104.664 7.54816 104.664 8.34807V11.6504H103.103V11.0345C102.671 11.5159 102.098 11.7566 101.383 11.7566ZM101.871 10.6416C102.246 10.6416 102.551 10.5496 102.784 10.3656C103.018 10.1744 103.135 9.93375 103.135 9.64352V9.35682C102.83 9.21524 102.487 9.14445 102.105 9.14445C101.751 9.14445 101.475 9.21524 101.277 9.35682C101.085 9.49132 100.99 9.68953 100.99 9.95145C100.99 10.1638 101.071 10.3337 101.234 10.4611C101.397 10.5815 101.609 10.6416 101.871 10.6416ZM109.44 11.7566C108.732 11.7566 108.141 11.4734 107.667 10.9071V11.6504H106.053V3.89897H107.667V6.77655C108.12 6.16069 108.711 5.85276 109.44 5.85276C110.148 5.85276 110.757 6.11822 111.266 6.64913C111.776 7.18005 112.031 7.9021 112.031 8.81528C112.031 9.72139 111.776 10.4399 111.266 10.9708C110.764 11.4947 110.155 11.7566 109.44 11.7566ZM108.038 9.95145C108.307 10.2417 108.637 10.3868 109.026 10.3868C109.415 10.3868 109.744 10.2417 110.013 9.95145C110.282 9.65414 110.417 9.26833 110.417 8.79405C110.417 8.33392 110.282 7.95873 110.013 7.6685C109.744 7.37118 109.415 7.22253 109.026 7.22253C108.637 7.22253 108.307 7.37118 108.038 7.6685C107.776 7.95873 107.645 8.341 107.645 8.81528C107.645 9.27541 107.776 9.65414 108.038 9.95145ZM115.915 11.7778C115.052 11.7778 114.34 11.5053 113.781 10.9602C113.222 10.408 112.942 9.69307 112.942 8.81528C112.942 7.98705 113.207 7.28624 113.738 6.71284C114.269 6.13945 114.942 5.85276 115.756 5.85276C116.655 5.85276 117.342 6.15007 117.816 6.7447C118.29 7.33933 118.527 8.072 118.527 8.9427C118.527 9.02765 118.52 9.16923 118.506 9.36744H114.545C114.623 9.72846 114.783 10.0045 115.023 10.1957C115.264 10.3868 115.568 10.4824 115.936 10.4824C116.439 10.4824 116.899 10.2877 117.317 9.89836L118.241 10.716C117.667 11.4239 116.892 11.7778 115.915 11.7778ZM114.524 8.35869H116.956C116.906 7.99059 116.775 7.69681 116.563 7.47737C116.358 7.25792 116.089 7.1482 115.756 7.1482C115.43 7.1482 115.158 7.25792 114.938 7.47737C114.726 7.68974 114.588 7.98351 114.524 8.35869ZM119.804 11.6504V3.89897H121.418V11.6504H119.804ZM128.252 11.7035L125.714 4.21753H127.466L129.006 9.25064L130.673 4.19629H132.075L133.742 9.25064L135.281 4.21753H136.991L134.453 11.7035H133.03L131.353 6.84027L129.675 11.7035H128.252ZM142.328 10.9177C141.741 11.4911 141.008 11.7778 140.13 11.7778C139.252 11.7778 138.52 11.4947 137.932 10.9283C137.352 10.3549 137.061 9.6506 137.061 8.81528C137.061 7.98705 137.355 7.28624 137.943 6.71284C138.537 6.13945 139.274 5.85276 140.151 5.85276C141.029 5.85276 141.758 6.13945 142.339 6.71284C142.926 7.27916 143.22 7.97997 143.22 8.81528C143.22 9.64352 142.923 10.3443 142.328 10.9177ZM140.151 10.3868C140.597 10.3868 140.955 10.2381 141.224 9.94083C141.493 9.63644 141.627 9.26126 141.627 8.81528C141.627 8.38347 141.486 8.01537 141.203 7.71097C140.927 7.3995 140.569 7.24376 140.13 7.24376C139.684 7.24376 139.327 7.39596 139.058 7.70035C138.789 7.99767 138.654 8.36931 138.654 8.81528C138.654 9.2471 138.792 9.61874 139.068 9.93021C139.352 10.2346 139.713 10.3868 140.151 10.3868ZM144.389 11.6504V5.95894H146.003V7.10572C146.371 6.23502 146.976 5.81736 147.819 5.85276V7.54108H147.734C147.181 7.54108 146.753 7.71097 146.449 8.05076C146.151 8.38347 146.003 8.88253 146.003 9.54795V11.6504H144.389ZM148.901 11.6504V3.89897H150.515V11.6504H148.901ZM154.367 11.7566C153.659 11.7566 153.051 11.4911 152.541 10.9602C152.031 10.4293 151.776 9.70723 151.776 8.79405C151.776 7.88794 152.028 7.17297 152.53 6.64913C153.04 6.11822 153.652 5.85276 154.367 5.85276C155.075 5.85276 155.666 6.13591 156.14 6.70223V3.89897H157.754V11.6504H156.14V10.8328C155.687 11.4486 155.096 11.7566 154.367 11.7566ZM153.794 9.95145C154.063 10.2417 154.392 10.3868 154.781 10.3868C155.171 10.3868 155.496 10.2417 155.758 9.95145C156.027 9.65414 156.162 9.26833 156.162 8.79405C156.162 8.33392 156.027 7.95873 155.758 7.6685C155.496 7.37118 155.171 7.22253 154.781 7.22253C154.392 7.22253 154.063 7.37118 153.794 7.6685C153.525 7.95873 153.39 8.341 153.39 8.81528C153.39 9.27541 153.525 9.65414 153.794 9.95145Z" fill="#1E1E1C"/>
<path d="M57.683 24.3403V16.9075H63.2895V18.3622H59.3076V19.87H62.8116V21.3247H59.3076V22.8856H63.3426V24.3403H57.683ZM64.1487 24.3403L66.145 21.4521L64.2231 18.6489H65.9538L67.0157 20.3053L68.0881 18.6489H69.7765L67.8545 21.4203L69.8614 24.3403H68.1306L66.9838 22.5671L65.837 24.3403H64.1487ZM70.8275 26.0393V18.6489H72.4415V19.4665C72.8946 18.8506 73.4857 18.5427 74.2148 18.5427C74.9227 18.5427 75.5315 18.8082 76.0411 19.3391C76.5508 19.87 76.8057 20.592 76.8057 21.5052C76.8057 22.4113 76.5508 23.1298 76.0411 23.6608C75.5385 24.1846 74.9298 24.4465 74.2148 24.4465C73.5069 24.4465 72.9158 24.1634 72.4415 23.597V26.0393H70.8275ZM72.8132 22.6414C73.0822 22.9316 73.4113 23.0767 73.8007 23.0767C74.19 23.0767 74.5192 22.9316 74.7882 22.6414C75.0572 22.3441 75.1917 21.9583 75.1917 21.484C75.1917 21.0239 75.0572 20.6487 74.7882 20.3584C74.5192 20.0611 74.19 19.9125 73.8007 19.9125C73.4113 19.9125 73.0822 20.0611 72.8132 20.3584C72.5512 20.6487 72.4203 21.0309 72.4203 21.5052C72.4203 21.9654 72.5512 22.3441 72.8132 22.6414ZM82.9835 23.6077C82.3959 24.1811 81.6633 24.4678 80.7855 24.4678C79.9077 24.4678 79.175 24.1846 78.5875 23.6183C78.007 23.0449 77.7168 22.3405 77.7168 21.5052C77.7168 20.677 78.0105 19.9762 78.5981 19.4028C79.1927 18.8294 79.9289 18.5427 80.8067 18.5427C81.6845 18.5427 82.4136 18.8294 82.9941 19.4028C83.5817 19.9691 83.8754 20.6699 83.8754 21.5052C83.8754 22.3335 83.5781 23.0343 82.9835 23.6077ZM80.8067 23.0767C81.2527 23.0767 81.6102 22.9281 81.8792 22.6308C82.1482 22.3264 82.2827 21.9512 82.2827 21.5052C82.2827 21.0734 82.1411 20.7053 81.8579 20.4009C81.5819 20.0894 81.2244 19.9337 80.7855 19.9337C80.3395 19.9337 79.982 20.0859 79.713 20.3903C79.444 20.6876 79.3095 21.0593 79.3095 21.5052C79.3095 21.937 79.4476 22.3087 79.7236 22.6202C80.0068 22.9245 80.3678 23.0767 80.8067 23.0767ZM87.7603 24.3403L90.9459 16.8544H92.4537L95.6392 24.3403H93.9296L93.25 22.6732H90.107L89.4274 24.3403H87.7603ZM90.691 21.2291H92.666L91.6785 18.8188L90.691 21.2291ZM97.3206 24.3828L95.5686 18.6489H97.2038L98.117 22.0999L99.1895 18.6276H100.58L101.664 22.1105L102.598 18.6489H104.201L102.428 24.3828H100.973L99.8797 20.8894L98.7647 24.3828H97.3206ZM106.588 24.4465C106.029 24.4465 105.562 24.2908 105.187 23.9793C104.819 23.6678 104.635 23.236 104.635 22.6839C104.635 22.0822 104.84 21.6291 105.25 21.3247C105.668 21.0203 106.227 20.8681 106.928 20.8681C107.402 20.8681 107.866 20.946 108.319 21.1017V21.0062C108.319 20.3124 107.912 19.9656 107.098 19.9656C106.61 19.9656 106.086 20.0682 105.526 20.2735L105.123 19.0418C105.817 18.7374 106.553 18.5852 107.332 18.5852C108.188 18.5852 108.829 18.7975 109.254 19.2223C109.664 19.6329 109.869 20.2381 109.869 21.038V24.3403H108.308V23.7245C107.877 24.2058 107.303 24.4465 106.588 24.4465ZM107.077 23.3316C107.452 23.3316 107.756 23.2396 107.99 23.0555C108.224 22.8644 108.34 22.6237 108.34 22.3335V22.0468C108.036 21.9052 107.693 21.8344 107.31 21.8344C106.956 21.8344 106.68 21.9052 106.482 22.0468C106.291 22.1813 106.195 22.3795 106.195 22.6414C106.195 22.8538 106.277 23.0237 106.44 23.1511C106.602 23.2714 106.815 23.3316 107.077 23.3316ZM111.258 24.3403V18.6489H112.872V19.7957C113.24 18.925 113.846 18.5073 114.688 18.5427V20.231H114.603C114.051 20.231 113.623 20.4009 113.318 20.7407C113.021 21.0734 112.872 21.5725 112.872 22.2379V24.3403H111.258ZM117.929 24.4465C117.221 24.4465 116.612 24.1811 116.102 23.6501C115.593 23.1192 115.338 22.3972 115.338 21.484C115.338 20.5779 115.589 19.8629 116.092 19.3391C116.601 18.8082 117.214 18.5427 117.929 18.5427C118.637 18.5427 119.228 18.8259 119.702 19.3922V16.5889H121.316V24.3403H119.702V23.5227C119.249 24.1386 118.658 24.4465 117.929 24.4465ZM117.355 22.6414C117.624 22.9316 117.954 23.0767 118.343 23.0767C118.732 23.0767 119.058 22.9316 119.32 22.6414C119.589 22.3441 119.723 21.9583 119.723 21.484C119.723 21.0239 119.589 20.6487 119.32 20.3584C119.058 20.0611 118.732 19.9125 118.343 19.9125C117.954 19.9125 117.624 20.0611 117.355 20.3584C117.086 20.6487 116.952 21.0309 116.952 21.5052C116.952 21.9654 117.086 22.3441 117.355 22.6414ZM125.74 24.3403V23.0449L128.214 21.0168C128.702 20.6133 129.038 20.2912 129.223 20.0505C129.407 19.8027 129.499 19.5302 129.499 19.2329C129.499 18.9285 129.407 18.6914 129.223 18.5215C129.038 18.3516 128.798 18.2666 128.5 18.2666C128.224 18.2666 127.973 18.3445 127.747 18.5002C127.527 18.6489 127.272 18.9037 126.982 19.2647L125.835 18.3409C126.225 17.81 126.625 17.4207 127.035 17.1729C127.453 16.9252 127.977 16.8013 128.607 16.8013C129.378 16.8013 129.998 17.0137 130.465 17.4384C130.932 17.856 131.166 18.4153 131.166 19.1161C131.166 19.5196 131.088 19.8842 130.932 20.2098C130.776 20.5283 130.575 20.8115 130.327 21.0593C130.079 21.2999 129.707 21.6114 129.212 21.9937L128.001 22.9281H131.24V24.3403H125.74ZM138.089 23.3741C137.474 24.1032 136.677 24.4678 135.7 24.4678C134.723 24.4678 133.931 24.1032 133.322 23.3741C132.713 22.6449 132.409 21.7282 132.409 20.6239C132.409 19.5267 132.716 18.6135 133.332 17.8844C133.948 17.1482 134.745 16.78 135.721 16.78C136.691 16.78 137.481 17.1446 138.089 17.8737C138.705 18.6029 139.013 19.5196 139.013 20.6239C139.013 21.7211 138.705 22.6379 138.089 23.3741ZM134.532 22.3228C134.837 22.7688 135.233 22.9918 135.721 22.9918C136.21 22.9918 136.599 22.7724 136.89 22.3335C137.187 21.8875 137.335 21.3176 137.335 20.6239C137.335 19.9443 137.183 19.3815 136.879 18.9356C136.574 18.4825 136.182 18.256 135.7 18.256C135.219 18.256 134.83 18.479 134.532 18.925C134.235 19.3639 134.086 19.9302 134.086 20.6239C134.086 21.3106 134.235 21.8769 134.532 22.3228ZM140.008 24.3403V23.0449L142.482 21.0168C142.971 20.6133 143.307 20.2912 143.491 20.0505C143.675 19.8027 143.767 19.5302 143.767 19.2329C143.767 18.9285 143.675 18.6914 143.491 18.5215C143.307 18.3516 143.066 18.2666 142.769 18.2666C142.493 18.2666 142.242 18.3445 142.015 18.5002C141.796 18.6489 141.541 18.9037 141.251 19.2647L140.104 18.3409C140.493 17.81 140.893 17.4207 141.304 17.1729C141.721 16.9252 142.245 16.8013 142.875 16.8013C143.647 16.8013 144.266 17.0137 144.733 17.4384C145.201 17.856 145.434 18.4153 145.434 19.1161C145.434 19.5196 145.356 19.8842 145.201 20.2098C145.045 20.5283 144.843 20.8115 144.595 21.0593C144.348 21.2999 143.976 21.6114 143.48 21.9937L142.27 22.9281H145.508V24.3403H140.008ZM149.406 24.4678C148.195 24.4678 147.229 24.0395 146.507 23.1829L147.633 22.1105C148.164 22.7051 148.762 23.0024 149.427 23.0024C149.739 23.0024 149.99 22.921 150.181 22.7582C150.379 22.5883 150.478 22.3618 150.478 22.0786C150.478 21.7742 150.351 21.5406 150.096 21.3778C149.841 21.215 149.484 21.1336 149.024 21.1336H148.344L148.089 20.093L149.863 18.3091H146.942V16.9075H151.965V18.1392L150.085 19.9337C151.416 20.1602 152.082 20.861 152.082 22.0361C152.082 22.7511 151.838 23.3351 151.349 23.7882C150.868 24.2412 150.22 24.4678 149.406 24.4678Z" fill="#1E1E1C"/>
<path d="M57.9166 37.0156V29.5828H58.7554V37.0156H57.9166ZM60.7943 37.0156V31.5259H61.6119V32.4816C62.0437 31.7666 62.6702 31.4091 63.4914 31.4091C64.1426 31.4091 64.6559 31.6109 65.031 32.0144C65.4062 32.4108 65.5938 32.9417 65.5938 33.6071V37.0156H64.7762V33.8089C64.7762 33.2921 64.6417 32.8886 64.3727 32.5984C64.1108 32.3011 63.7391 32.1524 63.2578 32.1524C62.7835 32.1524 62.3906 32.3117 62.0791 32.6302C61.7677 32.9488 61.6119 33.3629 61.6119 33.8726V37.0156H60.7943ZM67.3375 37.0156V31.5259H68.1551V32.4816C68.5869 31.7666 69.2134 31.4091 70.0345 31.4091C70.6858 31.4091 71.199 31.6109 71.5742 32.0144C71.9494 32.4108 72.137 32.9417 72.137 33.6071V37.0156H71.3194V33.8089C71.3194 33.2921 71.1849 32.8886 70.9159 32.5984C70.6539 32.3011 70.2823 32.1524 69.8009 32.1524C69.3266 32.1524 68.9338 32.3117 68.6223 32.6302C68.3108 32.9488 68.1551 33.3629 68.1551 33.8726V37.0156H67.3375ZM78.4359 36.3042C77.8838 36.8634 77.2006 37.143 76.3866 37.143C75.5725 37.143 74.8929 36.8634 74.3478 36.3042C73.8098 35.745 73.5408 35.0689 73.5408 34.2761C73.5408 33.4903 73.8134 32.8178 74.3585 32.2586C74.9106 31.6923 75.5937 31.4091 76.4078 31.4091C77.2219 31.4091 77.9015 31.6887 78.4465 32.248C78.9916 32.8072 79.2642 33.4832 79.2642 34.2761C79.2642 35.0618 78.9881 35.7379 78.4359 36.3042ZM76.4078 36.4104C76.9954 36.4104 77.4767 36.2051 77.8519 35.7945C78.2342 35.3839 78.4253 34.8778 78.4253 34.2761C78.4253 33.6815 78.2271 33.1753 77.8307 32.7577C77.4413 32.34 76.96 32.1312 76.3866 32.1312C75.799 32.1312 75.3177 32.34 74.9425 32.7577C74.5673 33.1682 74.3797 33.6744 74.3797 34.2761C74.3797 34.8707 74.5744 35.3769 74.9637 35.7945C75.353 36.2051 75.8344 36.4104 76.4078 36.4104ZM82.2608 37.0581L79.8823 31.5259H80.7848L82.6324 36.0812L84.4906 31.5259H85.372L82.9828 37.0581H82.2608ZM88.0215 37.1324C87.4623 37.1324 86.9809 36.9802 86.5774 36.6758C86.1739 36.3714 85.9721 35.9467 85.9721 35.4016C85.9721 34.8282 86.1845 34.3858 86.6092 34.0743C87.034 33.7629 87.6038 33.6071 88.3188 33.6071C88.8851 33.6071 89.4444 33.685 89.9965 33.8407V33.6708C89.9965 33.1895 89.8549 32.8214 89.5718 32.5665C89.2886 32.3117 88.8887 32.1843 88.3719 32.1843C87.8339 32.1843 87.2782 32.3152 86.7048 32.5771L86.4606 31.9082C87.1402 31.5967 87.8056 31.441 88.4568 31.441C89.2355 31.441 89.8266 31.6427 90.2301 32.0462C90.6124 32.4285 90.8035 32.9665 90.8035 33.6602V37.0156H89.9965V36.198C89.5081 36.821 88.8497 37.1324 88.0215 37.1324ZM88.1808 36.4741C88.6905 36.4741 89.1223 36.336 89.4762 36.06C89.8302 35.7839 90.0071 35.4299 90.0071 34.9981V34.4885C89.4691 34.3327 88.9347 34.2548 88.4038 34.2548C87.9012 34.2548 87.5083 34.3575 87.2251 34.5628C86.942 34.761 86.8004 35.0335 86.8004 35.3804C86.8004 35.7131 86.9313 35.9786 87.1933 36.1768C87.4623 36.375 87.7914 36.4741 88.1808 36.4741ZM94.3724 37.1112C93.8981 37.1112 93.5194 36.9873 93.2362 36.7395C92.9601 36.4847 92.8221 36.0918 92.8221 35.5609V32.248H92.0576V31.5259H92.8221V29.8695H93.6397V31.5259H95.3811V32.248H93.6397V35.4547C93.6397 36.0635 93.9476 36.3679 94.5635 36.3679C94.8325 36.3679 95.0979 36.3042 95.3599 36.1768V36.8776C95.0626 37.0333 94.7334 37.1112 94.3724 37.1112ZM96.8496 30.326V29.4235H97.784V30.326H96.8496ZM96.9027 37.0156V31.5259H97.7203V37.0156H96.9027ZM101.455 37.0581L99.0762 31.5259H99.9788L101.826 36.0812L103.685 31.5259H104.566L102.177 37.0581H101.455ZM106.017 34.6053C106.073 35.1645 106.282 35.6105 106.643 35.9432C107.011 36.2688 107.447 36.4316 107.949 36.4316C108.608 36.4316 109.185 36.1732 109.68 35.6565L110.19 36.1131C109.574 36.7997 108.82 37.143 107.928 37.143C107.157 37.143 106.505 36.8776 105.974 36.3467C105.451 35.8087 105.189 35.1185 105.189 34.2761C105.189 33.4762 105.44 32.8001 105.942 32.248C106.445 31.6887 107.072 31.4091 107.822 31.4091C108.608 31.4091 109.231 31.6852 109.691 32.2374C110.151 32.7895 110.381 33.4832 110.381 34.3186C110.381 34.4247 110.377 34.5203 110.37 34.6053H106.017ZM106.017 33.9469H109.553C109.503 33.416 109.326 32.9771 109.022 32.6302C108.725 32.2763 108.317 32.0993 107.801 32.0993C107.334 32.0993 106.934 32.2727 106.601 32.6196C106.268 32.9665 106.073 33.4089 106.017 33.9469ZM115.134 37.0156V29.5828H117.916C118.765 29.5828 119.441 29.7951 119.944 30.2199C120.447 30.6446 120.698 31.2251 120.698 31.9613C120.698 32.7329 120.418 33.331 119.859 33.7558C119.307 34.1805 118.613 34.3929 117.778 34.3929H115.973V37.0156H115.134ZM115.973 33.6284H117.81C118.425 33.6284 118.917 33.4797 119.286 33.1824C119.661 32.878 119.848 32.4745 119.848 31.9719C119.848 31.4551 119.668 31.0587 119.307 30.7826C118.953 30.4995 118.468 30.3579 117.852 30.3579H115.973V33.6284ZM122.088 37.0156V31.5259H122.906V32.9594C123.118 32.4851 123.419 32.1064 123.809 31.8232C124.198 31.5401 124.644 31.4091 125.147 31.4304V32.3117H125.083C124.453 32.3117 123.933 32.5311 123.522 32.97C123.111 33.4089 122.906 34.0283 122.906 34.8282V37.0156H122.088ZM130.709 36.3042C130.156 36.8634 129.473 37.143 128.659 37.143C127.845 37.143 127.166 36.8634 126.621 36.3042C126.083 35.745 125.814 35.0689 125.814 34.2761C125.814 33.4903 126.086 32.8178 126.631 32.2586C127.183 31.6923 127.866 31.4091 128.681 31.4091C129.495 31.4091 130.174 31.6887 130.719 32.248C131.264 32.8072 131.537 33.4832 131.537 34.2761C131.537 35.0618 131.261 35.7379 130.709 36.3042ZM128.681 36.4104C129.268 36.4104 129.749 36.2051 130.125 35.7945C130.507 35.3839 130.698 34.8778 130.698 34.2761C130.698 33.6815 130.5 33.1753 130.103 32.7577C129.714 32.34 129.233 32.1312 128.659 32.1312C128.072 32.1312 127.59 32.34 127.215 32.7577C126.84 33.1682 126.652 33.6744 126.652 34.2761C126.652 34.8707 126.847 35.3769 127.236 35.7945C127.626 36.2051 128.107 36.4104 128.681 36.4104ZM135.322 37.1324C134.621 37.1324 134.009 36.874 133.485 36.3573C132.961 35.8334 132.699 35.1362 132.699 34.2655C132.699 33.4089 132.961 32.7187 133.485 32.1949C134.009 31.671 134.621 31.4091 135.322 31.4091C136.186 31.4091 136.887 31.7985 137.425 32.5771V29.2642H138.242V37.0156H137.425V35.9113C136.872 36.7254 136.172 37.1324 135.322 37.1324ZM135.471 36.3998C136.002 36.3998 136.465 36.198 136.862 35.7945C137.258 35.391 137.456 34.8778 137.456 34.2548C137.456 33.6461 137.258 33.1435 136.862 32.747C136.465 32.3435 136.002 32.1418 135.471 32.1418C134.919 32.1418 134.459 32.3365 134.09 32.7258C133.722 33.1081 133.538 33.6248 133.538 34.2761C133.538 34.9061 133.726 35.4193 134.101 35.8157C134.476 36.2051 134.933 36.3998 135.471 36.3998ZM142.087 37.1324C141.435 37.1324 140.922 36.9342 140.547 36.5378C140.172 36.1343 139.984 35.5998 139.984 34.9344V31.5259H140.802V34.7327C140.802 35.2494 140.933 35.6565 141.195 35.9538C141.464 36.244 141.839 36.3891 142.32 36.3891C142.795 36.3891 143.187 36.2299 143.499 35.9113C143.81 35.5928 143.966 35.1786 143.966 34.669V31.5259H144.773V37.0156H143.966V36.06C143.52 36.7749 142.894 37.1324 142.087 37.1324ZM149.086 37.143C148.294 37.143 147.625 36.8634 147.08 36.3042C146.542 35.7379 146.273 35.0618 146.273 34.2761C146.273 33.4903 146.542 32.8178 147.08 32.2586C147.625 31.6923 148.294 31.4091 149.086 31.4091C149.936 31.4091 150.669 31.7348 151.284 32.386L150.764 32.9382C150.254 32.4002 149.692 32.1312 149.076 32.1312C148.524 32.1312 148.056 32.34 147.674 32.7577C147.299 33.1682 147.111 33.6744 147.111 34.2761C147.111 34.8707 147.303 35.3769 147.685 35.7945C148.074 36.2051 148.556 36.4104 149.129 36.4104C149.716 36.4104 150.269 36.1343 150.785 35.5821L151.327 36.0812C150.69 36.7891 149.943 37.143 149.086 37.143ZM154.516 37.1112C154.041 37.1112 153.663 36.9873 153.379 36.7395C153.103 36.4847 152.965 36.0918 152.965 35.5609V32.248H152.201V31.5259H152.965V29.8695H153.783V31.5259H155.524V32.248H153.783V35.4547C153.783 36.0635 154.091 36.3679 154.707 36.3679C154.976 36.3679 155.241 36.3042 155.503 36.1768V36.8776C155.206 37.0333 154.877 37.1112 154.516 37.1112Z" fill="#1E1E1C"/>
<path d="M62.2595 48.9917C61.7073 49.5509 61.0242 49.8305 60.2101 49.8305C59.3961 49.8305 58.7165 49.5509 58.1714 48.9917C57.6334 48.4325 57.3644 47.7564 57.3644 46.9636C57.3644 46.1778 57.6369 45.5053 58.182 44.9461C58.7342 44.3798 59.4173 44.0966 60.2314 44.0966C61.0454 44.0966 61.725 44.3762 62.2701 44.9355C62.8152 45.4947 63.0877 46.1707 63.0877 46.9636C63.0877 47.7493 62.8116 48.4254 62.2595 48.9917ZM60.2314 49.0979C60.8189 49.0979 61.3003 48.8926 61.6755 48.482C62.0577 48.0714 62.2489 47.5653 62.2489 46.9636C62.2489 46.369 62.0507 45.8628 61.6542 45.4452C61.2649 45.0275 60.7835 44.8187 60.2101 44.8187C59.6226 44.8187 59.1412 45.0275 58.766 45.4452C58.3909 45.8557 58.2033 46.3619 58.2033 46.9636C58.2033 47.5582 58.3979 48.0644 58.7873 48.482C59.1766 48.8926 59.658 49.0979 60.2314 49.0979ZM64.8767 49.7031V44.9355H64.1228V44.224H64.8767V43.7462C64.8767 43.1233 65.036 42.6525 65.3546 42.334C65.6377 42.0508 66.0306 41.9092 66.5332 41.9092C66.8801 41.9092 67.1809 41.9552 67.4358 42.0473V42.7587C67.1101 42.6667 66.8447 42.6207 66.6394 42.6207C66.0023 42.6207 65.6837 43.01 65.6837 43.7887V44.2347H67.4252V44.9355H65.6944V49.7031H64.8767ZM73.4882 49.7987C73.0139 49.7987 72.6352 49.6748 72.352 49.427C72.0759 49.1722 71.9379 48.7793 71.9379 48.2484V44.9355H71.1734V44.2134H71.9379V42.557H72.7555V44.2134H74.4969V44.9355H72.7555V48.1422C72.7555 48.751 73.0634 49.0554 73.6793 49.0554C73.9483 49.0554 74.2138 48.9917 74.4757 48.8643V49.5651C74.1784 49.7208 73.8492 49.7987 73.4882 49.7987ZM75.9442 49.7031V41.9517H76.7618V45.1691C77.1936 44.4541 77.8201 44.0966 78.6412 44.0966C79.2925 44.0966 79.8057 44.2984 80.1809 44.7019C80.5561 45.0983 80.7437 45.6292 80.7437 46.2946V49.7031H79.9261V46.4964C79.9261 45.9796 79.7916 45.5761 79.5226 45.2859C79.2606 44.9886 78.889 44.8399 78.4076 44.8399C77.9333 44.8399 77.5405 44.9992 77.229 45.3177C76.9175 45.6363 76.7618 46.0504 76.7618 46.5601V49.7031H75.9442ZM82.9758 47.2928C83.0324 47.852 83.2412 48.298 83.6023 48.6307C83.9704 48.9563 84.4057 49.1191 84.9083 49.1191C85.5667 49.1191 86.1436 48.8607 86.6391 48.344L87.1488 48.8006C86.5329 49.4872 85.779 49.8305 84.8871 49.8305C84.1155 49.8305 83.4642 49.5651 82.9333 49.0342C82.4095 48.4962 82.1475 47.806 82.1475 46.9636C82.1475 46.1637 82.3988 45.4876 82.9014 44.9355C83.404 44.3762 84.0305 44.0966 84.7809 44.0966C85.5667 44.0966 86.1896 44.3727 86.6497 44.9249C87.1099 45.477 87.3399 46.1707 87.3399 47.0061C87.3399 47.1122 87.3364 47.2078 87.3293 47.2928H82.9758ZM82.9758 46.6344H86.5117C86.4621 46.1035 86.2852 45.6646 85.9808 45.3177C85.6835 44.9638 85.2764 44.7868 84.7597 44.7868C84.2925 44.7868 83.8925 44.9602 83.5598 45.3071C83.2271 45.654 83.0324 46.0964 82.9758 46.6344ZM94.4182 49.7031V46.7618L91.3282 42.2703H92.3476L94.8535 45.9867L97.3807 42.2703H98.3576L95.2676 46.7512V49.7031H94.4182ZM98.8722 47.2928C98.9289 47.852 99.1377 48.298 99.4987 48.6307C99.8668 48.9563 100.302 49.1191 100.805 49.1191C101.463 49.1191 102.04 48.8607 102.536 48.344L103.045 48.8006C102.429 49.4872 101.675 49.8305 100.784 49.8305C100.012 49.8305 99.3607 49.5651 98.8298 49.0342C98.3059 48.4962 98.044 47.806 98.044 46.9636C98.044 46.1637 98.2953 45.4876 98.7979 44.9355C99.3005 44.3762 99.927 44.0966 100.677 44.0966C101.463 44.0966 102.086 44.3727 102.546 44.9249C103.006 45.477 103.236 46.1707 103.236 47.0061C103.236 47.1122 103.233 47.2078 103.226 47.2928H98.8722ZM98.8722 46.6344H102.408C102.359 46.1035 102.182 45.6646 101.877 45.3177C101.58 44.9638 101.173 44.7868 100.656 44.7868C100.189 44.7868 99.789 44.9602 99.4562 45.3071C99.1235 45.654 98.9289 46.0964 98.8722 46.6344ZM106.303 49.8199C105.744 49.8199 105.262 49.6677 104.859 49.3633C104.455 49.0589 104.254 48.6342 104.254 48.0891C104.254 47.5157 104.466 47.0733 104.891 46.7618C105.315 46.4504 105.885 46.2946 106.6 46.2946C107.167 46.2946 107.726 46.3725 108.278 46.5282V46.3583C108.278 45.877 108.136 45.5089 107.853 45.254C107.57 44.9992 107.17 44.8718 106.653 44.8718C106.115 44.8718 105.56 45.0027 104.986 45.2646L104.742 44.5957C105.422 44.2842 106.087 44.1285 106.738 44.1285C107.517 44.1285 108.108 44.3302 108.512 44.7337C108.894 45.116 109.085 45.654 109.085 46.3477V49.7031H108.278V48.8855C107.79 49.5085 107.131 49.8199 106.303 49.8199ZM106.462 49.1616C106.972 49.1616 107.404 49.0235 107.758 48.7475C108.112 48.4714 108.289 48.1174 108.289 47.6856V47.176C107.751 47.0202 107.216 46.9423 106.685 46.9423C106.183 46.9423 105.79 47.045 105.507 47.2503C105.223 47.4485 105.082 47.721 105.082 48.0679C105.082 48.4006 105.213 48.6661 105.475 48.8643C105.744 49.0625 106.073 49.1616 106.462 49.1616ZM110.817 49.7031V44.2134H111.634V45.6469C111.847 45.1726 112.148 44.7939 112.537 44.5107C112.926 44.2276 113.372 44.0966 113.875 44.1179V44.9992H113.811C113.181 44.9992 112.661 45.2186 112.25 45.6575C111.84 46.0964 111.634 46.7158 111.634 47.5157V49.7031H110.817Z" fill="#1E1E1C"/>
<g opacity="0.3">
<path d="M10.0421 50.2118L0.458984 34.5365V31.6828L8.40952 13.3794L11.6083 10.738L30.509 0.624023L37.7693 33.4614L37.2251 37.5494L29.2746 50.1322L26.7926 50.6764H12.9754L10.0421 50.2118Z" fill="url(#paint0_linear_1056_4772)"/>
</g>
<path d="M39.0851 57.8962L38.8064 56.622L37.0676 55.7328L35.5412 51.804L31.6788 49.375H29.7542L29.2764 50.1316L26.5687 50.6758H19.7729H12.9772L10.0438 50.2112L9.52621 49.375H7.8538L3.99136 51.804L2.46498 55.7328L0.726223 56.622L0.460748 57.8962H0.195312V58.4006H19.7729H39.3506V57.8962H39.0851Z" fill="#2E2D2C"/>
<path d="M35.5559 51.805C25.3888 51.9909 14.0802 51.9909 3.91309 51.805C14.0802 51.6192 25.3888 51.6059 35.5559 51.805Z" fill="#3C3C3B"/>
<path d="M2.51855 55.745C13.628 55.5459 25.9852 55.5459 37.1212 55.745C25.9852 55.9308 13.628 55.9308 2.51855 55.745Z" fill="#3C3C3B"/>
<path d="M0.739258 56.6352C12.9637 56.4361 26.5685 56.4361 38.8194 56.6352C26.5685 56.821 12.9769 56.821 0.739258 56.6352Z" fill="#3C3C3B"/>
<path d="M39.0853 57.9101C26.675 58.0959 12.8844 58.0959 0.460938 57.9101C12.8844 57.711 26.675 57.711 39.0853 57.9101Z" fill="#3C3C3B"/>
<path d="M12.9793 50.8212L10.0592 50.3567C10.0425 50.364 10.0244 50.3678 10.0062 50.3678C9.98791 50.3678 9.96982 50.364 9.95307 50.3567L4.75005 40.2692L0.396517 34.6946C0.383703 34.6724 0.376953 34.6472 0.376953 34.6216C0.376953 34.5959 0.383703 34.5708 0.396517 34.5486L0.993817 32.9558L0.409803 31.8143C0.396678 31.7947 0.389672 31.7716 0.389672 31.748C0.389672 31.7243 0.396678 31.7012 0.409803 31.6816L4.05987 24.8195L8.34706 13.3914L8.4134 13.3118L10.9618 11.8518L11.5591 10.7369C11.5648 10.7181 11.5751 10.701 11.5889 10.6871C11.6028 10.6732 11.6199 10.6629 11.6387 10.6572L14.373 9.88738L30.4996 0.596303C30.5193 0.583178 30.5424 0.576172 30.566 0.576172C30.5896 0.576172 30.6127 0.583178 30.6323 0.596303C30.6546 0.602395 30.6748 0.614159 30.6911 0.63045C30.7074 0.64674 30.7192 0.666995 30.7253 0.689214L37.9856 33.5133L37.4414 37.6146L33.048 43.0566L29.4113 50.2107C29.3945 50.218 29.3764 50.2218 29.3582 50.2218C29.3399 50.2218 29.3218 50.218 29.3051 50.2107L26.8363 50.7549H12.9793V50.8212ZM4.94914 40.0436L13.0058 50.5027H26.6903L32.7693 42.8707L37.5741 33.4204L28.4423 6.03822L14.373 10.0201L11.068 11.9181L4.21914 24.8062L1.20619 32.77L4.94914 40.0436ZM10.1389 50.0912L12.6342 50.4761L5.69246 41.4903L10.1389 50.0912ZM32.1455 44.198L27.1681 50.4496L29.1723 50.0116L32.1455 44.198ZM37.521 34.2831L33.7117 41.7425L37.0963 37.4952L37.521 34.2831ZM0.635421 34.5088L3.98024 38.8092L1.11327 33.3009L0.635421 34.5088ZM0.635421 31.6816L1.07345 32.5311L3.19714 26.8635L0.635421 31.6816ZM28.5751 5.73295C28.6073 5.73379 28.6385 5.74439 28.6645 5.76335C28.6906 5.78231 28.7103 5.80873 28.721 5.83912L37.0299 30.7525L30.3934 0.861759L15.4481 9.48919L28.522 5.74621L28.5751 5.73295ZM8.54614 13.4711L5.05534 22.7622L10.63 12.2632L8.54614 13.4711ZM11.7184 10.8165L11.3733 11.4669L13.258 10.3785L11.7184 10.8165Z" fill="#DADADA"/>
<path d="M10.0487 50.3584C10.0281 50.3689 10.0054 50.3743 9.9823 50.3743C9.95923 50.3743 9.93651 50.3689 9.91596 50.3584L0.346113 34.6299C0.340358 34.6036 0.340358 34.5765 0.346113 34.5502V31.6966L8.3099 13.3798L11.4954 10.7253L30.3961 0.505067C30.4191 0.487836 30.4471 0.478516 30.4758 0.478516C30.5045 0.478516 30.5324 0.487836 30.5554 0.505067C30.5726 0.528042 30.582 0.555983 30.582 0.584702C30.582 0.613421 30.5726 0.641372 30.5554 0.664347L28.6441 5.86735L35.3868 26.1086L37.2848 37.5101C37.2981 37.5443 37.2981 37.5822 37.2848 37.6163L29.321 50.2124C29.294 50.2375 29.2584 50.2515 29.2215 50.2515C29.1845 50.2515 29.149 50.2375 29.1219 50.2124C29.1078 50.1999 29.0965 50.1846 29.0888 50.1674C29.081 50.1503 29.077 50.1316 29.077 50.1128C29.077 50.094 29.081 50.0754 29.0888 50.0582C29.0965 50.041 29.1078 50.0257 29.1219 50.0133L37.0857 37.4703L35.201 26.1352L28.445 5.88062C28.4317 5.84648 28.4317 5.80858 28.445 5.77444L30.2502 0.889985L11.668 10.8049L8.53555 13.4595L0.571772 31.6966V34.4839L10.1283 50.1327C10.1535 50.1597 10.1675 50.1953 10.1675 50.2323C10.1675 50.2692 10.1535 50.3048 10.1283 50.3318L10.0487 50.3584Z" fill="#DADADA"/>
<path d="M17.1224 35.8237C16.7334 35.6823 16.3041 35.7007 15.9286 35.8748C15.553 36.0489 15.2616 36.3645 15.1182 36.7528C15.3107 36.8247 15.5155 36.8576 15.7209 36.8497C15.9262 36.8418 16.1279 36.7933 16.3143 36.7068C16.5007 36.6204 16.6681 36.4979 16.8069 36.3463C16.9456 36.1947 17.0528 36.0171 17.1224 35.8237Z" fill="#DADADA"/>
<path d="M17.121 35.8231C16.7327 35.6796 16.417 35.3882 16.2429 35.0127C16.0688 34.6371 16.0505 34.2079 16.1919 33.8188C16.5802 33.9623 16.8959 34.2537 17.07 34.6292C17.2441 35.0048 17.2624 35.434 17.121 35.8231Z" fill="#DADADA"/>
<path d="M15.6178 35.3199C15.2534 35.1213 14.8251 35.0754 14.4269 35.1924C14.0287 35.3094 13.6932 35.5796 13.4941 35.9437C13.8585 36.1423 14.2869 36.1882 14.6851 36.0712C15.0832 35.9542 15.4187 35.684 15.6178 35.3199Z" fill="#DADADA"/>
<path d="M15.6196 35.3194C15.4398 35.2221 15.2809 35.0902 15.1522 34.9314C15.0234 34.7725 14.9273 34.5898 14.8694 34.3938C14.8114 34.1977 14.7927 33.9921 14.8144 33.7888C14.8361 33.5855 14.8977 33.3884 14.9958 33.209C15.1756 33.3063 15.3345 33.4381 15.4632 33.597C15.592 33.7558 15.6881 33.9385 15.746 34.1346C15.804 34.3307 15.8227 34.5363 15.801 34.7396C15.7793 34.9429 15.7176 35.1399 15.6196 35.3194Z" fill="#DADADA"/>
<path d="M14.1747 34.47C14.0243 34.355 13.8525 34.2709 13.6694 34.2226C13.4863 34.1744 13.2954 34.1629 13.1079 34.1888C12.9203 34.2147 12.7397 34.2775 12.5765 34.3736C12.4133 34.4697 12.2708 34.5972 12.1572 34.7487C12.4623 34.9776 12.8455 35.0767 13.2233 35.0245C13.6011 34.9723 13.9431 34.773 14.1747 34.47Z" fill="#DADADA"/>
<path d="M14.1711 34.4691C14.0196 34.3555 13.8921 34.213 13.796 34.0499C13.6999 33.8867 13.6371 33.7061 13.6111 33.5185C13.5852 33.3309 13.5967 33.1401 13.645 32.957C13.6933 32.7738 13.7774 32.6021 13.8924 32.4517C14.0439 32.5653 14.1714 32.7078 14.2675 32.8709C14.3636 33.0341 14.4264 33.2147 14.4523 33.4023C14.4782 33.5899 14.4667 33.7808 14.4185 33.9639C14.3702 34.147 14.2861 34.3187 14.1711 34.4691Z" fill="#DADADA"/>
<path d="M13.0317 33.5401C12.9039 33.4012 12.7498 33.2888 12.5784 33.2095C12.407 33.1303 12.2216 33.0856 12.0329 33.0782C11.8442 33.0708 11.6559 33.1008 11.4788 33.1664C11.3017 33.232 11.1393 33.332 11.001 33.4605C11.261 33.7381 11.6199 33.902 12 33.917C12.3801 33.9319 12.7507 33.7965 13.0317 33.5401Z" fill="#DADADA"/>
<path d="M13.0334 33.5411C12.7763 33.2579 12.6405 32.8851 12.6554 32.5028C12.6703 32.1206 12.8346 31.7594 13.113 31.4971C13.3702 31.7803 13.5059 32.1531 13.491 32.5354C13.4761 32.9176 13.3118 33.2788 13.0334 33.5411Z" fill="#DADADA"/>
<path d="M11.9326 32.1879C11.7466 31.8919 11.4513 31.6812 11.1108 31.6017C10.7703 31.5222 10.4122 31.5802 10.1143 31.7632C10.3003 32.0592 10.5956 32.2699 10.9361 32.3494C11.2766 32.4289 11.6347 32.3709 11.9326 32.1879Z" fill="#DADADA"/>
<path d="M11.9288 32.1871C11.8361 32.0391 11.7736 31.8742 11.7447 31.7019C11.7159 31.5296 11.7214 31.3533 11.7609 31.1831C11.8003 31.013 11.873 30.8523 11.9747 30.7102C12.0764 30.5682 12.2051 30.4476 12.3535 30.3555C12.4462 30.5035 12.5087 30.6684 12.5375 30.8407C12.5663 31.013 12.5609 31.1893 12.5214 31.3595C12.4819 31.5296 12.4093 31.6904 12.3076 31.8324C12.2059 31.9744 12.0771 32.095 11.9288 32.1871Z" fill="#DADADA"/>
<path d="M11.0923 30.7407C11.0293 30.5774 10.9346 30.4283 10.8137 30.3018C10.6927 30.1753 10.5479 30.074 10.3877 30.0037C10.2274 29.9334 10.0548 29.8956 9.87981 29.8923C9.70484 29.8891 9.53095 29.9204 9.36816 29.9847C9.4312 30.148 9.52589 30.2971 9.64684 30.4236C9.76778 30.5501 9.91256 30.6514 10.0728 30.7217C10.2331 30.7919 10.4057 30.8298 10.5807 30.8331C10.7557 30.8363 10.9295 30.8049 11.0923 30.7407Z" fill="#DADADA"/>
<path d="M11.0948 30.7397C10.9684 30.4142 10.9755 30.052 11.1146 29.7317C11.2536 29.4113 11.5134 29.1588 11.8375 29.0288C11.9638 29.3543 11.9567 29.7166 11.8177 30.0369C11.6786 30.3572 11.4189 30.6097 11.0948 30.7397Z" fill="#DADADA"/>
<path d="M10.5618 29.3195C10.4743 28.9809 10.2565 28.6906 9.95596 28.5117C9.6554 28.3329 9.29639 28.28 8.95703 28.3646C9.04458 28.7032 9.26231 28.9935 9.56286 29.1723C9.86342 29.3512 10.2225 29.4041 10.5618 29.3195Z" fill="#DADADA"/>
<path d="M10.5611 29.3182C10.4769 28.977 10.5316 28.6164 10.7131 28.3155C10.8946 28.0146 11.1882 27.798 11.5293 27.7134C11.6134 28.0546 11.5587 28.4152 11.3772 28.7161C11.1956 29.017 10.9021 29.2335 10.5611 29.3182Z" fill="#DADADA"/>
<path d="M10.2833 27.8068C10.2833 27.455 10.1436 27.1177 9.89484 26.8689C9.64611 26.6202 9.30879 26.4805 8.95703 26.4805C8.95703 26.8322 9.09674 27.1696 9.34547 27.4183C9.5942 27.667 9.93157 27.8068 10.2833 27.8068Z" fill="#DADADA"/>
<path d="M10.2842 27.8068C10.2842 27.455 10.4239 27.1177 10.6726 26.8689C10.9213 26.6202 11.2587 26.4805 11.6105 26.4805C11.6105 26.8322 11.4707 27.1696 11.222 27.4183C10.9733 27.667 10.6359 27.8068 10.2842 27.8068Z" fill="#DADADA"/>
<path d="M10.2402 26.1855C10.3022 25.8409 10.2255 25.4858 10.0267 25.1976C9.82796 24.9094 9.52329 24.7115 9.17918 24.647C9.11717 24.9915 9.19392 25.3466 9.39268 25.6348C9.59145 25.9231 9.89612 26.121 10.2402 26.1855Z" fill="#DADADA"/>
<path d="M10.2441 26.1862C10.2746 26.0146 10.3385 25.8506 10.4323 25.7038C10.5261 25.5569 10.6479 25.43 10.7908 25.3302C10.9336 25.2304 11.0948 25.1598 11.265 25.1223C11.4352 25.0849 11.6111 25.0813 11.7826 25.1119C11.7522 25.2835 11.6883 25.4474 11.5945 25.5942C11.5007 25.7411 11.3789 25.8681 11.236 25.9678C11.0931 26.0676 10.932 26.1382 10.7618 26.1757C10.5916 26.2132 10.4157 26.2167 10.2441 26.1862Z" fill="#DADADA"/>
<path d="M10.5758 24.634C10.6852 24.3016 10.6588 23.9394 10.5023 23.6263C10.3457 23.3133 10.0719 23.0748 9.74027 22.9629C9.63089 23.2953 9.65734 23.6575 9.81386 23.9706C9.97037 24.2836 10.2443 24.5221 10.5758 24.634Z" fill="#DADADA"/>
<path d="M10.5752 24.6342C10.6844 24.3002 10.9218 24.0232 11.2351 23.864C11.5485 23.7049 11.9121 23.6766 12.2463 23.7854C12.137 24.1194 11.8997 24.3964 11.5864 24.5555C11.2731 24.7147 10.9094 24.743 10.5752 24.6342Z" fill="#DADADA"/>
<path d="M11.0932 23.134C11.1702 22.9772 11.2155 22.8068 11.2265 22.6324C11.2374 22.458 11.2139 22.2832 11.1572 22.118C11.1005 21.9527 11.0117 21.8003 10.8959 21.6695C10.7801 21.5386 10.6397 21.4319 10.4826 21.3555C10.4056 21.5123 10.3603 21.6828 10.3493 21.8571C10.3383 22.0315 10.3619 22.2063 10.4186 22.3715C10.4753 22.5368 10.5641 22.6892 10.6799 22.82C10.7956 22.9509 10.9361 23.0576 11.0932 23.134Z" fill="#DADADA"/>
<path d="M11.0938 23.1331C11.2552 22.8228 11.5326 22.5888 11.8657 22.4819C12.1987 22.3751 12.5605 22.404 12.8723 22.5624C12.7109 22.8727 12.4335 23.1067 12.1004 23.2136C11.7674 23.3204 11.4056 23.2915 11.0938 23.1331Z" fill="#DADADA"/>
<path d="M11.9441 21.6867C12.1441 21.4272 12.2339 21.0996 12.1942 20.7744C12.1545 20.4493 11.9884 20.1529 11.7319 19.9492C11.532 20.2086 11.4421 20.5363 11.4819 20.8614C11.5216 21.1866 11.6876 21.483 11.9441 21.6867Z" fill="#DADADA"/>
<path d="M11.9443 21.6878C12.148 21.4313 12.4444 21.2652 12.7695 21.2255C13.0947 21.1858 13.4224 21.2756 13.6818 21.4756C13.582 21.6041 13.4577 21.7115 13.3162 21.7918C13.1747 21.8721 13.0187 21.9235 12.8572 21.9433C12.6957 21.963 12.5319 21.9506 12.3752 21.9067C12.2186 21.8629 12.0721 21.7885 11.9443 21.6878Z" fill="#DADADA"/>
<path d="M13.045 20.3871C13.2748 20.1892 13.4185 19.9096 13.4457 19.6076C13.473 19.3056 13.3816 19.0049 13.1909 18.769C12.9582 18.965 12.8123 19.245 12.7849 19.548C12.7576 19.8511 12.8511 20.1527 13.045 20.3871Z" fill="#DADADA"/>
<path d="M13.043 20.3853C13.1572 20.288 13.2898 20.2145 13.4328 20.1691C13.5759 20.1236 13.7266 20.1073 13.8761 20.1208C14.0255 20.1344 14.1708 20.1777 14.3033 20.2482C14.4358 20.3187 14.553 20.4149 14.6478 20.5312C14.4142 20.7211 14.1155 20.8121 13.8157 20.7848C13.5159 20.7576 13.2386 20.6142 13.043 20.3853Z" fill="#DADADA"/>
<path d="M14.3474 19.3383C14.4808 19.2696 14.5993 19.1753 14.6962 19.0608C14.793 18.9463 14.8664 18.8138 14.912 18.6709C14.9575 18.5279 14.9745 18.3774 14.9618 18.228C14.9492 18.0785 14.9071 17.933 14.8382 17.7998C14.7048 17.8685 14.5863 17.9628 14.4894 18.0773C14.3926 18.1918 14.3192 18.3244 14.2737 18.4673C14.2281 18.6102 14.2111 18.7607 14.2238 18.9101C14.2365 19.0596 14.2785 19.2051 14.3474 19.3383Z" fill="#DADADA"/>
<path d="M14.3457 19.3382C14.4789 19.2692 14.6244 19.2272 14.7739 19.2145C14.9234 19.2019 15.0738 19.2188 15.2167 19.2644C15.3596 19.31 15.4922 19.3833 15.6067 19.4802C15.7212 19.577 15.8155 19.6955 15.8842 19.8289C15.751 19.8979 15.6055 19.9399 15.456 19.9525C15.3066 19.9652 15.156 19.9482 15.0131 19.9027C14.8702 19.8571 14.7377 19.7838 14.6232 19.6869C14.5087 19.59 14.4144 19.4715 14.3457 19.3382Z" fill="#DADADA"/>
<path d="M15.7931 18.5553C15.9287 18.5065 16.0533 18.4312 16.1596 18.3339C16.2658 18.2366 16.3517 18.1191 16.4121 17.9883C16.4726 17.8575 16.5065 17.716 16.5118 17.5719C16.5171 17.4279 16.4937 17.2843 16.443 17.1494C16.3074 17.1982 16.1829 17.2734 16.0766 17.3708C15.9704 17.4681 15.8845 17.5856 15.824 17.7164C15.7636 17.8472 15.7297 17.9887 15.7244 18.1327C15.7191 18.2768 15.7424 18.4204 15.7931 18.5553Z" fill="#DADADA"/>
<path d="M15.792 18.5562C16.0648 18.4563 16.3659 18.4669 16.631 18.5859C16.8962 18.7048 17.1043 18.9226 17.2111 19.1928C16.9385 19.2963 16.636 19.2874 16.3699 19.168C16.1038 19.0487 15.896 18.8286 15.792 18.5562Z" fill="#DADADA"/>
<path d="M16.751 18.171C16.8041 18.0812 16.8747 18.003 16.9585 17.9409C17.0422 17.8788 17.1376 17.8341 17.2389 17.8094C17.3402 17.7847 17.4455 17.7805 17.5485 17.797C17.6514 17.8136 17.7501 17.8505 17.8385 17.9057C17.7854 17.9955 17.7149 18.0737 17.6311 18.1358C17.5473 18.1979 17.4519 18.2426 17.3506 18.2673C17.2493 18.292 17.144 18.2962 17.0411 18.2797C16.9381 18.2631 16.8395 18.2262 16.751 18.171Z" fill="#DADADA"/>
<path d="M18.5268 36.209C16.3655 36.0076 14.3429 35.0558 12.8101 33.5188C11.2773 31.9819 10.331 29.9567 10.1354 27.7949C9.93991 25.633 10.5075 23.4709 11.7397 21.6839C12.9719 19.8968 14.7909 18.5976 16.881 18.0117L16.9606 18.2904C14.9355 18.8573 13.1728 20.1154 11.9787 21.8464C10.7845 23.5774 10.2343 25.6719 10.4235 27.7664C10.6128 29.8608 11.5296 31.8228 13.0147 33.3117C14.4998 34.8006 16.4594 35.7224 18.5533 35.917L18.5268 36.209Z" fill="#DADADA"/>
<path d="M21.7119 35.8237C22.101 35.6823 22.5302 35.7007 22.9057 35.8748C23.2813 36.0489 23.5727 36.3645 23.7161 36.7528C23.5236 36.8247 23.3188 36.8576 23.1135 36.8497C22.9081 36.8418 22.7064 36.7933 22.52 36.7068C22.3336 36.6204 22.1662 36.4979 22.0275 36.3463C21.8887 36.1947 21.7815 36.0171 21.7119 35.8237Z" fill="#DADADA"/>
<path d="M21.7114 35.8231C22.0997 35.6796 22.4154 35.3882 22.5895 35.0127C22.7636 34.6371 22.782 34.2079 22.6405 33.8188C22.2523 33.9623 21.9366 34.2537 21.7625 34.6292C21.5884 35.0048 21.57 35.434 21.7114 35.8231Z" fill="#DADADA"/>
<path d="M23.2256 35.3199C23.59 35.1213 24.0183 35.0754 24.4165 35.1924C24.8147 35.3094 25.1502 35.5796 25.3493 35.9437C24.9849 36.1423 24.5565 36.1882 24.1584 36.0712C23.7602 35.9542 23.4247 35.684 23.2256 35.3199Z" fill="#DADADA"/>
<path d="M23.2253 35.3194C23.4051 35.2221 23.564 35.0902 23.6927 34.9314C23.8215 34.7725 23.9176 34.5898 23.9756 34.3938C24.0335 34.1977 24.0522 33.9921 24.0305 33.7888C24.0088 33.5855 23.9472 33.3884 23.8491 33.209C23.6693 33.3063 23.5104 33.4381 23.3817 33.597C23.2529 33.7558 23.1568 33.9385 23.0989 34.1346C23.0409 34.3307 23.0222 34.5363 23.0439 34.7396C23.0656 34.9429 23.1273 35.1399 23.2253 35.3194Z" fill="#DADADA"/>
<path d="M24.6729 34.47C24.8233 34.355 24.995 34.2709 25.1781 34.2226C25.3612 34.1744 25.5521 34.1629 25.7397 34.1888C25.9273 34.2147 26.1079 34.2775 26.2711 34.3736C26.4342 34.4697 26.5767 34.5972 26.6903 34.7487C26.3852 34.9776 26.0021 35.0767 25.6243 35.0245C25.2464 34.9723 24.9045 34.773 24.6729 34.47Z" fill="#DADADA"/>
<path d="M24.6726 34.4691C24.8241 34.3555 24.9516 34.213 25.0477 34.0499C25.1438 33.8867 25.2067 33.7061 25.2326 33.5185C25.2585 33.3309 25.247 33.1401 25.1987 32.957C25.1505 32.7738 25.0664 32.6021 24.9514 32.4517C24.7999 32.5653 24.6724 32.7078 24.5763 32.8709C24.4802 33.0341 24.4173 33.2147 24.3914 33.4023C24.3655 33.5899 24.377 33.7808 24.4253 33.9639C24.4735 34.147 24.5576 34.3187 24.6726 34.4691Z" fill="#DADADA"/>
<path d="M25.8135 33.5401C25.9413 33.4012 26.0954 33.2888 26.2668 33.2095C26.4382 33.1303 26.6236 33.0856 26.8123 33.0782C27.001 33.0708 27.1893 33.1008 27.3664 33.1664C27.5435 33.232 27.7059 33.332 27.8442 33.4605C27.5842 33.7381 27.2253 33.902 26.8452 33.917C26.4651 33.9319 26.0945 33.7965 25.8135 33.5401Z" fill="#DADADA"/>
<path d="M25.8161 33.5411C26.0733 33.2579 26.209 32.8851 26.1941 32.5028C26.1792 32.1206 26.0149 31.7594 25.7365 31.4971C25.4793 31.7803 25.3436 32.1531 25.3585 32.5354C25.3734 32.9176 25.5377 33.2788 25.8161 33.5411Z" fill="#DADADA"/>
<path d="M26.918 32.1879C27.104 31.8919 27.3994 31.6812 27.7398 31.6017C28.0803 31.5222 28.4384 31.5802 28.7364 31.7632C28.5503 32.0592 28.255 32.2699 27.9145 32.3494C27.574 32.4289 27.2159 32.3709 26.918 32.1879Z" fill="#DADADA"/>
<path d="M26.916 32.1871C27.0087 32.0391 27.0712 31.8742 27.1 31.7019C27.1288 31.5296 27.1234 31.3533 27.0839 31.1831C27.0444 31.013 26.9718 30.8523 26.8701 30.7102C26.7684 30.5682 26.6396 30.4476 26.4913 30.3555C26.3986 30.5035 26.3361 30.6684 26.3072 30.8407C26.2784 31.013 26.2839 31.1893 26.3234 31.3595C26.3628 31.5296 26.4355 31.6904 26.5372 31.8324C26.6389 31.9744 26.7676 32.095 26.916 32.1871Z" fill="#DADADA"/>
<path d="M27.7363 30.7401C27.8638 30.4136 28.1152 30.1508 28.4358 30.0091C28.7564 29.8675 29.1201 29.8585 29.4473 29.9841C29.3198 30.3106 29.0684 30.5734 28.7478 30.7151C28.4272 30.8567 28.0635 30.8657 27.7363 30.7401Z" fill="#DADADA"/>
<path d="M27.7357 30.7397C27.8613 30.4125 27.8523 30.0489 27.7107 29.7283C27.569 29.4077 27.3062 29.1562 26.9797 29.0288C26.8541 29.356 26.8631 29.7196 27.0048 30.0402C27.1464 30.3608 27.4092 30.6123 27.7357 30.7397Z" fill="#DADADA"/>
<path d="M28.2822 29.3195C28.3698 28.9809 28.5875 28.6906 28.8881 28.5117C29.1886 28.3329 29.5477 28.28 29.887 28.3646C29.7995 28.7032 29.5818 28.9935 29.2812 29.1723C28.9806 29.3512 28.6216 29.4041 28.2822 29.3195Z" fill="#DADADA"/>
<path d="M28.2814 29.3182C28.366 28.9788 28.3131 28.6198 28.1342 28.3192C27.9554 28.0187 27.6651 27.8009 27.3265 27.7134C27.2419 28.0527 27.2948 28.4118 27.4736 28.7123C27.6525 29.0129 27.9428 29.2306 28.2814 29.3182Z" fill="#DADADA"/>
<path d="M28.5762 27.8068C28.5762 27.455 28.7159 27.1177 28.9646 26.8689C29.2133 26.6202 29.5507 26.4805 29.9025 26.4805C29.9025 26.8322 29.7627 27.1696 29.514 27.4183C29.2653 27.667 28.9279 27.8068 28.5762 27.8068Z" fill="#DADADA"/>
<path d="M28.5743 27.8068C28.5743 27.455 28.4346 27.1177 28.1859 26.8689C27.9371 26.6202 27.5998 26.4805 27.248 26.4805C27.248 26.8322 27.3878 27.1696 27.6365 27.4183C27.8852 27.667 28.2226 27.8068 28.5743 27.8068Z" fill="#DADADA"/>
<path d="M28.603 26.1855C28.541 25.8409 28.6177 25.4858 28.8165 25.1976C29.0153 24.9094 29.32 24.7115 29.6641 24.647C29.7261 24.9915 29.6493 25.3466 29.4506 25.6348C29.2518 25.9231 28.9471 26.121 28.603 26.1855Z" fill="#DADADA"/>
<path d="M28.601 26.1862C28.5706 26.0146 28.5067 25.8506 28.4129 25.7038C28.3191 25.5569 28.1973 25.43 28.0544 25.3302C27.9115 25.2304 27.7504 25.1598 27.5802 25.1223C27.41 25.0849 27.2341 25.0813 27.0625 25.1119C27.0929 25.2835 27.1568 25.4474 27.2506 25.5942C27.3444 25.7411 27.4662 25.8681 27.6091 25.9678C27.752 26.0676 27.9132 26.1382 28.0834 26.1757C28.2536 26.2132 28.4294 26.2167 28.601 26.1862Z" fill="#DADADA"/>
<path d="M28.2696 24.634C28.1602 24.3016 28.1866 23.9394 28.3432 23.6263C28.4997 23.3133 28.7736 23.0748 29.1051 22.9629C29.2145 23.2953 29.1881 23.6575 29.0316 23.9706C28.875 24.2836 28.6012 24.5221 28.2696 24.634Z" fill="#DADADA"/>
<path d="M28.2678 24.6342C28.1585 24.3002 27.9212 24.0232 27.6078 23.864C27.2945 23.7049 26.9309 23.6766 26.5967 23.7854C26.7059 24.1194 26.9433 24.3964 27.2566 24.5555C27.5699 24.7147 27.9336 24.743 28.2678 24.6342Z" fill="#DADADA"/>
<path d="M27.7406 23.134C27.5822 22.8222 27.5533 22.4604 27.6602 22.1274C27.767 21.7943 28.001 21.5169 28.3113 21.3555C28.4697 21.6673 28.4987 22.0291 28.3918 22.3622C28.2849 22.6952 28.0509 22.9726 27.7406 23.134Z" fill="#DADADA"/>
<path d="M27.7385 23.1331C27.5771 22.8228 27.2997 22.5888 26.9667 22.4819C26.6336 22.3751 26.2718 22.404 25.96 22.5624C26.1214 22.8727 26.3988 23.1067 26.7318 23.2136C27.0649 23.3204 27.4267 23.2915 27.7385 23.1331Z" fill="#DADADA"/>
<path d="M26.9018 21.6867C26.7019 21.4272 26.6121 21.0996 26.6518 20.7744C26.6915 20.4493 26.8575 20.1529 27.114 19.9492C27.2147 20.077 27.2891 20.2235 27.333 20.3801C27.3768 20.5368 27.3892 20.7006 27.3695 20.8621C27.3498 21.0236 27.2983 21.1796 27.2181 21.3211C27.1378 21.4626 27.0303 21.5869 26.9018 21.6867Z" fill="#DADADA"/>
<path d="M26.899 21.6877C26.6977 21.432 26.4035 21.2663 26.0806 21.2265C25.7576 21.1868 25.4321 21.2762 25.1748 21.4754C25.2734 21.6035 25.3965 21.7107 25.5369 21.7908C25.6772 21.8709 25.8321 21.9223 25.9925 21.942C26.1529 21.9618 26.3157 21.9495 26.4713 21.9058C26.6269 21.8621 26.7723 21.788 26.899 21.6877Z" fill="#DADADA"/>
<path d="M25.799 20.3871C25.5692 20.1892 25.4255 19.9096 25.3983 19.6076C25.371 19.3056 25.4624 19.0049 25.6531 18.769C25.7698 18.8651 25.8663 18.9833 25.937 19.117C26.0076 19.2506 26.051 19.397 26.0645 19.5476C26.0781 19.6981 26.0616 19.8499 26.016 19.994C25.9705 20.1381 25.8967 20.2717 25.799 20.3871Z" fill="#DADADA"/>
<path d="M25.8011 20.3853C25.6869 20.288 25.5543 20.2145 25.4113 20.1691C25.2682 20.1236 25.1175 20.1073 24.968 20.1208C24.8186 20.1344 24.6733 20.1777 24.5408 20.2482C24.4083 20.3187 24.2911 20.4149 24.1963 20.5312C24.4299 20.7211 24.7286 20.8121 25.0284 20.7848C25.3282 20.7576 25.6055 20.6142 25.8011 20.3853Z" fill="#DADADA"/>
<path d="M24.4983 19.3383C24.365 19.2696 24.2465 19.1753 24.1496 19.0608C24.0527 18.9463 23.9794 18.8138 23.9338 18.6709C23.8882 18.5279 23.8713 18.3774 23.884 18.228C23.8966 18.0785 23.9386 17.933 24.0076 17.7998C24.141 17.8685 24.2595 17.9628 24.3563 18.0773C24.4532 18.1918 24.5265 18.3244 24.5721 18.4673C24.6177 18.6102 24.6346 18.7607 24.622 18.9101C24.6093 19.0596 24.5673 19.2051 24.4983 19.3383Z" fill="#DADADA"/>
<path d="M24.4994 19.3382C24.3662 19.2692 24.2207 19.2272 24.0713 19.2145C23.9218 19.2019 23.7713 19.2188 23.6284 19.2644C23.4855 19.31 23.353 19.3833 23.2384 19.4802C23.1239 19.577 23.0296 19.6955 22.9609 19.8289C23.0941 19.8979 23.2397 19.9399 23.3891 19.9525C23.5386 19.9652 23.6891 19.9482 23.832 19.9027C23.9749 19.8571 24.1074 19.7838 24.2219 19.6869C24.3365 19.59 24.4308 19.4715 24.4994 19.3382Z" fill="#DADADA"/>
<path d="M23.0651 18.5553C22.9295 18.5065 22.8049 18.4312 22.6987 18.3339C22.5924 18.2366 22.5065 18.1191 22.446 17.9883C22.3856 17.8575 22.3517 17.716 22.3464 17.5719C22.3411 17.4279 22.3645 17.2843 22.4152 17.1494C22.5508 17.1982 22.6753 17.2734 22.7816 17.3708C22.8879 17.4681 22.9737 17.5856 23.0342 17.7164C23.0947 17.8472 23.1285 17.9887 23.1338 18.1327C23.1391 18.2768 23.1158 18.4204 23.0651 18.5553Z" fill="#DADADA"/>
<path d="M23.066 18.5576C22.795 18.4582 22.4958 18.4692 22.2328 18.5883C21.9699 18.7073 21.7642 18.9249 21.6602 19.1942C21.9312 19.2936 22.2303 19.2826 22.4933 19.1635C22.7563 19.0444 22.962 18.8268 23.066 18.5576Z" fill="#DADADA"/>
<path d="M22.1077 18.1709C22.0533 18.0807 21.9815 18.0022 21.8965 17.94C21.8116 17.8777 21.7151 17.8329 21.6127 17.8083C21.5103 17.7836 21.404 17.7795 21.3 17.7962C21.196 17.8129 21.0963 17.8501 21.0068 17.9056C21.0612 17.9958 21.133 18.0743 21.218 18.1366C21.303 18.1988 21.3994 18.2436 21.5018 18.2682C21.6042 18.2929 21.7105 18.297 21.8145 18.2803C21.9185 18.2636 22.0182 18.2264 22.1077 18.1709Z" fill="#DADADA"/>
<path d="M20.3174 36.209V35.917C22.4113 35.7224 24.371 34.8006 25.8561 33.3117C27.3412 31.8228 28.2579 29.8608 28.4472 27.7664C28.6365 25.6719 28.0863 23.5774 26.8921 21.8464C25.6979 20.1154 23.9352 18.8573 21.9101 18.2904L21.9898 18.0117C24.0799 18.5976 25.8989 19.8968 27.131 21.6839C28.3632 23.4709 28.9308 25.633 28.7353 27.7949C28.5398 29.9567 27.5935 31.9819 26.0606 33.5188C24.5278 35.0558 22.5052 36.0076 20.3439 36.209H20.3174Z" fill="#DADADA"/>
<defs>
<linearGradient id="paint0_linear_1056_4772" x1="19.1075" y1="50.6764" x2="19.1075" y2="0.624023" gradientUnits="userSpaceOnUse">
<stop stop-color="#DADADA"/>
<stop offset="1" stop-color="white"/>
</linearGradient>
</defs>
</svg>
