<svg width="33" height="33" viewBox="0 0 33 33" fill="none" xmlns="http://www.w3.org/2000/svg">
<path fill-rule="evenodd" clip-rule="evenodd" d="M11.5008 11.6626C11.7765 11.3916 12.2235 11.3916 12.4992 11.6626L21.4991 20.5097C21.7748 20.7807 21.7748 21.2201 21.4991 21.4912C21.2234 21.7622 20.7764 21.7622 20.5008 21.4912L11.5008 12.644C11.2251 12.373 11.2251 11.9336 11.5008 11.6626Z" fill="white"/>
<path fill-rule="evenodd" clip-rule="evenodd" d="M11.5008 21.3379C11.2251 21.0669 11.2251 20.6275 11.5008 20.3565L20.5008 11.5094C20.7765 11.2384 21.2235 11.2384 21.4992 11.5094C21.7749 11.7804 21.7749 12.2198 21.4992 12.4908L12.4992 21.3379C12.2235 21.6089 11.7765 21.6089 11.5008 21.3379Z" fill="white"/>
</svg>
