<svg width="22" height="28" viewBox="0 0 22 28" fill="none" xmlns="http://www.w3.org/2000/svg">
<path d="M12.4387 26.4133L12.4377 26.4145L12.2123 26.6993C12.0121 26.9521 11.6284 26.9521 11.4283 26.6993L11.2028 26.4145L11.2019 26.4133C8.16281 22.5991 5.89546 19.3337 4.3902 16.6137C2.87721 13.8797 2.16669 11.7533 2.16669 10.2011C2.16669 7.30552 3.07571 4.98592 4.8699 3.19653C6.66587 1.40537 8.96833 0.5 11.8203 0.5C14.6722 0.5 16.9747 1.40537 18.7707 3.19654C20.5649 4.98592 21.4739 7.30551 21.4739 10.2011C21.4739 11.7533 20.7633 13.8797 19.2503 16.6137C17.7451 19.3337 15.4777 22.5991 12.4387 26.4133Z" stroke="#323232" stroke-linejoin="round"/>
<path d="M12.2877 5.59998H11.3579C8.66341 5.59998 7.1487 7.09608 7.1537 9.77124V14.2992C7.1487 14.6856 7.40865 14.9333 7.79358 14.9333C8.17851 14.9333 8.42846 14.6856 8.43346 14.2992L8.42846 9.93968C8.42846 7.76983 9.34329 6.87811 11.5479 6.87811H12.0978C14.1674 6.87811 15.2022 7.64102 15.2022 9.49877C15.2022 11.3565 14.1674 12.1343 12.0978 12.1343L10.4481 12.1293C10.0582 12.1343 9.8082 12.382 9.8082 12.7635C9.8082 13.1449 10.0582 13.4025 10.4481 13.3976H12.2877C14.8473 13.4025 16.487 12.0253 16.487 9.49877C16.487 6.95242 14.8473 5.59998 12.2877 5.59998Z" fill="#323232"/>
</svg>
