<svg width="148" height="36" viewBox="0 0 148 36" fill="none" xmlns="http://www.w3.org/2000/svg">
<path d="M34.5802 19.3413H32.0569C27.3383 19.3413 25.4026 17.3251 25.4026 12.5489V3.08544C25.4026 2.71357 25.2586 2.35693 25.0024 2.09398C24.7462 1.83103 24.3987 1.6833 24.0364 1.6833C23.674 1.6833 23.3265 1.83103 23.0703 2.09398C22.8141 2.35693 22.6702 2.71357 22.6702 3.08544V12.9152C22.6702 18.8345 25.9144 22.1641 31.646 22.1382H34.591C34.9534 22.1382 35.3009 21.9905 35.5571 21.7275C35.8133 21.4646 35.9572 21.108 35.9572 20.7361C35.9572 20.3642 35.8133 20.0076 35.5571 19.7446C35.3009 19.4817 34.9534 19.3339 34.591 19.3339L34.5802 19.3413Z" fill="#323232"/>
<path d="M10.9656 1.6907H8.9758C3.20823 1.6907 -0.00719737 5.02031 1.20974e-05 10.9137V20.7509C1.20974e-05 21.1227 0.143949 21.4794 0.40016 21.7423C0.656371 22.0053 1.00387 22.153 1.36621 22.153C1.72854 22.153 2.07604 22.0053 2.33225 21.7423C2.58846 21.4794 2.7324 21.1227 2.7324 20.7509V11.2541C2.7324 6.46685 4.67535 4.49128 9.38674 4.49128H10.5835C15.0029 4.49128 17.2126 6.21157 17.2126 10.3181V10.7361C17.2126 14.8427 15.0029 16.5593 10.5835 16.5593H6.82017C6.45783 16.5593 6.11033 16.707 5.85412 16.9699C5.59791 17.2329 5.45397 17.5895 5.45397 17.9614C5.45397 18.3333 5.59791 18.6899 5.85412 18.9529C6.11033 19.2158 6.45783 19.3635 6.82017 19.3635H10.9728C16.4376 19.3635 19.9378 16.3373 19.9342 10.7472V10.3292C19.9306 4.67995 16.4304 1.6907 10.9656 1.6907Z" fill="#323232"/>
<path d="M47.8132 1.6907H45.8306C40.081 1.6907 36.8548 4.99442 36.8548 10.9137V12.9226C36.8548 18.8419 40.0991 22.1456 45.8306 22.1456H47.8132C53.5627 22.1456 56.789 18.8419 56.789 12.9226V10.9137C56.7854 4.99442 53.5591 1.6907 47.8132 1.6907ZM54.0638 12.5452C54.0638 17.3547 52.1425 19.3524 47.4239 19.3524H46.2523C41.5337 19.3524 39.5836 17.3547 39.5836 12.5452V11.2615C39.5836 6.45204 41.5337 4.48758 46.2523 4.48758H47.4239C52.1425 4.48758 54.0638 6.45204 54.0638 11.2615V12.5452Z" fill="#323232"/>
<path d="M102.847 20.9211C101.798 19.8482 101.12 19.3524 99.1698 19.3524H91.5566C86.838 19.3524 84.9023 17.3584 84.9023 12.56V11.2467C84.9023 6.43725 86.8488 4.48387 91.5566 4.48387H92.7282C97.4395 4.48387 99.3933 6.45944 99.3825 11.2467V15.2866C99.3682 15.4589 99.3872 15.6324 99.4383 15.7972C99.4895 15.9619 99.5719 16.1147 99.6808 16.2467C99.7896 16.3787 99.9228 16.4873 100.073 16.5663C100.222 16.6454 100.386 16.6933 100.554 16.7073C100.615 16.7128 100.677 16.7128 100.738 16.7073C101.083 16.7254 101.422 16.6019 101.679 16.3639C101.936 16.1259 102.09 15.793 102.108 15.4383C102.111 15.3866 102.111 15.3346 102.108 15.2829V10.91C102.108 4.99072 98.8814 1.6907 93.1319 1.6907H91.1529C85.3853 1.6907 82.1771 4.99442 82.1771 10.91V12.9226C82.1771 18.8419 85.4214 22.1715 91.1529 22.1456H99.2708C99.55 22.1251 99.8301 22.1701 100.09 22.2771C100.35 22.3842 100.582 22.5505 100.77 22.7634L101.228 23.2333C102.021 24.0546 102.825 24.0805 103.391 23.4812C103.957 22.8818 103.914 22.0383 103.232 21.3317L102.847 20.9211Z" fill="#323232"/>
<path d="M70.4725 1.6907H68.4899C62.744 1.6907 59.5105 5.02031 59.5178 10.9137V20.7509C59.5358 21.1108 59.6877 21.4498 59.9423 21.698C60.1969 21.9462 60.5346 22.0846 60.8858 22.0846C61.2369 22.0846 61.5746 21.9462 61.8292 21.698C62.0838 21.4498 62.2357 21.1108 62.2537 20.7509V11.2689C62.2537 6.48164 64.1967 4.50237 68.9081 4.50237H70.076C74.7874 4.50237 76.7412 6.47794 76.734 11.2652V20.7509C76.7102 21.0952 76.8206 21.4352 77.041 21.6961C77.2613 21.9569 77.5736 22.1173 77.9091 22.1419C77.9691 22.1456 78.0293 22.1456 78.0893 22.1419C78.43 22.1632 78.765 22.0451 79.021 21.8136C79.2771 21.582 79.4333 21.2558 79.4555 20.9063C79.4591 20.8545 79.4591 20.8026 79.4555 20.7509V10.91C79.4375 5.00182 76.2185 1.6907 70.4725 1.6907Z" fill="#323232"/>
<path d="M145.065 3.05954C143.108 1.05808 140.296 0.0295965 136.71 0H121.779C114.742 0 110.676 4.22121 110.604 11.6055V13.9659C110.575 17.621 111.566 20.4993 113.549 22.5193C115.532 24.5392 118.325 25.5492 121.908 25.5788H136.85C143.876 25.5788 147.935 21.3576 148 13.9733V11.6129C148.025 7.95407 147.041 5.07581 145.065 3.05954ZM146.543 11.6129V13.9622C146.489 20.5104 142.978 24.0324 136.71 24.0398H121.93C118.744 24.0139 116.271 23.1334 114.584 21.4242C112.897 19.715 112.06 17.1993 112.06 13.9659V11.6203C112.114 5.06841 115.589 1.56862 121.912 1.53902H136.691C139.882 1.56492 142.351 2.44541 144.031 4.15091C145.711 5.85641 146.554 8.37582 146.532 11.6055L146.543 11.6129Z" fill="#323232"/>
<path d="M124.616 8.98625C124.463 8.9377 124.299 8.94059 124.148 8.99451C123.997 9.04842 123.866 9.15054 123.776 9.28592L121.35 12.9004L118.956 9.28222C118.866 9.14587 118.735 9.0429 118.584 8.9885C118.432 8.93409 118.267 8.93112 118.114 8.98001C117.96 9.02891 117.826 9.12709 117.731 9.26009C117.636 9.3931 117.586 9.55388 117.586 9.71876V15.8563C117.586 16.0604 117.665 16.2562 117.806 16.4005C117.947 16.5448 118.137 16.6259 118.336 16.6259C118.535 16.6259 118.726 16.5448 118.866 16.4005C119.007 16.2562 119.086 16.0604 119.086 15.8563V12.2049L120.748 14.6947C120.777 14.7358 120.812 14.772 120.852 14.802C120.88 14.8358 120.911 14.8679 120.942 14.8982C121 14.9316 121.062 14.9577 121.126 14.9759L121.216 15.0128H121.35C121.398 15.0203 121.446 15.0203 121.494 15.0128L121.588 14.9759C121.649 14.9576 121.709 14.9315 121.764 14.8982C121.796 14.8679 121.826 14.8358 121.854 14.802C121.893 14.77 121.928 14.734 121.959 14.6947L123.617 12.2049V15.8563C123.617 16.0604 123.696 16.2562 123.837 16.4005C123.977 16.5448 124.168 16.6259 124.367 16.6259C124.566 16.6259 124.756 16.5448 124.897 16.4005C125.038 16.2562 125.117 16.0604 125.117 15.8563V9.72246C125.119 9.56136 125.072 9.40365 124.982 9.27156C124.892 9.13948 124.764 9.03968 124.616 8.98625Z" fill="#323232"/>
<path d="M130.873 9.408C130.855 9.37369 130.833 9.34146 130.809 9.31181C130.783 9.26459 130.753 9.21999 130.718 9.17863C130.673 9.14079 130.625 9.10618 130.574 9.07504C130.548 9.05322 130.52 9.03343 130.491 9.01585C130.435 8.99704 130.377 8.98342 130.318 8.97515H130.091C130.031 8.98301 129.972 8.99664 129.915 9.01585C129.886 9.03343 129.858 9.05322 129.832 9.07504C129.781 9.10405 129.734 9.1388 129.691 9.17863C129.655 9.22026 129.623 9.26622 129.597 9.31551C129.572 9.34318 129.55 9.3743 129.533 9.408L126.879 15.5456C126.799 15.7326 126.794 15.9445 126.866 16.1352C126.938 16.3258 127.08 16.4796 127.262 16.563C127.357 16.6074 127.46 16.6301 127.564 16.6296C127.71 16.6291 127.852 16.5856 127.974 16.5043C128.097 16.4229 128.193 16.3071 128.253 16.1708L128.743 15.035H131.692L132.182 16.1708C132.222 16.2634 132.279 16.3469 132.351 16.4167C132.422 16.4865 132.506 16.5412 132.598 16.5776C132.691 16.614 132.789 16.6315 132.887 16.6289C132.986 16.6264 133.083 16.604 133.173 16.563C133.263 16.5219 133.345 16.463 133.413 16.3897C133.481 16.3163 133.534 16.23 133.57 16.1355C133.605 16.041 133.622 15.9403 133.62 15.8391C133.617 15.7379 133.595 15.6381 133.555 15.5456L130.873 9.408ZM129.381 13.4775L130.189 11.6018L131 13.4775H129.381Z" fill="#323232"/>
<path d="M140.729 9.11203C140.651 9.05003 140.562 9.00439 140.467 8.97771C140.372 8.95103 140.273 8.94384 140.175 8.95655C140.077 8.96926 139.983 9.00163 139.897 9.0518C139.812 9.10196 139.737 9.16895 139.676 9.24892L137.953 11.5316L136.226 9.24892C136.105 9.08751 135.925 8.98241 135.728 8.95674C135.53 8.93107 135.331 8.98693 135.174 9.11203C135.017 9.23714 134.914 9.42123 134.889 9.62382C134.864 9.82641 134.919 10.0309 135.041 10.1923L137.001 12.782L135.041 15.3717C134.98 15.4516 134.936 15.5429 134.91 15.6405C134.884 15.738 134.877 15.8399 134.889 15.9402C134.901 16.0405 134.933 16.1374 134.982 16.2252C135.031 16.313 135.096 16.3901 135.174 16.452C135.306 16.5563 135.468 16.6134 135.635 16.6148C135.75 16.6146 135.862 16.5875 135.965 16.5356C136.067 16.4836 136.157 16.4082 136.226 16.3151L137.953 14.0325L139.676 16.3151C139.737 16.395 139.812 16.462 139.897 16.5121C139.983 16.5622 140.077 16.5946 140.175 16.6073C140.273 16.62 140.372 16.6128 140.467 16.5862C140.562 16.5595 140.651 16.5139 140.729 16.452C140.807 16.39 140.872 16.313 140.921 16.2251C140.97 16.1373 141.001 16.0405 141.013 15.9402C141.026 15.8399 141.019 15.738 140.993 15.6405C140.967 15.543 140.923 15.4516 140.862 15.3717L138.901 12.782L140.862 10.1923C140.923 10.1132 140.968 10.0225 140.994 9.92553C141.021 9.82856 141.028 9.72716 141.017 9.62716C141.005 9.52715 140.974 9.4305 140.926 9.34275C140.878 9.25499 140.813 9.17785 140.736 9.11574L140.729 9.11203Z" fill="#323232"/>
<path d="M118.682 35.9968C117.933 35.9968 117.211 35.7045 116.664 35.1792L117.024 34.7574C117.256 34.9863 117.526 35.1716 117.821 35.305C118.107 35.4268 118.415 35.4861 118.725 35.4789C119.013 35.4924 119.296 35.4064 119.529 35.2347C119.626 35.1617 119.705 35.0657 119.758 34.9549C119.812 34.8442 119.838 34.7219 119.836 34.5984C119.838 34.485 119.815 34.3727 119.768 34.2701C119.721 34.1675 119.652 34.0773 119.565 34.0064C119.252 33.8143 118.904 33.6885 118.542 33.6365C118.082 33.5634 117.645 33.381 117.266 33.1037C117.133 32.9867 117.028 32.8396 116.96 32.6739C116.892 32.5083 116.862 32.3287 116.873 32.1492C116.87 31.9575 116.91 31.7677 116.99 31.5944C117.07 31.4212 117.188 31.2692 117.334 31.1504C117.666 30.8792 118.082 30.74 118.506 30.7582C119.142 30.7496 119.761 30.9709 120.254 31.3834L119.926 31.8274C119.524 31.4748 119.013 31.2796 118.484 31.2761C118.21 31.2621 117.94 31.3457 117.72 31.5129C117.629 31.5822 117.555 31.6726 117.504 31.7767C117.453 31.8809 117.427 31.9958 117.428 32.1123C117.424 32.228 117.448 32.343 117.497 32.4474C117.546 32.5517 117.618 32.6424 117.709 32.7116C118.04 32.9153 118.408 33.0486 118.79 33.1037C119.236 33.1774 119.659 33.3587 120.023 33.6328C120.151 33.748 120.252 33.8913 120.319 34.052C120.386 34.2127 120.417 34.3868 120.409 34.5614C120.414 34.7618 120.374 34.9608 120.291 35.1425C120.209 35.3242 120.086 35.4837 119.933 35.6083C119.574 35.8856 119.131 36.0232 118.682 35.9968Z" fill="#323232"/>
<path d="M121.523 35.9191V30.8211H122.092L123.895 33.6069L125.697 30.8211H126.263V35.9191H125.704V31.7904L123.902 34.5244H123.873L122.071 31.7978V35.9191H121.523Z" fill="#323232"/>
<path d="M127.262 35.9191L129.529 30.7841H130.052L132.319 35.9191H131.713L131.133 34.5725H128.426L127.838 35.9191H127.262ZM128.646 34.0693H130.913L129.781 31.4796L128.646 34.0693Z" fill="#323232"/>
<path d="M133.299 35.9191V30.8211H135.437C135.694 30.8045 135.951 30.8412 136.194 30.9289C136.437 31.0166 136.66 31.1536 136.85 31.3316C136.978 31.466 137.079 31.6259 137.144 31.8015C137.21 31.9772 137.24 32.1648 137.232 32.3527C137.241 32.5345 137.214 32.7162 137.152 32.8867C137.09 33.0572 136.994 33.2129 136.872 33.3442C136.601 33.6073 136.259 33.7801 135.891 33.8399L137.416 35.9228H136.728L135.286 33.9435H133.844V35.9191H133.299ZM133.858 33.4219H135.387C135.717 33.4384 136.043 33.3378 136.309 33.137C136.426 33.0462 136.52 32.9278 136.583 32.792C136.645 32.6561 136.675 32.5067 136.67 32.3564C136.676 32.2146 136.648 32.0733 136.59 31.9446C136.532 31.8159 136.444 31.7033 136.335 31.6165C136.06 31.4246 135.732 31.331 135.401 31.3501H133.858V33.4219Z" fill="#323232"/>
<path d="M139.734 35.9191V31.3538H138.076V30.8211H141.983V31.3538H140.314V35.9191H139.734Z" fill="#323232"/>
</svg>
