<svg width="17" height="17" viewBox="0 0 17 17" fill="none" xmlns="http://www.w3.org/2000/svg">
<path d="M11.467 15.3902C14.1335 14.2405 16 11.5882 16 8.5C16 4.35786 12.6421 1 8.5 1C4.35786 1 1 4.35786 1 8.5C1 11.9578 3.34004 14.8691 6.52292 15.7367C7.58862 16.0271 8.5 15.1046 8.5 14V11.1335" stroke="#898A8D" stroke-width="0.8" stroke-linecap="round"/>
<path d="M6.18088 6.71923C6.18088 6.68403 6.20942 6.65549 6.24462 6.65549H10.7557C10.7909 6.65549 10.8194 6.68403 10.8194 6.71923V8.6373C10.8194 9.91819 9.78103 10.9566 8.50014 10.9566C7.21925 10.9566 6.18088 9.91819 6.18088 8.6373V6.71923Z" stroke="#898A8D" stroke-width="0.8"/>
<path d="M7.15381 6.49647V4.56763" stroke="#898A8D" stroke-width="0.8" stroke-linecap="round"/>
<path d="M9.84619 6.49647V4.56763" stroke="#898A8D" stroke-width="0.8" stroke-linecap="round"/>
</svg>
