<svg width="161" height="47" viewBox="0 0 161 47" fill="none" xmlns="http://www.w3.org/2000/svg">
<path d="M42.1546 33.0711C42.1717 34.0346 41.9139 34.9831 41.4113 35.8053C40.8552 36.7346 40.1963 37.5984 39.4469 38.3803C38.664 39.3378 37.7732 40.2018 36.7923 40.9552C35.8389 41.7775 34.7867 42.4775 33.6599 43.0391C32.6255 43.6049 31.5178 44.0248 30.3682 44.2867C29.4795 44.4169 28.573 44.3489 27.7136 44.0877C27.025 43.8709 26.4246 43.4381 26.0014 42.8533C25.5912 42.2196 25.4 41.469 25.4572 40.7163C25.5078 39.7927 25.7473 38.8892 26.1607 38.0617C26.6259 37.1039 27.215 36.2114 27.9127 35.4071C28.664 34.5176 29.5096 33.712 30.4346 33.0047C31.3889 32.2656 32.4215 31.6336 33.5139 31.12C34.5089 30.644 35.562 30.3004 36.6463 30.0979C37.5239 29.9381 38.4233 29.9381 39.3009 30.0979C40.0241 30.219 40.697 30.5462 41.2388 31.0403C41.7798 31.5722 42.1179 32.2765 42.1944 33.0313L42.1546 33.0711ZM38.4514 36.3495C38.4488 35.9882 38.317 35.6398 38.0798 35.3673C37.8457 35.1049 37.5343 34.9236 37.1905 34.8497C36.7524 34.7617 36.3013 34.7617 35.8632 34.8497C35.3332 34.9309 34.8186 35.092 34.3368 35.3275C33.8 35.5756 33.2925 35.8828 32.8237 36.2433C32.3725 36.5888 31.9628 36.9852 31.6026 37.4246C31.2597 37.8232 30.9778 38.2705 30.7664 38.7519C30.5685 39.1666 30.4643 39.6197 30.4611 40.0792C30.4505 40.4438 30.5575 40.8022 30.7664 41.1012C30.9817 41.3769 31.2792 41.5768 31.6158 41.672C32.048 41.7917 32.5012 41.8144 32.9431 41.7383C33.4861 41.6652 34.0144 41.5085 34.5094 41.2738C35.0705 41.0217 35.6005 40.7055 36.0888 40.3314C36.5764 39.9713 37.0216 39.5572 37.4161 39.097C37.7518 38.6957 38.0289 38.2488 38.2391 37.7697C38.4253 37.3526 38.516 36.8991 38.5045 36.4424L38.4514 36.3495Z" fill="url(#paint0_radial_1056_4738)"/>
<path d="M11.7764 4.1104C8.69702 6.03498 6.87863 7.04372 4.60895 9.8045C3.79056 10.7213 3.09864 11.7435 2.55164 12.844C2.23309 13.4811 1.86144 14.5297 1.86144 14.5297L1.70216 15.7243L1.46325 17.317L1.3438 18.7505V19.2416C1.33722 19.1178 1.33722 18.9937 1.3438 18.8699C1.33736 18.7417 1.33736 18.6132 1.3438 18.485C1.3438 18.3523 1.3438 18.2196 1.41016 18.0868C1.47653 17.9541 1.41016 17.8081 1.50307 17.6621C1.94781 16.0474 2.62281 14.5052 3.50729 13.0829C4.45611 11.4802 5.64198 10.0303 7.02463 8.78248C8.38473 7.37998 9.85864 6.09253 11.4313 4.93332C13.0101 3.67887 14.8113 2.73326 16.7404 2.146C15.9649 2.17635 15.1989 2.32864 14.4708 2.59727C13.5306 3.03294 12.6175 3.52493 11.7365 4.07057L11.7764 4.1104Z" fill="url(#paint1_radial_1056_4738)"/>
<path d="M34.1381 5.35532L32.9701 4.13421L31.7357 3.03255L31.0986 2.54145L29.6784 1.98398C28.791 1.65508 27.8759 1.40632 26.9441 1.2407C25.7186 1.0078 24.4633 0.97642 23.2277 1.14779C22.0826 1.40687 20.9665 1.78039 19.8962 2.26271C18.4516 2.89116 17.0543 3.62308 15.7152 4.45276C11.7335 6.91493 8.1823 10.0132 5.20301 13.6244C3.83607 15.2714 2.63564 17.0499 1.6193 18.9336C0.803642 20.5416 0.256643 22.2722 0 24.0569C0 24.3622 0 24.6675 0 24.9595C0.107929 26.1403 0.303136 27.3116 0.584014 28.4636C0.684033 28.9586 0.817058 29.4463 0.982202 29.9236C1.20784 30.5872 1.6724 31.5562 1.6724 31.5562L1.91131 31.9809L2.44223 32.8437C2.24451 32.5344 2.0799 32.2052 1.95113 31.8614C1.82422 31.4891 1.72658 31.1075 1.65912 30.72C1.59493 30.2806 1.56829 29.8366 1.57949 29.3927C1.5838 28.9175 1.61927 28.443 1.68567 27.9725C2.018 26.0547 2.65899 24.2034 3.5837 22.4907C4.62921 20.5107 5.8745 18.6427 7.30013 16.9161C8.83038 15.0501 10.5082 13.3101 12.3173 11.7131C14.1856 10.079 16.1881 8.60495 18.3034 7.30645C19.8656 6.32309 21.5138 5.48346 23.2277 4.79786C24.6591 4.21673 26.1572 3.81548 27.6874 3.60329C28.9322 3.40901 30.2025 3.45406 31.4304 3.73601C32.4538 3.97643 33.3797 4.52272 34.085 5.30223" fill="url(#paint2_radial_1056_4738)"/>
<path d="M41.7047 14.6627L39.7668 9.55264L39.2757 8.43771C38.5597 7.3287 37.4805 6.50294 36.2229 6.10167C34.5642 5.6961 32.8434 5.6105 31.1526 5.84948C29.3301 6.04424 27.5433 6.49094 25.8435 7.17678C23.8116 7.99527 21.8682 9.01811 20.0432 10.2296C15.6891 13.0755 11.8739 16.6706 8.77441 20.8479C7.3754 22.7228 6.18278 24.7431 5.21726 26.8739C4.36347 28.7153 3.83793 30.6917 3.66432 32.714C3.62506 33.3606 3.64728 34.0094 3.73069 34.6518C3.81482 35.2251 3.96629 35.7865 4.18197 36.3242C4.38665 36.8004 4.65451 37.2468 4.97834 37.6515C5.31021 38.063 5.69904 38.425 6.13309 38.7266L7.64621 39.6956L9.09297 40.4654L10.699 41.1689L12.1325 41.6865C11.4715 41.4842 10.8483 41.1748 10.2875 40.7707C9.76326 40.381 9.31362 39.8999 8.96024 39.3505C8.59904 38.7734 8.33453 38.1413 8.17713 37.479C8.00702 36.7215 7.93564 35.9453 7.96476 35.1695C8.07228 33.2728 8.52195 31.4111 9.29206 29.6745C10.1527 27.6684 11.2393 25.7669 12.5307 24.0069C15.3901 20.1042 18.9393 16.7574 23.003 14.1318C24.8867 12.9019 26.9094 11.8994 29.029 11.1454C30.9874 10.4612 33.0355 10.0677 35.108 9.97738C36.59 9.939 38.0515 10.3309 39.3155 11.1056C40.457 11.8621 40.6428 13.1496 41.0543 14.7026L41.6648 14.5698L41.7047 14.6627Z" fill="url(#paint3_radial_1056_4738)"/>
<path d="M43.2063 25.2143C42.9849 24.1049 42.3608 23.1168 41.4542 22.4402C40.4896 21.7971 39.3615 21.4425 38.2023 21.4182C36.7732 21.3802 35.3486 21.5959 33.9948 22.0553C32.3313 22.5936 30.74 23.3336 29.2564 24.2586C27.64 25.2494 26.1281 26.4012 24.7435 27.6963C23.427 28.9007 22.2353 30.2348 21.1864 31.6782C20.2341 33.0056 19.4495 34.4456 18.8503 35.9654C18.311 37.2783 18.0446 38.6873 18.0672 40.1066C18.0847 41.1232 18.4034 42.1117 18.9831 42.947C19.5422 43.7234 20.3317 44.3039 21.2395 44.6061C22.3426 44.9673 23.5109 45.085 24.6639 44.9512C26.1405 44.7793 27.5845 44.3948 28.9511 43.8097L28.6591 43.9292L27.3318 44.4203L26.9336 44.553L25.4736 44.9645L23.9604 45.3096L23.1375 45.4556L21.4784 45.6547L19.7795 45.7609H19.5538C18.5616 45.7172 17.5754 45.5839 16.6072 45.3627C15.8049 45.1573 15.0617 44.767 14.4372 44.2231C13.8126 43.6792 13.3239 42.9967 13.0102 42.2302C12.6753 41.3854 12.5042 40.4845 12.5059 39.5756C12.5206 37.8134 12.886 36.0718 13.581 34.4523C14.3605 32.5668 15.3679 30.7838 16.5807 29.1431C17.9016 27.3264 19.3951 25.6417 21.0404 24.1126C22.7566 22.4983 24.6283 21.0578 26.6283 19.8122C28.4765 18.6446 30.4542 17.6959 32.5215 16.985C34.2285 16.3915 36.0235 16.0909 37.8307 16.0958C39.5019 16.1121 41.1432 16.5406 42.609 17.3434C43.5035 17.8378 44.2362 18.5798 44.7194 19.4804C44.7954 19.6963 44.8532 19.9183 44.8919 20.144C44.8919 20.5289 44.653 22.6393 44.5734 23.0243C44.4937 23.4092 44.4008 23.7941 44.2946 24.179C44.1885 24.5639 43.3788 24.8294 43.2461 25.201" fill="url(#paint4_radial_1056_4738)"/>
<path d="M24.6099 3.80493C24.304 4.67293 23.8151 5.46506 23.1764 6.1277C22.3557 7.01949 21.4336 7.81238 20.4289 8.49029C19.2719 9.30336 18.0461 10.0139 16.7656 10.614C15.4322 11.2528 14.0468 11.7767 12.6244 12.1802C11.4095 12.5338 10.1581 12.7476 8.8947 12.8173C7.99635 12.8942 7.09188 12.7811 6.2401 12.4855C5.94636 12.4008 5.67501 12.2522 5.44552 12.0502C5.21603 11.8483 5.03411 11.598 4.91281 11.3174C4.81598 11.0068 4.78253 10.68 4.81445 10.3562C4.84637 10.0324 4.94301 9.71837 5.09863 9.43267C5.21007 9.20471 5.33414 8.98315 5.47027 8.76902C5.61611 8.53419 5.77566 8.30816 5.9481 8.09211C6.13392 7.85319 6.33302 7.62755 6.54538 7.40191C6.75775 7.17626 6.99666 6.95062 7.24885 6.72498L7.9125 6.14098L8.56288 5.61006L9.18671 5.1455L9.81053 4.70749L10.4211 4.3093L11.0051 3.95093L11.6024 3.60583C10.957 4.09969 10.3613 4.65537 9.82381 5.26496C9.52753 5.61431 9.27358 5.99746 9.06725 6.40643C9.0059 6.54897 8.97425 6.70253 8.97425 6.85772C8.97425 7.0129 9.0059 7.16645 9.06725 7.30899C9.13535 7.44229 9.23086 7.55968 9.34753 7.65347C9.46419 7.74725 9.59935 7.81532 9.74417 7.85319C10.1742 7.98105 10.6246 8.02609 11.0715 7.98592C11.6922 7.93394 12.306 7.8183 12.9031 7.64082C13.5897 7.43529 14.2597 7.17794 14.9074 6.87098C15.531 6.57879 16.1302 6.23702 16.6992 5.84897C17.1787 5.51382 17.6234 5.13141 18.0265 4.70749C18.3493 4.38662 18.6024 4.00253 18.7698 3.57929C18.8366 3.44294 18.8713 3.29312 18.8713 3.14128C18.8713 2.98945 18.8366 2.83962 18.7698 2.70327C18.6136 2.43576 18.3625 2.23677 18.0663 2.14581C17.6289 2.05181 17.1765 2.05181 16.739 2.14581C16.1495 2.2247 15.5646 2.33547 14.987 2.47763C14.6194 2.58923 14.2601 2.72673 13.9119 2.88909C14.9687 2.33221 16.0808 1.88736 17.2301 1.56179C17.9612 1.31117 18.7113 1.1203 19.4733 0.991056C20.2654 0.844525 21.0746 0.813232 21.8757 0.898146C22.4832 0.924608 23.0792 1.0736 23.6277 1.33616C24.0629 1.5277 24.4125 1.87255 24.6099 2.30509C24.7918 2.77935 24.7918 3.30413 24.6099 3.77839V3.80493Z" fill="#585858"/>
<path d="M41.9592 34.6785C41.7908 35.132 41.5957 35.5752 41.3751 36.0058C41.1446 36.3874 40.8919 36.7552 40.6186 37.1074L40.3399 37.4658L39.5169 38.4613L38.8267 39.2046C38.0768 39.973 37.2692 40.6829 36.4111 41.3283C35.4887 42.0177 34.5172 42.6387 33.5043 43.1865C32.4576 43.7637 31.3709 44.2649 30.2524 44.6863C29.1259 45.113 27.9676 45.4503 26.7881 45.6951L26.1112 45.8411L25.4476 45.934L24.7972 46.0269H24.1601H22.8328H22.5541H21.2268L19.8995 45.9074H19.5013C18.9305 45.8278 18.5987 45.7747 18.028 45.6552C17.4572 45.5358 16.5547 45.2969 16.5547 45.2969L15.8114 45.0447L15.6123 44.9518C16.2225 45.1812 16.8538 45.3502 17.4971 45.4562C18.2231 45.5564 18.9544 45.614 19.6871 45.6287C20.5027 45.6333 21.318 45.5935 22.1293 45.5092C23.0211 45.4089 23.9072 45.2627 24.7839 45.0712C26.9241 44.6071 29.0103 43.9221 31.009 43.0272C32.9554 42.1599 34.8134 41.1065 36.5571 39.8815C38.1423 38.7738 39.5943 37.4867 40.884 36.0456C41.2843 35.6034 41.6524 35.1332 41.9857 34.6387L41.9592 34.6785Z" fill="#585858"/>
<path d="M29.7197 1.99924L31.2062 2.5567L32.6795 3.23363L33.1972 3.49908C33.5824 3.70427 33.9393 3.95858 34.259 4.25564C34.5591 4.53991 34.8103 4.87178 35.0023 5.23785C35.1792 5.61551 35.2956 6.01862 35.3474 6.43242C35.3987 6.91141 35.3718 7.39554 35.2678 7.86589C34.8696 9.4443 34.1006 10.9049 33.0246 12.1265C31.6058 13.7956 29.9877 15.2845 28.2066 16.5597C26.1221 18.0891 23.9005 19.4221 21.5701 20.5416C19.1418 21.7039 16.6085 22.6328 14.0045 23.3156C11.9814 23.8667 9.90148 24.183 7.80599 24.258C6.28576 24.3319 4.76492 24.1249 3.31973 23.6475C2.28779 23.3194 1.40135 22.644 0.811135 21.7362C0.302028 20.8619 0.158912 19.8219 0.412946 18.8426L0.519128 18.3648L0.943862 16.7853L1.47478 15.2589L2.01898 13.9316L2.51007 12.8698L2.43044 13.0822C2.00136 13.8975 1.88343 14.841 2.09861 15.7368C2.24918 16.1492 2.48732 16.5242 2.79665 16.8358C3.10597 17.1474 3.47914 17.3883 3.89046 17.5419C5.07515 18.0119 6.34746 18.2202 7.62017 18.1524C9.44856 18.0884 11.2625 17.8032 13.0223 17.303C15.0941 16.7373 17.1108 15.9866 19.0482 15.0599C20.9079 14.1816 22.6848 13.1376 24.3574 11.9407C25.8237 10.951 27.1612 9.7829 28.3393 8.46318C29.2305 7.51181 29.8892 6.36696 30.2639 5.11839C30.3934 4.63378 30.4205 4.1275 30.3435 3.63182C30.2548 3.20714 30.0634 2.81065 29.786 2.47707C29.4857 2.12186 29.1152 1.83264 28.6977 1.6276C28.3784 1.46884 28.0452 1.33998 27.7022 1.24268L27.158 1.09668L27.7022 1.20287L28.5782 1.4285C29.056 1.57451 29.8126 1.83996 29.8126 1.83996L29.7197 1.99924Z" fill="#585858"/>
<path d="M39.6089 8.6346L40.7105 9.96189L41.7193 11.4617L42.1706 12.2183C42.3026 12.4605 42.4136 12.7137 42.5024 12.9749C42.6055 13.2362 42.6811 13.5075 42.728 13.7845C42.7815 14.0779 42.8081 14.3756 42.8077 14.6738C42.8334 14.9963 42.8334 15.3203 42.8077 15.6427C42.4661 17.6153 41.6305 19.4692 40.3787 21.0316C38.7781 23.1318 36.893 24.9991 34.7775 26.5797C29.6947 30.4337 23.8698 33.1948 17.6687 34.6895C15.653 35.1774 13.5951 35.4707 11.5233 35.5655C9.88848 35.6458 8.25028 35.5074 6.65211 35.154C5.42359 34.8953 4.26207 34.3846 3.24096 33.6542C2.4009 33.0846 1.74575 32.2818 1.35619 31.3447L0.997822 30.3359L0.519994 28.5972L0.174899 26.8584L0.108535 26.3673L0.015625 25.3718C0.126255 26.2921 0.536713 27.1503 1.18364 27.814C2.03806 28.6657 3.1065 29.271 4.27625 29.5661C5.86199 29.9973 7.50648 30.172 9.14743 30.0837C11.3108 29.9972 13.4593 29.6858 15.5583 29.1546C18.5303 28.4033 21.4203 27.3584 24.1857 26.0355C26.846 24.7686 29.3755 23.2437 31.738 21.4828C33.7526 20.0153 35.5645 18.2881 37.1269 16.3462C38.3207 14.9308 39.15 13.2448 39.5425 11.4352C39.5809 11.0158 39.5809 10.5937 39.5425 10.1743C39.5128 9.79596 39.4416 9.42207 39.3302 9.05933C39.2206 8.71884 39.069 8.39336 38.8789 8.09041C38.7612 7.90682 38.6279 7.73363 38.4807 7.57275L39.3965 8.54169L39.5425 8.70096L39.6089 8.6346Z" fill="#585858"/>
<path d="M45.063 21.6429C45.2424 22.8486 45.2424 24.0741 45.063 25.2797C44.7998 27.1639 44.0698 28.9525 42.9393 30.4827C41.5302 32.4568 39.8399 34.2142 37.9222 35.699C35.712 37.4452 33.3122 38.9367 30.768 40.1455C28.1267 41.4195 25.3477 42.3859 22.4857 43.0257C21.1083 43.3282 19.7111 43.5322 18.3047 43.6362C17.0993 43.7436 15.8867 43.7436 14.6812 43.6362C13.6606 43.5366 12.6545 43.3229 11.6815 42.9991C10.8583 42.7379 10.0795 42.353 9.37201 41.8577L8.04471 40.7826L6.90323 39.7605C6.90323 39.7605 6.12013 38.9907 5.66885 38.4332C5.21757 37.8758 4.88574 37.4378 4.88574 37.4378C5.43988 38.0823 6.11665 38.6102 6.87669 38.9907C7.94106 39.5337 9.08261 39.9097 10.2613 40.1056C11.7342 40.3523 13.2302 40.4324 14.721 40.3446C16.5088 40.2412 18.2847 39.9881 20.0302 39.588C23.1445 38.8743 26.1679 37.8101 29.0425 36.4158C31.8204 35.1071 34.4427 33.4909 36.8603 31.5977C38.9409 30.0111 40.7825 28.1337 42.3288 26.023C43.5411 24.4132 44.3264 22.5229 44.6117 20.528C44.6117 20.3422 44.6117 20.1564 44.6117 19.9705C44.6117 19.7847 44.6117 19.5989 44.6117 19.4263C44.6117 19.2538 44.8374 20.2227 44.8374 20.2227C44.8374 20.2227 44.9834 21.0855 45.0365 21.6429H45.063Z" fill="#585858"/>
<path d="M58.2855 13.9668V6.53393H61.6834C62.6249 6.53393 63.3469 6.78523 63.8495 7.28784C64.2743 7.71257 64.4866 8.28596 64.4866 9.00801C64.4866 10.1477 63.9557 10.9158 62.8939 11.3122L64.7096 13.9668H62.7983L61.1843 11.5883H59.9207V13.9668H58.2855ZM59.9207 10.1442H61.5772C61.9736 10.1442 62.2815 10.0486 62.501 9.85748C62.7204 9.65927 62.8302 9.39735 62.8302 9.07172C62.8302 8.72486 62.7169 8.46294 62.4904 8.28596C62.2639 8.10191 61.9488 8.00989 61.5453 8.00989H59.9207V10.1442ZM68.3824 14.0942C67.5188 14.0942 66.8074 13.8217 66.2481 13.2766C65.6889 12.7244 65.4093 12.0095 65.4093 11.1317C65.4093 10.3035 65.6747 9.60264 66.2056 9.02925C66.7366 8.45586 67.4091 8.16916 68.2231 8.16916C69.1222 8.16916 69.8088 8.46648 70.2831 9.06111C70.7574 9.65573 70.9945 10.3884 70.9945 11.2591C70.9945 11.3441 70.9875 11.4856 70.9733 11.6838H67.0126C67.0905 12.0449 67.2498 12.3209 67.4905 12.5121C67.7312 12.7032 68.0355 12.7988 68.4037 12.7988C68.9063 12.7988 69.3664 12.6041 69.784 12.2148L70.7078 13.0324C70.1344 13.7403 69.3593 14.0942 68.3824 14.0942ZM66.9914 10.6751H69.423C69.3735 10.307 69.2425 10.0132 69.0301 9.79377C68.8248 9.57433 68.5558 9.4646 68.2231 9.4646C67.8975 9.4646 67.625 9.57433 67.4055 9.79377C67.1932 10.0061 67.0551 10.2999 66.9914 10.6751ZM74.5334 14.073C73.8256 14.073 73.2168 13.8075 72.7071 13.2766C72.1974 12.7457 71.9426 12.0236 71.9426 11.1105C71.9426 10.2044 72.1939 9.48938 72.6965 8.96554C73.2061 8.43462 73.8185 8.16916 74.5334 8.16916C75.2413 8.16916 75.8324 8.45232 76.3067 9.01863V6.21538H77.9207V13.9668H76.3067V13.1492C75.8537 13.765 75.2626 14.073 74.5334 14.073ZM73.9601 12.2679C74.229 12.5581 74.5582 12.7032 74.9476 12.7032C75.3369 12.7032 75.6625 12.5581 75.9245 12.2679C76.1934 11.9705 76.3279 11.5847 76.3279 11.1105C76.3279 10.6503 76.1934 10.2751 75.9245 9.9849C75.6625 9.68759 75.3369 9.53893 74.9476 9.53893C74.5582 9.53893 74.229 9.68759 73.9601 9.9849C73.6911 10.2751 73.5566 10.6574 73.5566 11.1317C73.5566 11.5918 73.6911 11.9705 73.9601 12.2679Z" fill="#1E1E1C"/>
<path d="M81.6988 14.073C80.9909 14.073 80.3821 13.8075 79.8724 13.2766C79.3627 12.7457 79.1079 12.0236 79.1079 11.1105C79.1079 10.2044 79.3592 9.48938 79.8618 8.96554C80.3715 8.43462 80.9838 8.16916 81.6988 8.16916C82.4067 8.16916 82.9978 8.45232 83.472 9.01863V6.21538H85.086V13.9668H83.472V13.1492C83.019 13.765 82.4279 14.073 81.6988 14.073ZM81.1254 12.2679C81.3944 12.5581 81.7236 12.7032 82.1129 12.7032C82.5022 12.7032 82.8279 12.5581 83.0898 12.2679C83.3588 11.9705 83.4933 11.5847 83.4933 11.1105C83.4933 10.6503 83.3588 10.2751 83.0898 9.9849C82.8279 9.68759 82.5022 9.53893 82.1129 9.53893C81.7236 9.53893 81.3944 9.68759 81.1254 9.9849C80.8564 10.2751 80.7219 10.6574 80.7219 11.1317C80.7219 11.5918 80.8564 11.9705 81.1254 12.2679ZM91.5187 13.2341C90.9312 13.8075 90.1985 14.0942 89.3207 14.0942C88.4429 14.0942 87.7102 13.8111 87.1227 13.2447C86.5422 12.6714 86.252 11.967 86.252 11.1317C86.252 10.3035 86.5458 9.60264 87.1333 9.02925C87.7279 8.45586 88.4641 8.16916 89.3419 8.16916C90.2197 8.16916 90.9488 8.45586 91.5293 9.02925C92.1169 9.59556 92.4106 10.2964 92.4106 11.1317C92.4106 11.9599 92.1133 12.6607 91.5187 13.2341ZM89.3419 12.7032C89.7879 12.7032 90.1454 12.5546 90.4144 12.2572C90.6834 11.9528 90.8179 11.5777 90.8179 11.1317C90.8179 10.6999 90.6763 10.3318 90.3932 10.0274C90.1171 9.71591 89.7596 9.56017 89.3207 9.56017C88.8747 9.56017 88.5172 9.71237 88.2482 10.0168C87.9792 10.3141 87.8447 10.6857 87.8447 11.1317C87.8447 11.5635 87.9828 11.9351 88.2589 12.2466C88.542 12.551 88.903 12.7032 89.3419 12.7032ZM95.5013 14.0624C94.9703 14.0624 94.5598 13.9349 94.2695 13.6801C93.9864 13.4182 93.8448 12.9757 93.8448 12.3528V9.65573H93.1652V8.27535H93.8448V6.82063H95.4588V8.27535H96.7967V9.65573H95.4588V12.0873C95.4588 12.4554 95.6322 12.6395 95.9791 12.6395C96.2622 12.6395 96.5277 12.5722 96.7755 12.4378V13.7332C96.4074 13.9526 95.9826 14.0624 95.5013 14.0624Z" fill="#A5A5A5"/>
<path d="M60.4516 26.7639C59.7438 26.7639 59.135 26.4984 58.6253 25.9675C58.1156 25.4366 57.8608 24.7146 57.8608 23.8014C57.8608 22.8953 58.1121 22.1803 58.6147 21.6565C59.1244 21.1255 59.7367 20.8601 60.4516 20.8601C61.1595 20.8601 61.7506 21.1432 62.2249 21.7096V18.9063H63.8389V26.6577H62.2249V25.8401C61.7719 26.456 61.1808 26.7639 60.4516 26.7639ZM59.8783 24.9588C60.1473 25.249 60.4764 25.3941 60.8658 25.3941C61.2551 25.3941 61.5807 25.249 61.8427 24.9588C62.1117 24.6615 62.2462 24.2757 62.2462 23.8014C62.2462 23.3412 62.1117 22.9661 61.8427 22.6758C61.5807 22.3785 61.2551 22.2299 60.8658 22.2299C60.4764 22.2299 60.1473 22.3785 59.8783 22.6758C59.6093 22.9661 59.4748 23.3483 59.4748 23.8226C59.4748 24.2827 59.6093 24.6615 59.8783 24.9588ZM67.978 26.7851C67.1144 26.7851 66.4029 26.5126 65.8437 25.9675C65.2845 25.4154 65.0049 24.7004 65.0049 23.8226C65.0049 22.9944 65.2703 22.2936 65.8012 21.7202C66.3322 21.1468 67.0047 20.8601 67.8187 20.8601C68.7178 20.8601 69.4044 21.1574 69.8787 21.752C70.353 22.3467 70.5901 23.0793 70.5901 23.95C70.5901 24.035 70.583 24.1766 70.5689 24.3748H66.6082C66.6861 24.7358 66.8454 25.0119 67.0861 25.203C67.3267 25.3941 67.6311 25.4897 67.9992 25.4897C68.5018 25.4897 68.962 25.295 69.3796 24.9057L70.3034 25.7233C69.73 26.4312 68.9549 26.7851 67.978 26.7851ZM66.587 23.366H69.0186C68.9691 22.9979 68.8381 22.7041 68.6257 22.4847C68.4204 22.2652 68.1514 22.1555 67.8187 22.1555C67.4931 22.1555 67.2206 22.2652 67.0011 22.4847C66.7887 22.6971 66.6507 22.9908 66.587 23.366ZM73.7892 26.7639C72.8902 26.7639 72.0761 26.4772 71.347 25.9038L72.0372 24.842C72.6602 25.295 73.2583 25.5215 73.8317 25.5215C74.2848 25.5215 74.5113 25.3729 74.5113 25.0756C74.5113 25.0402 74.5042 25.0048 74.4901 24.9694C74.483 24.934 74.4653 24.9021 74.437 24.8738C74.4086 24.8455 74.3768 24.8207 74.3414 24.7995C74.3131 24.7712 74.2706 24.7464 74.214 24.7252C74.1644 24.6969 74.1184 24.6756 74.0759 24.6615C74.0405 24.6402 73.9875 24.619 73.9167 24.5977C73.8459 24.5694 73.7857 24.5482 73.7362 24.534C73.6866 24.5199 73.6194 24.5022 73.5344 24.4809C73.4495 24.4526 73.3822 24.4314 73.3327 24.4172C73.092 24.3464 72.8867 24.2757 72.7168 24.2049C72.554 24.127 72.3805 24.0244 72.1965 23.8969C72.0124 23.7624 71.8709 23.5961 71.7718 23.3979C71.6797 23.1926 71.6337 22.9554 71.6337 22.6864C71.6337 22.1272 71.8319 21.6883 72.2283 21.3698C72.6248 21.0441 73.1203 20.8813 73.7149 20.8813C74.4794 20.8813 75.1873 21.1008 75.8386 21.5397L75.2227 22.6546C74.621 22.3006 74.1078 22.1237 73.6831 22.1237C73.2866 22.1237 73.0884 22.2617 73.0884 22.5378C73.0884 22.7289 73.4141 22.9342 74.0653 23.1536C74.1432 23.182 74.2034 23.2032 74.2458 23.2174C74.437 23.2811 74.5998 23.3412 74.7343 23.3979C74.8688 23.4545 75.021 23.5324 75.1909 23.6315C75.3608 23.7306 75.4953 23.8368 75.5944 23.95C75.7006 24.0562 75.789 24.1943 75.8598 24.3641C75.9306 24.534 75.966 24.7216 75.966 24.9269C75.966 25.5357 75.7643 25.9958 75.3608 26.3073C74.9643 26.6117 74.4405 26.7639 73.7892 26.7639ZM77.1548 20.3398V18.9063H78.8537V20.3398H77.1548ZM77.1972 26.6577V20.9663H78.8112V26.6577H77.1972ZM82.8755 28.3779C81.9482 28.3779 81.1093 28.1797 80.359 27.7833L80.9111 26.5728C81.527 26.9196 82.1676 27.0931 82.833 27.0931C83.9161 27.0931 84.4576 26.5763 84.4576 25.5428V25.2667C84.2028 25.5782 83.9303 25.8118 83.64 25.9675C83.3569 26.1162 83.01 26.1905 82.5994 26.1905C81.8986 26.1905 81.3004 25.9498 80.8049 25.4685C80.3165 24.9871 80.0723 24.3358 80.0723 23.5147C80.0723 22.7006 80.32 22.0564 80.8155 21.5821C81.3111 21.1008 81.9057 20.8601 82.5994 20.8601C83.3073 20.8601 83.9196 21.1432 84.4364 21.7096V20.9663H86.0504V25.3729C86.0504 26.3852 85.8097 27.132 85.3284 27.6134C84.8187 28.1231 84.0011 28.3779 82.8755 28.3779ZM82.0791 24.4916C82.341 24.7322 82.6702 24.8526 83.0666 24.8526C83.4631 24.8526 83.7922 24.7287 84.0541 24.4809C84.3231 24.2332 84.4576 23.9111 84.4576 23.5147C84.4576 23.1324 84.3231 22.8174 84.0541 22.5696C83.7922 22.3219 83.4631 22.198 83.0666 22.198C82.6702 22.198 82.341 22.3219 82.0791 22.5696C81.8172 22.8174 81.6862 23.1395 81.6862 23.5359C81.6862 23.9253 81.8172 24.2438 82.0791 24.4916ZM87.4924 26.6577V20.9663H89.1064V21.7733C89.5807 21.1645 90.1364 20.8601 90.7735 20.8601C91.3823 20.8601 91.8566 21.0477 92.1964 21.4229C92.5362 21.798 92.7061 22.3148 92.7061 22.9731V26.6577H91.0921V23.4828C91.0921 23.1076 91.0071 22.8209 90.8372 22.6227C90.6673 22.4245 90.4266 22.3254 90.1152 22.3254C89.8037 22.3254 89.5559 22.4245 89.3719 22.6227C89.1949 22.8209 89.1064 23.1076 89.1064 23.4828V26.6577H87.4924ZM98.9056 26.7639C98.3464 26.7639 97.8792 26.6082 97.504 26.2967C97.1359 25.9852 96.9518 25.5534 96.9518 25.0012C96.9518 24.3995 97.1571 23.9465 97.5677 23.6421C97.9853 23.3377 98.5446 23.1855 99.2454 23.1855C99.7197 23.1855 100.183 23.2634 100.636 23.4191V23.3235C100.636 22.6298 100.229 22.2829 99.4153 22.2829C98.9268 22.2829 98.403 22.3856 97.8438 22.5909L97.4403 21.3591C98.134 21.0547 98.8702 20.9026 99.6489 20.9026C100.505 20.9026 101.146 21.1149 101.571 21.5397C101.981 21.9502 102.187 22.5555 102.187 23.3554V26.6577H100.626V26.0418C100.194 26.5232 99.6206 26.7639 98.9056 26.7639ZM99.3941 25.649C99.7692 25.649 100.074 25.5569 100.307 25.3729C100.541 25.1818 100.658 24.9411 100.658 24.6508V24.3641C100.353 24.2226 100.01 24.1518 99.6277 24.1518C99.2737 24.1518 98.9976 24.2226 98.7994 24.3641C98.6083 24.4986 98.5127 24.6969 98.5127 24.9588C98.5127 25.1711 98.5941 25.341 98.757 25.4685C98.9198 25.5888 99.1321 25.649 99.3941 25.649ZM104.653 26.7002L102.901 20.9663H104.536L105.449 24.4172L106.522 20.945H107.913L108.996 24.4279L109.93 20.9663H111.534L109.76 26.7002H108.306L107.212 23.2067L106.097 26.7002H104.653ZM113.921 26.7639C113.361 26.7639 112.894 26.6082 112.519 26.2967C112.151 25.9852 111.967 25.5534 111.967 25.0012C111.967 24.3995 112.172 23.9465 112.583 23.6421C113 23.3377 113.56 23.1855 114.26 23.1855C114.735 23.1855 115.198 23.2634 115.651 23.4191V23.3235C115.651 22.6298 115.244 22.2829 114.43 22.2829C113.942 22.2829 113.418 22.3856 112.859 22.5909L112.455 21.3591C113.149 21.0547 113.885 20.9026 114.664 20.9026C115.52 20.9026 116.161 21.1149 116.586 21.5397C116.996 21.9502 117.202 22.5555 117.202 23.3554V26.6577H115.641V26.0418C115.209 26.5232 114.636 26.7639 113.921 26.7639ZM114.409 25.649C114.784 25.649 115.089 25.5569 115.322 25.3729C115.556 25.1818 115.673 24.9411 115.673 24.6508V24.3641C115.368 24.2226 115.025 24.1518 114.643 24.1518C114.289 24.1518 114.013 24.2226 113.814 24.3641C113.623 24.4986 113.528 24.6969 113.528 24.9588C113.528 25.1711 113.609 25.341 113.772 25.4685C113.935 25.5888 114.147 25.649 114.409 25.649ZM118.591 26.6577V20.9663H120.205V22.113C120.573 21.2423 121.178 20.8247 122.02 20.8601V22.5484H121.935C121.383 22.5484 120.955 22.7183 120.651 23.0581C120.353 23.3908 120.205 23.8899 120.205 24.5553V26.6577H118.591ZM125.261 26.7639C124.553 26.7639 123.944 26.4984 123.435 25.9675C122.925 25.4366 122.67 24.7146 122.67 23.8014C122.67 22.8953 122.922 22.1803 123.424 21.6565C123.934 21.1255 124.546 20.8601 125.261 20.8601C125.969 20.8601 126.56 21.1432 127.034 21.7096V18.9063H128.648V26.6577H127.034V25.8401C126.581 26.456 125.99 26.7639 125.261 26.7639ZM124.688 24.9588C124.957 25.249 125.286 25.3941 125.675 25.3941C126.065 25.3941 126.39 25.249 126.652 24.9588C126.921 24.6615 127.056 24.2757 127.056 23.8014C127.056 23.3412 126.921 22.9661 126.652 22.6758C126.39 22.3785 126.065 22.2299 125.675 22.2299C125.286 22.2299 124.957 22.3785 124.688 22.6758C124.419 22.9661 124.284 23.3483 124.284 23.8226C124.284 24.2827 124.419 24.6615 124.688 24.9588ZM133.072 26.6577V25.3623L135.546 23.3342C136.035 22.9307 136.371 22.6086 136.555 22.3679C136.739 22.1201 136.831 21.8476 136.831 21.5503C136.831 21.2459 136.739 21.0087 136.555 20.8388C136.371 20.6689 136.13 20.584 135.833 20.584C135.557 20.584 135.305 20.6619 135.079 20.8176C134.859 20.9663 134.605 21.2211 134.314 21.5821L133.168 20.6583C133.557 20.1274 133.957 19.7381 134.368 19.4903C134.785 19.2425 135.309 19.1187 135.939 19.1187C136.711 19.1187 137.33 19.331 137.797 19.7558C138.264 20.1734 138.498 20.7327 138.498 21.4335C138.498 21.837 138.42 22.2015 138.264 22.5272C138.109 22.8457 137.907 23.1289 137.659 23.3766C137.411 23.6173 137.04 23.9288 136.544 24.3111L135.334 25.2455H138.572V26.6577H133.072ZM145.422 25.6914C144.806 26.4206 144.009 26.7851 143.033 26.7851C142.056 26.7851 141.263 26.4206 140.654 25.6914C140.045 24.9623 139.741 24.0456 139.741 22.9413C139.741 21.844 140.049 20.9309 140.665 20.2017C141.281 19.4655 142.077 19.0974 143.054 19.0974C144.024 19.0974 144.813 19.462 145.422 20.1911C146.038 20.9203 146.346 21.837 146.346 22.9413C146.346 24.0385 146.038 24.9552 145.422 25.6914ZM141.865 24.6402C142.169 25.0862 142.565 25.3092 143.054 25.3092C143.542 25.3092 143.932 25.0897 144.222 24.6508C144.519 24.2049 144.668 23.635 144.668 22.9413C144.668 22.2617 144.516 21.6989 144.211 21.253C143.907 20.7999 143.514 20.5734 143.033 20.5734C142.551 20.5734 142.162 20.7964 141.865 21.2423C141.567 21.6812 141.419 22.2475 141.419 22.9413C141.419 23.6279 141.567 24.1943 141.865 24.6402ZM147.341 26.6577V25.3623L149.815 23.3342C150.303 22.9307 150.639 22.6086 150.823 22.3679C151.007 22.1201 151.099 21.8476 151.099 21.5503C151.099 21.2459 151.007 21.0087 150.823 20.8388C150.639 20.6689 150.399 20.584 150.101 20.584C149.825 20.584 149.574 20.6619 149.347 20.8176C149.128 20.9663 148.873 21.2211 148.583 21.5821L147.436 20.6583C147.825 20.1274 148.225 19.7381 148.636 19.4903C149.054 19.2425 149.577 19.1187 150.207 19.1187C150.979 19.1187 151.598 19.331 152.066 19.7558C152.533 20.1734 152.767 20.7327 152.767 21.4335C152.767 21.837 152.689 22.2015 152.533 22.5272C152.377 22.8457 152.175 23.1289 151.928 23.3766C151.68 23.6173 151.308 23.9288 150.813 24.3111L149.602 25.2455H152.841V26.6577H147.341ZM153.956 26.6577V25.3623L156.43 23.3342C156.919 22.9307 157.255 22.6086 157.439 22.3679C157.623 22.1201 157.715 21.8476 157.715 21.5503C157.715 21.2459 157.623 21.0087 157.439 20.8388C157.255 20.6689 157.014 20.584 156.717 20.584C156.441 20.584 156.19 20.6619 155.963 20.8176C155.744 20.9663 155.489 21.2211 155.199 21.5821L154.052 20.6583C154.441 20.1274 154.841 19.7381 155.252 19.4903C155.669 19.2425 156.193 19.1187 156.823 19.1187C157.595 19.1187 158.214 19.331 158.681 19.7558C159.149 20.1734 159.382 20.7327 159.382 21.4335C159.382 21.837 159.304 22.2015 159.149 22.5272C158.993 22.8457 158.791 23.1289 158.543 23.3766C158.296 23.6173 157.924 23.9288 157.428 24.3111L156.218 25.2455H159.457V26.6577H153.956Z" fill="#1E1E1C"/>
<path d="M58.4448 39.333V31.9001H61.2268C62.0763 31.9001 62.7523 32.1125 63.2549 32.5372C63.7575 32.962 64.0088 33.5425 64.0088 34.2787C64.0088 35.0503 63.7292 35.6484 63.17 36.0732C62.6178 36.4979 61.9241 36.7103 61.0888 36.7103H59.2836V39.333H58.4448ZM59.2836 35.9457H61.1206C61.7365 35.9457 62.2285 35.7971 62.5966 35.4998C62.9717 35.1954 63.1593 34.7919 63.1593 34.2893C63.1593 33.7725 62.9788 33.3761 62.6178 33.1C62.2639 32.8169 61.7789 32.6753 61.1631 32.6753H59.2836V35.9457ZM65.3995 39.333V33.8433H66.2171V35.2768C66.4295 34.8025 66.7303 34.4238 67.1197 34.1406C67.509 33.8575 67.955 33.7265 68.4576 33.7477V34.6291H68.3939C67.7638 34.6291 67.2435 34.8485 66.833 35.2874C66.4224 35.7263 66.2171 36.3457 66.2171 37.1456V39.333H65.3995ZM74.0196 38.6216C73.4675 39.1808 72.7843 39.4604 71.9703 39.4604C71.1562 39.4604 70.4766 39.1808 69.9315 38.6216C69.3935 38.0623 69.1245 37.3863 69.1245 36.5935C69.1245 35.8077 69.3971 35.1352 69.9422 34.576C70.4943 34.0097 71.1774 33.7265 71.9915 33.7265C72.8056 33.7265 73.4852 34.0061 74.0302 34.5654C74.5753 35.1246 74.8478 35.8006 74.8478 36.5935C74.8478 37.3792 74.5718 38.0553 74.0196 38.6216ZM71.9915 38.7278C72.5791 38.7278 73.0604 38.5225 73.4356 38.1119C73.8179 37.7013 74.009 37.1952 74.009 36.5935C74.009 35.9988 73.8108 35.4927 73.4144 35.075C73.025 34.6574 72.5437 34.4486 71.9703 34.4486C71.3827 34.4486 70.9013 34.6574 70.5262 35.075C70.151 35.4856 69.9634 35.9918 69.9634 36.5935C69.9634 37.1881 70.1581 37.6942 70.5474 38.1119C70.9367 38.5225 71.4181 38.7278 71.9915 38.7278ZM78.6331 39.4498C77.9323 39.4498 77.32 39.1914 76.7962 38.6747C76.2723 38.1508 76.0104 37.4536 76.0104 36.5828C76.0104 35.7263 76.2723 35.0361 76.7962 34.5123C77.32 33.9884 77.9323 33.7265 78.6331 33.7265C79.4968 33.7265 80.1976 34.1158 80.7356 34.8945V31.5816H81.5532V39.333H80.7356V38.2287C80.1834 39.0428 79.4826 39.4498 78.6331 39.4498ZM78.7818 38.7171C79.3127 38.7171 79.7764 38.5154 80.1728 38.1119C80.5692 37.7084 80.7674 37.1952 80.7674 36.5722C80.7674 35.9634 80.5692 35.4608 80.1728 35.0644C79.7764 34.6609 79.3127 34.4592 78.7818 34.4592C78.2296 34.4592 77.7695 34.6538 77.4014 35.0432C77.0333 35.4254 76.8492 35.9422 76.8492 36.5935C76.8492 37.2235 77.0368 37.7367 77.412 38.1331C77.7872 38.5225 78.2438 38.7171 78.7818 38.7171ZM85.3977 39.4498C84.7464 39.4498 84.2332 39.2516 83.858 38.8552C83.4829 38.4517 83.2953 37.9172 83.2953 37.2518V33.8433H84.1129V37.0501C84.1129 37.5668 84.2438 37.9739 84.5058 38.2712C84.7748 38.5614 85.1499 38.7065 85.6313 38.7065C86.1056 38.7065 86.4985 38.5472 86.8099 38.2287C87.1214 37.9101 87.2772 37.496 87.2772 36.9863V33.8433H88.0842V39.333H87.2772V38.3774C86.8312 39.0923 86.2047 39.4498 85.3977 39.4498ZM92.3975 39.4604C91.6046 39.4604 90.9357 39.1808 90.3906 38.6216C89.8526 38.0553 89.5836 37.3792 89.5836 36.5935C89.5836 35.8077 89.8526 35.1352 90.3906 34.576C90.9357 34.0097 91.6046 33.7265 92.3975 33.7265C93.2469 33.7265 93.9796 34.0521 94.5955 34.7034L94.0752 35.2556C93.5655 34.7176 93.0027 34.4486 92.3868 34.4486C91.8347 34.4486 91.3675 34.6574 90.9852 35.075C90.61 35.4856 90.4224 35.9918 90.4224 36.5935C90.4224 37.1881 90.6136 37.6942 90.9958 38.1119C91.3852 38.5225 91.8665 38.7278 92.4399 38.7278C93.0275 38.7278 93.5796 38.4517 94.0964 37.8995L94.6379 38.3986C94.0008 39.1065 93.254 39.4604 92.3975 39.4604ZM97.8265 39.4286C97.3522 39.4286 96.9735 39.3047 96.6903 39.0569C96.4143 38.8021 96.2762 38.4092 96.2762 37.8783V34.5654H95.5117V33.8433H96.2762V32.1868H97.0938V33.8433H98.8353V34.5654H97.0938V37.7721C97.0938 38.3809 97.4018 38.6853 98.0176 38.6853C98.2866 38.6853 98.5521 38.6216 98.814 38.4942V39.195C98.5167 39.3507 98.1875 39.4286 97.8265 39.4286ZM103.604 39.333V31.9001H106.184C107.345 31.9001 108.294 32.2541 109.03 32.962C109.766 33.6628 110.134 34.5477 110.134 35.6166C110.134 36.6784 109.763 37.5633 109.019 38.2712C108.283 38.9791 107.338 39.333 106.184 39.333H103.604ZM104.443 38.5579H106.184C107.112 38.5579 107.855 38.2818 108.414 37.7296C108.98 37.1704 109.264 36.466 109.264 35.6166C109.264 34.7742 108.98 34.0734 108.414 33.5141C107.848 32.9549 107.105 32.6753 106.184 32.6753H104.443V38.5579ZM112.26 36.9226C112.317 37.4819 112.526 37.9278 112.887 38.2606C113.255 38.5862 113.69 38.749 114.193 38.749C114.851 38.749 115.428 38.4906 115.924 37.9739L116.433 38.4304C115.818 39.1171 115.064 39.4604 114.172 39.4604C113.4 39.4604 112.749 39.195 112.218 38.664C111.694 38.1261 111.432 37.4359 111.432 36.5935C111.432 35.7935 111.683 35.1175 112.186 34.5654C112.689 34.0061 113.315 33.7265 114.065 33.7265C114.851 33.7265 115.474 34.0026 115.934 34.5547C116.394 35.1069 116.625 35.8006 116.625 36.6359C116.625 36.7421 116.621 36.8377 116.614 36.9226H112.26ZM112.26 36.2643H115.796C115.747 35.7334 115.57 35.2945 115.265 34.9476C114.968 34.5937 114.561 34.4167 114.044 34.4167C113.577 34.4167 113.177 34.5901 112.844 34.937C112.512 35.2839 112.317 35.7263 112.26 36.2643ZM119.872 39.4392C119.475 39.4392 119.072 39.3684 118.661 39.2268C118.258 39.0782 117.904 38.88 117.599 38.6322L118.013 38.0482C118.636 38.5154 119.27 38.749 119.914 38.749C120.247 38.749 120.519 38.6676 120.732 38.5048C120.944 38.342 121.05 38.1261 121.05 37.8571C121.05 37.6093 120.933 37.4182 120.7 37.2837C120.473 37.1492 120.134 37.0182 119.68 36.8908C119.404 36.8129 119.185 36.7421 119.022 36.6784C118.859 36.6147 118.675 36.5262 118.47 36.413C118.265 36.2926 118.112 36.144 118.013 35.967C117.914 35.7829 117.865 35.567 117.865 35.3193C117.865 34.8521 118.038 34.4733 118.385 34.1831C118.739 33.8929 119.188 33.7477 119.734 33.7477C120.441 33.7477 121.1 33.9495 121.709 34.353L121.337 34.9689C120.792 34.6149 120.25 34.4379 119.712 34.4379C119.394 34.4379 119.135 34.5158 118.937 34.6715C118.746 34.8202 118.65 35.0149 118.65 35.2556C118.65 35.3547 118.679 35.4467 118.735 35.5316C118.792 35.6166 118.856 35.6874 118.927 35.744C118.997 35.8006 119.107 35.8608 119.256 35.9245C119.411 35.9882 119.535 36.0342 119.627 36.0625C119.719 36.0909 119.865 36.1369 120.063 36.2006C120.325 36.2785 120.541 36.3528 120.71 36.4236C120.88 36.4944 121.061 36.5899 121.252 36.7103C121.443 36.8306 121.585 36.9828 121.677 37.1669C121.776 37.3438 121.825 37.5527 121.825 37.7933C121.825 38.303 121.641 38.7065 121.273 39.0038C120.905 39.2941 120.438 39.4392 119.872 39.4392ZM123.366 32.6434V31.7409H124.3V32.6434H123.366ZM123.419 39.333V33.8433H124.236V39.333H123.419ZM128.565 41.0532C127.638 41.0532 126.806 40.7983 126.07 40.2887L126.442 39.6516C127.086 40.1188 127.79 40.3524 128.555 40.3524C129.171 40.3524 129.655 40.1825 130.009 39.8427C130.37 39.51 130.551 39.0286 130.551 38.3986V37.7509C129.97 38.5225 129.252 38.9083 128.395 38.9083C127.702 38.9083 127.096 38.6711 126.58 38.1968C126.07 37.7155 125.815 37.089 125.815 36.3174C125.815 35.5458 126.074 34.9228 126.59 34.4486C127.107 33.9672 127.709 33.7265 128.395 33.7265C129.273 33.7265 129.988 34.0946 130.54 34.8308V33.8433H131.358V38.3774C131.358 39.2056 131.124 39.8533 130.657 40.3205C130.169 40.809 129.471 41.0532 128.565 41.0532ZM128.555 38.1862C129.093 38.1862 129.563 38.0092 129.967 37.6553C130.37 37.3014 130.572 36.8518 130.572 36.3068C130.572 35.7617 130.37 35.3157 129.967 34.9689C129.571 34.622 129.1 34.4486 128.555 34.4486C128.017 34.4486 127.564 34.622 127.196 34.9689C126.835 35.3086 126.654 35.7582 126.654 36.3174C126.654 36.8554 126.838 37.3014 127.206 37.6553C127.581 38.0092 128.031 38.1862 128.555 38.1862ZM133.185 39.333V33.8433H134.003V34.799C134.434 34.084 135.061 33.7265 135.882 33.7265C136.533 33.7265 137.047 33.9283 137.422 34.3318C137.797 34.7282 137.984 35.2591 137.984 35.9245V39.333H137.167V36.1263C137.167 35.6095 137.032 35.206 136.763 34.9158C136.501 34.6184 136.13 34.4698 135.648 34.4698C135.174 34.4698 134.781 34.6291 134.47 34.9476C134.158 35.2662 134.003 35.6803 134.003 36.19V39.333H133.185Z" fill="#1E1E1C"/>
<defs>
<radialGradient id="paint0_radial_1056_4738" cx="0" cy="0" r="1" gradientUnits="userSpaceOnUse" gradientTransform="translate(34.4116 31.7412) scale(18.7101 17.0359)">
<stop stop-color="white"/>
<stop offset="0.01" stop-color="#FFFEFD"/>
<stop offset="0.13" stop-color="#F2F1F1"/>
<stop offset="0.25" stop-color="#EFEFEF"/>
<stop offset="0.35" stop-color="#F3F3F3"/>
<stop offset="0.42" stop-color="#D2D2D2"/>
<stop offset="0.52" stop-color="#9E9E9E"/>
<stop offset="1"/>
</radialGradient>
<radialGradient id="paint1_radial_1056_4738" cx="0" cy="0" r="1" gradientUnits="userSpaceOnUse" gradientTransform="translate(9.58295 4.24317) scale(17.2069 20.2629)">
<stop stop-color="white"/>
<stop offset="0.01" stop-color="#FFFEFD"/>
<stop offset="0.13" stop-color="#F2F1F1"/>
<stop offset="0.25" stop-color="#EFEFEF"/>
<stop offset="0.35" stop-color="#F3F3F3"/>
<stop offset="0.42" stop-color="#D2D2D2"/>
<stop offset="0.52" stop-color="#9E9E9E"/>
<stop offset="1"/>
</radialGradient>
<radialGradient id="paint2_radial_1056_4738" cx="0" cy="0" r="1" gradientUnits="userSpaceOnUse" gradientTransform="translate(18.2733 4.94064) scale(38.1396 37.6971)">
<stop stop-color="white"/>
<stop offset="0.01" stop-color="#FFFEFD"/>
<stop offset="0.13" stop-color="#F2F1F1"/>
<stop offset="0.25" stop-color="#EFEFEF"/>
<stop offset="0.35" stop-color="#F3F3F3"/>
<stop offset="0.42" stop-color="#D2D2D2"/>
<stop offset="0.52" stop-color="#9E9E9E"/>
<stop offset="1"/>
</radialGradient>
<radialGradient id="paint3_radial_1056_4738" cx="0" cy="0" r="1" gradientUnits="userSpaceOnUse" gradientTransform="translate(24.0176 10.1298) scale(42.5202 42.6333)">
<stop stop-color="white"/>
<stop offset="0.01" stop-color="#FFFEFD"/>
<stop offset="0.13" stop-color="#F2F1F1"/>
<stop offset="0.25" stop-color="#EFEFEF"/>
<stop offset="0.35" stop-color="#F3F3F3"/>
<stop offset="0.42" stop-color="#D2D2D2"/>
<stop offset="0.52" stop-color="#9E9E9E"/>
<stop offset="1"/>
</radialGradient>
<radialGradient id="paint4_radial_1056_4738" cx="0" cy="0" r="1" gradientUnits="userSpaceOnUse" gradientTransform="translate(29.8413 19.7348) scale(36.1822 35.1613)">
<stop stop-color="white"/>
<stop offset="0.01" stop-color="#FFFEFD"/>
<stop offset="0.13" stop-color="#F2F1F1"/>
<stop offset="0.25" stop-color="#EFEFEF"/>
<stop offset="0.35" stop-color="#F3F3F3"/>
<stop offset="0.42" stop-color="#D2D2D2"/>
<stop offset="0.52" stop-color="#9E9E9E"/>
<stop offset="1"/>
</radialGradient>
</defs>
</svg>
