<svg width="88" height="20" viewBox="0 0 88 20" fill="none" xmlns="http://www.w3.org/2000/svg">
<path d="M18.949 9.62191V1.21222C18.94 0.502966 19.4085 0.0332031 20.1023 0.0332031C20.7961 0.0332031 21.2557 0.502966 21.2557 1.21222L21.2467 9.31794C21.2467 13.334 22.8866 15.0288 26.8692 15.0288L29.7705 15.0196C30.4643 15.0288 30.9238 15.4893 30.9238 16.1986C30.9238 16.9078 30.4643 17.3868 29.7705 17.3776H26.5358C21.6792 17.3868 18.94 14.5867 18.949 9.62191ZM58.0181 0.171369H59.6941C64.5507 0.171369 67.2628 2.95311 67.2718 7.92707V16.3552C67.2628 17.0644 66.8123 17.525 66.1185 17.525C65.4247 17.525 64.9561 17.0644 64.9651 16.3552L64.9471 8.24025C64.9561 4.21502 63.3253 2.54782 59.3517 2.54782H58.3605C54.3869 2.54782 52.738 4.20581 52.738 8.24025L52.747 16.346C52.738 17.0644 52.2875 17.525 51.5937 17.525C50.8999 17.525 50.4314 17.0644 50.4404 16.346V7.92707C50.4314 2.95311 53.1615 0.171369 58.0181 0.171369ZM7.57788 0.171369H9.25381C13.8671 0.171369 16.8226 2.68598 16.8226 7.42047C16.8226 12.1181 13.8671 14.6788 9.25381 14.6696H5.93798C5.23517 14.6788 4.78465 14.1998 4.78465 13.4906C4.78465 12.7813 5.23517 12.3208 5.93798 12.3115L8.91142 12.3207C12.6417 12.3207 14.5069 10.8746 14.5069 7.42047C14.5069 3.96632 12.6417 2.54782 8.91142 2.54782H7.92027C3.94669 2.54782 2.29778 4.20581 2.29778 8.24025L2.30679 16.346C2.29778 17.0644 1.84726 17.525 1.15346 17.525C0.459659 17.525 -0.00888269 17.0644 0.000127718 16.346V7.92707C-0.00888269 2.95311 2.72127 0.171369 7.57788 0.171369ZM77.1562 0.171369H78.8322C83.6888 0.171369 86.4099 2.95311 86.4099 7.92707V11.9615C86.4009 12.68 85.9504 13.159 85.2566 13.159C84.5628 13.159 84.0942 12.68 84.1032 11.9615L84.0852 8.23104C84.0942 4.20581 82.4634 2.53861 78.4898 2.53861H77.4986C73.525 2.53861 71.8761 4.18739 71.8761 8.23104V9.30873C71.8761 13.3432 73.516 15.0196 77.4986 15.0196H83.887C85.5359 15.0196 86.1126 15.4341 86.9956 16.3368L87.5272 16.8802C88.1039 17.4697 88.1579 18.1882 87.6624 18.6856C87.1668 19.1922 86.491 19.1646 85.8242 18.4737L85.2386 17.875C84.9502 17.5895 84.6889 17.3684 83.9681 17.3592H77.1472C72.2996 17.3684 69.5695 14.5775 69.5695 9.60349V7.91787C69.5785 2.95311 72.2996 0.171369 77.1562 0.171369ZM33.5999 8.24025V9.31794C33.5999 13.3524 35.2398 15.0288 39.2224 15.0288H40.2136C44.1872 15.0288 45.809 13.3524 45.809 9.31794V8.24025C45.809 4.20581 44.1872 2.54782 40.2136 2.54782H39.2224C35.2488 2.54782 33.5999 4.1966 33.5999 8.24025ZM38.88 0.171369H40.556C45.4126 0.171369 48.1337 2.95311 48.1337 7.92707V9.6127C48.1337 14.5867 45.4126 17.3684 40.556 17.3684H38.88C34.0234 17.3684 31.3023 14.5867 31.3023 9.6127V7.92707C31.3023 2.95311 34.0324 0.171369 38.88 0.171369Z" fill="#323232"/>
</svg>
