<svg width="167" height="59" viewBox="0 0 167 59" fill="none" xmlns="http://www.w3.org/2000/svg">
<path d="M45.1273 15.2107C37.0238 13.9216 29.7227 9.5751 24.7268 3.06589L23.0808 0.822754L21.435 3.06589C16.4391 9.5751 9.13799 13.9216 1.03445 15.2107C0.927423 23.6381 2.87979 31.9642 6.72188 39.4657C10.564 46.9671 16.1796 53.417 23.0808 58.2549C29.9821 53.417 35.5978 46.9671 39.4399 39.4657C43.282 31.9642 45.2343 23.6381 45.1273 15.2107Z" fill="url(#paint0_linear_1056_4851)"/>
<path d="M23.082 58.8789L22.8033 58.7064C15.8514 53.795 10.1919 47.2734 6.30875 39.6989C2.42559 32.1244 0.434223 23.7224 0.504739 15.2108V14.7595H0.942689C8.90891 13.4772 16.0862 9.20504 21.0114 2.81386L23.082 0L25.1526 2.81386C30.0778 9.20504 37.2552 13.4772 45.2214 14.7595H45.6593V15.2108C45.7299 23.7224 43.7385 32.1244 39.8553 39.6989C35.9722 47.2734 30.3127 53.795 23.3608 58.7064L23.082 58.8789ZM1.56656 15.6488C1.57041 23.8507 3.52314 31.9343 7.26388 39.2334C11.0046 46.5326 16.4262 52.8384 23.082 57.6312C29.7378 52.8384 35.1595 46.5326 38.9002 39.2334C42.6409 31.9343 44.5937 23.8507 44.5975 15.6488C36.5271 14.2497 29.2755 9.87311 24.2766 3.3846L23.0555 1.71221L21.8343 3.3846C16.8484 9.86184 9.61774 14.2372 1.56656 15.6488Z" fill="url(#paint1_linear_1056_4851)"/>
<path d="M10.2582 21.9269L8.86453 23.4533H7.44431L6.5019 22.4445L6.97971 21.9269H8.30701L7.64336 22.6436L8.08139 23.1082L9.16978 21.9269H10.2316M10.2316 21.834H9.16978L8.14774 22.9622L7.8292 22.6171L8.4265 21.9534C8.4265 21.9534 8.4265 21.8605 8.34687 21.8605H7.01957H6.95322L6.47541 22.3914C6.46235 22.406 6.45508 22.425 6.45508 22.4445C6.45508 22.4641 6.46235 22.483 6.47541 22.4976L7.41774 23.5064H7.48409H8.90431H8.97066L10.298 21.98C10.3077 21.9664 10.3129 21.9502 10.3129 21.9335C10.3129 21.9169 10.3077 21.9006 10.298 21.8871C10.2855 21.8812 10.272 21.8781 10.2582 21.8781C10.2444 21.8781 10.2308 21.8812 10.2183 21.8871L10.2316 21.834Z" fill="#1E1E1C"/>
<path d="M14.6516 21.9266V21.9929L13.3243 23.4529H12.3288L13.4039 22.2584H11.6652L11.3068 22.6566V22.7229H12.3288L11.6121 23.5193H9.54155L10.6167 22.3115C10.7103 22.2116 10.8234 22.1319 10.9489 22.0771C11.0744 22.0223 11.2097 21.9937 11.3467 21.9929H14.6516M14.6383 21.8204H11.3334C11.1833 21.8234 11.0355 21.8568 10.8987 21.9183C10.7618 21.9799 10.6388 22.0685 10.537 22.1787L9.46191 23.3866C9.46191 23.3866 9.46191 23.3866 9.46191 23.4662C9.4734 23.4748 9.48733 23.4795 9.50169 23.4795C9.51605 23.4795 9.53006 23.4748 9.54155 23.4662H11.6253L12.3421 22.6698C12.3424 22.6473 12.3344 22.6255 12.3198 22.6084C12.3051 22.5913 12.2848 22.5801 12.2625 22.5769H11.3599L11.6121 22.2982H13.165L12.1696 23.4131C12.1696 23.4131 12.1696 23.4131 12.1696 23.4928C12.1797 23.4986 12.1911 23.5017 12.2028 23.5017C12.2144 23.5017 12.2258 23.4986 12.2359 23.4928H13.2977H13.3642L14.6915 22.0327C14.7046 22.0131 14.7116 21.99 14.7116 21.9664C14.7116 21.9427 14.7046 21.9197 14.6915 21.9C14.6854 21.8766 14.6716 21.856 14.6523 21.8416C14.633 21.8271 14.6094 21.8196 14.5853 21.8204H14.6383Z" fill="#1E1E1C"/>
<path d="M23.7063 21.9259C23.7063 21.9259 23.7063 21.9259 23.7063 21.9923L22.9763 22.7887H20.9455L21.1313 22.5763H22.0869L22.432 22.1914H20.9057L19.9234 23.293H22.578H22.5117C22.3747 23.3982 22.2065 23.4543 22.0338 23.4523H18.7422C18.7312 23.4451 18.7222 23.4352 18.716 23.4236C18.7098 23.412 18.7065 23.3991 18.7065 23.386C18.7065 23.3728 18.7098 23.3599 18.716 23.3483C18.7222 23.3367 18.7312 23.3269 18.7422 23.3196L19.8173 22.1118C19.8766 22.0526 19.947 22.0058 20.0244 21.9739C20.1019 21.942 20.1848 21.9257 20.2685 21.9259H23.7859M23.7859 21.8463H20.2685C20.173 21.8446 20.0784 21.8639 19.9912 21.9029C19.904 21.9419 19.8265 21.9996 19.7641 22.0719L18.6758 23.2798C18.6593 23.3055 18.6504 23.3354 18.6504 23.366C18.6504 23.3966 18.6593 23.4266 18.6758 23.4523C18.6908 23.4785 18.7119 23.5006 18.7373 23.5168C18.7628 23.533 18.7918 23.5428 18.8218 23.5452H22.1135C22.3036 23.5411 22.4882 23.481 22.6444 23.3727C22.6444 23.348 22.6346 23.3244 22.6172 23.307C22.5998 23.2896 22.5762 23.2798 22.5515 23.2798H20.1093L20.9587 22.3507H22.286L22.0338 22.6294H21.118L20.9322 22.8418C20.9224 22.8553 20.9173 22.8716 20.9173 22.8882C20.9173 22.9049 20.9224 22.9211 20.9322 22.9347C20.9443 22.9417 20.958 22.9453 20.972 22.9453C20.986 22.9453 20.9997 22.9417 21.0118 22.9347H22.9497C22.9497 22.9347 22.9497 22.9347 23.016 22.9347L23.7328 22.1383C23.7445 22.1181 23.7506 22.0952 23.7506 22.0719C23.7506 22.0486 23.7445 22.0257 23.7328 22.0056C23.7268 21.9822 23.713 21.9616 23.6937 21.9471C23.6744 21.9326 23.6507 21.9252 23.6266 21.9259L23.7859 21.8463Z" fill="#1E1E1C"/>
<path d="M32.9694 21.7146L31.6421 23.2144H29.5848L30.2883 22.4313H31.3103L31.6554 22.0464H30.0892L28.0717 24.2895C28.036 24.3321 27.9913 24.3661 27.9407 24.389C27.8902 24.412 27.8352 24.4233 27.7797 24.4223C27.724 24.4243 27.6687 24.4134 27.618 24.3904C27.5673 24.3674 27.5227 24.3328 27.4876 24.2895L27.1957 23.971L29.2264 21.7013H32.9827M32.9827 21.6084H29.2264L27.116 23.971C27.103 23.9856 27.0957 24.0045 27.0957 24.0241C27.0957 24.0437 27.103 24.0626 27.116 24.0772L27.408 24.409C27.4547 24.4563 27.5106 24.4937 27.5722 24.5188C27.6338 24.5439 27.6999 24.5562 27.7664 24.555C27.8323 24.5571 27.8978 24.5438 27.9577 24.5161C28.0177 24.4885 28.0703 24.4472 28.1115 24.3957L30.1289 22.1659H31.5492L31.297 22.4446H30.3148L29.6114 23.2277C29.6016 23.2412 29.5964 23.2575 29.5964 23.2742C29.5964 23.2908 29.6016 23.3071 29.6114 23.3206C29.6238 23.3265 29.6374 23.3296 29.6511 23.3296C29.6649 23.3296 29.6786 23.3265 29.691 23.3206H31.735L33.0623 21.8208C33.0754 21.8011 33.0825 21.778 33.0825 21.7544C33.0825 21.7308 33.0754 21.7077 33.0623 21.688C33.0532 21.6666 33.0385 21.648 33.0199 21.634C33.0012 21.62 32.9792 21.6112 32.9561 21.6084H32.9827Z" fill="#1E1E1C"/>
<path d="M36.3679 21.7148L35.8769 22.2723H35.0009L35.2663 21.9803H34.5098L33.3948 23.2147H32.2799L33.3948 21.967C33.4885 21.8671 33.6015 21.7874 33.727 21.7326C33.8525 21.6779 33.9879 21.6492 34.1248 21.6484H36.3415M36.3415 21.5555H34.1248C33.9742 21.5554 33.8254 21.5873 33.6881 21.6491C33.5508 21.7108 33.4282 21.8011 33.3285 21.9139L32.2135 23.1483C32.2073 23.163 32.2041 23.1788 32.2041 23.1947C32.2041 23.2107 32.2073 23.2265 32.2135 23.2412C32.239 23.2515 32.2676 23.2515 32.2931 23.2412H33.4081H33.4744L34.5628 22.0334H35.0938L34.9477 22.1926C34.9407 22.2047 34.9371 22.2185 34.9371 22.2325C34.9371 22.2464 34.9407 22.2602 34.9477 22.2723C34.9598 22.2793 34.9736 22.2829 34.9876 22.2829C35.0016 22.2829 35.0153 22.2793 35.0274 22.2723H35.9034L36.4078 21.7148C36.4173 21.694 36.4223 21.6714 36.4223 21.6484C36.4223 21.6255 36.4173 21.6029 36.4078 21.5821C36.3964 21.5596 36.3795 21.5405 36.3585 21.5266C36.3376 21.5126 36.3134 21.5043 36.2883 21.5024L36.3415 21.5555Z" fill="#1E1E1C"/>
<path d="M38.2812 21.7143C37.7485 22.0832 37.3557 22.621 37.1663 23.2407H36.2239C36.1857 23.2403 36.1484 23.2288 36.1165 23.2077C36.0846 23.1866 36.0595 23.1568 36.0441 23.1218C36.0287 23.0868 36.0237 23.0481 36.0297 23.0104C36.0357 22.9726 36.0525 22.9374 36.0779 22.9089L36.9539 21.94C37.0259 21.8556 37.1155 21.7881 37.2164 21.7423C37.3173 21.6964 37.4271 21.6733 37.5379 21.6745H38.3476M38.3476 21.5816H37.5379C37.4149 21.5802 37.293 21.6057 37.1807 21.6561C37.0684 21.7065 36.9684 21.7807 36.8876 21.8736L36.0116 22.8558C35.9831 22.8992 35.9678 22.9499 35.9678 23.0018C35.9678 23.0537 35.9831 23.1045 36.0116 23.1478C36.0307 23.199 36.0652 23.2431 36.1104 23.274C36.1555 23.3049 36.2091 23.3211 36.2638 23.3204H37.2327C37.2597 23.3189 37.2856 23.3092 37.307 23.2926C37.3283 23.276 37.344 23.2533 37.3521 23.2275C37.5349 22.6224 37.9189 22.0979 38.4405 21.7409C38.4502 21.7273 38.4555 21.7111 38.4555 21.6944C38.4555 21.6778 38.4502 21.6615 38.4405 21.648C38.4284 21.641 38.4147 21.6373 38.4007 21.6373C38.3867 21.6373 38.373 21.641 38.3609 21.648L38.3476 21.5816Z" fill="#1E1E1C"/>
<path d="M39.5399 21.7145C39.5867 21.7129 39.6329 21.7252 39.6728 21.7496C39.7127 21.7741 39.7445 21.8098 39.7642 21.8522C39.784 21.8946 39.7909 21.9419 39.7841 21.9882C39.7772 22.0345 39.757 22.0778 39.7258 22.1126L38.7966 23.1347C38.7204 23.2154 38.6155 23.263 38.5046 23.2674C38.4171 23.2627 38.3334 23.2301 38.2657 23.1745L37.8941 22.8825L38.6639 22.0197H38.3188L38.5843 21.7277H39.5134M39.5134 21.6348H38.5843C38.5543 21.6236 38.5213 21.6236 38.4914 21.6348L38.2259 21.9268C38.2197 21.9415 38.2165 21.9573 38.2165 21.9733C38.2165 21.9892 38.2197 22.005 38.2259 22.0197C38.2384 22.0256 38.2519 22.0287 38.2657 22.0287C38.2795 22.0287 38.2931 22.0256 38.3055 22.0197H38.4648L37.8145 22.7365L38.1861 23.0285C38.2683 23.0963 38.3715 23.1338 38.4781 23.1347C38.6135 23.1293 38.7417 23.0723 38.8364 22.9754L39.7523 21.9534C39.7871 21.9026 39.8057 21.8424 39.8057 21.7808C39.8057 21.7192 39.7871 21.6591 39.7523 21.6083C39.7287 21.55 39.6884 21.5 39.6364 21.4645C39.5844 21.4291 39.5232 21.4098 39.4603 21.4092L39.5134 21.6348Z" fill="#1E1E1C"/>
<path d="M27.1146 20.2671H27.8844L25.6811 22.7226H25.867C25.9779 22.727 26.0827 22.7746 26.159 22.8553L28.3888 25.2975H27.9906C27.7705 25.2982 27.5527 25.2524 27.3514 25.1632C27.1502 25.074 26.97 24.9434 26.8226 24.7799L25.5882 23.4526H23.0664L24.3141 22.1253L23.6371 21.3687H24.5264L25.3626 22.2846L27.1146 20.2671Z" fill="#0F0F0F"/>
<path d="M21.1559 29.7721C21.2498 29.826 21.3276 29.9038 21.3815 29.9977C21.4379 30.0899 21.4699 30.195 21.4744 30.303C21.471 30.4674 21.4042 30.6241 21.2879 30.7403C21.1717 30.8566 21.0149 30.9234 20.8506 30.9268H18.9658V28.9093H20.5984C20.6796 28.9055 20.7607 28.9187 20.8365 28.9481C20.9123 28.9774 20.981 29.0223 21.0385 29.0797C21.096 29.1372 21.1408 29.206 21.1702 29.2818C21.1995 29.3576 21.2127 29.4387 21.209 29.5199C21.2117 29.607 21.1935 29.6935 21.1559 29.7721ZM20.5984 29.3341H19.3906V29.6924H20.5984C20.6194 29.7012 20.642 29.7057 20.6648 29.7057C20.6876 29.7057 20.7101 29.7012 20.7311 29.6924C20.7396 29.6736 20.7439 29.6533 20.7439 29.6327C20.7439 29.6121 20.7396 29.5918 20.7311 29.573C20.7311 29.5237 20.7116 29.4764 20.6767 29.4416C20.6419 29.4067 20.5946 29.3872 20.5453 29.3872L20.5984 29.3341ZM20.8506 30.4888C20.8998 30.4888 20.9471 30.4692 20.982 30.4344C21.0168 30.3995 21.0364 30.3523 21.0364 30.303C21.0448 30.2842 21.0492 30.2638 21.0492 30.2433C21.0492 30.2227 21.0448 30.2023 21.0364 30.1835C21.0154 30.1748 20.9928 30.1703 20.9701 30.1703C20.9473 30.1703 20.9247 30.1748 20.9037 30.1835H19.4436V30.5419L20.8506 30.4888Z" fill="#1E1E1C"/>
<path d="M22.0183 29.2802V29.6386H24.0889V30.0766H22.0183V30.435H24.0889V30.873H21.6201V28.8555H24.1154V29.2802H22.0183Z" fill="#1E1E1C"/>
<path d="M26.7486 30.3013C26.7546 30.3498 26.7546 30.3988 26.7486 30.4473C26.7193 30.5724 26.6434 30.6816 26.5363 30.7526C26.4346 30.8349 26.3087 30.8815 26.1779 30.8853H24.8506C24.7264 30.88 24.6064 30.8385 24.5055 30.7658C24.4125 30.6842 24.3437 30.5786 24.3064 30.4606C24.3002 30.4121 24.3002 30.363 24.3064 30.3146H24.7312C24.7404 30.3566 24.7638 30.3941 24.7975 30.4207C24.8359 30.4362 24.8786 30.4362 24.917 30.4207H26.2442C26.2784 30.4341 26.3163 30.4341 26.3505 30.4207C26.3578 30.404 26.3616 30.3859 26.3616 30.3677C26.3616 30.3494 26.3578 30.3313 26.3505 30.3146C26.3636 30.2758 26.3636 30.2338 26.3505 30.1951C26.3294 30.1863 26.3069 30.1818 26.2841 30.1818C26.2613 30.1818 26.2388 30.1863 26.2178 30.1951H24.8905C24.8033 30.1927 24.7178 30.1713 24.6398 30.1323C24.5618 30.0933 24.4933 30.0377 24.4391 29.9695C24.3811 29.9106 24.3399 29.8373 24.3197 29.7571C24.3071 29.7003 24.3071 29.6414 24.3197 29.5846C24.3146 29.536 24.3146 29.4871 24.3197 29.4385C24.3571 29.3172 24.4313 29.2105 24.5321 29.1333C24.6391 29.0529 24.7699 29.0109 24.9037 29.0138H26.231C26.3604 29.0128 26.4864 29.0548 26.5894 29.1333C26.6938 29.2069 26.769 29.315 26.8018 29.4385C26.8062 29.4871 26.8062 29.536 26.8018 29.5846H26.3637C26.371 29.5678 26.3748 29.5497 26.3748 29.5315C26.3748 29.5132 26.371 29.4951 26.3637 29.4784C26.3296 29.465 26.2917 29.465 26.2575 29.4784H24.9302C24.8919 29.4629 24.8491 29.4629 24.8108 29.4784C24.7771 29.505 24.7536 29.5425 24.7444 29.5846C24.7289 29.6229 24.7289 29.6657 24.7444 29.704C24.7629 29.7133 24.7834 29.7182 24.8042 29.7182C24.8249 29.7182 24.8454 29.7133 24.8639 29.704H26.1912C26.3635 29.7134 26.5254 29.7896 26.6425 29.9164C26.6962 29.9815 26.7327 30.0591 26.7486 30.142C26.759 30.1946 26.759 30.2487 26.7486 30.3013Z" fill="#1E1E1C"/>
<path d="M29.3587 28.9086V29.2802H28.257V30.873H27.8322V29.2802H26.9297V28.8555L29.3587 28.9086Z" fill="#1E1E1C"/>
<path d="M16.8542 32.4392V32.8109H18.9647V33.2621H16.8941V34.0585H16.4561V32.041H18.9647V32.4658L16.8542 32.4392Z" fill="#1E1E1C"/>
<path d="M21.6223 33.5941V34.0321H19.127V32.0146H19.5517V33.5941H21.6223Z" fill="#1E1E1C"/>
<path d="M23.121 32.0146L24.1828 34.0189H23.705L23.3998 33.4481H22.4706L22.1653 34.0189H21.6875L22.7493 32.0146H23.121ZM22.6963 33.0234H23.1608L22.9352 32.5854L22.6963 33.0234Z" fill="#1E1E1C"/>
<path d="M26.7586 32.0146L25.7764 34.0321H25.2322L24.25 32.0146H24.7279L25.5109 33.5941L26.2808 32.0146H26.7586Z" fill="#1E1E1C"/>
<path d="M28.2597 32.0149C28.3928 32.0117 28.5251 32.036 28.6485 32.0863C28.7718 32.1365 28.8834 32.2116 28.9764 32.3069C29.1636 32.4958 29.2687 32.7511 29.2687 33.017C29.2687 33.283 29.1636 33.5382 28.9764 33.7271C28.8841 33.8242 28.7728 33.9014 28.6496 33.9539C28.5263 34.0064 28.3937 34.0331 28.2597 34.0324H27.7819C27.6479 34.0331 27.5151 34.0064 27.3919 33.9539C27.2686 33.9014 27.1574 33.8242 27.0651 33.7271C26.9271 33.5854 26.8339 33.4062 26.797 33.2118C26.7601 33.0175 26.7811 32.8166 26.8575 32.6341C26.9339 32.4517 27.0623 32.2957 27.2266 32.1856C27.391 32.0755 27.5841 32.0161 27.7819 32.0149H28.2597ZM28.7242 33.3422C28.8007 33.2434 28.8427 33.1221 28.8437 32.9971C28.8471 32.8714 28.8046 32.7487 28.7242 32.652C28.6748 32.5775 28.606 32.5178 28.5252 32.4795C28.4428 32.4376 28.352 32.4149 28.2597 32.4131H27.7819C27.6895 32.4149 27.5987 32.4376 27.5164 32.4795C27.4356 32.5178 27.3667 32.5775 27.3173 32.652C27.2368 32.7487 27.1944 32.8714 27.1979 32.9971C27.1988 33.1221 27.2407 33.2434 27.3173 33.3422C27.3711 33.4093 27.4391 33.4637 27.5164 33.5015C27.603 33.5273 27.6953 33.5273 27.7819 33.5015H28.2597C28.3463 33.5273 28.4386 33.5273 28.5252 33.5015C28.6189 33.4788 28.7055 33.4332 28.7773 33.3688L28.7242 33.3422Z" fill="#1E1E1C"/>
<path d="M31.0988 33.2603L31.9084 34.0567H31.2978L30.4749 33.2603H29.8378V34.0567H29.4131V32.0392H31.2978C31.379 32.0354 31.4601 32.0486 31.5359 32.078C31.6117 32.1073 31.6805 32.1522 31.738 32.2096C31.7954 32.2671 31.8403 32.3359 31.8696 32.4117C31.899 32.4875 31.9122 32.5686 31.9084 32.6498C31.9098 32.7285 31.8952 32.8068 31.8656 32.8798C31.8359 32.9528 31.7918 33.019 31.7359 33.0745C31.6795 33.1338 31.6115 33.1809 31.5362 33.2129C31.4608 33.2449 31.3797 33.261 31.2978 33.2603H31.0988ZM29.8378 32.8356H31.2978C31.3406 32.8519 31.3879 32.8519 31.4306 32.8356C31.4399 32.8171 31.4448 32.7966 31.4448 32.7759C31.4448 32.7551 31.4399 32.7346 31.4306 32.7161C31.4306 32.6668 31.411 32.6196 31.3762 32.5847C31.3413 32.5499 31.294 32.5303 31.2448 32.5303H29.7848L29.8378 32.8356Z" fill="#1E1E1C"/>
<path d="M16.9385 43.9989H17.2833C17.4146 43.9717 17.55 43.9717 17.6813 43.9989C17.7632 44.0287 17.8331 44.0846 17.8802 44.1581C17.9302 44.2419 17.9534 44.3391 17.9465 44.4366C17.9529 44.542 17.9198 44.646 17.8536 44.7284C17.7895 44.8105 17.7014 44.8707 17.6016 44.9008H17.27V45.617H16.9385V43.9989ZM17.27 44.662H17.5353C17.5353 44.662 17.5353 44.662 17.6149 44.5957C17.6228 44.5653 17.6228 44.5333 17.6149 44.5029C17.6181 44.4734 17.6121 44.4436 17.5979 44.4175C17.5837 44.3914 17.5619 44.3703 17.5353 44.357C17.4701 44.3401 17.4017 44.3401 17.3364 44.357H17.2436L17.27 44.662Z" fill="#1E1E1C"/>
<path d="M18.6485 43.999H18.9668L19.6167 45.6967H19.2851L19.1525 45.3386H18.4628L18.3169 45.6967H17.9854L18.6485 43.999ZM18.8209 44.45L18.5954 45.0335H19.0464L18.8209 44.45Z" fill="#1E1E1C"/>
<path d="M19.8955 43.9989H20.2934C20.4246 43.9717 20.56 43.9717 20.6912 43.9989C20.7737 44.0278 20.8439 44.0839 20.8902 44.1581C20.9403 44.2419 20.9634 44.3391 20.9565 44.4366C20.9586 44.5353 20.9309 44.6324 20.8769 44.7151C20.8182 44.797 20.7344 44.8575 20.6382 44.8875L21.0361 45.6435H20.6912L20.3067 44.9273V45.6435H19.9751L19.8955 43.9989ZM20.2271 44.662H20.2934C20.3583 44.6816 20.4275 44.6816 20.4924 44.662C20.5133 44.647 20.5303 44.627 20.5419 44.6039C20.5534 44.5808 20.5592 44.5552 20.5587 44.5294C20.5646 44.4943 20.5646 44.4584 20.5587 44.4233H20.4791H20.2934L20.2271 44.662Z" fill="#1E1E1C"/>
<path d="M21.8332 43.999H22.1515L22.8014 45.6967H22.4698L22.3372 45.3386H21.621L21.4884 45.6967H21.1436L21.8332 43.999ZM21.9924 44.45L21.7669 45.0335H22.2178L21.9924 44.45Z" fill="#1E1E1C"/>
<path d="M24.5525 44.2781L24.3268 44.5038C24.265 44.4307 24.1876 44.3725 24.1003 44.3334C24.013 44.2943 23.918 44.2755 23.8224 44.2781C23.7467 44.276 23.6713 44.289 23.6006 44.3164C23.53 44.3437 23.4655 44.3849 23.4109 44.4374C23.3551 44.4873 23.3107 44.5488 23.2809 44.6175C23.2511 44.6863 23.2366 44.7607 23.2384 44.8356C23.2354 44.9146 23.2493 44.9933 23.279 45.0665C23.3088 45.1397 23.3537 45.2058 23.4109 45.2603C23.5303 45.3705 23.6865 45.4321 23.849 45.4329C23.9329 45.4336 24.0158 45.4133 24.09 45.3739C24.1641 45.3345 24.2273 45.2772 24.2737 45.2072H23.7826V44.9019H24.6321V44.9683C24.6316 45.1164 24.5951 45.2621 24.5259 45.393C24.4526 45.5198 24.3474 45.625 24.2206 45.6983C24.0903 45.7691 23.9442 45.8056 23.7959 45.8045C23.6291 45.8059 23.4646 45.7648 23.3181 45.685C23.1843 45.6106 23.0739 45.5002 22.9995 45.3665C22.9213 45.2241 22.8803 45.0644 22.88 44.9019C22.8758 44.6877 22.9515 44.4795 23.0924 44.3179C23.1792 44.222 23.286 44.1461 23.4052 44.0957C23.5245 44.0452 23.6532 44.0214 23.7826 44.0259C23.9238 44.0241 24.0638 44.0512 24.1941 44.1056C24.327 44.1295 24.4509 44.1891 24.5525 44.2781Z" fill="#1E1E1C"/>
<path d="M24.9805 43.999H25.3124V45.1007C25.3037 45.1668 25.3037 45.2337 25.3124 45.2998C25.3362 45.3371 25.3679 45.3688 25.4052 45.3927C25.4481 45.4079 25.495 45.4079 25.538 45.3927C25.5857 45.4063 25.6363 45.4063 25.684 45.3927C25.7032 45.3839 25.7203 45.371 25.734 45.355C25.7478 45.3389 25.7578 45.3201 25.7636 45.2998C25.7811 45.2256 25.7811 45.1483 25.7636 45.0741V44.0123H26.0954V45.021C26.1152 45.1397 26.1152 45.2608 26.0954 45.3794C26.0783 45.4502 26.0415 45.5146 25.9892 45.5652C25.8915 45.6623 25.765 45.7252 25.6286 45.7443C25.4922 45.7634 25.3533 45.7379 25.2327 45.6714C25.1535 45.6177 25.0896 45.5446 25.0469 45.4591C24.9967 45.3187 24.9742 45.17 24.9805 45.021V43.999Z" fill="#1E1E1C"/>
<path d="M26.9331 43.999H27.2646L27.9145 45.6967H27.5829L27.4503 45.3386H26.7606L26.6148 45.6967H26.2832L26.9331 43.999ZM27.1055 44.45L26.88 45.0335H27.3309L27.1055 44.45Z" fill="#1E1E1C"/>
<path d="M27.9404 43.999H28.2587L28.577 44.6091L28.882 43.999H29.2269L28.7362 44.954V45.6967H28.4046V44.954L27.9404 43.999Z" fill="#1E1E1C"/>
<path d="M18.8485 47.7831H18.2248C18.2352 47.468 18.3576 47.1668 18.5699 46.9337C18.6748 46.8311 18.7995 46.7512 18.9364 46.6987C19.0734 46.6462 19.2197 46.6223 19.3662 46.6284C19.552 46.6235 19.7355 46.6694 19.8972 46.7611C20.0542 46.8405 20.1837 46.9654 20.2688 47.1195C20.3554 47.2687 20.4012 47.4381 20.4015 47.6106C20.3962 47.8321 20.3418 48.0497 20.2423 48.2477C20.0744 48.5422 19.8642 48.8105 19.6184 49.0441L19.2468 49.4422H20.428V50.0263H18.1318V49.721L19.1672 48.6724C19.3556 48.495 19.5207 48.2943 19.6583 48.0751C19.731 47.9498 19.772 47.8085 19.7777 47.6637C19.7808 47.6052 19.7718 47.5467 19.7513 47.4919C19.7307 47.4371 19.6991 47.3871 19.6583 47.3451C19.5663 47.2656 19.448 47.223 19.3264 47.2257C19.2617 47.223 19.1971 47.2346 19.1374 47.2599C19.0778 47.2851 19.0245 47.3233 18.9813 47.3717C18.8924 47.4902 18.8456 47.635 18.8485 47.7831Z" fill="#1E1E1C"/>
<path d="M21.807 46.6277C22.029 46.6245 22.2467 46.6893 22.4308 46.8135C22.6221 46.9468 22.7661 47.1373 22.8423 47.3577C22.9457 47.6834 22.9907 48.025 22.975 48.3664C22.9895 48.7165 22.9446 49.0666 22.8423 49.4017C22.7611 49.612 22.6233 49.7958 22.4441 49.9326C22.2603 50.0562 22.0414 50.1168 21.8203 50.1052C21.5996 50.1131 21.3817 50.0528 21.1964 49.9326C21.0123 49.8008 20.8732 49.6154 20.7982 49.4017C20.689 49.0816 20.6395 48.7442 20.6523 48.4062C20.618 47.9464 20.7146 47.4862 20.9309 47.0789C21.028 46.9368 21.1589 46.8212 21.3119 46.7424C21.4648 46.6636 21.635 46.6242 21.807 46.6277ZM21.807 47.2249C21.7043 47.2255 21.6053 47.2632 21.5282 47.3311C21.4299 47.4278 21.3648 47.5533 21.3424 47.6895C21.3074 47.9316 21.3074 48.1774 21.3424 48.4195C21.3149 48.7149 21.3653 49.0123 21.4885 49.2822C21.5259 49.3525 21.5811 49.4115 21.6487 49.4535C21.7163 49.4954 21.7938 49.5188 21.8734 49.5212C21.9499 49.5205 22.0248 49.4992 22.0902 49.4595C22.1556 49.4198 22.2091 49.3631 22.245 49.2955C22.3711 49.0075 22.4258 48.6933 22.4043 48.3797C22.4268 48.0715 22.3767 47.7624 22.2582 47.4771C22.2174 47.3973 22.1543 47.331 22.0765 47.2862C21.9988 47.2415 21.9099 47.2202 21.8203 47.2249H21.807Z" fill="#1E1E1C"/>
<path d="M23.8284 47.7831H23.2046C23.2151 47.468 23.3375 47.1668 23.5497 46.9337C23.6546 46.8311 23.7794 46.7512 23.9163 46.6987C24.0533 46.6462 24.1995 46.6223 24.3461 46.6284C24.5318 46.6235 24.7154 46.6694 24.877 46.7611C25.0341 46.8405 25.1636 46.9654 25.2486 47.1195C25.3352 47.2687 25.3811 47.4381 25.3814 47.6106C25.376 47.8321 25.3217 48.0497 25.2222 48.2477C25.0543 48.5422 24.8441 48.8105 24.5983 49.0441L24.2267 49.4422H25.4079V50.0263H23.125V49.721L24.147 48.6724C24.3355 48.495 24.5005 48.2943 24.6381 48.0751C24.7109 47.9498 24.7519 47.8085 24.7575 47.6637C24.7607 47.6052 24.7517 47.5467 24.7311 47.4919C24.7106 47.4371 24.6789 47.3871 24.6381 47.3451C24.5461 47.2656 24.4279 47.223 24.3063 47.2257C24.2416 47.223 24.177 47.2346 24.1173 47.2599C24.0576 47.2851 24.0043 47.3233 23.9612 47.3717C23.8723 47.4902 23.8255 47.635 23.8284 47.7831Z" fill="#1E1E1C"/>
<path d="M26.3878 47.5303H25.7773C25.7958 47.3109 25.8896 47.1046 26.0427 46.9463C26.1389 46.8425 26.2562 46.7604 26.3866 46.7054C26.5171 46.6505 26.6578 46.624 26.7993 46.6278C27.0509 46.625 27.2935 46.7202 27.4762 46.8932C27.5643 46.9686 27.6348 47.0623 27.683 47.1677C27.7311 47.2732 27.7557 47.3879 27.7549 47.5038C27.7561 47.6455 27.7145 47.7843 27.6355 47.902C27.5467 48.03 27.4283 48.1347 27.2904 48.2073C27.4762 48.2527 27.6408 48.3606 27.7568 48.5127C27.8727 48.6649 27.933 48.8522 27.9275 49.0435C27.9295 49.186 27.901 49.3273 27.8438 49.4578C27.7865 49.5883 27.7019 49.705 27.5957 49.8C27.3674 50.0069 27.0673 50.1165 26.7594 50.1053C26.616 50.1121 26.4725 50.0898 26.3379 50.0396C26.2033 49.9894 26.0804 49.9124 25.9764 49.8133C25.8703 49.7097 25.7862 49.5858 25.7292 49.4489C25.6722 49.3121 25.6434 49.1651 25.6446 49.0169H26.2684C26.2783 49.1616 26.3395 49.2981 26.4409 49.4018C26.5404 49.4879 26.6677 49.5351 26.7993 49.5346C26.8658 49.5358 26.9318 49.5234 26.9934 49.4983C27.055 49.4732 27.1109 49.4359 27.1576 49.3886C27.206 49.3454 27.2442 49.2921 27.2694 49.2324C27.2947 49.1727 27.3064 49.1082 27.3037 49.0435C27.3032 48.9682 27.2848 48.894 27.2502 48.8271C27.2156 48.7602 27.1657 48.7025 27.1046 48.6586C26.9442 48.5396 26.7461 48.483 26.5471 48.4993V47.9551C26.6608 47.9803 26.7785 47.9803 26.8921 47.9551C26.9584 47.9178 27.017 47.8683 27.0647 47.8091C27.086 47.7444 27.086 47.6746 27.0647 47.61C27.0656 47.568 27.0578 47.5263 27.0418 47.4875C27.0258 47.4486 27.002 47.4135 26.9719 47.3843C26.8998 47.3288 26.8105 47.3006 26.7197 47.3047C26.6338 47.3065 26.5504 47.3343 26.4807 47.3843C26.4378 47.4243 26.4059 47.4746 26.3878 47.5303Z" fill="#1E1E1C"/>
<path d="M64.6729 11.6644L61.6679 4.17846H63.4731L65.4162 9.41332L67.3594 4.17846H69.122L66.117 11.6644H64.6729ZM70.9663 11.7175C70.4071 11.7175 69.9399 11.5618 69.5647 11.2503C69.1966 10.9388 69.0125 10.507 69.0125 9.95486C69.0125 9.35315 69.2178 8.9001 69.6284 8.59571C70.046 8.29131 70.6053 8.13912 71.3061 8.13912C71.7804 8.13912 72.2441 8.21699 72.6971 8.37272V8.27716C72.6971 7.58342 72.2901 7.23656 71.476 7.23656C70.9875 7.23656 70.4637 7.3392 69.9045 7.54449L69.501 6.31276C70.1947 6.00836 70.9309 5.85617 71.7096 5.85617C72.5661 5.85617 73.2068 6.06853 73.6315 6.49327C74.0421 6.90385 74.2474 7.50909 74.2474 8.30901V11.6113H72.6865V10.9955C72.2547 11.4768 71.6813 11.7175 70.9663 11.7175ZM71.4548 10.6026C71.8299 10.6026 72.1343 10.5106 72.3679 10.3265C72.6015 10.1354 72.7183 9.89469 72.7183 9.60445V9.31776C72.4139 9.17618 72.0706 9.10539 71.6884 9.10539C71.3344 9.10539 71.0583 9.17618 70.8601 9.31776C70.669 9.45226 70.5734 9.65047 70.5734 9.91239C70.5734 10.1248 70.6548 10.2946 70.8177 10.4221C70.9805 10.5424 71.1928 10.6026 71.4548 10.6026ZM75.6362 13.3103V5.91988H77.2502V6.73749C77.7033 6.12163 78.2944 5.81369 79.0235 5.81369C79.7314 5.81369 80.3402 6.07915 80.8499 6.61007C81.3595 7.14099 81.6144 7.86304 81.6144 8.77622C81.6144 9.68232 81.3595 10.4008 80.8499 10.9318C80.3473 11.4556 79.7385 11.7175 79.0235 11.7175C78.3156 11.7175 77.7245 11.4344 77.2502 10.868V13.3103H75.6362ZM77.6219 9.91239C77.8909 10.2026 78.22 10.3477 78.6094 10.3477C78.9987 10.3477 79.3279 10.2026 79.5969 9.91239C79.8659 9.61507 80.0004 9.22927 80.0004 8.75498C80.0004 8.29485 79.8659 7.91967 79.5969 7.62944C79.3279 7.33212 78.9987 7.18346 78.6094 7.18346C78.22 7.18346 77.8909 7.33212 77.6219 7.62944C77.36 7.91967 77.229 8.30193 77.229 8.77622C77.229 9.23635 77.36 9.61507 77.6219 9.91239ZM85.4986 11.7387C84.635 11.7387 83.9236 11.4662 83.3643 10.9211C82.8051 10.369 82.5255 9.65401 82.5255 8.77622C82.5255 7.94799 82.791 7.24717 83.3219 6.67378C83.8528 6.10039 84.5253 5.81369 85.3394 5.81369C86.2384 5.81369 86.925 6.11101 87.3993 6.70564C87.8736 7.30027 88.1108 8.03293 88.1108 8.90364C88.1108 8.98859 88.1037 9.13017 88.0895 9.32838H84.1289C84.2067 9.6894 84.366 9.96548 84.6067 10.1566C84.8474 10.3477 85.1518 10.4433 85.5199 10.4433C86.0225 10.4433 86.4826 10.2486 86.9003 9.8593L87.8241 10.6769C87.2507 11.3848 86.4755 11.7387 85.4986 11.7387ZM84.1076 8.31963H86.5392C86.4897 7.95153 86.3587 7.65775 86.1464 7.43831C85.9411 7.21886 85.6721 7.10914 85.3394 7.10914C85.0137 7.10914 84.7412 7.21886 84.5217 7.43831C84.3094 7.65067 84.1713 7.94445 84.1076 8.31963ZM88.5143 11.6113L90.5106 8.72313L88.5887 5.91988H90.3195L91.3813 7.57634L92.4538 5.91988H94.1421L92.2202 8.69127L94.227 11.6113H92.4962L91.3494 9.83806L90.2027 11.6113H88.5143ZM95.1931 13.3103V5.91988H96.8071V6.73749C97.2602 6.12163 97.8513 5.81369 98.5804 5.81369C99.2883 5.81369 99.8971 6.07915 100.407 6.61007C100.916 7.14099 101.171 7.86304 101.171 8.77622C101.171 9.68232 100.916 10.4008 100.407 10.9318C99.9042 11.4556 99.2954 11.7175 98.5804 11.7175C97.8725 11.7175 97.2814 11.4344 96.8071 10.868V13.3103H95.1931ZM97.1788 9.91239C97.4478 10.2026 97.7769 10.3477 98.1663 10.3477C98.5556 10.3477 98.8848 10.2026 99.1538 9.91239C99.4228 9.61507 99.5573 9.22927 99.5573 8.75498C99.5573 8.29485 99.4228 7.91967 99.1538 7.62944C98.8848 7.33212 98.5556 7.18346 98.1663 7.18346C97.7769 7.18346 97.4478 7.33212 97.1788 7.62944C96.9169 7.91967 96.7859 8.30193 96.7859 8.77622C96.7859 9.23635 96.9169 9.61507 97.1788 9.91239ZM102.358 11.6113V5.91988H103.972V7.06666C104.341 6.19595 104.946 5.7783 105.788 5.81369V7.50202H105.703C105.151 7.50202 104.723 7.67191 104.418 8.0117C104.121 8.34441 103.972 8.84347 103.972 9.50889V11.6113H102.358ZM111.632 10.8787C111.044 11.4521 110.311 11.7387 109.434 11.7387C108.556 11.7387 107.823 11.4556 107.236 10.8893C106.655 10.3159 106.365 9.61153 106.365 8.77622C106.365 7.94799 106.659 7.24717 107.246 6.67378C107.841 6.10039 108.577 5.81369 109.455 5.81369C110.333 5.81369 111.062 6.10039 111.642 6.67378C112.23 7.2401 112.524 7.94091 112.524 8.77622C112.524 9.60445 112.226 10.3053 111.632 10.8787ZM109.455 10.3477C109.901 10.3477 110.258 10.1991 110.527 9.90177C110.796 9.59738 110.931 9.22219 110.931 8.77622C110.931 8.34441 110.789 7.9763 110.506 7.67191C110.23 7.36044 109.873 7.2047 109.434 7.2047C108.988 7.2047 108.63 7.3569 108.361 7.66129C108.092 7.95861 107.958 8.33025 107.958 8.77622C107.958 9.20803 108.096 9.57968 108.372 9.89115C108.655 10.1955 109.016 10.3477 109.455 10.3477ZM117.046 11.6113V4.17846H120.083C120.96 4.17846 121.654 4.41561 122.164 4.88989C122.673 5.36418 122.928 5.99067 122.928 6.76935C122.928 7.59758 122.645 8.24176 122.079 8.70189C121.512 9.15494 120.794 9.38147 119.923 9.38147H118.681V11.6113H117.046ZM118.681 7.92675H119.976C120.38 7.92675 120.695 7.82057 120.921 7.6082C121.155 7.39583 121.272 7.11975 121.272 6.77997C121.272 6.41894 121.155 6.14286 120.921 5.95173C120.688 5.75352 120.362 5.65442 119.944 5.65442H118.681V7.92675ZM125.479 11.7175C124.92 11.7175 124.452 11.5618 124.077 11.2503C123.709 10.9388 123.525 10.507 123.525 9.95486C123.525 9.35315 123.73 8.9001 124.141 8.59571C124.559 8.29131 125.118 8.13912 125.819 8.13912C126.293 8.13912 126.757 8.21699 127.21 8.37272V8.27716C127.21 7.58342 126.803 7.23656 125.989 7.23656C125.5 7.23656 124.976 7.3392 124.417 7.54449L124.013 6.31276C124.707 6.00836 125.443 5.85617 126.222 5.85617C127.079 5.85617 127.719 6.06853 128.144 6.49327C128.555 6.90385 128.76 7.50909 128.76 8.30901V11.6113H127.199V10.9955C126.767 11.4768 126.194 11.7175 125.479 11.7175ZM125.967 10.6026C126.342 10.6026 126.647 10.5106 126.88 10.3265C127.114 10.1354 127.231 9.89469 127.231 9.60445V9.31776C126.926 9.17618 126.583 9.10539 126.201 9.10539C125.847 9.10539 125.571 9.17618 125.373 9.31776C125.182 9.45226 125.086 9.65047 125.086 9.91239C125.086 10.1248 125.167 10.2946 125.33 10.4221C125.493 10.5424 125.705 10.6026 125.967 10.6026ZM130.149 11.6113V5.91988H131.763V7.06666C132.131 6.19595 132.736 5.7783 133.578 5.81369V7.50202H133.494C132.941 7.50202 132.513 7.67191 132.209 8.0117C131.911 8.34441 131.763 8.84347 131.763 9.50889V11.6113H130.149ZM135.931 11.7175C135.372 11.7175 134.905 11.5618 134.53 11.2503C134.162 10.9388 133.978 10.507 133.978 9.95486C133.978 9.35315 134.183 8.9001 134.593 8.59571C135.011 8.29131 135.57 8.13912 136.271 8.13912C136.745 8.13912 137.209 8.21699 137.662 8.37272V8.27716C137.662 7.58342 137.255 7.23656 136.441 7.23656C135.953 7.23656 135.429 7.3392 134.869 7.54449L134.466 6.31276C135.16 6.00836 135.896 5.85617 136.675 5.85617C137.531 5.85617 138.172 6.06853 138.597 6.49327C139.007 6.90385 139.212 7.50909 139.212 8.30901V11.6113H137.651V10.9955C137.22 11.4768 136.646 11.7175 135.931 11.7175ZM136.42 10.6026C136.795 10.6026 137.099 10.5106 137.333 10.3265C137.567 10.1354 137.683 9.89469 137.683 9.60445V9.31776C137.379 9.17618 137.036 9.10539 136.653 9.10539C136.299 9.10539 136.023 9.17618 135.825 9.31776C135.634 9.45226 135.538 9.65047 135.538 9.91239C135.538 10.1248 135.62 10.2946 135.783 10.4221C135.945 10.5424 136.158 10.6026 136.42 10.6026ZM143.15 13.3315C142.222 13.3315 141.383 13.1333 140.633 12.7369L141.185 11.5264C141.801 11.8732 142.442 12.0467 143.107 12.0467C144.19 12.0467 144.732 11.5299 144.732 10.4964V10.2203C144.477 10.5318 144.204 10.7654 143.914 10.9211C143.631 11.0698 143.284 11.1441 142.874 11.1441C142.173 11.1441 141.575 10.9034 141.079 10.4221C140.591 9.9407 140.346 9.28944 140.346 8.46829C140.346 7.65421 140.594 7.01003 141.09 6.53574C141.585 6.05438 142.18 5.81369 142.874 5.81369C143.581 5.81369 144.194 6.09685 144.711 6.66316V5.91988H146.325V10.3265C146.325 11.3388 146.084 12.0856 145.602 12.567C145.093 13.0767 144.275 13.3315 143.15 13.3315ZM142.353 9.44518C142.615 9.68586 142.944 9.8062 143.341 9.8062C143.737 9.8062 144.066 9.68232 144.328 9.43456C144.597 9.1868 144.732 8.86471 144.732 8.46829C144.732 8.08603 144.597 7.77101 144.328 7.52325C144.066 7.27549 143.737 7.15161 143.341 7.15161C142.944 7.15161 142.615 7.27549 142.353 7.52325C142.091 7.77101 141.96 8.09311 141.96 8.48952C141.96 8.87887 142.091 9.19742 142.353 9.44518ZM149.657 11.7175C149.048 11.7175 148.574 11.5299 148.234 11.1547C147.894 10.7796 147.724 10.2628 147.724 9.60445V5.91988H149.338V9.09477C149.338 9.46995 149.423 9.75665 149.593 9.95486C149.763 10.1531 150.003 10.2522 150.315 10.2522C150.626 10.2522 150.871 10.1531 151.048 9.95486C151.232 9.75665 151.324 9.46995 151.324 9.09477V5.91988H152.938V11.6113H151.324V10.8043C150.849 11.4131 150.294 11.7175 149.657 11.7175ZM155.996 11.7175C155.437 11.7175 154.97 11.5618 154.595 11.2503C154.227 10.9388 154.043 10.507 154.043 9.95486C154.043 9.35315 154.248 8.9001 154.658 8.59571C155.076 8.29131 155.635 8.13912 156.336 8.13912C156.81 8.13912 157.274 8.21699 157.727 8.37272V8.27716C157.727 7.58342 157.32 7.23656 156.506 7.23656C156.018 7.23656 155.494 7.3392 154.934 7.54449L154.531 6.31276C155.225 6.00836 155.961 5.85617 156.74 5.85617C157.596 5.85617 158.237 6.06853 158.662 6.49327C159.072 6.90385 159.277 7.50909 159.277 8.30901V11.6113H157.716V10.9955C157.285 11.4768 156.711 11.7175 155.996 11.7175ZM156.485 10.6026C156.86 10.6026 157.164 10.5106 157.398 10.3265C157.632 10.1354 157.748 9.89469 157.748 9.60445V9.31776C157.444 9.17618 157.101 9.10539 156.718 9.10539C156.364 9.10539 156.088 9.17618 155.89 9.31776C155.699 9.45226 155.603 9.65047 155.603 9.91239C155.603 10.1248 155.685 10.2946 155.848 10.4221C156.01 10.5424 156.223 10.6026 156.485 10.6026ZM161.818 13.3421C161.308 13.3421 160.83 13.2112 160.385 12.9492L160.926 11.7812C161.174 11.9299 161.404 12.0042 161.616 12.0042C161.871 12.0042 162.059 11.8803 162.179 11.6326L159.949 5.91988H161.659L162.954 9.79559L164.197 5.91988H165.874L163.687 11.7494C163.467 12.3369 163.22 12.7475 162.944 12.9811C162.667 13.2218 162.292 13.3421 161.818 13.3421Z" fill="#1E1E1C"/>
<path d="M61.5086 24.2998V23.0044L63.9827 20.9763C64.4711 20.5728 64.8074 20.2507 64.9914 20.01C65.1755 19.7622 65.2675 19.4897 65.2675 19.1924C65.2675 18.888 65.1755 18.6508 64.9914 18.4809C64.8074 18.311 64.5667 18.2261 64.2694 18.2261C63.9933 18.2261 63.742 18.304 63.5155 18.4597C63.296 18.6084 63.0412 18.8632 62.7509 19.2242L61.6041 18.3004C61.9935 17.7695 62.3934 17.3802 62.804 17.1324C63.2217 16.8846 63.7455 16.7608 64.3755 16.7608C65.1471 16.7608 65.7666 16.9731 66.2338 17.3979C66.701 17.8155 66.9346 18.3747 66.9346 19.0756C66.9346 19.4791 66.8567 19.8436 66.701 20.1693C66.5452 20.4878 66.3435 20.771 66.0957 21.0187C65.848 21.2594 65.4763 21.5709 64.9808 21.9531L63.7703 22.8876H67.0089V24.2998H61.5086ZM73.8583 23.3335C73.2424 24.0627 72.446 24.4272 71.4691 24.4272C70.4922 24.4272 69.6994 24.0627 69.0906 23.3335C68.4818 22.6044 68.1774 21.6877 68.1774 20.5834C68.1774 19.4861 68.4854 18.573 69.1012 17.8438C69.7171 17.1076 70.5135 16.7395 71.4904 16.7395C72.4602 16.7395 73.2495 17.1041 73.8583 17.8332C74.4741 18.5623 74.7821 19.4791 74.7821 20.5834C74.7821 21.6806 74.4741 22.5973 73.8583 23.3335ZM70.3011 22.2823C70.6055 22.7283 71.0019 22.9513 71.4904 22.9513C71.9788 22.9513 72.3681 22.7318 72.6584 22.2929C72.9557 21.847 73.1043 21.2771 73.1043 20.5834C73.1043 19.9038 72.9522 19.341 72.6478 18.895C72.3434 18.442 71.9505 18.2155 71.4691 18.2155C70.9878 18.2155 70.5984 18.4385 70.3011 18.8844C70.0038 19.3233 69.8551 19.8896 69.8551 20.5834C69.8551 21.27 70.0038 21.8363 70.3011 22.2823ZM75.777 24.2998V23.0044L78.2511 20.9763C78.7396 20.5728 79.0758 20.2507 79.2599 20.01C79.4439 19.7622 79.5359 19.4897 79.5359 19.1924C79.5359 18.888 79.4439 18.6508 79.2599 18.4809C79.0758 18.311 78.8351 18.2261 78.5378 18.2261C78.2617 18.2261 78.0104 18.304 77.7839 18.4597C77.5645 18.6084 77.3096 18.8632 77.0194 19.2242L75.8726 18.3004C76.2619 17.7695 76.6619 17.3802 77.0725 17.1324C77.4901 16.8846 78.014 16.7608 78.644 16.7608C79.4156 16.7608 80.035 16.9731 80.5022 17.3979C80.9694 17.8155 81.203 18.3747 81.203 19.0756C81.203 19.4791 81.1252 19.8436 80.9694 20.1693C80.8137 20.4878 80.6119 20.771 80.3642 21.0187C80.1164 21.2594 79.7448 21.5709 79.2492 21.9531L78.0387 22.8876H81.2773V24.2998H75.777ZM85.1748 24.4272C83.9643 24.4272 82.998 23.999 82.276 23.1424L83.4015 22.0699C83.9324 22.6646 84.5306 22.9619 85.196 22.9619C85.5075 22.9619 85.7588 22.8805 85.9499 22.7177C86.1481 22.5478 86.2472 22.3212 86.2472 22.0381C86.2472 21.7337 86.1198 21.5001 85.865 21.3373C85.6101 21.1745 85.2527 21.0931 84.7925 21.0931H84.113L83.8581 20.0525L85.6314 18.2686H82.7113V16.8669H87.7338V18.0987L85.8544 19.8932C87.1852 20.1197 87.8506 20.8205 87.8506 21.9956C87.8506 22.7106 87.6064 23.2946 87.118 23.7476C86.6366 24.2007 85.9889 24.4272 85.1748 24.4272ZM91.9058 24.2998L95.0913 16.8138H96.5991L99.7846 24.2998H98.075L97.3955 22.6327H94.2524L93.5728 24.2998H91.9058ZM94.8364 21.1886H96.8115L95.8239 18.7782L94.8364 21.1886ZM101.466 24.3423L99.714 18.6084H101.349L102.262 22.0593L103.335 18.5871H104.726L105.809 22.0699L106.743 18.6084H108.347L106.573 24.3423H105.119L104.025 20.8488L102.91 24.3423H101.466ZM110.734 24.406C110.174 24.406 109.707 24.2503 109.332 23.9388C108.964 23.6273 108.78 23.1955 108.78 22.6433C108.78 22.0416 108.985 21.5886 109.396 21.2842C109.813 20.9798 110.373 20.8276 111.074 20.8276C111.548 20.8276 112.011 20.9055 112.465 21.0612V20.9656C112.465 20.2719 112.057 19.925 111.243 19.925C110.755 19.925 110.231 20.0277 109.672 20.233L109.268 19.0012C109.962 18.6968 110.698 18.5446 111.477 18.5446C112.334 18.5446 112.974 18.757 113.399 19.1817C113.81 19.5923 114.015 20.1976 114.015 20.9975V24.2998H112.454V23.6839C112.022 24.1653 111.449 24.406 110.734 24.406ZM111.222 23.2911C111.597 23.2911 111.902 23.199 112.135 23.015C112.369 22.8239 112.486 22.5832 112.486 22.2929V22.0062C112.181 21.8647 111.838 21.7939 111.456 21.7939C111.102 21.7939 110.826 21.8647 110.628 22.0062C110.436 22.1407 110.341 22.3389 110.341 22.6009C110.341 22.8132 110.422 22.9831 110.585 23.1105C110.748 23.2309 110.96 23.2911 111.222 23.2911ZM115.404 24.2998V18.6084H117.018V19.7551C117.386 18.8844 117.991 18.4668 118.833 18.5022V20.1905H118.748C118.196 20.1905 117.768 20.3604 117.464 20.7002C117.166 21.0329 117.018 21.5319 117.018 22.1974V24.2998H115.404ZM122.074 24.406C121.366 24.406 120.757 24.1405 120.248 23.6096C119.738 23.0787 119.483 22.3566 119.483 21.4435C119.483 20.5374 119.735 19.8224 120.237 19.2985C120.747 18.7676 121.359 18.5022 122.074 18.5022C122.782 18.5022 123.373 18.7853 123.847 19.3516V16.5484H125.461V24.2998H123.847V23.4822C123.394 24.0981 122.803 24.406 122.074 24.406ZM121.501 22.6009C121.77 22.8911 122.099 23.0362 122.488 23.0362C122.878 23.0362 123.203 22.8911 123.465 22.6009C123.734 22.3035 123.869 21.9177 123.869 21.4435C123.869 20.9833 123.734 20.6081 123.465 20.3179C123.203 20.0206 122.878 19.8719 122.488 19.8719C122.099 19.8719 121.77 20.0206 121.501 20.3179C121.232 20.6081 121.097 20.9904 121.097 21.4647C121.097 21.9248 121.232 22.3035 121.501 22.6009ZM128.9 24.406C128.001 24.406 127.187 24.1193 126.457 23.5459L127.148 22.4841C127.771 22.9371 128.369 23.1636 128.942 23.1636C129.395 23.1636 129.622 23.015 129.622 22.7177C129.622 22.6823 129.615 22.6469 129.601 22.6115C129.593 22.5761 129.576 22.5442 129.547 22.5159C129.519 22.4876 129.487 22.4628 129.452 22.4416C129.424 22.4133 129.381 22.3885 129.324 22.3673C129.275 22.3389 129.229 22.3177 129.186 22.3035C129.151 22.2823 129.098 22.2611 129.027 22.2398C128.956 22.2115 128.896 22.1903 128.847 22.1761C128.797 22.162 128.73 22.1443 128.645 22.123C128.56 22.0947 128.493 22.0735 128.443 22.0593C128.202 21.9885 127.997 21.9177 127.827 21.847C127.664 21.7691 127.491 21.6664 127.307 21.539C127.123 21.4045 126.981 21.2382 126.882 21.04C126.79 20.8347 126.744 20.5975 126.744 20.3285C126.744 19.7693 126.942 19.3304 127.339 19.0119C127.735 18.6862 128.231 18.5234 128.825 18.5234C129.59 18.5234 130.298 18.7429 130.949 19.1817L130.333 20.2967C129.731 19.9427 129.218 19.7658 128.794 19.7658C128.397 19.7658 128.199 19.9038 128.199 20.1799C128.199 20.371 128.525 20.5763 129.176 20.7957C129.254 20.8241 129.314 20.8453 129.356 20.8594C129.547 20.9232 129.71 20.9833 129.845 21.04C129.979 21.0966 130.131 21.1745 130.301 21.2736C130.471 21.3727 130.606 21.4789 130.705 21.5921C130.811 21.6983 130.899 21.8363 130.97 22.0062C131.041 22.1761 131.076 22.3637 131.076 22.569C131.076 23.1778 130.875 23.6379 130.471 23.9494C130.075 24.2538 129.551 24.406 128.9 24.406Z" fill="#1E1E1C"/>
<path d="M62.4643 36.9761V29.5432H65.6286C66.4993 29.5432 67.147 29.7627 67.5717 30.2015C67.8903 30.5343 68.0496 30.9378 68.0496 31.412C68.0496 32.219 67.6567 32.7924 66.8709 33.1322C67.9328 33.4508 68.4637 34.056 68.4637 34.948C68.4637 35.578 68.2195 36.0735 67.731 36.4345C67.2426 36.7956 66.5878 36.9761 65.7666 36.9761H62.4643ZM63.2925 32.8561H65.4905C66.0073 32.8561 66.4214 32.7393 66.7329 32.5057C67.0444 32.2721 67.2001 31.9394 67.2001 31.5076C67.2001 31.1324 67.055 30.8387 66.7647 30.6263C66.4816 30.4068 66.0781 30.2971 65.5543 30.2971H63.2925V32.8561ZM63.2925 36.2222H65.7879C66.3542 36.2222 66.8001 36.1054 67.1258 35.8718C67.4514 35.6311 67.6142 35.2984 67.6142 34.8736C67.6142 34.4631 67.4443 34.148 67.1045 33.9286C66.7718 33.7092 66.2834 33.5994 65.6392 33.5994H63.2925V36.2222ZM70.4778 34.5657C70.5344 35.1249 70.7432 35.5709 71.1043 35.9036C71.4724 36.2292 71.9077 36.3921 72.4103 36.3921C73.0687 36.3921 73.6456 36.1337 74.1411 35.6169L74.6508 36.0735C74.0349 36.7602 73.281 37.1035 72.3891 37.1035C71.6175 37.1035 70.9662 36.838 70.4353 36.3071C69.9115 35.7691 69.6495 35.0789 69.6495 34.2365C69.6495 33.4366 69.9008 32.7606 70.4035 32.2084C70.9061 31.6492 71.5325 31.3696 72.2829 31.3696C73.0687 31.3696 73.6916 31.6456 74.1517 32.1978C74.6119 32.75 74.8419 33.4437 74.8419 34.279C74.8419 34.3852 74.8384 34.4808 74.8313 34.5657H70.4778ZM70.4778 33.9074H74.0137C73.9641 33.3764 73.7872 32.9376 73.4828 32.5907C73.1855 32.2367 72.7784 32.0598 72.2617 32.0598C71.7945 32.0598 71.3945 32.2332 71.0618 32.5801C70.7291 32.9269 70.5344 33.3694 70.4778 33.9074ZM78.089 37.0823C77.6926 37.0823 77.2891 37.0115 76.8785 36.8699C76.475 36.7212 76.1211 36.523 75.8167 36.2753L76.2308 35.6913C76.8537 36.1585 77.4873 36.3921 78.1315 36.3921C78.4642 36.3921 78.7367 36.3107 78.9491 36.1478C79.1615 35.985 79.2676 35.7691 79.2676 35.5001C79.2676 35.2524 79.1508 35.0612 78.9172 34.9267C78.6907 34.7922 78.3509 34.6613 77.8979 34.5338C77.6218 34.456 77.4023 34.3852 77.2395 34.3215C77.0767 34.2578 76.8927 34.1693 76.6874 34.056C76.4821 33.9357 76.3299 33.787 76.2308 33.61C76.1317 33.426 76.0821 33.2101 76.0821 32.9623C76.0821 32.4951 76.2556 32.1164 76.6024 31.8262C76.9564 31.5359 77.4059 31.3908 77.951 31.3908C78.6589 31.3908 79.3172 31.5926 79.926 31.9961L79.5543 32.6119C79.0093 32.258 78.4677 32.081 77.9297 32.081C77.6112 32.081 77.3528 32.1589 77.1546 32.3146C76.9635 32.4633 76.8679 32.6579 76.8679 32.8986C76.8679 32.9977 76.8962 33.0897 76.9528 33.1747C77.0095 33.2596 77.0732 33.3304 77.144 33.3871C77.2148 33.4437 77.3245 33.5039 77.4731 33.5676C77.6289 33.6313 77.7528 33.6773 77.8448 33.7056C77.9368 33.7339 78.0819 33.7799 78.2801 33.8437C78.5421 33.9215 78.758 33.9958 78.9279 34.0666C79.0977 34.1374 79.2783 34.233 79.4694 34.3533C79.6605 34.4737 79.8021 34.6259 79.8941 34.8099C79.9932 34.9869 80.0428 35.1957 80.0428 35.4364C80.0428 35.9461 79.8587 36.3496 79.4906 36.6469C79.1225 36.9371 78.6553 37.0823 78.089 37.0823ZM83.295 37.0716C82.8207 37.0716 82.442 36.9478 82.1588 36.7C81.8827 36.4452 81.7447 36.0523 81.7447 35.5214V32.2084H80.9802V31.4864H81.7447V29.8299H82.5623V31.4864H84.3037V32.2084H82.5623V35.4152C82.5623 36.024 82.8703 36.3284 83.4861 36.3284C83.7551 36.3284 84.0206 36.2646 84.2825 36.1372V36.838C83.9852 36.9938 83.656 37.0716 83.295 37.0716ZM89.0725 36.9761V29.5432H94.4135V30.3184H89.9113V32.9729H93.9357V33.7375H89.9113V36.9761H89.0725ZM95.9771 36.9761V29.2247H96.7947V36.9761H95.9771ZM100.327 37.0929C99.7681 37.0929 99.2868 36.9407 98.8833 36.6363C98.4798 36.3319 98.278 35.9072 98.278 35.3621C98.278 34.7887 98.4904 34.3463 98.9151 34.0348C99.3399 33.7233 99.9097 33.5676 100.625 33.5676C101.191 33.5676 101.75 33.6454 102.302 33.8012V33.6313C102.302 33.1499 102.161 32.7818 101.878 32.527C101.594 32.2721 101.195 32.1447 100.678 32.1447C100.14 32.1447 99.5841 32.2757 99.0107 32.5376L98.7665 31.8686C99.446 31.5572 100.111 31.4014 100.763 31.4014C101.541 31.4014 102.132 31.6032 102.536 32.0067C102.918 32.3889 103.109 32.9269 103.109 33.6207V36.9761H102.302V36.1585C101.814 36.7814 101.156 37.0929 100.327 37.0929ZM100.487 36.4345C100.996 36.4345 101.428 36.2965 101.782 36.0204C102.136 35.7443 102.313 35.3904 102.313 34.9586V34.4489C101.775 34.2932 101.241 34.2153 100.71 34.2153C100.207 34.2153 99.8141 34.3179 99.531 34.5232C99.2478 34.7214 99.1063 34.994 99.1063 35.3408C99.1063 35.6736 99.2372 35.939 99.4991 36.1372C99.7681 36.3354 100.097 36.4345 100.487 36.4345ZM106.471 37.0185L104.092 31.4864H104.995L106.842 36.0417L108.701 31.4864H109.582L107.193 37.0185H106.471ZM115.1 36.2646C114.548 36.8239 113.865 37.1035 113.05 37.1035C112.236 37.1035 111.557 36.8239 111.012 36.2646C110.474 35.7054 110.205 35.0294 110.205 34.2365C110.205 33.4508 110.477 32.7783 111.022 32.219C111.574 31.6527 112.258 31.3696 113.072 31.3696C113.886 31.3696 114.565 31.6492 115.11 32.2084C115.655 32.7677 115.928 33.4437 115.928 34.2365C115.928 35.0223 115.652 35.6983 115.1 36.2646ZM113.072 36.3708C113.659 36.3708 114.141 36.1655 114.516 35.755C114.898 35.3444 115.089 34.8382 115.089 34.2365C115.089 33.6419 114.891 33.1358 114.495 32.7181C114.105 32.3004 113.624 32.0916 113.05 32.0916C112.463 32.0916 111.982 32.3004 111.606 32.7181C111.231 33.1287 111.044 33.6348 111.044 34.2365C111.044 34.8312 111.238 35.3373 111.628 35.755C112.017 36.1655 112.498 36.3708 113.072 36.3708ZM117.409 36.9761V31.4864H118.227V32.9199C118.439 32.4456 118.74 32.0668 119.129 31.7837C119.519 31.5005 119.965 31.3696 120.467 31.3908V32.2721H120.403C119.773 32.2721 119.253 32.4916 118.843 32.9305C118.432 33.3694 118.227 33.9888 118.227 34.7887V36.9761H117.409ZM130.396 37.1247L129.228 35.9249C128.513 36.6965 127.703 37.0823 126.797 37.0823C126.117 37.0823 125.558 36.8876 125.119 36.4982C124.68 36.1089 124.461 35.6028 124.461 34.9798C124.461 34.0171 125.059 33.3021 126.255 32.8349C125.993 32.5305 125.802 32.2544 125.682 32.0067C125.568 31.7518 125.512 31.4758 125.512 31.1784C125.512 30.6829 125.692 30.2653 126.053 29.9255C126.421 29.5857 126.896 29.4158 127.476 29.4158C127.993 29.4158 128.421 29.5821 128.761 29.9149C129.108 30.2405 129.281 30.6404 129.281 31.1147C129.281 31.9925 128.697 32.6367 127.529 33.0473L129.228 34.7781C129.547 34.3179 129.844 33.7658 130.12 33.1216L130.81 33.4402C130.435 34.2401 130.078 34.863 129.738 35.309L131.033 36.6363L130.396 37.1247ZM127.062 32.5694C128.018 32.2438 128.496 31.766 128.496 31.136C128.496 30.8387 128.396 30.5944 128.198 30.4033C128 30.2051 127.749 30.106 127.444 30.106C127.112 30.106 126.839 30.2086 126.627 30.4139C126.421 30.6192 126.319 30.8811 126.319 31.1997C126.319 31.4191 126.372 31.628 126.478 31.8262C126.584 32.0173 126.779 32.2651 127.062 32.5694ZM126.86 36.3708C127.512 36.3708 128.131 36.0487 128.719 35.4046L126.733 33.3552C126.259 33.5322 125.901 33.7622 125.66 34.0454C125.427 34.3215 125.31 34.6294 125.31 34.9692C125.31 35.3727 125.455 35.7089 125.745 35.9779C126.036 36.2399 126.407 36.3708 126.86 36.3708Z" fill="#1E1E1C"/>
<path d="M62.0395 49.6641V42.2312H65.2038C66.0745 42.2312 66.7222 42.4506 67.1469 42.8895C67.4655 43.2222 67.6248 43.6257 67.6248 44.1C67.6248 44.907 67.2319 45.4804 66.4461 45.8202C67.508 46.1388 68.0389 46.744 68.0389 47.636C68.0389 48.266 67.7947 48.7615 67.3062 49.1225C66.8178 49.4836 66.163 49.6641 65.3418 49.6641H62.0395ZM62.8677 45.5441H65.0657C65.5825 45.5441 65.9966 45.4273 66.3081 45.1937C66.6196 44.9601 66.7753 44.6274 66.7753 44.1956C66.7753 43.8204 66.6302 43.5266 66.3399 43.3143C66.0568 43.0948 65.6533 42.9851 65.1294 42.9851H62.8677V45.5441ZM62.8677 48.9102H65.3631C65.9294 48.9102 66.3753 48.7934 66.701 48.5598C67.0266 48.3191 67.1894 47.9864 67.1894 47.5616C67.1894 47.151 67.0195 46.836 66.6797 46.6166C66.347 46.3971 65.8586 46.2874 65.2144 46.2874H62.8677V48.9102ZM70.053 47.2537C70.1096 47.8129 70.3184 48.2589 70.6795 48.5916C71.0476 48.9172 71.4829 49.0801 71.9855 49.0801C72.6439 49.0801 73.2208 48.8217 73.7163 48.3049L74.226 48.7615C73.6101 49.4482 72.8562 49.7915 71.9643 49.7915C71.1927 49.7915 70.5414 49.526 70.0105 48.9951C69.4867 48.4571 69.2247 47.7669 69.2247 46.9245C69.2247 46.1246 69.476 45.4486 69.9786 44.8964C70.4813 44.3372 71.1077 44.0576 71.8581 44.0576C72.6439 44.0576 73.2668 44.3336 73.7269 44.8858C74.1871 45.4379 74.4171 46.1317 74.4171 46.967C74.4171 47.0732 74.4136 47.1687 74.4065 47.2537H70.053ZM70.053 46.5954H73.5889C73.5393 46.0644 73.3624 45.6255 73.058 45.2787C72.7607 44.9247 72.3536 44.7478 71.8369 44.7478C71.3697 44.7478 70.9697 44.9212 70.637 45.2681C70.3043 45.6149 70.1096 46.0574 70.053 46.5954ZM77.6642 49.7702C77.2678 49.7702 76.8643 49.6995 76.4537 49.5579C76.0502 49.4092 75.6963 49.211 75.3919 48.9632L75.806 48.3792C76.4289 48.8464 77.0625 49.0801 77.7067 49.0801C78.0394 49.0801 78.3119 48.9986 78.5243 48.8358C78.7367 48.673 78.8428 48.4571 78.8428 48.1881C78.8428 47.9403 78.726 47.7492 78.4924 47.6147C78.2659 47.4802 77.9261 47.3493 77.4731 47.2218C77.197 47.144 76.9775 47.0732 76.8147 47.0095C76.6519 46.9458 76.4679 46.8573 76.2626 46.744C76.0573 46.6237 75.9051 46.475 75.806 46.298C75.7069 46.114 75.6573 45.8981 75.6573 45.6503C75.6573 45.1831 75.8308 44.8044 76.1776 44.5141C76.5316 44.2239 76.9811 44.0788 77.5262 44.0788C78.234 44.0788 78.8924 44.2805 79.5012 44.684L79.1295 45.2999C78.5845 44.946 78.0429 44.769 77.5049 44.769C77.1864 44.769 76.928 44.8469 76.7298 45.0026C76.5386 45.1513 76.4431 45.3459 76.4431 45.5866C76.4431 45.6857 76.4714 45.7777 76.528 45.8627C76.5847 45.9476 76.6484 46.0184 76.7192 46.0751C76.7899 46.1317 76.8997 46.1919 77.0483 46.2556C77.2041 46.3193 77.3279 46.3653 77.42 46.3936C77.512 46.4219 77.6571 46.4679 77.8553 46.5316C78.1172 46.6095 78.3332 46.6838 78.503 46.7546C78.6729 46.8254 78.8535 46.921 79.0446 47.0413C79.2357 47.1617 79.3773 47.3139 79.4693 47.4979C79.5684 47.6749 79.618 47.8837 79.618 48.1244C79.618 48.6341 79.4339 49.0376 79.0658 49.3349C78.6977 49.6251 78.2305 49.7702 77.6642 49.7702ZM82.8702 49.7596C82.3959 49.7596 82.0172 49.6357 81.734 49.388C81.4579 49.1331 81.3199 48.7403 81.3199 48.2093V44.8964H80.5554V44.1744H81.3199V42.5179H82.1375V44.1744H83.8789V44.8964H82.1375V48.1032C82.1375 48.7119 82.4455 49.0163 83.0613 49.0163C83.3303 49.0163 83.5958 48.9526 83.8577 48.8252V49.526C83.5604 49.6818 83.2312 49.7596 82.8702 49.7596ZM92.0455 49.7915C90.9766 49.7915 90.0882 49.4234 89.3803 48.6872C88.6724 47.9439 88.3185 47.0307 88.3185 45.9476C88.3185 44.8787 88.676 43.9726 89.391 43.2293C90.1059 42.479 91.0014 42.1038 92.0774 42.1038C92.7003 42.1038 93.2313 42.2064 93.6702 42.4117C94.1091 42.6099 94.5373 42.9072 94.955 43.3037L94.4028 43.8983C93.6879 43.2187 92.9092 42.8789 92.0668 42.8789C91.2456 42.8789 90.559 43.1727 90.0068 43.7602C89.4617 44.3478 89.1892 45.0769 89.1892 45.9476C89.1892 46.8113 89.4653 47.5404 90.0174 48.135C90.5696 48.7226 91.2527 49.0163 92.0668 49.0163C92.5481 49.0163 92.9729 48.9279 93.341 48.7509C93.7091 48.5739 94.0843 48.3049 94.4665 47.9439L95.0187 48.5279C94.601 48.9456 94.1621 49.2606 93.702 49.4729C93.2419 49.6853 92.6897 49.7915 92.0455 49.7915ZM96.4233 49.6641V41.9126H97.2409V49.6641H96.4233ZM103.694 48.9526C103.142 49.5119 102.458 49.7915 101.644 49.7915C100.83 49.7915 100.151 49.5119 99.6056 48.9526C99.0676 48.3934 98.7986 47.7174 98.7986 46.9245C98.7986 46.1388 99.0711 45.4663 99.6162 44.907C100.168 44.3407 100.851 44.0576 101.666 44.0576C102.48 44.0576 103.159 44.3372 103.704 44.8964C104.249 45.4556 104.522 46.1317 104.522 46.9245C104.522 47.7103 104.246 48.3863 103.694 48.9526ZM101.666 49.0588C102.253 49.0588 102.734 48.8535 103.11 48.4429C103.492 48.0324 103.683 47.5262 103.683 46.9245C103.683 46.3299 103.485 45.8237 103.088 45.4061C102.699 44.9884 102.218 44.7796 101.644 44.7796C101.057 44.7796 100.575 44.9884 100.2 45.4061C99.825 45.8167 99.6374 46.3228 99.6374 46.9245C99.6374 47.5191 99.8321 48.0253 100.221 48.4429C100.611 48.8535 101.092 49.0588 101.666 49.0588ZM107.819 49.7702C107.422 49.7702 107.019 49.6995 106.608 49.5579C106.205 49.4092 105.851 49.211 105.546 48.9632L105.961 48.3792C106.583 48.8464 107.217 49.0801 107.861 49.0801C108.194 49.0801 108.466 48.9986 108.679 48.8358C108.891 48.673 108.997 48.4571 108.997 48.1881C108.997 47.9403 108.881 47.7492 108.647 47.6147C108.42 47.4802 108.081 47.3493 107.628 47.2218C107.352 47.144 107.132 47.0732 106.969 47.0095C106.806 46.9458 106.622 46.8573 106.417 46.744C106.212 46.6237 106.06 46.475 105.961 46.298C105.861 46.114 105.812 45.8981 105.812 45.6503C105.812 45.1831 105.985 44.8044 106.332 44.5141C106.686 44.2239 107.136 44.0788 107.681 44.0788C108.389 44.0788 109.047 44.2805 109.656 44.684L109.284 45.2999C108.739 44.946 108.197 44.769 107.659 44.769C107.341 44.769 107.083 44.8469 106.884 45.0026C106.693 45.1513 106.598 45.3459 106.598 45.5866C106.598 45.6857 106.626 45.7777 106.683 45.8627C106.739 45.9476 106.803 46.0184 106.874 46.0751C106.944 46.1317 107.054 46.1919 107.203 46.2556C107.359 46.3193 107.482 46.3653 107.575 46.3936C107.667 46.4219 107.812 46.4679 108.01 46.5316C108.272 46.6095 108.488 46.6838 108.658 46.7546C108.827 46.8254 109.008 46.921 109.199 47.0413C109.39 47.1617 109.532 47.3139 109.624 47.4979C109.723 47.6749 109.773 47.8837 109.773 48.1244C109.773 48.6341 109.588 49.0376 109.22 49.3349C108.852 49.6251 108.385 49.7702 107.819 49.7702ZM111.78 47.2537C111.837 47.8129 112.045 48.2589 112.406 48.5916C112.774 48.9172 113.21 49.0801 113.712 49.0801C114.371 49.0801 114.948 48.8217 115.443 48.3049L115.953 48.7615C115.337 49.4482 114.583 49.7915 113.691 49.7915C112.92 49.7915 112.268 49.526 111.737 48.9951C111.214 48.4571 110.952 47.7669 110.952 46.9245C110.952 46.1246 111.203 45.4486 111.706 44.8964C112.208 44.3372 112.835 44.0576 113.585 44.0576C114.371 44.0576 114.994 44.3336 115.454 44.8858C115.914 45.4379 116.144 46.1317 116.144 46.967C116.144 47.0732 116.14 47.1687 116.133 47.2537H111.78ZM111.78 46.5954H115.316C115.266 46.0644 115.089 45.6255 114.785 45.2787C114.488 44.9247 114.081 44.7478 113.564 44.7478C113.097 44.7478 112.697 44.9212 112.364 45.2681C112.031 45.6149 111.837 46.0574 111.78 46.5954ZM123.445 49.7702C122.306 49.7702 121.293 49.3738 120.408 48.581L120.929 47.9651C121.325 48.3261 121.722 48.5916 122.118 48.7615C122.521 48.9314 122.975 49.0163 123.477 49.0163C123.973 49.0163 124.373 48.8995 124.677 48.6659C124.981 48.4253 125.134 48.1138 125.134 47.7315C125.134 47.3705 124.999 47.0838 124.73 46.8714C124.461 46.6591 123.951 46.475 123.201 46.3193C122.316 46.1281 121.679 45.8698 121.29 45.5441C120.9 45.2185 120.706 44.7548 120.706 44.1531C120.706 43.5656 120.936 43.0807 121.396 42.6984C121.856 42.3161 122.44 42.125 123.148 42.125C124.132 42.125 125.003 42.4294 125.76 43.0382L125.272 43.6859C124.613 43.1479 123.898 42.8789 123.127 42.8789C122.652 42.8789 122.27 42.9957 121.98 43.2293C121.69 43.4559 121.545 43.7461 121.545 44.1C121.545 44.4681 121.683 44.7584 121.959 44.9707C122.242 45.1831 122.776 45.3742 123.562 45.5441C124.404 45.7282 125.017 45.9866 125.399 46.3193C125.788 46.6449 125.983 47.0944 125.983 47.6678C125.983 48.2978 125.746 48.8075 125.272 49.1969C124.797 49.5791 124.189 49.7702 123.445 49.7702ZM128.245 51.3949C127.848 51.3949 127.459 51.3028 127.077 51.1188L127.353 50.4711C127.615 50.6056 127.901 50.6728 128.213 50.6728C128.461 50.6728 128.669 50.5949 128.839 50.4392C129.009 50.2905 129.176 50.0251 129.338 49.6428L126.843 44.1744H127.746L129.742 48.7509L131.505 44.1744H132.375L130.071 49.8446C129.838 50.4038 129.579 50.8002 129.296 51.0338C129.013 51.2745 128.662 51.3949 128.245 51.3949ZM135.277 49.7702C134.881 49.7702 134.477 49.6995 134.067 49.5579C133.663 49.4092 133.309 49.211 133.005 48.9632L133.419 48.3792C134.042 48.8464 134.675 49.0801 135.32 49.0801C135.652 49.0801 135.925 48.9986 136.137 48.8358C136.35 48.673 136.456 48.4571 136.456 48.1881C136.456 47.9403 136.339 47.7492 136.105 47.6147C135.879 47.4802 135.539 47.3493 135.086 47.2218C134.81 47.144 134.591 47.0732 134.428 47.0095C134.265 46.9458 134.081 46.8573 133.876 46.744C133.67 46.6237 133.518 46.475 133.419 46.298C133.32 46.114 133.27 45.8981 133.27 45.6503C133.27 45.1831 133.444 44.8044 133.791 44.5141C134.145 44.2239 134.594 44.0788 135.139 44.0788C135.847 44.0788 136.505 44.2805 137.114 44.684L136.743 45.2999C136.197 44.946 135.656 44.769 135.118 44.769C134.799 44.769 134.541 44.8469 134.343 45.0026C134.152 45.1513 134.056 45.3459 134.056 45.5866C134.056 45.6857 134.084 45.7777 134.141 45.8627C134.198 45.9476 134.261 46.0184 134.332 46.0751C134.403 46.1317 134.513 46.1919 134.661 46.2556C134.817 46.3193 134.941 46.3653 135.033 46.3936C135.125 46.4219 135.27 46.4679 135.468 46.5316C135.73 46.6095 135.946 46.6838 136.116 46.7546C136.286 46.8254 136.466 46.921 136.658 47.0413C136.849 47.1617 136.99 47.3139 137.082 47.4979C137.181 47.6749 137.231 47.8837 137.231 48.1244C137.231 48.6341 137.047 49.0376 136.679 49.3349C136.311 49.6251 135.844 49.7702 135.277 49.7702ZM140.483 49.7596C140.009 49.7596 139.63 49.6357 139.347 49.388C139.071 49.1331 138.933 48.7403 138.933 48.2093V44.8964H138.168V44.1744H138.933V42.5179H139.751V44.1744H141.492V44.8964H139.751V48.1032C139.751 48.7119 140.058 49.0163 140.674 49.0163C140.943 49.0163 141.209 48.9526 141.471 48.8252V49.526C141.173 49.6818 140.844 49.7596 140.483 49.7596ZM143.272 47.2537C143.329 47.8129 143.538 48.2589 143.899 48.5916C144.267 48.9172 144.702 49.0801 145.205 49.0801C145.863 49.0801 146.44 48.8217 146.935 48.3049L147.445 48.7615C146.829 49.4482 146.075 49.7915 145.183 49.7915C144.412 49.7915 143.761 49.526 143.23 48.9951C142.706 48.4571 142.444 47.7669 142.444 46.9245C142.444 46.1246 142.695 45.4486 143.198 44.8964C143.7 44.3372 144.327 44.0576 145.077 44.0576C145.863 44.0576 146.486 44.3336 146.946 44.8858C147.406 45.4379 147.636 46.1317 147.636 46.967C147.636 47.0732 147.633 47.1687 147.626 47.2537H143.272ZM143.272 46.5954H146.808C146.758 46.0644 146.581 45.6255 146.277 45.2787C145.98 44.9247 145.573 44.7478 145.056 44.7478C144.589 44.7478 144.189 44.9212 143.856 45.2681C143.523 45.6149 143.329 46.0574 143.272 46.5954ZM149.068 49.6641V44.1744H149.885V45.0982C150.345 44.4044 150.936 44.0576 151.658 44.0576C152.48 44.0576 153.067 44.4221 153.421 45.1513C153.895 44.4221 154.54 44.0576 155.354 44.0576C155.984 44.0576 156.479 44.2558 156.84 44.6522C157.208 45.0486 157.392 45.5866 157.392 46.2662V49.6641H156.575V46.4573C156.575 45.9264 156.447 45.5194 156.193 45.2362C155.945 44.946 155.598 44.8008 155.152 44.8008C154.72 44.8008 154.359 44.953 154.069 45.2574C153.779 45.5618 153.633 45.9759 153.633 46.4998V49.6641H152.826V46.4361C152.826 45.9264 152.699 45.5264 152.444 45.2362C152.196 44.946 151.853 44.8008 151.414 44.8008C150.975 44.8008 150.611 44.9637 150.321 45.2893C150.03 45.6149 149.885 46.029 149.885 46.5316V49.6641H149.068Z" fill="#1E1E1C"/>
<defs>
<linearGradient id="paint0_linear_1056_4851" x1="-2.40326" y1="29.5455" x2="44.7557" y2="29.5455" gradientUnits="userSpaceOnUse">
<stop stop-color="#E7E3E0"/>
<stop offset="0.04" stop-color="#D8D6D3"/>
<stop offset="0.12" stop-color="#B1B2B1"/>
<stop offset="0.23" stop-color="#737A7B"/>
<stop offset="0.26" stop-color="#60696B"/>
<stop offset="0.35" stop-color="#919798"/>
<stop offset="0.45" stop-color="#C0C4C5"/>
<stop offset="0.53" stop-color="#DEE0E1"/>
<stop offset="0.57" stop-color="#E9EAEB"/>
<stop offset="0.64" stop-color="#DFE1E2"/>
<stop offset="0.74" stop-color="#C5C7CA"/>
<stop offset="0.87" stop-color="#9B9EA3"/>
<stop offset="0.88" stop-color="#9A9DA2"/>
<stop offset="1" stop-color="#B2B2B2"/>
</linearGradient>
<linearGradient id="paint1_linear_1056_4851" x1="0.504739" y1="29.3996" x2="45.6593" y2="29.3996" gradientUnits="userSpaceOnUse">
<stop stop-color="#6F6C6B"/>
<stop offset="0.05" stop-color="#605E5D"/>
<stop offset="0.15" stop-color="#393939"/>
<stop offset="0.26" stop-color="#060809"/>
<stop offset="0.31" stop-color="#191A1B"/>
<stop offset="0.43" stop-color="#484849"/>
<stop offset="0.52" stop-color="#666566"/>
<stop offset="0.57" stop-color="#717071"/>
<stop offset="0.64" stop-color="#676768"/>
<stop offset="0.75" stop-color="#4D4E4F"/>
<stop offset="0.88" stop-color="#252728"/>
<stop offset="1" stop-color="#383737"/>
</linearGradient>
</defs>
</svg>
