<svg width="14" height="14" viewBox="0 0 14 14" fill="none" xmlns="http://www.w3.org/2000/svg">
<path fill-rule="evenodd" clip-rule="evenodd" d="M7 12.968C10.3049 12.968 12.984 10.2889 12.984 6.98401C12.984 3.67913 10.3049 1 7 1C3.69512 1 1.01599 3.67913 1.01599 6.98401C1.01599 10.2889 3.69512 12.968 7 12.968Z" stroke="white" stroke-linecap="round" stroke-linejoin="round"/>
<path fill-rule="evenodd" clip-rule="evenodd" d="M7.00001 13.0002C8.15672 13.0002 9.09441 10.321 9.09441 7.01617C9.09441 3.7113 8.15672 1.03217 7.00001 1.03217C5.8433 1.03217 4.90561 3.7113 4.90561 7.01617C4.90561 10.321 5.8433 13.0002 7.00001 13.0002Z" stroke="white" stroke-linecap="round" stroke-linejoin="round"/>
<path fill-rule="evenodd" clip-rule="evenodd" d="M12.984 7.01613C12.984 5.85943 10.3049 4.92173 7 4.92173C3.69512 4.92173 1.01599 5.85943 1.01599 7.01613C1.01599 8.17284 3.69512 9.11053 7 9.11053C10.3049 9.11053 12.984 8.17284 12.984 7.01613Z" stroke="white" stroke-linecap="round" stroke-linejoin="round"/>
</svg>
