<svg width="23" height="24" viewBox="0 0 23 24" fill="none" xmlns="http://www.w3.org/2000/svg">
<g opacity="0.6">
<path d="M20.3014 3.25109C18.4952 1.45141 15.9006 0.526613 12.5909 0.5H10.3123C3.81924 0.5 0.0670917 4.29563 0.000564257 10.9355V13.0579C-0.0260467 16.3445 0.888721 18.9326 2.71823 20.7489C4.54773 22.5652 7.12565 23.4734 10.4354 23.5H12.7106C19.1937 23.5 22.9392 19.7044 22.9991 13.0645V10.9421C23.0324 7.65216 22.1243 5.06408 20.3014 3.25109ZM21.6652 10.9421V13.0512C21.6153 18.9426 18.3754 22.1095 12.5909 22.1161H10.4454C7.50487 22.0928 5.22298 21.3011 3.66623 19.7643C2.10949 18.2274 1.32114 15.9653 1.33777 13.0579V10.9488C1.38767 5.05743 4.59428 1.90716 10.4321 1.88387H12.5743C15.5181 1.90716 17.7967 2.69553 19.3468 4.23242C20.8969 5.7693 21.6752 8.03138 21.6552 10.9355L21.6652 10.9421Z" fill="#898A8D"/>
<path d="M6.99976 9H15.9998" stroke="#898A8D" stroke-width="1.2" stroke-linecap="round"/>
<path d="M6.99976 12H15.9998" stroke="#898A8D" stroke-width="1.2" stroke-linecap="round"/>
<path d="M6.99976 15H15.9998" stroke="#898A8D" stroke-width="1.2" stroke-linecap="round"/>
</g>
</svg>
