<svg width="177" height="49" viewBox="0 0 177 49" fill="none" xmlns="http://www.w3.org/2000/svg">
<path d="M14.2475 41.9831C13.6838 41.8412 13.1031 41.7787 12.522 41.7973C12.0442 41.7973 11.2744 41.7973 11.2744 42.1556C11.2744 43.0051 14.6059 41.8902 14.6059 43.7749C14.6059 44.85 13.398 45.0359 12.3362 45.0359C11.6426 45.0319 10.9503 44.9742 10.2656 44.8633V44.0271C10.9383 44.1652 11.623 44.2363 12.3097 44.2395C12.9734 44.2395 13.637 44.1599 13.637 43.8148C13.637 42.9255 10.2922 44.0669 10.2922 42.2087C10.2922 41.1336 11.5399 41.0009 12.4557 41.0009C13.0537 40.9948 13.6504 41.0572 14.2342 41.1867V41.9831H14.2475Z" fill="#1E1E1C"/>
<path d="M19.1597 44.9572V43.3778H16.5051V44.9572H15.5229V41.0815H16.5051V42.5416H19.1597V41.0815H20.1419V44.9572H19.1597Z" fill="#1E1E1C"/>
<path d="M23.9492 45.0354C22.2105 45.0354 21.1221 44.1859 21.1221 43.0179C21.1221 41.8499 22.2237 41.0137 23.9492 41.0137C25.6747 41.0137 26.7897 41.8499 26.7897 43.0179C26.7897 44.1859 25.7942 45.0354 23.9492 45.0354ZM23.9492 41.8366C22.9007 41.8366 22.1574 42.3011 22.1574 43.0179C22.1574 43.7346 22.9139 44.1992 23.9492 44.1992C24.9845 44.1992 25.7411 43.7479 25.7411 43.0179C25.7411 42.2879 24.9845 41.8366 23.9492 41.8366Z" fill="#1E1E1C"/>
<path d="M30.4683 42.8185L29.141 45.0351L26.9243 41.0532H28.026L29.1144 43.2034L30.4417 40.9868L31.6628 43.2034L32.8308 41.0532H33.9325L31.7291 45.0351L30.4018 42.8185H30.4683Z" fill="#1E1E1C"/>
<path d="M28.7789 36.991C28.1862 37.2537 27.5423 37.3806 26.8942 37.3626C25.0625 37.3626 23.9741 36.5131 23.9741 35.3584C23.9741 34.2037 25.0492 33.3409 26.8676 33.3409C27.524 33.3268 28.1757 33.4535 28.7789 33.7126V34.562C28.1993 34.2996 27.5703 34.1638 26.934 34.1638C25.6067 34.1638 25.0227 34.7611 25.0227 35.3451C25.0227 35.9291 25.5536 36.5264 26.9473 36.5264C27.5789 36.5364 28.2047 36.4048 28.7789 36.1415V36.991Z" fill="#1E1E1C"/>
<path d="M29.7764 37.2972V33.4082H30.7453V36.461H33.5194V37.2972H29.7764Z" fill="#1E1E1C"/>
<path d="M37.4218 33.4082H38.3907V35.439C38.3907 36.7663 37.4484 37.3636 36.2007 37.3636C34.9531 37.3636 34.0239 36.7663 34.0239 35.439V33.4082H34.9928V35.439C34.9928 36.2752 35.5902 36.5273 36.2007 36.5273C36.8113 36.5273 37.4218 36.2752 37.4218 35.439V33.4082Z" fill="#1E1E1C"/>
<path d="M39.5332 37.2972V33.4082H42.1082C43.0771 33.4082 43.5682 33.6604 43.5682 34.5762C43.5666 34.6988 43.5341 34.819 43.4738 34.9257C43.4135 35.0324 43.3273 35.1222 43.2231 35.1868C43.4228 35.2406 43.5984 35.3604 43.7213 35.5267C43.8442 35.693 43.9072 35.896 43.9001 36.1026C43.9001 36.9123 43.5284 37.2972 42.2409 37.2972H39.5332ZM40.5022 34.2444V34.9081H42.1082C42.4134 34.9081 42.5329 34.7753 42.5329 34.5762C42.5329 34.3771 42.4135 34.2444 42.1214 34.2444H40.5022ZM40.5022 35.7442V36.461H42.2409C42.7055 36.461 42.8514 36.3415 42.8514 36.1026C42.8514 35.8637 42.7188 35.7442 42.2409 35.7442H40.5022Z" fill="#1E1E1C"/>
<path d="M0.175781 33.2368H1.41016L2.98965 35.8914L4.56913 33.2368H5.80351L2.98965 37.5373L0.175781 33.2368Z" fill="#1E1E1C"/>
<path d="M9.01787 36.8068H6.5624L6.16422 37.4572H4.98291L7.79677 33.1567L10.6106 37.4572H9.42932L9.01787 36.8068ZM7.13313 35.891H8.46042L7.81006 34.8557L7.13313 35.891Z" fill="#1E1E1C"/>
<path d="M12.3245 36.1165V37.4438H11.2627V33.2229H14.1031C14.3039 33.2037 14.5064 33.2265 14.6978 33.2901C14.8891 33.3537 15.0651 33.4566 15.2144 33.5922C15.3636 33.7278 15.4829 33.8931 15.5645 34.0776C15.6461 34.262 15.6883 34.4614 15.6883 34.6631C15.6883 34.8647 15.6461 35.0642 15.5645 35.2486C15.4829 35.433 15.3636 35.5983 15.2144 35.7339C15.0651 35.8695 14.8891 35.9724 14.6978 36.036C14.5064 36.0996 14.3039 36.1225 14.1031 36.1032L12.3245 36.1165ZM12.3245 34.1521V35.2139H13.8509C14.4615 35.2139 14.5809 34.8688 14.5809 34.6697C14.5809 34.4706 14.4615 34.1521 13.8509 34.1521H12.3245Z" fill="#1E1E1C"/>
<path d="M16.6118 37.4576V33.2368H20.899V34.1394H17.6736V34.8561H20.3282V35.7587H17.6736V36.5551H20.899V37.4576H16.6118Z" fill="#1E1E1C"/>
<path d="M39.4523 28.007V25.9629H38.8816L38.6826 25.1931C38.818 25.1 38.9254 24.9717 38.9932 24.822C39.0611 24.6723 39.0867 24.5069 39.0675 24.3437C38.9347 24.5162 38.8153 24.5693 38.6826 24.5295V23.0031C38.7817 22.9308 38.8606 22.8342 38.9117 22.7227C38.9629 22.6111 38.9845 22.4883 38.9745 22.366C38.8816 22.4854 38.7755 22.5385 38.6826 22.4987V21.928L38.9745 21.6227H38.6826L38.4171 21.3572V20.9192C38.2713 20.8665 38.1116 20.8665 37.9658 20.9192V21.3705L37.7003 21.6227H37.4083L37.7003 21.928V22.4987C37.6074 22.4987 37.5012 22.4987 37.4083 22.366C37.3957 22.4886 37.4161 22.6123 37.4675 22.7244C37.5188 22.8364 37.5992 22.9326 37.7003 23.0031V24.5295C37.5676 24.5295 37.4349 24.5295 37.3021 24.3437C37.2885 24.5077 37.3181 24.6724 37.388 24.8215C37.4579 24.9705 37.5655 25.0986 37.7003 25.1931L37.5013 25.9629H36.4129V24.4764C36.1912 24.2517 35.9231 24.0783 35.6273 23.9682C35.3315 23.8582 35.0153 23.8142 34.7007 23.8393V20.4547L33.599 19.7114L32.5106 20.4547V22.1802H31.6744V19.6981L31.4621 19.5388V18.6628L31.0771 18.5699V17.6275L30.8117 17.4683V16.6188H30.4931V17.4683L30.2277 17.6275V18.5699L29.8427 18.6628V19.5388L29.6304 19.6981V22.1802L28.0376 22.4854C28.0844 21.7095 27.9899 20.9314 27.7589 20.1892C27.9447 18.769 27.8385 17.7072 27.1881 17.2559C27.1243 16.9488 27.1714 16.629 27.3209 16.3533C27.0687 16.048 27.3209 15.5968 26.9094 15.3711L26.7369 7.75244L26.551 15.3711C26.1927 15.5968 26.3918 16.048 26.1396 16.3533C26.2891 16.629 26.3361 16.9488 26.2723 17.2559C25.6219 17.7072 25.5157 18.769 25.7016 20.1892C25.606 20.4792 25.535 20.7766 25.4892 21.0785H24.4672V13.9244C24.4672 13.8786 24.449 13.8347 24.4166 13.8024C24.3843 13.77 24.3404 13.7518 24.2946 13.7518H19.6889C19.6432 13.7518 19.5993 13.77 19.5669 13.8024C19.5346 13.8347 19.5164 13.8786 19.5164 13.9244V14.3889H20.764C20.838 14.3889 20.9089 14.4183 20.9612 14.4706C21.0134 14.5228 21.0427 14.5937 21.0427 14.6677V21.0918H20.7109V14.8402C20.7109 14.8191 20.7025 14.7988 20.6876 14.7839C20.6726 14.769 20.6524 14.7606 20.6313 14.7606H19.5164V21.0918H18.5607V17.6806H18.2289L18.0696 18.8354C17.6929 17.7816 17.5701 16.6538 17.7112 15.5437L17.4458 15.4109L16.9547 12.6236L16.4768 15.4109L16.2114 15.5437C16.3428 16.6539 16.2203 17.7794 15.853 18.8354L15.6938 17.6806H15.3619V22.1934H14.247V20.1627C14.305 20.1188 14.3528 20.0628 14.3872 19.9986C14.4216 19.9345 14.4417 19.8637 14.4461 19.791C14.4446 19.7178 14.4257 19.6459 14.3911 19.5813C14.3565 19.5167 14.3071 19.4612 14.247 19.4194V17.1099L14.101 16.9639V15.6366C14.2486 15.2065 14.2486 14.7394 14.101 14.3093L13.8488 11.668L13.6365 14.4022C13.4888 14.8323 13.4888 15.2994 13.6365 15.7295V17.0568L13.4904 17.2028V19.5123C13.4317 19.5556 13.3834 19.6114 13.349 19.6757C13.3145 19.7399 13.2949 19.8111 13.2914 19.8839C13.2982 19.956 13.3192 20.026 13.3534 20.0898C13.3876 20.1536 13.4342 20.21 13.4904 20.2556V22.2863L13.0259 22.7509C13.0259 20.0963 12.0039 20.0963 12.0304 22.7509H11.7649V20.959C11.7659 20.6146 11.697 20.2735 11.5624 19.9564C11.4278 19.6392 11.2303 19.3527 10.9819 19.1141C10.8663 18.9739 10.7076 18.8759 10.5306 18.8354C10.3483 18.8722 10.1843 18.9706 10.066 19.1141C9.81937 19.3534 9.62392 19.6403 9.49158 19.9575C9.35924 20.2746 9.29275 20.6154 9.29618 20.959V22.6845H9.01742C9.01742 20.0299 8.00867 20.0299 8.02195 22.6845H7.55743V25.9895H6.42917L6.21684 25.2197C6.35364 25.1271 6.46285 24.9993 6.53295 24.8498C6.60305 24.7002 6.6314 24.5345 6.61502 24.3702C6.48229 24.5427 6.34957 24.5958 6.21684 24.556V23.0296C6.3204 22.9608 6.40347 22.8652 6.4572 22.7531C6.51094 22.641 6.53332 22.5164 6.52209 22.3925C6.41591 22.512 6.32303 22.5651 6.21684 22.5253V21.9545L6.52209 21.6492H6.21684L5.96465 21.3838V20.9458C5.81884 20.8931 5.65914 20.8931 5.51334 20.9458V21.3838L5.24794 21.6492H4.95589L5.24794 21.9545V22.5253C5.15503 22.5253 5.0488 22.5253 4.95589 22.3925C4.94325 22.5151 4.96368 22.6389 5.01503 22.7509C5.06638 22.8629 5.14682 22.9592 5.24794 23.0296V24.556C5.11521 24.556 4.98242 24.556 4.84969 24.3702C4.8333 24.5345 4.86165 24.7002 4.93175 24.8498C5.00185 24.9993 5.11114 25.1271 5.24794 25.2197L5.04881 25.9895H4.55772V28.0335L0.124512 30.489C14.2971 25.653 29.6731 25.653 43.8457 30.489L39.3993 28.0335L39.4523 28.007ZM20.1136 15.3711C20.1609 15.3711 20.2071 15.3851 20.2464 15.4114C20.2857 15.4376 20.3163 15.475 20.3344 15.5186C20.3524 15.5623 20.3572 15.6103 20.348 15.6567C20.3388 15.703 20.316 15.7456 20.2826 15.779C20.2492 15.8124 20.2066 15.8351 20.1603 15.8444C20.1139 15.8536 20.0659 15.8488 20.0222 15.8308C19.9786 15.8127 19.9412 15.7821 19.915 15.7428C19.8887 15.7035 19.8747 15.6573 19.8747 15.61C19.8747 15.5787 19.8809 15.5476 19.8929 15.5186C19.9049 15.4896 19.9225 15.4633 19.9447 15.4411C19.9669 15.4189 19.9932 15.4013 20.0222 15.3893C20.0512 15.3773 20.0822 15.3711 20.1136 15.3711ZM20.1136 19.937C20.145 19.937 20.1761 19.9432 20.2051 19.9552C20.2341 19.9672 20.2604 19.9848 20.2826 20.007C20.3048 20.0292 20.3224 20.0555 20.3344 20.0845C20.3464 20.1135 20.3526 20.1446 20.3526 20.1759C20.3526 20.2393 20.3274 20.3001 20.2826 20.3449C20.2378 20.3897 20.177 20.4148 20.1136 20.4148C20.0502 20.4148 19.9895 20.3897 19.9447 20.3449C19.8999 20.3001 19.8747 20.2393 19.8747 20.1759C19.8747 20.1446 19.8809 20.1135 19.8929 20.0845C19.9049 20.0555 19.9225 20.0292 19.9447 20.007C19.9669 19.9848 19.9932 19.9672 20.0222 19.9552C20.0512 19.9432 20.0822 19.937 20.1136 19.937ZM16.9679 18.039C16.911 18.0408 16.8544 18.0311 16.8014 18.0105C16.7483 17.99 16.6999 17.959 16.659 17.9194C16.6182 17.8798 16.5857 17.8323 16.5635 17.7799C16.5413 17.7275 16.5299 17.6712 16.53 17.6143C16.53 17.4981 16.5761 17.3867 16.6582 17.3045C16.7404 17.2224 16.8518 17.1762 16.9679 17.1762C17.0841 17.1762 17.1956 17.2224 17.2777 17.3045C17.3598 17.3867 17.4059 17.4981 17.4059 17.6143C17.406 17.6712 17.3946 17.7275 17.3724 17.7799C17.3502 17.8323 17.3178 17.8798 17.2769 17.9194C17.236 17.959 17.1876 17.99 17.1346 18.0105C17.0815 18.0311 17.0248 18.0408 16.9679 18.039ZM26.9094 21.3174H26.498V20.5078H26.9094V21.3174ZM26.9094 19.2336H26.498V18.4239H26.9094V19.2336Z" fill="#1E1E1C"/>
<path d="M25.0242 15.9802V15.2905C25.0242 15.1579 24.8651 15.065 24.7324 15.0518V16.2189C24.8651 16.2189 25.0242 16.1128 25.0242 15.9802Z" fill="#1E1E1C"/>
<path d="M23.789 12.7163H21.944C21.8983 12.7163 21.8544 12.7345 21.822 12.7669C21.7897 12.7992 21.7715 12.8431 21.7715 12.8889V13.38C21.7715 13.4257 21.7897 13.4696 21.822 13.502C21.8544 13.5343 21.8983 13.5525 21.944 13.5525H23.789C23.8111 13.5526 23.8329 13.5481 23.8532 13.5392C23.8734 13.5304 23.8917 13.5175 23.9066 13.5013C23.9216 13.485 23.933 13.4659 23.9402 13.445C23.9473 13.4241 23.9501 13.402 23.9483 13.38V12.8889C23.9501 12.8668 23.9473 12.8447 23.9402 12.8238C23.933 12.8029 23.9216 12.7838 23.9066 12.7675C23.8917 12.7513 23.8734 12.7384 23.8532 12.7296C23.8329 12.7207 23.8111 12.7162 23.789 12.7163ZM23.6828 13.38H23.3112V12.9021H23.6828V13.38Z" fill="#1E1E1C"/>
<path d="M22.7542 8.17559H23.1388V9.11726H23.3775V8.12254C23.3775 8.08033 23.3608 8.03984 23.3309 8.01C23.3011 7.98015 23.2606 7.96338 23.2184 7.96338H22.5287C22.4888 7.96671 22.4517 7.98494 22.4247 8.01444C22.3976 8.04393 22.3827 8.08253 22.3828 8.12254V9.11726H22.7674L22.7542 8.17559Z" fill="#1E1E1C"/>
<path d="M21.944 12.5177H23.789C23.8312 12.5177 23.8717 12.5009 23.9016 12.471C23.9315 12.4411 23.9483 12.4006 23.9483 12.3584V10.5002C23.9483 10.4792 23.9442 10.4585 23.9362 10.4392C23.9282 10.4199 23.9164 10.4023 23.9016 10.3875C23.8868 10.3727 23.8693 10.361 23.85 10.353C23.8307 10.345 23.8099 10.3409 23.789 10.3409H21.944C21.922 10.339 21.9 10.3418 21.8791 10.349C21.8582 10.3562 21.839 10.3676 21.8228 10.3826C21.8065 10.3975 21.7936 10.4157 21.7848 10.436C21.776 10.4562 21.7714 10.4781 21.7715 10.5002V12.3584C21.7714 12.3805 21.776 12.4023 21.7848 12.4226C21.7936 12.4428 21.8065 12.461 21.8228 12.476C21.839 12.491 21.8582 12.5024 21.8791 12.5096C21.9 12.5167 21.922 12.5195 21.944 12.5177ZM22.0502 10.6329H22.4219V12.2389H22.0502V10.6329Z" fill="#1E1E1C"/>
<path d="M21.944 10.1428H23.789C23.8111 10.1429 23.8329 10.1384 23.8532 10.1296C23.8734 10.1208 23.8917 10.1078 23.9066 10.0916C23.9216 10.0754 23.933 10.0562 23.9402 10.0353C23.9473 10.0144 23.9501 9.9923 23.9483 9.97029V9.47919C23.9501 9.45718 23.9473 9.43504 23.9402 9.41415C23.933 9.39327 23.9216 9.37411 23.9066 9.35788C23.8917 9.34166 23.8734 9.32872 23.8532 9.3199C23.8329 9.31108 23.8111 9.30656 23.789 9.30664H21.944C21.8983 9.30664 21.8544 9.32482 21.822 9.35718C21.7897 9.38954 21.7715 9.43342 21.7715 9.47919V9.97029C21.7715 10.0161 21.7897 10.0599 21.822 10.0923C21.8544 10.1247 21.8983 10.1428 21.944 10.1428ZM23.2713 9.49246H23.643V9.95701H23.2713V9.49246Z" fill="#1E1E1C"/>
<path d="M60.9527 8.46618L57.9477 0.98022H59.7528L61.696 6.21508L63.6392 0.98022H65.4018L62.3968 8.46618H60.9527ZM67.2461 8.51927C66.6869 8.51927 66.2197 8.36353 65.8445 8.05206C65.4764 7.74059 65.2923 7.30877 65.2923 6.75662C65.2923 6.15491 65.4976 5.70186 65.9082 5.39747C66.3258 5.09307 66.8851 4.94088 67.5859 4.94088C68.0602 4.94088 68.5238 5.01874 68.9769 5.17448V5.07891C68.9769 4.38518 68.5699 4.03831 67.7558 4.03831C67.2673 4.03831 66.7435 4.14096 66.1843 4.34625L65.7808 3.11451C66.4745 2.81012 67.2107 2.65792 67.9894 2.65792C68.8459 2.65792 69.4866 2.87029 69.9113 3.29503C70.3219 3.7056 70.5272 4.31085 70.5272 5.11077V8.41309H68.9663V7.79722C68.5345 8.27859 67.9611 8.51927 67.2461 8.51927ZM67.7345 7.40434C68.1097 7.40434 68.4141 7.31231 68.6477 7.12826C68.8813 6.93713 68.9981 6.69645 68.9981 6.40621V6.11952C68.6937 5.97794 68.3504 5.90715 67.9681 5.90715C67.6142 5.90715 67.3381 5.97794 67.1399 6.11952C66.9488 6.25402 66.8532 6.45223 66.8532 6.71415C66.8532 6.92651 66.9346 7.09641 67.0974 7.22383C67.2603 7.34417 67.4726 7.40434 67.7345 7.40434ZM71.916 10.112V2.72163H73.53V3.53925C73.9831 2.92338 74.5742 2.61545 75.3033 2.61545C76.0112 2.61545 76.62 2.88091 77.1296 3.41183C77.6393 3.94275 77.8942 4.6648 77.8942 5.57798C77.8942 6.48408 77.6393 7.20259 77.1296 7.73351C76.627 8.25735 76.0183 8.51927 75.3033 8.51927C74.5954 8.51927 74.0043 8.23611 73.53 7.6698V10.112H71.916ZM73.9017 6.71415C74.1707 7.00438 74.4998 7.1495 74.8892 7.1495C75.2785 7.1495 75.6077 7.00438 75.8767 6.71415C76.1457 6.41683 76.2802 6.03103 76.2802 5.55674C76.2802 5.09661 76.1457 4.72143 75.8767 4.43119C75.6077 4.13388 75.2785 3.98522 74.8892 3.98522C74.4998 3.98522 74.1707 4.13388 73.9017 4.43119C73.6397 4.72143 73.5088 5.10369 73.5088 5.57798C73.5088 6.03811 73.6397 6.41683 73.9017 6.71415ZM81.7784 8.54051C80.9148 8.54051 80.2034 8.26797 79.6441 7.72289C79.0849 7.17074 78.8053 6.45576 78.8053 5.57798C78.8053 4.74975 79.0707 4.04893 79.6017 3.47554C80.1326 2.90215 80.8051 2.61545 81.6191 2.61545C82.5182 2.61545 83.2048 2.91277 83.6791 3.50739C84.1534 4.10202 84.3905 4.83469 84.3905 5.7054C84.3905 5.79035 84.3835 5.93192 84.3693 6.13013H80.4087C80.4865 6.49116 80.6458 6.76724 80.8865 6.95837C81.1272 7.1495 81.4316 7.24506 81.7997 7.24506C82.3023 7.24506 82.7624 7.05039 83.1801 6.66105L84.1038 7.47867C83.5305 8.18656 82.7553 8.54051 81.7784 8.54051ZM80.3874 5.12139H82.819C82.7695 4.75328 82.6385 4.45951 82.4261 4.24006C82.2209 4.02062 81.9519 3.91089 81.6191 3.91089C81.2935 3.91089 81.021 4.02062 80.8015 4.24006C80.5892 4.45243 80.4511 4.74621 80.3874 5.12139ZM92.4296 8.54051C91.3394 8.54051 90.4298 8.1724 89.7006 7.4362C88.9786 6.69291 88.6176 5.77973 88.6176 4.69665C88.6176 3.62066 88.9821 2.71102 89.7113 1.96773C90.4404 1.22444 91.3677 0.8528 92.4933 0.8528C93.1375 0.8528 93.679 0.958984 94.1179 1.17135C94.5568 1.37664 94.9744 1.67395 95.3709 2.06329L94.394 3.18884C94.0754 2.89861 93.7746 2.68978 93.4914 2.56236C93.2153 2.42786 92.8791 2.36061 92.4827 2.36061C91.8597 2.36061 91.343 2.58714 90.9324 3.04019C90.5289 3.48616 90.3271 4.03831 90.3271 4.69665C90.3271 5.34791 90.5289 5.90007 90.9324 6.35312C91.343 6.80617 91.8597 7.0327 92.4827 7.0327C92.8791 7.0327 93.2224 6.96191 93.5126 6.82033C93.8029 6.67875 94.1108 6.4593 94.4364 6.16199L95.477 7.27692C95.0735 7.70873 94.6347 8.02728 94.1604 8.23257C93.6932 8.43786 93.1162 8.54051 92.4296 8.54051ZM96.6905 8.41309V0.661669H98.3045V8.41309H96.6905ZM101.71 8.51927C101.102 8.51927 100.627 8.33168 100.288 7.9565C99.9478 7.58131 99.7779 7.06455 99.7779 6.40621V2.72163H101.392V5.89653C101.392 6.27171 101.477 6.55841 101.647 6.75662C101.817 6.95483 102.057 7.05393 102.369 7.05393C102.68 7.05393 102.924 6.95483 103.101 6.75662C103.286 6.55841 103.378 6.27171 103.378 5.89653V2.72163H104.992V8.41309H103.378V7.60609C102.903 8.21488 102.348 8.51927 101.71 8.51927ZM109.823 8.51927C109.115 8.51927 108.524 8.23611 108.05 7.6698V8.41309H106.436V0.661669H108.05V3.53925C108.503 2.92338 109.094 2.61545 109.823 2.61545C110.531 2.61545 111.14 2.88091 111.65 3.41183C112.159 3.94275 112.414 4.6648 112.414 5.57798C112.414 6.48408 112.159 7.20259 111.65 7.73351C111.147 8.25735 110.538 8.51927 109.823 8.51927ZM108.422 6.71415C108.691 7.00438 109.02 7.1495 109.409 7.1495C109.799 7.1495 110.128 7.00438 110.397 6.71415C110.666 6.41683 110.8 6.03103 110.8 5.55674C110.8 5.09661 110.666 4.72143 110.397 4.43119C110.128 4.13388 109.799 3.98522 109.409 3.98522C109.02 3.98522 108.691 4.13388 108.422 4.43119C108.16 4.72143 108.029 5.10369 108.029 5.57798C108.029 6.03811 108.16 6.41683 108.422 6.71415ZM119.599 8.51927C118.381 8.51927 117.33 8.12285 116.445 7.33001L117.411 6.17261C118.141 6.77432 118.88 7.07517 119.631 7.07517C119.963 7.07517 120.225 7.01146 120.416 6.88404C120.608 6.75662 120.703 6.57965 120.703 6.35312C120.703 6.14075 120.604 5.97086 120.406 5.84344C120.208 5.70894 119.808 5.56382 119.206 5.40808C118.781 5.3019 118.438 5.19926 118.176 5.10015C117.914 4.99397 117.663 4.85593 117.422 4.68603C117.188 4.51614 117.015 4.30377 116.902 4.04893C116.796 3.78701 116.742 3.47554 116.742 3.11451C116.742 2.44202 116.983 1.90048 117.464 1.4899C117.953 1.07933 118.579 0.874037 119.344 0.874037C120.399 0.874037 121.319 1.18905 122.105 1.81907L121.255 3.0508C120.554 2.56236 119.91 2.31814 119.323 2.31814C119.018 2.31814 118.781 2.38185 118.611 2.50927C118.448 2.62961 118.367 2.78888 118.367 2.98709C118.367 3.22778 118.47 3.40829 118.675 3.52863C118.88 3.64897 119.312 3.79409 119.97 3.96398C120.777 4.17635 121.372 4.44889 121.754 4.7816C122.137 5.11431 122.328 5.59214 122.328 6.21508C122.328 6.93713 122.076 7.50344 121.574 7.91402C121.078 8.31752 120.42 8.51927 119.599 8.51927ZM123.577 8.41309V0.661669H125.191V3.52863C125.665 2.91984 126.221 2.61545 126.858 2.61545C127.467 2.61545 127.941 2.80304 128.281 3.17822C128.621 3.55341 128.791 4.07017 128.791 4.72851V8.41309H127.177V5.23819C127.177 4.86301 127.092 4.57631 126.922 4.3781C126.752 4.17989 126.511 4.08079 126.2 4.08079C125.888 4.08079 125.64 4.17989 125.456 4.3781C125.279 4.57631 125.191 4.86301 125.191 5.23819V8.41309H123.577ZM135.183 7.68042C134.596 8.25381 133.863 8.54051 132.985 8.54051C132.108 8.54051 131.375 8.25735 130.787 7.69104C130.207 7.11764 129.917 6.41329 129.917 5.57798C129.917 4.74975 130.21 4.04893 130.798 3.47554C131.393 2.90215 132.129 2.61545 133.007 2.61545C133.884 2.61545 134.613 2.90215 135.194 3.47554C135.781 4.04185 136.075 4.74267 136.075 5.57798C136.075 6.40621 135.778 7.10703 135.183 7.68042ZM133.007 7.1495C133.453 7.1495 133.81 7.00084 134.079 6.70353C134.348 6.39913 134.482 6.02395 134.482 5.57798C134.482 5.14616 134.341 4.77806 134.058 4.47367C133.782 4.16219 133.424 4.00646 132.985 4.00646C132.539 4.00646 132.182 4.15866 131.913 4.46305C131.644 4.76036 131.509 5.13201 131.509 5.57798C131.509 6.00979 131.647 6.38144 131.923 6.69291C132.207 6.9973 132.568 7.1495 133.007 7.1495ZM138.259 8.45556L136.507 2.72163H138.142L139.056 6.17261L140.128 2.7004H141.519L142.602 6.18323L143.536 2.72163H145.14L143.367 8.45556H141.912L140.818 4.96211L139.703 8.45556H138.259ZM149.102 8.41309V7.11764L151.576 5.08953C152.064 4.68603 152.401 4.36394 152.585 4.12326C152.769 3.8755 152.861 3.60296 152.861 3.30565C152.861 3.00125 152.769 2.76411 152.585 2.59421C152.401 2.42432 152.16 2.33937 151.863 2.33937C151.587 2.33937 151.335 2.41724 151.109 2.57298C150.889 2.72163 150.635 2.97648 150.344 3.3375L149.197 2.4137C149.587 1.88278 149.987 1.49344 150.397 1.24568C150.815 0.997918 151.339 0.874037 151.969 0.874037C152.74 0.874037 153.36 1.0864 153.827 1.51114C154.294 1.9288 154.528 2.48803 154.528 3.18884C154.528 3.59234 154.45 3.95691 154.294 4.28254C154.139 4.60109 153.937 4.88424 153.689 5.13201C153.441 5.37269 153.07 5.68416 152.574 6.06642L151.364 7.00084H154.602V8.41309H149.102ZM161.452 7.44681C160.836 8.17594 160.039 8.54051 159.062 8.54051C158.086 8.54051 157.293 8.17594 156.684 7.44681C156.075 6.71768 155.771 5.80096 155.771 4.69665C155.771 3.59942 156.079 2.68624 156.695 1.95711C157.31 1.2209 158.107 0.8528 159.084 0.8528C160.054 0.8528 160.843 1.21736 161.452 1.94649C162.067 2.67562 162.375 3.59234 162.375 4.69665C162.375 5.79389 162.067 6.71061 161.452 7.44681ZM157.894 6.39559C158.199 6.84157 158.595 7.06455 159.084 7.06455C159.572 7.06455 159.961 6.84511 160.252 6.40621C160.549 5.96024 160.698 5.39039 160.698 4.69665C160.698 4.01708 160.546 3.4543 160.241 3.00833C159.937 2.55528 159.544 2.32875 159.062 2.32875C158.581 2.32875 158.192 2.55174 157.894 2.99771C157.597 3.43661 157.448 4.00292 157.448 4.69665C157.448 5.38331 157.597 5.94962 157.894 6.39559ZM163.37 8.41309V7.11764L165.844 5.08953C166.333 4.68603 166.669 4.36394 166.853 4.12326C167.037 3.8755 167.129 3.60296 167.129 3.30565C167.129 3.00125 167.037 2.76411 166.853 2.59421C166.669 2.42432 166.428 2.33937 166.131 2.33937C165.855 2.33937 165.604 2.41724 165.377 2.57298C165.158 2.72163 164.903 2.97648 164.613 3.3375L163.466 2.4137C163.855 1.88278 164.255 1.49344 164.666 1.24568C165.083 0.997918 165.607 0.874037 166.237 0.874037C167.009 0.874037 167.628 1.0864 168.096 1.51114C168.563 1.9288 168.796 2.48803 168.796 3.18884C168.796 3.59234 168.718 3.95691 168.563 4.28254C168.407 4.60109 168.205 4.88424 167.958 5.13201C167.71 5.37269 167.338 5.68416 166.843 6.06642L165.632 7.00084H168.871V8.41309H163.37ZM172.768 8.54051C171.558 8.54051 170.591 8.11223 169.869 7.25568L170.995 6.18323C171.526 6.77786 172.124 7.07517 172.789 7.07517C173.101 7.07517 173.352 6.99376 173.543 6.83095C173.741 6.66105 173.841 6.43453 173.841 6.15137C173.841 5.84698 173.713 5.61337 173.458 5.45056C173.203 5.28774 172.846 5.20634 172.386 5.20634H171.706L171.451 4.16573L173.225 2.38185H170.305V0.98022H175.327V2.21195L173.448 4.00646C174.779 4.23298 175.444 4.9338 175.444 6.1089C175.444 6.82387 175.2 7.40788 174.711 7.86093C174.23 8.31398 173.582 8.54051 172.768 8.54051Z" fill="#1E1E1C"/>
<path d="M58.7441 21.1035V13.6707H61.9084C62.7791 13.6707 63.4268 13.8901 63.8515 14.329C64.1701 14.6617 64.3294 15.0652 64.3294 15.5395C64.3294 16.3465 63.9365 16.9199 63.1507 17.2597C64.2126 17.5782 64.7435 18.1835 64.7435 19.0754C64.7435 19.7054 64.4993 20.201 64.0108 20.562C63.5224 20.923 62.8676 21.1035 62.0464 21.1035H58.7441ZM59.5723 16.9836H61.7703C62.2871 16.9836 62.7012 16.8668 63.0127 16.6332C63.3242 16.3996 63.4799 16.0669 63.4799 15.6351C63.4799 15.2599 63.3348 14.9661 63.0445 14.7537C62.7614 14.5343 62.3579 14.4246 61.834 14.4246H59.5723V16.9836ZM59.5723 20.3496H62.0676C62.634 20.3496 63.0799 20.2328 63.4056 19.9992C63.7312 19.7585 63.894 19.4258 63.894 19.0011C63.894 18.5905 63.7241 18.2755 63.3843 18.056C63.0516 17.8366 62.5632 17.7269 61.919 17.7269H59.5723V20.3496ZM66.7576 18.6931C66.8142 19.2524 67.023 19.6984 67.384 20.0311C67.7522 20.3567 68.1875 20.5195 68.6901 20.5195C69.3484 20.5195 69.9254 20.2611 70.4209 19.7444L70.9306 20.201C70.3147 20.8876 69.5608 21.2309 68.6689 21.2309C67.8973 21.2309 67.246 20.9655 66.7151 20.4346C66.1913 19.8966 65.9293 19.2064 65.9293 18.364C65.9293 17.5641 66.1806 16.888 66.6832 16.3359C67.1858 15.7766 67.8123 15.497 68.5627 15.497C69.3484 15.497 69.9714 15.7731 70.4315 16.3252C70.8917 16.8774 71.1217 17.5711 71.1217 18.4064C71.1217 18.5126 71.1182 18.6082 71.1111 18.6931H66.7576ZM66.7576 18.0348H70.2935C70.2439 17.5039 70.067 17.065 69.7626 16.7181C69.4653 16.3642 69.0582 16.1872 68.5415 16.1872C68.0742 16.1872 67.6743 16.3606 67.3416 16.7075C67.0089 17.0544 66.8142 17.4968 66.7576 18.0348ZM74.3688 21.2097C73.9724 21.2097 73.5689 21.1389 73.1583 20.9973C72.7548 20.8487 72.4008 20.6505 72.0965 20.4027L72.5106 19.8187C73.1335 20.2859 73.7671 20.5195 74.4113 20.5195C74.744 20.5195 75.0165 20.4381 75.2289 20.2753C75.4412 20.1125 75.5474 19.8966 75.5474 19.6276C75.5474 19.3798 75.4306 19.1887 75.197 19.0542C74.9705 18.9197 74.6307 18.7887 74.1777 18.6613C73.9016 18.5834 73.6821 18.5126 73.5193 18.4489C73.3565 18.3852 73.1724 18.2967 72.9672 18.1835C72.7619 18.0631 72.6097 17.9145 72.5106 17.7375C72.4115 17.5534 72.3619 17.3375 72.3619 17.0898C72.3619 16.6226 72.5353 16.2438 72.8822 15.9536C73.2362 15.6634 73.6857 15.5182 74.2307 15.5182C74.9386 15.5182 75.597 15.72 76.2058 16.1235L75.8341 16.7394C75.289 16.3854 74.7475 16.2084 74.2095 16.2084C73.891 16.2084 73.6326 16.2863 73.4344 16.442C73.2432 16.5907 73.1477 16.7854 73.1477 17.0261C73.1477 17.1252 73.176 17.2172 73.2326 17.3021C73.2893 17.3871 73.353 17.4579 73.4237 17.5145C73.4945 17.5711 73.6043 17.6313 73.7529 17.695C73.9087 17.7587 74.0325 17.8047 74.1246 17.8331C74.2166 17.8614 74.3617 17.9074 74.5599 17.9711C74.8218 18.049 75.0377 18.1233 75.2076 18.1941C75.3775 18.2649 75.558 18.3604 75.7492 18.4808C75.9403 18.6011 76.0819 18.7533 76.1739 18.9374C76.273 19.1143 76.3226 19.3232 76.3226 19.5639C76.3226 20.0735 76.1385 20.477 75.7704 20.7743C75.4023 21.0646 74.9351 21.2097 74.3688 21.2097ZM79.5748 21.1991C79.1005 21.1991 78.7218 21.0752 78.4386 20.8274C78.1625 20.5726 78.0245 20.1797 78.0245 19.6488V16.3359H77.26V15.6138H78.0245V13.9573H78.8421V15.6138H80.5835V16.3359H78.8421V19.5426C78.8421 20.1514 79.15 20.4558 79.7659 20.4558C80.0349 20.4558 80.3004 20.3921 80.5623 20.2647V20.9655C80.265 21.1212 79.9358 21.1991 79.5748 21.1991ZM85.3523 21.1035V13.6707H90.6933V14.4458H86.1911V17.1004H90.2155V17.8649H86.1911V21.1035H85.3523ZM92.2569 21.1035V13.3521H93.0745V21.1035H92.2569ZM96.6072 21.2203C96.0479 21.2203 95.5666 21.0681 95.1631 20.7637C94.7596 20.4593 94.5578 20.0346 94.5578 19.4895C94.5578 18.9161 94.7702 18.4737 95.1949 18.1622C95.6196 17.8508 96.1895 17.695 96.9045 17.695C97.4708 17.695 98.03 17.7729 98.5822 17.9286V17.7587C98.5822 17.2774 98.4406 16.9093 98.1574 16.6544C97.8743 16.3996 97.4743 16.2722 96.9576 16.2722C96.4196 16.2722 95.8639 16.4031 95.2905 16.665L95.0463 15.9961C95.7258 15.6846 96.3912 15.5289 97.0425 15.5289C97.8212 15.5289 98.4123 15.7306 98.8158 16.1341C99.198 16.5164 99.3892 17.0544 99.3892 17.7481V21.1035H98.5822V20.2859C98.0937 20.9088 97.4354 21.2203 96.6072 21.2203ZM96.7664 20.562C97.2761 20.562 97.7079 20.4239 98.0619 20.1479C98.4158 19.8718 98.5928 19.5178 98.5928 19.086V18.5763C98.0548 18.4206 97.5203 18.3427 96.9894 18.3427C96.4868 18.3427 96.0939 18.4454 95.8108 18.6507C95.5276 18.8489 95.386 19.1214 95.386 19.4683C95.386 19.801 95.517 20.0665 95.7789 20.2647C96.0479 20.4629 96.3771 20.562 96.7664 20.562ZM102.751 21.146L100.372 15.6138H101.275L103.122 20.1691L104.98 15.6138H105.862L103.473 21.146H102.751ZM111.38 20.3921C110.827 20.9513 110.144 21.2309 109.33 21.2309C108.516 21.2309 107.837 20.9513 107.291 20.3921C106.753 19.8328 106.484 19.1568 106.484 18.364C106.484 17.5782 106.757 16.9057 107.302 16.3465C107.854 15.7802 108.537 15.497 109.351 15.497C110.166 15.497 110.845 15.7766 111.39 16.3359C111.935 16.8951 112.208 17.5711 112.208 18.364C112.208 19.1497 111.932 19.8258 111.38 20.3921ZM109.351 20.4983C109.939 20.4983 110.42 20.293 110.796 19.8824C111.178 19.4718 111.369 18.9657 111.369 18.364C111.369 17.7693 111.171 17.2632 110.774 16.8455C110.385 16.4279 109.904 16.2191 109.33 16.2191C108.743 16.2191 108.261 16.4279 107.886 16.8455C107.511 17.2561 107.323 17.7623 107.323 18.364C107.323 18.9586 107.518 19.4647 107.907 19.8824C108.297 20.293 108.778 20.4983 109.351 20.4983ZM113.689 21.1035V15.6138H114.507V17.0473C114.719 16.573 115.02 16.1943 115.409 15.9111C115.798 15.628 116.244 15.497 116.747 15.5182V16.3996H116.683C116.053 16.3996 115.533 16.619 115.122 17.0579C114.712 17.4968 114.507 18.1162 114.507 18.9161V21.1035H113.689ZM120.677 21.1035L124.064 13.6176H124.85L128.237 21.1035H127.334L126.464 19.1391H122.418L121.537 21.1035H120.677ZM122.747 18.3852H126.134L124.446 14.5944L122.747 18.3852ZM130.511 21.146L128.589 15.6138H129.46L130.904 20.0204L132.38 15.5926H133.06L134.546 20.0204L135.99 15.6138H136.84L134.907 21.146H134.196L132.72 16.8137L131.233 21.146H130.511ZM139.63 21.2203C139.071 21.2203 138.59 21.0681 138.186 20.7637C137.783 20.4593 137.581 20.0346 137.581 19.4895C137.581 18.9161 137.793 18.4737 138.218 18.1622C138.643 17.8508 139.213 17.695 139.928 17.695C140.494 17.695 141.053 17.7729 141.605 17.9286V17.7587C141.605 17.2774 141.464 16.9093 141.181 16.6544C140.897 16.3996 140.497 16.2722 139.981 16.2722C139.443 16.2722 138.887 16.4031 138.314 16.665L138.069 15.9961C138.749 15.6846 139.414 15.5289 140.066 15.5289C140.844 15.5289 141.435 15.7306 141.839 16.1341C142.221 16.5164 142.412 17.0544 142.412 17.7481V21.1035H141.605V20.2859C141.117 20.9088 140.458 21.2203 139.63 21.2203ZM139.79 20.562C140.299 20.562 140.731 20.4239 141.085 20.1479C141.439 19.8718 141.616 19.5178 141.616 19.086V18.5763C141.078 18.4206 140.543 18.3427 140.013 18.3427C139.51 18.3427 139.117 18.4454 138.834 18.6507C138.551 18.8489 138.409 19.1214 138.409 19.4683C138.409 19.801 138.54 20.0665 138.802 20.2647C139.071 20.4629 139.4 20.562 139.79 20.562ZM144.144 21.1035V15.6138H144.962V17.0473C145.174 16.573 145.475 16.1943 145.864 15.9111C146.254 15.628 146.7 15.497 147.202 15.5182V16.3996H147.139C146.509 16.3996 145.988 16.619 145.578 17.0579C145.167 17.4968 144.962 18.1162 144.962 18.9161V21.1035H144.144ZM150.524 21.2203C149.823 21.2203 149.21 20.9619 148.687 20.4452C148.163 19.9213 147.901 19.2241 147.901 18.3534C147.901 17.4968 148.163 16.8066 148.687 16.2828C149.21 15.7589 149.823 15.497 150.524 15.497C151.387 15.497 152.088 15.8864 152.626 16.665V13.3521H153.444V21.1035H152.626V19.9992C152.074 20.8133 151.373 21.2203 150.524 21.2203ZM150.672 20.4876C151.203 20.4876 151.667 20.2859 152.063 19.8824C152.46 19.4789 152.658 18.9657 152.658 18.3427C152.658 17.7339 152.46 17.2313 152.063 16.8349C151.667 16.4314 151.203 16.2297 150.672 16.2297C150.12 16.2297 149.66 16.4243 149.292 16.8137C148.924 17.196 148.74 17.7127 148.74 18.364C148.74 18.994 148.927 19.5072 149.302 19.9036C149.678 20.293 150.134 20.4876 150.672 20.4876Z" fill="#1E1E1C"/>
<path d="M63.6811 33.9275L62.5131 32.7276C61.7981 33.4992 60.9876 33.885 60.0814 33.885C59.4019 33.885 58.8426 33.6903 58.4037 33.301C57.9649 32.9116 57.7454 32.4055 57.7454 31.7826C57.7454 30.8198 58.3436 30.1048 59.5399 29.6376C59.278 29.3332 59.0869 29.0572 58.9665 28.8094C58.8533 28.5546 58.7966 28.2785 58.7966 27.9812C58.7966 27.4856 58.9771 27.068 59.3382 26.7282C59.7063 26.3884 60.1806 26.2185 60.761 26.2185C61.2778 26.2185 61.7061 26.3849 62.0458 26.7176C62.3927 27.0432 62.5661 27.4432 62.5661 27.9175C62.5661 28.7952 61.9821 29.4394 60.8141 29.85L62.5131 31.5808C62.8316 31.1207 63.1289 30.5685 63.405 29.9243L64.0952 30.2429C63.72 31.0428 63.3625 31.6658 63.0227 32.1117L64.3182 33.439L63.6811 33.9275ZM60.3469 29.3722C61.3026 29.0466 61.7804 28.5687 61.7804 27.9387C61.7804 27.6414 61.6813 27.3972 61.4831 27.206C61.2849 27.0078 61.0336 26.9087 60.7292 26.9087C60.3965 26.9087 60.1239 27.0114 59.9116 27.2167C59.7063 27.4219 59.6036 27.6839 59.6036 28.0024C59.6036 28.2219 59.6567 28.4307 59.7629 28.6289C59.8691 28.82 60.0638 29.0678 60.3469 29.3722ZM60.1452 33.1736C60.7964 33.1736 61.4158 32.8515 62.0034 32.2073L60.0177 30.1579C59.5435 30.3349 59.186 30.565 58.9453 30.8481C58.7117 31.1242 58.5949 31.4321 58.5949 31.7719C58.5949 32.1754 58.74 32.5117 59.0302 32.7807C59.3205 33.0426 59.6921 33.1736 60.1452 33.1736ZM68.97 33.7788V26.3459H69.8089V33.7788H68.97ZM71.8478 33.7788V28.2891H72.6654V29.2448C73.0972 28.5298 73.7237 28.1723 74.5448 28.1723C75.1961 28.1723 75.7093 28.3741 76.0845 28.7776C76.4597 29.174 76.6473 29.7049 76.6473 30.3703V33.7788H75.8297V30.5721C75.8297 30.0553 75.6952 29.6518 75.4262 29.3616C75.1642 29.0642 74.7926 28.9156 74.3112 28.9156C73.837 28.9156 73.4441 29.0749 73.1326 29.3934C72.8211 29.712 72.6654 30.1261 72.6654 30.6358V33.7788H71.8478ZM78.3909 33.7788V28.2891H79.2085V29.2448C79.6404 28.5298 80.2668 28.1723 81.088 28.1723C81.7393 28.1723 82.2525 28.3741 82.6277 28.7776C83.0028 29.174 83.1904 29.7049 83.1904 30.3703V33.7788H82.3728V30.5721C82.3728 30.0553 82.2383 29.6518 81.9693 29.3616C81.7074 29.0642 81.3358 28.9156 80.8544 28.9156C80.3801 28.9156 79.9872 29.0749 79.6758 29.3934C79.3643 29.712 79.2085 30.1261 79.2085 30.6358V33.7788H78.3909ZM89.4894 33.0674C88.9372 33.6266 88.2541 33.9062 87.44 33.9062C86.626 33.9062 85.9464 33.6266 85.4013 33.0674C84.8633 32.5081 84.5943 31.8321 84.5943 31.0393C84.5943 30.2535 84.8668 29.581 85.4119 29.0218C85.9641 28.4555 86.6472 28.1723 87.4613 28.1723C88.2753 28.1723 88.9549 28.4519 89.5 29.0112C90.0451 29.5704 90.3176 30.2464 90.3176 31.0393C90.3176 31.825 90.0415 32.5011 89.4894 33.0674ZM87.4613 33.1736C88.0488 33.1736 88.5302 32.9683 88.9054 32.5577C89.2876 32.1471 89.4788 31.641 89.4788 31.0393C89.4788 30.4446 89.2806 29.9385 88.8841 29.5208C88.4948 29.1032 88.0134 28.8944 87.44 28.8944C86.8525 28.8944 86.3711 29.1032 85.9959 29.5208C85.6207 29.9314 85.4332 30.4376 85.4332 31.0393C85.4332 31.6339 85.6278 32.14 86.0172 32.5577C86.4065 32.9683 86.8879 33.1736 87.4613 33.1736ZM93.3142 33.8213L90.9357 28.2891H91.8383L93.6859 32.8444L95.5441 28.2891H96.4254L94.0363 33.8213H93.3142ZM99.075 33.8956C98.5157 33.8956 98.0344 33.7434 97.6309 33.439C97.2274 33.1346 97.0256 32.7099 97.0256 32.1648C97.0256 31.5914 97.238 31.149 97.6627 30.8375C98.0874 30.526 98.6573 30.3703 99.3723 30.3703C99.9386 30.3703 100.498 30.4482 101.05 30.6039V30.434C101.05 29.9527 100.908 29.5845 100.625 29.3297C100.342 29.0749 99.9421 28.9474 99.4254 28.9474C98.8874 28.9474 98.3317 29.0784 97.7583 29.3403L97.5141 28.6714C98.1936 28.3599 98.859 28.2042 99.5103 28.2042C100.289 28.2042 100.88 28.4059 101.284 28.8094C101.666 29.1917 101.857 29.7297 101.857 30.4234V33.7788H101.05V32.9612C100.562 33.5841 99.9032 33.8956 99.075 33.8956ZM99.2342 33.2373C99.7439 33.2373 100.176 33.0992 100.53 32.8232C100.884 32.5471 101.061 32.1931 101.061 31.7613V31.2516C100.523 31.0959 99.9881 31.018 99.4572 31.018C98.9546 31.018 98.5617 31.1207 98.2786 31.326C97.9954 31.5242 97.8538 31.7967 97.8538 32.1436C97.8538 32.4763 97.9848 32.7417 98.2467 32.94C98.5157 33.1382 98.8449 33.2373 99.2342 33.2373ZM105.426 33.8744C104.952 33.8744 104.573 33.7505 104.29 33.5027C104.014 33.2479 103.876 32.855 103.876 32.3241V29.0112H103.111V28.2891H103.876V26.6326H104.693V28.2891H106.435V29.0112H104.693V32.2179C104.693 32.8267 105.001 33.1311 105.617 33.1311C105.886 33.1311 106.151 33.0674 106.413 32.94V33.6408C106.116 33.7965 105.787 33.8744 105.426 33.8744ZM107.903 27.0892V26.1867H108.837V27.0892H107.903ZM107.956 33.7788V28.2891H108.774V33.7788H107.956ZM112.508 33.8213L110.13 28.2891H111.032L112.88 32.8444L114.738 28.2891H115.619L113.23 33.8213H112.508ZM117.07 31.3684C117.127 31.9277 117.336 32.3736 117.697 32.7064C118.065 33.032 118.5 33.1948 119.003 33.1948C119.661 33.1948 120.238 32.9364 120.734 32.4197L121.243 32.8762C120.627 33.5629 119.874 33.9062 118.982 33.9062C118.21 33.9062 117.559 33.6408 117.028 33.1099C116.504 32.5719 116.242 31.8817 116.242 31.0393C116.242 30.2393 116.493 29.5633 116.996 29.0112C117.499 28.4519 118.125 28.1723 118.875 28.1723C119.661 28.1723 120.284 28.4484 120.744 29.0005C121.204 29.5527 121.434 30.2464 121.434 31.0817C121.434 31.1879 121.431 31.2835 121.424 31.3684H117.07ZM117.07 30.7101H120.606C120.557 30.1792 120.38 29.7403 120.075 29.3934C119.778 29.0395 119.371 28.8625 118.854 28.8625C118.387 28.8625 117.987 29.0359 117.654 29.3828C117.322 29.7297 117.127 30.1721 117.07 30.7101ZM126.187 33.7788V26.3459H128.969C129.819 26.3459 130.495 26.5583 130.997 26.983C131.5 27.4078 131.751 27.9883 131.751 28.7245C131.751 29.4961 131.472 30.0942 130.912 30.519C130.36 30.9437 129.667 31.1561 128.831 31.1561H127.026V33.7788H126.187ZM127.026 30.3915H128.863C129.479 30.3915 129.971 30.2429 130.339 29.9456C130.714 29.6412 130.902 29.2377 130.902 28.7351C130.902 28.2183 130.721 27.8219 130.36 27.5458C130.006 27.2627 129.521 27.1211 128.906 27.1211H127.026V30.3915ZM133.142 33.7788V28.2891H133.96V29.7226C134.172 29.2483 134.473 28.8696 134.862 28.5864C135.251 28.3033 135.697 28.1723 136.2 28.1935V29.0749H136.136C135.506 29.0749 134.986 29.2943 134.575 29.7332C134.165 30.1721 133.96 30.7915 133.96 31.5914V33.7788H133.142ZM141.762 33.0674C141.21 33.6266 140.527 33.9062 139.713 33.9062C138.899 33.9062 138.219 33.6266 137.674 33.0674C137.136 32.5081 136.867 31.8321 136.867 31.0393C136.867 30.2535 137.14 29.581 137.685 29.0218C138.237 28.4555 138.92 28.1723 139.734 28.1723C140.548 28.1723 141.228 28.4519 141.773 29.0112C142.318 29.5704 142.59 30.2464 142.59 31.0393C142.59 31.825 142.314 32.5011 141.762 33.0674ZM139.734 33.1736C140.322 33.1736 140.803 32.9683 141.178 32.5577C141.56 32.1471 141.751 31.641 141.751 31.0393C141.751 30.4446 141.553 29.9385 141.157 29.5208C140.767 29.1032 140.286 28.8944 139.713 28.8944C139.125 28.8944 138.644 29.1032 138.269 29.5208C137.893 29.9314 137.706 30.4376 137.706 31.0393C137.706 31.6339 137.901 32.14 138.29 32.5577C138.679 32.9683 139.161 33.1736 139.734 33.1736ZM146.376 33.8956C145.675 33.8956 145.062 33.6372 144.539 33.1205C144.015 32.5966 143.753 31.8994 143.753 31.0286C143.753 30.1721 144.015 29.4819 144.539 28.9581C145.062 28.4342 145.675 28.1723 146.376 28.1723C147.239 28.1723 147.94 28.5616 148.478 29.3403V26.0274H149.296V33.7788H148.478V32.6745C147.926 33.4886 147.225 33.8956 146.376 33.8956ZM146.524 33.1629C147.055 33.1629 147.519 32.9612 147.915 32.5577C148.312 32.1542 148.51 31.641 148.51 31.018C148.51 30.4092 148.312 29.9066 147.915 29.5102C147.519 29.1067 147.055 28.905 146.524 28.905C145.972 28.905 145.512 29.0996 145.144 29.489C144.776 29.8712 144.592 30.388 144.592 31.0393C144.592 31.6693 144.779 32.1825 145.154 32.5789C145.53 32.9683 145.986 33.1629 146.524 33.1629ZM153.14 33.8956C152.489 33.8956 151.976 33.6974 151.601 33.301C151.225 32.8975 151.038 32.363 151.038 31.6976V28.2891H151.855V31.4959C151.855 32.0126 151.986 32.4197 152.248 32.717C152.517 33.0072 152.892 33.1523 153.374 33.1523C153.848 33.1523 154.241 32.993 154.552 32.6745C154.864 32.3559 155.02 31.9418 155.02 31.4321V28.2891H155.827V33.7788H155.02V32.8232C154.574 33.5381 153.947 33.8956 153.14 33.8956ZM160.14 33.9062C159.347 33.9062 158.678 33.6266 158.133 33.0674C157.595 32.5011 157.326 31.825 157.326 31.0393C157.326 30.2535 157.595 29.581 158.133 29.0218C158.678 28.4555 159.347 28.1723 160.14 28.1723C160.989 28.1723 161.722 28.4979 162.338 29.1492L161.818 29.7014C161.308 29.1634 160.745 28.8944 160.129 28.8944C159.577 28.8944 159.11 29.1032 158.728 29.5208C158.352 29.9314 158.165 30.4376 158.165 31.0393C158.165 31.6339 158.356 32.14 158.738 32.5577C159.128 32.9683 159.609 33.1736 160.182 33.1736C160.77 33.1736 161.322 32.8975 161.839 32.3453L162.38 32.8444C161.743 33.5523 160.996 33.9062 160.14 33.9062ZM165.569 33.8744C165.095 33.8744 164.716 33.7505 164.433 33.5027C164.157 33.2479 164.019 32.855 164.019 32.3241V29.0112H163.254V28.2891H164.019V26.6326H164.836V28.2891H166.578V29.0112H164.836V32.2179C164.836 32.8267 165.144 33.1311 165.76 33.1311C166.029 33.1311 166.295 33.0674 166.556 32.94V33.6408C166.259 33.7965 165.93 33.8744 165.569 33.8744Z" fill="#1E1E1C"/>
<path d="M58.107 46.4658L61.4943 38.9799H62.28L65.6673 46.4658H64.7647L63.894 44.5014H59.8484L58.9671 46.4658H58.107ZM60.1776 43.7475H63.5648L61.8765 39.9568L60.1776 43.7475ZM67.9416 46.5083L66.0197 40.9761H66.8904L68.3345 45.3827L69.8104 40.9549H70.49L71.9766 45.3827L73.4207 40.9761H74.2702L72.3376 46.5083H71.6262L70.1502 42.176L68.6636 46.5083H67.9416ZM77.0606 46.5826C76.5014 46.5826 76.02 46.4304 75.6165 46.126C75.213 45.8216 75.0113 45.3969 75.0113 44.8518C75.0113 44.2784 75.2236 43.836 75.6484 43.5245C76.0731 43.2131 76.643 43.0573 77.3579 43.0573C77.9243 43.0573 78.4835 43.1352 79.0356 43.2909V43.121C79.0356 42.6397 78.8941 42.2716 78.6109 42.0167C78.3278 41.7619 77.9278 41.6345 77.411 41.6345C76.873 41.6345 76.3173 41.7654 75.7439 42.0273L75.4997 41.3584C76.1793 41.0469 76.8447 40.8912 77.496 40.8912C78.2747 40.8912 78.8658 41.0929 79.2693 41.4964C79.6515 41.8787 79.8426 42.4167 79.8426 43.1104V46.4658H79.0356V45.6482C78.5472 46.2712 77.8889 46.5826 77.0606 46.5826ZM77.2199 45.9243C77.7296 45.9243 78.1614 45.7862 78.5153 45.5102C78.8693 45.2341 79.0463 44.8801 79.0463 44.4483V43.9386C78.5083 43.7829 77.9738 43.705 77.4429 43.705C76.9403 43.705 76.5474 43.8077 76.2642 44.013C75.9811 44.2112 75.8395 44.4837 75.8395 44.8306C75.8395 45.1633 75.9705 45.4288 76.2324 45.627C76.5014 45.8252 76.8306 45.9243 77.2199 45.9243ZM81.5745 46.4658V40.9761H82.3921V42.4096C82.6045 41.9353 82.9054 41.5566 83.2947 41.2734C83.684 40.9903 84.13 40.8593 84.6326 40.8806V41.7619H84.5689C83.9389 41.7619 83.4186 41.9813 83.008 42.4202C82.5974 42.8591 82.3921 43.4785 82.3921 44.2784V46.4658H81.5745ZM87.9539 46.5826C87.2531 46.5826 86.6408 46.3242 86.1169 45.8075C85.5931 45.2836 85.3312 44.5864 85.3312 43.7157C85.3312 42.8591 85.5931 42.1689 86.1169 41.6451C86.6408 41.1212 87.2531 40.8593 87.9539 40.8593C88.8176 40.8593 89.5184 41.2487 90.0564 42.0273V38.7144H90.874V46.4658H90.0564V45.3615C89.5042 46.1756 88.8034 46.5826 87.9539 46.5826ZM88.1026 45.85C88.6335 45.85 89.0972 45.6482 89.4936 45.2447C89.89 44.8412 90.0882 44.328 90.0882 43.705C90.0882 43.0963 89.89 42.5937 89.4936 42.1972C89.0972 41.7937 88.6335 41.592 88.1026 41.592C87.5504 41.592 87.0903 41.7867 86.7222 42.176C86.3541 42.5583 86.17 43.075 86.17 43.7263C86.17 44.3563 86.3576 44.8695 86.7328 45.2659C87.108 45.6553 87.5646 45.85 88.1026 45.85Z" fill="#1E1E1C"/>
</svg>
