<svg width="23" height="24" viewBox="0 0 23 24" fill="none" xmlns="http://www.w3.org/2000/svg">
<path d="M20.2489 20.8014C22.0486 18.9952 22.9734 16.4006 23 13.0909L23 10.8123C23 4.31924 19.2044 0.567092 12.5645 0.500564L10.4421 0.500564C7.15549 0.473953 4.56741 1.38872 2.75109 3.21823C0.934776 5.04773 0.0266129 7.62565 -4.56146e-07 10.9354L-5.55599e-07 13.2106C-8.38984e-07 19.6937 3.79563 23.4392 10.4355 23.4991L12.5579 23.4991C15.8478 23.5324 18.4359 22.6243 20.2489 20.8014ZM12.5579 22.1652L10.4488 22.1652C4.55743 22.1153 1.39052 18.8754 1.38387 13.0909L1.38387 10.9454C1.40716 8.00487 2.19887 5.72298 3.73575 4.16623C5.27263 2.60949 7.53472 1.82114 10.4421 1.83777L12.5512 1.83777C18.4426 1.88767 21.5928 5.09428 21.6161 10.9321L21.6161 13.0743C21.5928 16.0181 20.8045 18.2967 19.2676 19.8468C17.7307 21.3969 15.4686 22.1752 12.5645 22.1552L12.5579 22.1652Z" fill="#323232"/>
<path d="M14.5 7.49976L14.5 16.4998" stroke="#323232" stroke-width="1.2" stroke-linecap="round"/>
<path d="M11.5 7.49976L11.5 16.4998" stroke="#323232" stroke-width="1.2" stroke-linecap="round"/>
<path d="M8.5 7.49976L8.5 16.4998" stroke="#323232" stroke-width="1.2" stroke-linecap="round"/>
</svg>
