<svg width="154" height="54" viewBox="0 0 154 54" fill="none" xmlns="http://www.w3.org/2000/svg">
<path d="M71.8807 9.94287V2.51001H75.3317C76.1882 2.51001 76.836 2.72945 77.2748 3.16835C77.6146 3.50813 77.7845 3.93641 77.7845 4.45317C77.7845 5.15398 77.4589 5.68844 76.8076 6.05654C77.2678 6.23352 77.6146 6.46712 77.8482 6.75736C78.0818 7.04051 78.1986 7.42278 78.1986 7.90414C78.1986 8.56956 77.9509 9.0757 77.4554 9.42257C76.9598 9.76944 76.2803 9.94287 75.4166 9.94287H71.8807ZM73.4735 5.51501H74.9813C75.767 5.51501 76.1599 5.24601 76.1599 4.70801C76.1599 4.46025 76.0679 4.27266 75.8838 4.14524C75.6998 4.01074 75.4343 3.94349 75.0875 3.94349H73.4735V5.51501ZM73.4735 8.50939H75.4166C76.1882 8.50939 76.574 8.23331 76.574 7.68116C76.574 7.14316 76.1705 6.87416 75.3635 6.87416H73.4735V8.50939ZM79.6181 9.94287V2.51001H81.2533V9.94287H79.6181ZM86.6893 10.0703C85.5354 10.0703 84.5939 9.70927 83.8648 8.98722C83.1427 8.26517 82.7817 7.34491 82.7817 6.22644C82.7817 5.15752 83.1534 4.25142 83.8967 3.50813C84.6399 2.75777 85.5673 2.38259 86.6787 2.38259C87.3229 2.38259 87.8679 2.46753 88.3139 2.63743C88.7599 2.80024 89.1881 3.05508 89.5987 3.40195L88.5687 4.6443C88.2573 4.38238 87.9564 4.19125 87.6662 4.07091C87.3759 3.95057 87.0291 3.89039 86.6256 3.89039C86.0309 3.89039 85.5248 4.12046 85.1071 4.58059C84.6966 5.03364 84.4913 5.58226 84.4913 6.22644C84.4913 6.90601 84.7001 7.46879 85.1178 7.91476C85.5425 8.36073 86.084 8.58372 86.7424 8.58372C87.3512 8.58372 87.8644 8.43506 88.282 8.13775V7.07591H86.6362V5.66366H89.8642V8.89165C88.9368 9.67741 87.8785 10.0703 86.6893 10.0703ZM97.265 10.0491C96.0475 10.0491 94.9962 9.65264 94.1114 8.8598L95.0776 7.70239C95.8068 8.3041 96.5465 8.60496 97.2969 8.60496C97.6296 8.60496 97.8915 8.54125 98.0826 8.41382C98.2738 8.2864 98.3693 8.10943 98.3693 7.88291C98.3693 7.67054 98.2702 7.50064 98.072 7.37322C97.8738 7.23872 97.4739 7.09361 96.8721 6.93787C96.4474 6.83169 96.1041 6.72904 95.8422 6.62994C95.5802 6.52375 95.3289 6.38571 95.0883 6.21582C94.8547 6.04593 94.6812 5.83356 94.568 5.57872C94.4618 5.3168 94.4087 5.00532 94.4087 4.6443C94.4087 3.9718 94.6494 3.43027 95.1307 3.01969C95.6192 2.60911 96.2457 2.40382 97.0102 2.40382C98.0649 2.40382 98.9852 2.71883 99.771 3.34886L98.9215 4.58059C98.2207 4.09214 97.5765 3.84792 96.9889 3.84792C96.6846 3.84792 96.4474 3.91163 96.2775 4.03905C96.1147 4.15939 96.0333 4.31867 96.0333 4.51688C96.0333 4.75756 96.1359 4.93808 96.3412 5.05842C96.5465 5.17876 96.9783 5.32388 97.6367 5.49377C98.4437 5.70614 99.0383 5.97868 99.4206 6.31139C99.8028 6.64409 99.9939 7.12192 99.9939 7.74487C99.9939 8.46692 99.7426 9.03323 99.24 9.44381C98.7445 9.84731 98.0862 10.0491 97.265 10.0491ZM101.413 9.94287V2.51001H107.02V3.96472H103.038V5.47253H106.542V6.92725H103.038V8.48815H107.073V9.94287H101.413ZM108.527 9.94287V2.51001H114.133V3.96472H110.151V5.47253H113.655V6.92725H110.151V8.48815H114.186V9.94287H108.527Z" fill="#1E1E1C"/>
<path d="M71.8807 22.6328V15.1999H74.9176C75.7954 15.1999 76.4891 15.4371 76.9988 15.9114C77.5085 16.3857 77.7633 17.0122 77.7633 17.7908C77.7633 18.6191 77.4801 19.2632 76.9138 19.7234C76.3475 20.1764 75.629 20.403 74.7583 20.403H73.5159V22.6328H71.8807ZM73.5159 18.9482H74.8114C75.2149 18.9482 75.5299 18.8421 75.7564 18.6297C75.99 18.4173 76.1068 18.1412 76.1068 17.8015C76.1068 17.4404 75.99 17.1643 75.7564 16.9732C75.5228 16.775 75.1972 16.6759 74.7795 16.6759H73.5159V18.9482ZM78.8036 22.6328V16.9414H80.4176V18.0881C80.7857 17.2174 81.3909 16.7998 82.2333 16.8352V18.5235H82.1484C81.5962 18.5235 81.1679 18.6934 80.8635 19.0332C80.5662 19.3659 80.4176 19.865 80.4176 20.5304V22.6328H78.8036ZM88.0768 21.9001C87.4893 22.4735 86.7566 22.7602 85.8788 22.7602C85.001 22.7602 84.2684 22.4771 83.6808 21.9108C83.1003 21.3374 82.8101 20.633 82.8101 19.7977C82.8101 18.9695 83.1039 18.2687 83.6914 17.6953C84.286 17.1219 85.0223 16.8352 85.9 16.8352C86.7778 16.8352 87.507 17.1219 88.0874 17.6953C88.675 18.2616 88.9688 18.9624 88.9688 19.7977C88.9688 20.6259 88.6714 21.3268 88.0768 21.9001ZM85.9 21.3692C86.346 21.3692 86.7035 21.2206 86.9725 20.9233C87.2415 20.6189 87.376 20.2437 87.376 19.7977C87.376 19.3659 87.2344 18.9978 86.9513 18.6934C86.6752 18.3819 86.3177 18.2262 85.8788 18.2262C85.4328 18.2262 85.0753 18.3784 84.8063 18.6828C84.5374 18.9801 84.4029 19.3517 84.4029 19.7977C84.4029 20.2295 84.5409 20.6012 84.817 20.9126C85.1001 21.217 85.4611 21.3692 85.9 21.3692ZM92.4735 22.739C91.7656 22.739 91.1568 22.4735 90.6471 21.9426C90.1374 21.4117 89.8826 20.6896 89.8826 19.7765C89.8826 18.8704 90.1339 18.1554 90.6365 17.6316C91.1462 17.1006 91.7585 16.8352 92.4735 16.8352C93.1814 16.8352 93.7725 17.1183 94.2468 17.6846V14.8814H95.8607V22.6328H94.2468V21.8152C93.7937 22.4311 93.2026 22.739 92.4735 22.739ZM91.9001 20.9339C92.1691 21.2241 92.4983 21.3692 92.8876 21.3692C93.2769 21.3692 93.6026 21.2241 93.8645 20.9339C94.1335 20.6366 94.268 20.2508 94.268 19.7765C94.268 19.3163 94.1335 18.9412 93.8645 18.6509C93.6026 18.3536 93.2769 18.2049 92.8876 18.2049C92.4983 18.2049 92.1691 18.3536 91.9001 18.6509C91.6311 18.9412 91.4966 19.3234 91.4966 19.7977C91.4966 20.2578 91.6311 20.6366 91.9001 20.9339ZM99.1928 22.739C98.5841 22.739 98.1098 22.5514 97.77 22.1762C97.4302 21.801 97.2603 21.2843 97.2603 20.6259V16.9414H98.8743V20.1163C98.8743 20.4914 98.9592 20.7781 99.1291 20.9763C99.299 21.1746 99.5397 21.2737 99.8512 21.2737C100.163 21.2737 100.407 21.1746 100.584 20.9763C100.768 20.7781 100.86 20.4914 100.86 20.1163V16.9414H102.474V22.6328H100.86V21.8258C100.386 22.4346 99.8299 22.739 99.1928 22.739ZM106.605 22.7602C105.755 22.7602 105.048 22.4735 104.481 21.9001C103.922 21.3268 103.642 20.6259 103.642 19.7977C103.642 18.9766 103.926 18.2793 104.492 17.7059C105.058 17.1254 105.77 16.8352 106.626 16.8352C107.539 16.8352 108.293 17.1679 108.888 17.8333L107.943 18.789C107.546 18.4138 107.104 18.2262 106.616 18.2262C106.219 18.2262 105.89 18.3784 105.628 18.6828C105.366 18.9872 105.235 19.3588 105.235 19.7977C105.235 20.2437 105.366 20.6189 105.628 20.9233C105.897 21.2206 106.247 21.3692 106.679 21.3692C107.125 21.3692 107.561 21.1675 107.985 20.764L108.93 21.7196C108.619 22.0594 108.286 22.3178 107.932 22.4948C107.578 22.6717 107.136 22.7602 106.605 22.7602ZM111.907 22.7284C111.376 22.7284 110.965 22.601 110.675 22.3461C110.392 22.0842 110.25 21.6418 110.25 21.0188V18.3218H109.571V16.9414H110.25V15.4866H111.864V16.9414H113.202V18.3218H111.864V20.7534C111.864 21.1215 112.038 21.3055 112.384 21.3055C112.668 21.3055 112.933 21.2383 113.181 21.1038V22.3992C112.813 22.6187 112.388 22.7284 111.907 22.7284ZM117.745 22.6328V15.1999H120.644C121.805 15.1999 122.753 15.5539 123.49 16.2618C124.226 16.9626 124.594 17.8475 124.594 18.9164C124.594 19.9782 124.222 20.8631 123.479 21.571C122.743 22.2789 121.798 22.6328 120.644 22.6328H117.745ZM119.38 21.1569H120.644C121.316 21.1569 121.858 20.9516 122.268 20.541C122.679 20.1233 122.884 19.5818 122.884 18.9164C122.884 18.258 122.676 17.72 122.258 17.3024C121.847 16.8847 121.309 16.6759 120.644 16.6759H119.38V21.1569ZM128.578 22.7602C127.715 22.7602 127.003 22.4877 126.444 21.9426C125.885 21.3905 125.605 20.6755 125.605 19.7977C125.605 18.9695 125.871 18.2687 126.401 17.6953C126.932 17.1219 127.605 16.8352 128.419 16.8352C129.318 16.8352 130.005 17.1325 130.479 17.7271C130.953 18.3218 131.19 19.0544 131.19 19.9251C131.19 20.0101 131.183 20.1517 131.169 20.3499H127.208C127.286 20.7109 127.446 20.987 127.686 21.1781C127.927 21.3692 128.231 21.4648 128.599 21.4648C129.102 21.4648 129.562 21.2701 129.98 20.8808L130.904 21.6984C130.33 22.4063 129.555 22.7602 128.578 22.7602ZM127.187 19.3411H129.619C129.569 18.973 129.438 18.6792 129.226 18.4598C129.021 18.2403 128.752 18.1306 128.419 18.1306C128.093 18.1306 127.821 18.2403 127.601 18.4598C127.389 18.6722 127.251 18.9659 127.187 19.3411ZM134.389 22.739C133.49 22.739 132.676 22.4523 131.947 21.8789L132.637 20.8171C133.26 21.2701 133.859 21.4966 134.432 21.4966C134.885 21.4966 135.111 21.348 135.111 21.0507C135.111 21.0153 135.104 20.9799 135.09 20.9445C135.083 20.9091 135.065 20.8772 135.037 20.8489C135.009 20.8206 134.977 20.7958 134.942 20.7746C134.913 20.7463 134.871 20.7215 134.814 20.7003C134.765 20.672 134.719 20.6507 134.676 20.6366C134.641 20.6153 134.588 20.5941 134.517 20.5728C134.446 20.5445 134.386 20.5233 134.336 20.5091C134.287 20.495 134.22 20.4773 134.135 20.456C134.05 20.4277 133.982 20.4065 133.933 20.3923C133.692 20.3215 133.487 20.2508 133.317 20.18C133.154 20.1021 132.981 19.9995 132.797 19.872C132.613 19.7375 132.471 19.5712 132.372 19.373C132.28 19.1677 132.234 18.9305 132.234 18.6615C132.234 18.1023 132.432 17.6634 132.829 17.3449C133.225 17.0192 133.72 16.8564 134.315 16.8564C135.08 16.8564 135.788 17.0759 136.439 17.5148L135.823 18.6297C135.221 18.2757 134.708 18.0988 134.283 18.0988C133.887 18.0988 133.689 18.2368 133.689 18.5129C133.689 18.704 134.014 18.9093 134.666 19.1287C134.743 19.1571 134.804 19.1783 134.846 19.1925C135.037 19.2562 135.2 19.3163 135.334 19.373C135.469 19.4296 135.621 19.5075 135.791 19.6066C135.961 19.7057 136.095 19.8119 136.195 19.9251C136.301 20.0313 136.389 20.1693 136.46 20.3392C136.531 20.5091 136.566 20.6967 136.566 20.902C136.566 21.5108 136.364 21.9709 135.961 22.2824C135.565 22.5868 135.041 22.739 134.389 22.739ZM137.755 16.3149V14.8814H139.454V16.3149H137.755ZM137.797 22.6328V16.9414H139.411V22.6328H137.797ZM143.476 24.353C142.548 24.353 141.71 24.1548 140.959 23.7584L141.511 22.5479C142.127 22.8947 142.768 23.0682 143.433 23.0682C144.516 23.0682 145.058 22.5514 145.058 21.5179V21.2418C144.803 21.5533 144.53 21.7869 144.24 21.9426C143.957 22.0913 143.61 22.1656 143.2 22.1656C142.499 22.1656 141.901 21.9249 141.405 21.4436C140.917 20.9622 140.672 20.3109 140.672 19.4898C140.672 18.6757 140.92 18.0315 141.416 17.5572C141.911 17.0759 142.506 16.8352 143.2 16.8352C143.908 16.8352 144.52 17.1183 145.037 17.6846V16.9414H146.651V21.348C146.651 22.3603 146.41 23.1071 145.929 23.5885C145.419 24.0981 144.601 24.353 143.476 24.353ZM142.679 20.4667C142.941 20.7073 143.27 20.8277 143.667 20.8277C144.063 20.8277 144.392 20.7038 144.654 20.456C144.923 20.2083 145.058 19.8862 145.058 19.4898C145.058 19.1075 144.923 18.7925 144.654 18.5447C144.392 18.297 144.063 18.1731 143.667 18.1731C143.27 18.1731 142.941 18.297 142.679 18.5447C142.417 18.7925 142.286 19.1146 142.286 19.511C142.286 19.9003 142.417 20.2189 142.679 20.4667ZM148.093 22.6328V16.9414H149.707V17.7484C150.181 17.1396 150.737 16.8352 151.374 16.8352C151.982 16.8352 152.457 17.0228 152.797 17.398C153.136 17.7731 153.306 18.2899 153.306 18.9482V22.6328H151.692V19.4579C151.692 19.0827 151.607 18.796 151.437 18.5978C151.268 18.3996 151.027 18.3005 150.715 18.3005C150.404 18.3005 150.156 18.3996 149.972 18.5978C149.795 18.796 149.707 19.0827 149.707 19.4579V22.6328H148.093Z" fill="#1E1E1C"/>
<path d="M71.2436 35.3091L74.4291 27.8231H75.9369L79.1224 35.3091H77.4129L76.7333 33.642H73.5903L72.9107 35.3091H71.2436ZM74.1743 32.1979H76.1493L75.1618 29.7875L74.1743 32.1979ZM80.8039 35.3516L79.0519 29.6176H80.6871L81.6003 33.0686L82.6727 29.5964H84.0637L85.1468 33.0792L86.0812 29.6176H87.6846L85.9113 35.3516H84.4566L83.3629 31.8581L82.248 35.3516H80.8039ZM90.0716 35.4153C89.5123 35.4153 89.0451 35.2595 88.6699 34.9481C88.3018 34.6366 88.1178 34.2048 88.1178 33.6526C88.1178 33.0509 88.3231 32.5979 88.7337 32.2935C89.1513 31.9891 89.7105 31.8369 90.4114 31.8369C90.8856 31.8369 91.3493 31.9147 91.8024 32.0705V31.9749C91.8024 31.2812 91.3953 30.9343 90.5813 30.9343C90.0928 30.9343 89.569 31.037 89.0097 31.2422L88.6062 30.0105C89.3 29.7061 90.0362 29.5539 90.8149 29.5539C91.6714 29.5539 92.3121 29.7663 92.7368 30.191C93.1474 30.6016 93.3527 31.2068 93.3527 32.0068V35.3091H91.7917V34.6932C91.3599 35.1746 90.7865 35.4153 90.0716 35.4153ZM90.56 34.3003C90.9352 34.3003 91.2396 34.2083 91.4732 34.0243C91.7068 33.8331 91.8236 33.5924 91.8236 33.3022V33.0155C91.5192 32.8739 91.1759 32.8031 90.7936 32.8031C90.4397 32.8031 90.1636 32.8739 89.9654 33.0155C89.7743 33.15 89.6787 33.3482 89.6787 33.6101C89.6787 33.8225 89.7601 33.9924 89.9229 34.1198C90.0857 34.2402 90.2981 34.3003 90.56 34.3003ZM94.7415 35.3091V29.6176H96.3555V30.7644C96.7236 29.8937 97.3288 29.4761 98.1712 29.5114V31.1998H98.0863C97.5341 31.1998 97.1059 31.3697 96.8015 31.7095C96.5042 32.0422 96.3555 32.5412 96.3555 33.2066V35.3091H94.7415ZM101.412 35.4153C100.704 35.4153 100.095 35.1498 99.5856 34.6189C99.076 34.088 98.8211 33.3659 98.8211 32.4527C98.8211 31.5466 99.0724 30.8317 99.575 30.3078C100.085 29.7769 100.697 29.5114 101.412 29.5114C102.12 29.5114 102.711 29.7946 103.185 30.3609V27.5577H104.799V35.3091H103.185V34.4915C102.732 35.1073 102.141 35.4153 101.412 35.4153ZM100.839 33.6101C101.108 33.9004 101.437 34.0455 101.826 34.0455C102.215 34.0455 102.541 33.9004 102.803 33.6101C103.072 33.3128 103.207 32.927 103.207 32.4527C103.207 31.9926 103.072 31.6174 102.803 31.3272C102.541 31.0299 102.215 30.8812 101.826 30.8812C101.437 30.8812 101.108 31.0299 100.839 31.3272C100.57 31.6174 100.435 31.9997 100.435 32.474C100.435 32.9341 100.57 33.3128 100.839 33.6101ZM109.223 35.3091V34.0136L111.697 31.9855C112.186 31.582 112.522 31.2599 112.706 31.0193C112.89 30.7715 112.982 30.499 112.982 30.2016C112.982 29.8972 112.89 29.6601 112.706 29.4902C112.522 29.3203 112.281 29.2354 111.984 29.2354C111.708 29.2354 111.456 29.3132 111.23 29.469C111.01 29.6176 110.756 29.8725 110.465 30.2335L109.319 29.3097C109.708 28.7788 110.108 28.3894 110.518 28.1417C110.936 27.8939 111.46 27.77 112.09 27.77C112.862 27.77 113.481 27.9824 113.948 28.4071C114.415 28.8248 114.649 29.384 114.649 30.0848C114.649 30.4883 114.571 30.8529 114.415 31.1785C114.26 31.4971 114.058 31.7802 113.81 32.028C113.562 32.2687 113.191 32.5802 112.695 32.9624L111.485 33.8968H114.723V35.3091H109.223ZM121.573 34.3428C120.957 35.0719 120.16 35.4365 119.184 35.4365C118.207 35.4365 117.414 35.0719 116.805 34.3428C116.196 33.6137 115.892 32.697 115.892 31.5926C115.892 30.4954 116.2 29.5822 116.816 28.8531C117.431 28.1169 118.228 27.7488 119.205 27.7488C120.175 27.7488 120.964 28.1134 121.573 28.8425C122.189 29.5716 122.496 30.4883 122.496 31.5926C122.496 32.6899 122.189 33.6066 121.573 34.3428ZM118.015 33.2916C118.32 33.7376 118.716 33.9605 119.205 33.9605C119.693 33.9605 120.083 33.7411 120.373 33.3022C120.67 32.8562 120.819 32.2864 120.819 31.5926C120.819 30.9131 120.667 30.3503 120.362 29.9043C120.058 29.4513 119.665 29.2248 119.184 29.2248C118.702 29.2248 118.313 29.4477 118.015 29.8937C117.718 30.3326 117.57 30.8989 117.57 31.5926C117.57 32.2793 117.718 32.8456 118.015 33.2916ZM123.491 35.3091V34.0136L125.966 31.9855C126.454 31.582 126.79 31.2599 126.974 31.0193C127.158 30.7715 127.25 30.499 127.25 30.2016C127.25 29.8972 127.158 29.6601 126.974 29.4902C126.79 29.3203 126.55 29.2354 126.252 29.2354C125.976 29.2354 125.725 29.3132 125.498 29.469C125.279 29.6176 125.024 29.8725 124.734 30.2335L123.587 29.3097C123.976 28.7788 124.376 28.3894 124.787 28.1417C125.205 27.8939 125.728 27.77 126.358 27.77C127.13 27.77 127.749 27.9824 128.217 28.4071C128.684 28.8248 128.917 29.384 128.917 30.0848C128.917 30.4883 128.84 30.8529 128.684 31.1785C128.528 31.4971 128.326 31.7802 128.079 32.028C127.831 32.2687 127.459 32.5802 126.964 32.9624L125.753 33.8968H128.992V35.3091H123.491ZM132.889 35.4365C131.679 35.4365 130.712 35.0082 129.99 34.1517L131.116 33.0792C131.647 33.6739 132.245 33.9712 132.91 33.9712C133.222 33.9712 133.473 33.8898 133.664 33.7269C133.863 33.557 133.962 33.3305 133.962 33.0474C133.962 32.743 133.834 32.5094 133.579 32.3466C133.325 32.1837 132.967 32.1023 132.507 32.1023H131.827L131.573 31.0617L133.346 29.2778H130.426V27.8762H135.448V29.1079L133.569 30.9025C134.9 31.129 135.565 31.8298 135.565 33.0049C135.565 33.7199 135.321 34.3039 134.832 34.7569C134.351 35.21 133.703 35.4365 132.889 35.4365Z" fill="#1E1E1C"/>
<path d="M74.1212 48.0487L71.4666 40.5627H72.3798L74.5035 46.7533L76.5422 40.5415H77.2324L79.2711 46.7533L81.3948 40.5627H82.2761L79.6215 48.0487H78.9101L76.8714 42.0175L74.822 48.0487H74.1212ZM83.5267 41.306V40.4035H84.4611V41.306H83.5267ZM83.5798 47.9956V42.5059H84.3974V47.9956H83.5798ZM86.2948 47.9956V42.5059H87.1124V43.4616C87.5443 42.7466 88.1707 42.3891 88.9919 42.3891C89.6432 42.3891 90.1564 42.5909 90.5316 42.9943C90.9067 43.3908 91.0943 43.9217 91.0943 44.5871V47.9956H90.2767V44.7889C90.2767 44.2721 90.1422 43.8686 89.8732 43.5784C89.6113 43.281 89.2397 43.1324 88.7583 43.1324C88.284 43.1324 87.8911 43.2917 87.5797 43.6102C87.2682 43.9288 87.1124 44.3429 87.1124 44.8526V47.9956H86.2948ZM92.838 47.9956V42.5059H93.6556V43.4616C94.0874 42.7466 94.7139 42.3891 95.5351 42.3891C96.1863 42.3891 96.6995 42.5909 97.0747 42.9943C97.4499 43.3908 97.6375 43.9217 97.6375 44.5871V47.9956H96.8199V44.7889C96.8199 44.2721 96.6854 43.8686 96.4164 43.5784C96.1545 43.281 95.7828 43.1324 95.3015 43.1324C94.8272 43.1324 94.4343 43.2917 94.1228 43.6102C93.8113 43.9288 93.6556 44.3429 93.6556 44.8526V47.9956H92.838ZM99.8696 45.5852C99.9262 46.1445 100.135 46.5904 100.496 46.9231C100.864 47.2488 101.3 47.4116 101.802 47.4116C102.46 47.4116 103.037 47.1532 103.533 46.6365L104.043 47.093C103.427 47.7797 102.673 48.123 101.781 48.123C101.009 48.123 100.358 47.8576 99.8271 47.3266C99.3033 46.7886 99.0414 46.0985 99.0414 45.2561C99.0414 44.4561 99.2927 43.7801 99.7953 43.228C100.298 42.6687 100.924 42.3891 101.675 42.3891C102.46 42.3891 103.083 42.6652 103.544 43.2173C104.004 43.7695 104.234 44.4632 104.234 45.2985C104.234 45.4047 104.23 45.5003 104.223 45.5852H99.8696ZM99.8696 44.9269H103.406C103.356 44.396 103.179 43.9571 102.875 43.6102C102.577 43.2563 102.17 43.0793 101.653 43.0793C101.186 43.0793 100.786 43.2527 100.454 43.5996C100.121 43.9465 99.9262 44.3889 99.8696 44.9269ZM105.665 47.9956V42.5059H106.483V43.9394C106.695 43.4651 106.996 43.0864 107.385 42.8032C107.775 42.5201 108.221 42.3891 108.723 42.4103V43.2917H108.659C108.029 43.2917 107.509 43.5111 107.099 43.95C106.688 44.3889 106.483 45.0083 106.483 45.8082V47.9956H105.665Z" fill="#1E1E1C"/>
<path d="M26.8405 0.990165H25.7702C22.407 1.13851 19.1037 1.9254 16.039 3.30829L14.9038 3.85564L13.6711 4.49956C12.2132 5.36524 10.8346 6.3564 9.55149 7.46163C8.50885 8.35695 7.54315 9.33698 6.66451 10.3915C5.40339 11.8749 4.31523 13.495 3.42076 15.221C2.70999 16.5716 2.1236 17.9833 1.66901 19.4387C1.24538 20.7765 0.920391 22.1431 0.696128 23.5277C0.501014 24.828 0.403545 26.1409 0.404301 27.4556C0.404301 27.8098 0.404301 28.1639 0.404301 28.4859C0.404301 28.8078 0.404301 29.1298 0.404301 29.4518C0.45168 30.2832 0.549056 31.1111 0.696128 31.9309C0.791465 32.5706 0.921387 33.2047 1.08536 33.8305C1.31267 34.7477 1.59431 35.6507 1.92877 36.535C3.98967 42.1619 7.91166 46.9289 13.0546 50.0575L14.0928 50.6692C15.0768 51.2166 16.0951 51.7006 17.1418 52.118L18.8935 52.7298C19.8193 53.0295 20.7615 53.2768 21.7155 53.4703C23.4467 53.8074 25.2063 53.9798 26.9704 53.9854H27.6515C28.7373 53.9482 29.8202 53.8515 30.8952 53.6957C31.4466 53.6957 31.9656 53.5025 32.5171 53.4059C33.2769 53.2553 34.0251 53.0509 34.7555 52.7942C37.9294 51.8323 40.8902 50.2808 43.481 48.2223C45.5716 46.5612 47.3979 44.5966 48.8982 42.3948C49.7757 41.1523 50.5253 39.8256 51.1362 38.4346C51.6141 37.3879 52.0258 36.3126 52.3688 35.2149C53.0009 33.0555 53.3714 30.829 53.472 28.5825C53.472 28.2283 53.472 27.8742 53.472 27.4878V27.0693C53.5043 26.4365 53.5043 25.8024 53.472 25.1697C53.3187 23.4013 52.9816 21.6534 52.4662 19.9539C52.0416 18.5379 51.4991 17.1594 50.8443 15.8327C48.947 12.0041 46.1419 8.68959 42.67 6.17379C41.0132 4.88796 39.2054 3.80682 37.2857 2.95415L36.3773 2.59999C33.6814 1.56916 30.831 0.992408 27.9437 0.893555H26.8405" fill="#CFCFCF"/>
<path d="M26.894 16.9143H26.4561C25.0799 16.9755 23.7282 17.2999 22.4742 17.87L22.0096 18.0956L21.5053 18.3611C20.9087 18.718 20.3446 19.1266 19.8196 19.5822C19.3929 19.9513 18.9978 20.3553 18.6383 20.79C18.1222 21.4016 17.677 22.0695 17.311 22.781C17.0201 23.3378 16.7802 23.9197 16.5942 24.5197C16.4208 25.0713 16.2878 25.6346 16.1961 26.2054C16.1162 26.7415 16.0764 27.2827 16.0767 27.8247C16.0767 27.9707 16.0767 28.1167 16.0767 28.2494C16.0767 28.3822 16.0767 28.5149 16.0767 28.6476C16.096 28.9904 16.1359 29.3317 16.1961 29.6697C16.2351 29.9334 16.2882 30.1948 16.3553 30.4528C16.4484 30.8309 16.5636 31.2032 16.7005 31.5677C17.5437 33.8874 19.1486 35.8526 21.253 37.1423L21.6778 37.3945C22.0805 37.6202 22.4971 37.8197 22.9254 37.9918L23.6422 38.244C24.021 38.3676 24.4065 38.4695 24.7969 38.5493C25.5053 38.6882 26.2253 38.7593 26.9472 38.7616H27.2258C27.6701 38.7463 28.1132 38.7064 28.5531 38.6422C28.7788 38.6422 28.9911 38.5626 29.2168 38.5227C29.5277 38.4607 29.8338 38.3764 30.1327 38.2705C31.4314 37.874 32.643 37.2344 33.703 36.3858C34.5585 35.701 35.3058 34.8911 35.9197 33.9834C36.2788 33.4712 36.5855 32.9242 36.8355 32.3508C37.031 31.9193 37.1995 31.476 37.3398 31.0235C37.5985 30.1333 37.7501 29.2154 37.7912 28.2893C37.7912 28.1433 37.7912 27.9973 37.7912 27.838V27.6654C37.8044 27.4046 37.8044 27.1432 37.7912 26.8823C37.7285 26.1533 37.5906 25.4328 37.3797 24.7321C37.2059 24.1484 36.9839 23.5801 36.716 23.0332C35.9397 21.4548 34.7919 20.0884 33.3712 19.0513C32.6933 18.5212 31.9535 18.0755 31.168 17.724L30.7963 17.578C29.6932 17.153 28.5269 16.9153 27.3454 16.8745H26.894" fill="#13110C"/>
<path d="M28.1978 27.585H25.5698V28.1159H28.1978V27.585Z" fill="#CFCFCF"/>
<path d="M27.1638 26.5366H26.6328V29.1647H27.1638V26.5366Z" fill="#CFCFCF"/>
</svg>
