<svg width="17" height="21" viewBox="0 0 17 21" fill="none" xmlns="http://www.w3.org/2000/svg">
<path d="M14.2945 13.016C14.062 12.4539 13.9312 11.8218 13.9312 11.1564C13.9312 10.8741 13.955 10.6022 13.9999 10.3401C14.1915 9.20636 14.778 8.26982 15.5866 7.66273C15.7319 7.555 15.8838 7.45762 16.041 7.37143C14.9498 5.55907 13.1716 5.40401 12.6127 5.34214C11.3973 5.20867 9.68387 6.33992 8.75374 6.33992H8.72865C7.79859 6.33992 6.08508 5.20867 4.86965 5.34214C4.26464 5.40749 2.33046 5.76838 1.16398 7.72465C0.754381 8.41097 0.438699 9.25574 0.309231 10.3707C0.26291 10.7726 0.240492 11.1926 0.245747 11.6584C0.251044 12.1263 0.286727 12.5772 0.347457 13.0237C0.478281 13.977 0.724037 14.8733 1.04108 15.6969C1.3938 16.6105 1.83505 17.4303 2.30402 18.1281C3.3412 19.6737 4.51561 20.5662 5.1788 20.5822C6.53955 20.6142 7.72193 19.6453 8.69826 19.6703C8.70886 19.6738 8.71937 19.6738 8.72865 19.6731L8.74183 19.6717L8.75374 19.6731C8.76302 19.6738 8.77353 19.6731 8.78281 19.6696C9.7591 19.6432 10.9428 20.6129 12.3063 20.5809C12.9668 20.5649 14.1426 19.6717 15.1797 18.126C15.6486 17.4283 16.0899 16.6071 16.44 15.6928C16.4928 15.5565 16.5431 15.4181 16.5932 15.2776C15.5786 14.9442 14.7436 14.1084 14.2945 13.016Z" fill="#828282"/>
<path d="M11.1314 3.85664C12.1778 2.5536 12.1368 0.677942 12.0416 0.595236C11.9479 0.511102 10.2199 0.845496 9.14843 2.10442C8.077 3.36505 8.14311 5.28308 8.23821 5.3665C8.33199 5.44996 10.0864 5.15929 11.1314 3.85664Z" fill="#828282"/>
</svg>
