<svg width="134" height="25" viewBox="0 0 134 25" fill="none" xmlns="http://www.w3.org/2000/svg">
<g clip-path="url(#clip0_5295_1651)">
<path d="M34.1897 19.8291L31.6782 19.8382C27.0135 19.8382 25.104 17.8674 25.104 13.1997L25.1115 3.95227C25.1115 3.13213 24.5766 2.58789 23.7668 2.58789C22.957 2.58789 22.4101 3.13819 22.4221 3.95227V13.5636C22.4146 19.3319 25.6225 22.5897 31.2942 22.5791H34.2062C35.016 22.5867 35.5509 22.0364 35.5509 21.2071C35.5509 20.3779 34.9996 19.8382 34.1897 19.8291Z" fill="#323232"/>
<path d="M10.8433 2.58008H8.87552C3.19787 2.58008 -0.00550443 5.81366 0.00196616 11.5926V21.2008C0.00196616 22.0361 0.536831 22.5652 1.35411 22.5652C2.1714 22.5652 2.69882 22.0301 2.69882 21.2008L2.69138 11.92C2.69138 7.24171 4.61431 5.30884 9.2655 5.30884H10.4488C14.8161 5.30884 17.0006 6.99006 17.0006 11.0029V11.4122C17.0006 15.428 14.8161 17.1032 10.4488 17.1032L6.72699 17.0956C5.90523 17.1032 5.38229 17.6383 5.38229 18.46C5.38229 19.2816 5.91121 19.8395 6.72699 19.8243H10.8328C16.2341 19.8349 19.6974 16.8651 19.6944 11.4016V10.9922C19.7109 5.49986 16.2445 2.58008 10.8433 2.58008Z" fill="#323232"/>
<path d="M47.2703 2.58008H45.313C39.6354 2.58008 36.4395 5.80911 36.4395 11.5926V13.5633C36.4395 19.3483 39.6294 22.5774 45.313 22.5774H47.2703C52.948 22.5774 56.1439 19.3483 56.1439 13.5633V11.5926C56.1439 5.80911 52.9539 2.58008 47.2703 2.58008ZM53.45 13.1919C53.45 17.8915 51.551 19.844 46.8863 19.844H45.7254C41.0593 19.844 39.1319 17.893 39.1319 13.1919V11.9367C39.1319 7.23716 41.0593 5.31339 45.7254 5.31339H46.8863C51.551 5.31339 53.45 7.23716 53.45 11.9367V13.1919Z" fill="#323232"/>
<path d="M101.683 21.3757C100.648 20.3267 99.9767 19.84 98.0463 19.84H90.5219C85.8558 19.84 83.9478 17.8935 83.9478 13.2016V11.9175C83.9478 7.22709 85.8707 5.30786 90.5219 5.30786H91.6784C96.3355 5.30786 98.2704 7.23922 98.26 11.9175V15.8682C98.251 16.708 98.7829 17.2614 99.6047 17.2614C100.426 17.2614 100.949 16.708 100.958 15.8682V11.5931C100.958 5.80813 97.7684 2.5791 92.0848 2.5791H90.1275C84.4498 2.5791 81.2539 5.80813 81.2539 11.5931V13.5639C81.2539 19.3473 84.4558 22.5885 90.1275 22.5779H98.1524C98.9921 22.5915 99.3029 22.8477 99.6375 23.1843L100.086 23.6391C100.869 24.441 101.664 24.4668 102.239 23.8847C102.814 23.3025 102.754 22.4703 102.079 21.7835L101.683 21.3757Z" fill="#323232"/>
<path d="M69.6746 2.58008H67.7174C62.0397 2.58008 58.8363 5.81366 58.8438 11.5926V21.1978C58.8438 22.0346 59.3787 22.5622 60.1885 22.5622C60.9983 22.5622 61.5332 22.0286 61.5407 21.1978V11.9291C61.5407 7.25081 63.4621 5.31642 68.1148 5.31642H69.2712C73.9284 5.31642 75.8603 7.24778 75.8453 11.9261V21.2115C75.8453 22.0361 76.3728 22.5758 77.19 22.5758C78.0073 22.5758 78.5348 22.0407 78.5422 21.2115V11.5926C78.5392 5.81366 75.3582 2.58008 69.6746 2.58008Z" fill="#323232"/>
<path d="M131.104 2.99103C129.162 1.0339 126.389 0.0288036 122.842 0H120.401C113.444 0 109.423 4.12649 109.362 11.3456V13.6499C109.331 17.223 110.311 20.0367 112.273 22.0105C114.234 23.9843 116.994 24.9712 120.538 25.0015H122.976C129.923 25.0015 133.939 20.875 134 13.6559V11.3486C134.028 7.77242 133.056 4.96028 131.104 2.99103ZM132.566 11.3501V13.6453C132.513 20.0473 129.04 23.4886 122.842 23.4992H120.546C117.391 23.4734 114.95 22.6138 113.281 20.9432C111.612 19.2726 110.769 16.8122 110.796 13.6529V11.3562C110.849 4.9527 114.287 1.53114 120.538 1.50234H122.836C125.99 1.52811 128.431 2.38615 130.093 4.05676C131.754 5.72737 132.593 8.18477 132.566 11.3426V11.3501Z" fill="#323232"/>
<path d="M127.473 15.8723C127.414 15.8374 126.058 14.9991 125.671 12.3855C125.62 12.0375 125.544 11.6939 125.442 11.3577L126.576 8.78053C126.654 8.6026 126.66 8.4005 126.591 8.21859C126.522 8.03669 126.385 7.88985 126.21 7.8103C126.123 7.77061 126.03 7.7487 125.935 7.74583C125.84 7.74295 125.745 7.75916 125.656 7.79353C125.567 7.82791 125.486 7.87977 125.417 7.94612C125.348 8.01248 125.293 8.09203 125.254 8.1802L124.605 9.6507C123.709 8.43792 122.355 7.74512 120.71 7.74512C119.471 7.74672 118.282 8.24721 117.406 9.13677C116.529 10.0263 116.036 11.2323 116.035 12.4901C116.034 13.114 116.155 13.732 116.39 14.3086C116.624 14.8853 116.969 15.4094 117.403 15.8509C117.838 16.2924 118.354 16.6427 118.922 16.8818C119.49 17.1209 120.098 17.244 120.713 17.2442C121.659 17.2464 122.583 16.9555 123.361 16.4104C123.439 16.356 123.506 16.2864 123.558 16.2057C123.61 16.1249 123.646 16.0345 123.663 15.9397C123.68 15.8449 123.679 15.7476 123.659 15.6533C123.64 15.559 123.602 15.4696 123.548 15.3902C123.494 15.3104 123.426 15.2422 123.346 15.1895C123.266 15.1367 123.177 15.1005 123.084 15.0829C122.99 15.0653 122.894 15.0666 122.801 15.0868C122.708 15.1071 122.62 15.1458 122.542 15.2007C122.004 15.5762 121.366 15.7766 120.713 15.7753C119.858 15.7745 119.037 15.4292 118.432 14.8153C117.827 14.2014 117.487 13.3689 117.486 12.5007C117.487 11.6325 117.827 10.8001 118.432 10.1862C119.037 9.57228 119.858 9.22703 120.713 9.22623C122.638 9.22623 123.924 10.4587 124.242 12.6099C124.74 15.9769 126.682 17.1063 126.764 17.1578C126.931 17.2511 127.126 17.2739 127.309 17.2214C127.492 17.1688 127.647 17.0452 127.74 16.8774C127.835 16.708 127.861 16.5072 127.811 16.3189C127.761 16.1305 127.639 15.97 127.473 15.8723Z" fill="#323232"/>
</g>
<defs>
<clipPath id="clip0_5295_1651">
<rect width="134" height="25" fill="white"/>
</clipPath>
</defs>
</svg>
