<svg width="146" height="52" viewBox="0 0 146 52" fill="none" xmlns="http://www.w3.org/2000/svg">
<path d="M67.9537 14.7363C66.7999 14.7363 65.8584 14.3753 65.1292 13.6532C64.4072 12.9312 64.0462 12.0109 64.0462 10.8925C64.0462 9.82354 64.4178 8.91744 65.1611 8.17415C65.9044 7.42378 66.8317 7.0486 67.9431 7.0486C68.5873 7.0486 69.1324 7.13355 69.5783 7.30344C70.0243 7.46626 70.4526 7.7211 70.8632 8.06796L69.8332 9.31032C69.5217 9.0484 69.2209 8.85726 68.9306 8.73692C68.6404 8.61658 68.2935 8.55641 67.89 8.55641C67.2954 8.55641 66.7893 8.78648 66.3716 9.24661C65.961 9.69966 65.7557 10.2483 65.7557 10.8925C65.7557 11.572 65.9646 12.1348 66.3822 12.5808C66.807 13.0267 67.3485 13.2497 68.0068 13.2497C68.6156 13.2497 69.1288 13.1011 69.5465 12.8038V11.7419H67.9006V10.3297H71.1286V13.5577C70.2013 14.3434 69.143 14.7363 67.9537 14.7363ZM77.5228 13.8762C76.9353 14.4496 76.2026 14.7363 75.3248 14.7363C74.447 14.7363 73.7143 14.4532 73.1268 13.8868C72.5463 13.3134 72.2561 12.6091 72.2561 11.7738C72.2561 10.9455 72.5499 10.2447 73.1374 9.67134C73.732 9.09795 74.4682 8.81125 75.346 8.81125C76.2238 8.81125 76.9529 9.09795 77.5334 9.67134C78.121 10.2377 78.4147 10.9385 78.4147 11.7738C78.4147 12.602 78.1174 13.3028 77.5228 13.8762ZM75.346 13.3453C75.792 13.3453 76.1495 13.1966 76.4185 12.8993C76.6875 12.5949 76.822 12.2198 76.822 11.7738C76.822 11.342 76.6804 10.9739 76.3973 10.6695C76.1212 10.358 75.7637 10.2023 75.3248 10.2023C74.8788 10.2023 74.5213 10.3545 74.2523 10.6588C73.9833 10.9562 73.8488 11.3278 73.8488 11.7738C73.8488 12.2056 73.9869 12.5772 74.263 12.8887C74.5461 13.1931 74.9071 13.3453 75.346 13.3453ZM84.5741 13.8762C83.9865 14.4496 83.2539 14.7363 82.3761 14.7363C81.4983 14.7363 80.7656 14.4532 80.1781 13.8868C79.5976 13.3134 79.3074 12.6091 79.3074 11.7738C79.3074 10.9455 79.6011 10.2447 80.1887 9.67134C80.7833 9.09795 81.5195 8.81125 82.3973 8.81125C83.2751 8.81125 84.0042 9.09795 84.5847 9.67134C85.1722 10.2377 85.466 10.9385 85.466 11.7738C85.466 12.602 85.1687 13.3028 84.5741 13.8762ZM82.3973 13.3453C82.8433 13.3453 83.2008 13.1966 83.4698 12.8993C83.7388 12.5949 83.8733 12.2198 83.8733 11.7738C83.8733 11.342 83.7317 10.9739 83.4485 10.6695C83.1724 10.358 82.815 10.2023 82.3761 10.2023C81.9301 10.2023 81.5726 10.3545 81.3036 10.6588C81.0346 10.9562 80.9001 11.3278 80.9001 11.7738C80.9001 12.2056 81.0381 12.5772 81.3142 12.8887C81.5974 13.1931 81.9584 13.3453 82.3973 13.3453ZM88.9707 14.7151C88.2629 14.7151 87.6541 14.4496 87.1444 13.9187C86.6347 13.3878 86.3799 12.6657 86.3799 11.7525C86.3799 10.8464 86.6312 10.1315 87.1338 9.60763C87.6434 9.07671 88.2558 8.81125 88.9707 8.81125C89.6786 8.81125 90.2697 9.09441 90.744 9.66072V6.85747H92.358V14.6089H90.744V13.7913C90.291 14.4071 89.6999 14.7151 88.9707 14.7151ZM88.3973 12.9099C88.6663 13.2002 88.9955 13.3453 89.3849 13.3453C89.7742 13.3453 90.0998 13.2002 90.3618 12.9099C90.6307 12.6126 90.7652 12.2268 90.7652 11.7525C90.7652 11.2924 90.6307 10.9172 90.3618 10.627C90.0998 10.3297 89.7742 10.181 89.3849 10.181C88.9955 10.181 88.6663 10.3297 88.3973 10.627C88.1284 10.9172 87.9939 11.2995 87.9939 11.7738C87.9939 12.2339 88.1284 12.6126 88.3973 12.9099ZM97.1534 14.6089V7.17602H100.052C101.213 7.17602 102.162 7.52997 102.898 8.23786C103.634 8.93867 104.002 9.82354 104.002 10.8925C104.002 11.9543 103.631 12.8392 102.887 13.547C102.151 14.2549 101.206 14.6089 100.052 14.6089H97.1534ZM98.7886 13.1329H100.052C100.725 13.1329 101.266 12.9276 101.677 12.5171C102.087 12.0994 102.293 11.5579 102.293 10.8925C102.293 10.2341 102.084 9.69612 101.666 9.27846C101.256 8.8608 100.718 8.65198 100.052 8.65198H98.7886V13.1329ZM107.987 14.7363C107.123 14.7363 106.411 14.4638 105.852 13.9187C105.293 13.3665 105.013 12.6516 105.013 11.7738C105.013 10.9455 105.279 10.2447 105.81 9.67134C106.341 9.09795 107.013 8.81125 107.827 8.81125C108.726 8.81125 109.413 9.10857 109.887 9.7032C110.361 10.2978 110.599 11.0305 110.599 11.9012C110.599 11.9861 110.592 12.1277 110.577 12.3259H106.617C106.695 12.687 106.854 12.963 107.095 13.1542C107.335 13.3453 107.64 13.4409 108.008 13.4409C108.51 13.4409 108.97 13.2462 109.388 12.8569L110.312 13.6745C109.739 14.3824 108.963 14.7363 107.987 14.7363ZM106.596 11.3172H109.027C108.978 10.9491 108.847 10.6553 108.634 10.4359C108.429 10.2164 108.16 10.1067 107.827 10.1067C107.502 10.1067 107.229 10.2164 107.01 10.4359C106.797 10.6482 106.659 10.942 106.596 11.3172ZM113.798 14.7151C112.899 14.7151 112.085 14.4284 111.356 13.855L112.046 12.7931C112.669 13.2462 113.267 13.4727 113.84 13.4727C114.293 13.4727 114.52 13.3241 114.52 13.0267C114.52 12.9914 114.513 12.956 114.499 12.9206C114.491 12.8852 114.474 12.8533 114.445 12.825C114.417 12.7967 114.385 12.7719 114.35 12.7507C114.322 12.7224 114.279 12.6976 114.222 12.6763C114.173 12.648 114.127 12.6268 114.084 12.6126C114.049 12.5914 113.996 12.5702 113.925 12.5489C113.854 12.5206 113.794 12.4994 113.745 12.4852C113.695 12.4711 113.628 12.4534 113.543 12.4321C113.458 12.4038 113.391 12.3826 113.341 12.3684C113.1 12.2976 112.895 12.2268 112.725 12.156C112.562 12.0782 112.389 11.9755 112.205 11.8481C112.021 11.7136 111.879 11.5473 111.78 11.349C111.688 11.1438 111.642 10.9066 111.642 10.6376C111.642 10.0784 111.84 9.63949 112.237 9.32093C112.633 8.9953 113.129 8.83249 113.723 8.83249C114.488 8.83249 115.196 9.05193 115.847 9.49083L115.231 10.6058C114.63 10.2518 114.116 10.0748 113.692 10.0748C113.295 10.0748 113.097 10.2129 113.097 10.489C113.097 10.6801 113.423 10.8854 114.074 11.1048C114.152 11.1331 114.212 11.1544 114.254 11.1685C114.445 11.2322 114.608 11.2924 114.743 11.349C114.877 11.4057 115.029 11.4835 115.199 11.5826C115.369 11.6818 115.504 11.7879 115.603 11.9012C115.709 12.0074 115.798 12.1454 115.868 12.3153C115.939 12.4852 115.975 12.6728 115.975 12.8781C115.975 13.4869 115.773 13.947 115.369 14.2585C114.973 14.5629 114.449 14.7151 113.798 14.7151ZM117.163 8.29095V6.85747H118.862V8.29095H117.163ZM117.206 14.6089V8.91744H118.82V14.6089H117.206ZM122.884 16.3291C121.957 16.3291 121.118 16.1309 120.367 15.7344L120.92 14.5239C121.535 14.8708 122.176 15.0442 122.842 15.0442C123.925 15.0442 124.466 14.5275 124.466 13.494V13.2179C124.211 13.5294 123.939 13.763 123.649 13.9187C123.365 14.0673 123.019 14.1417 122.608 14.1417C121.907 14.1417 121.309 13.901 120.813 13.4196C120.325 12.9383 120.081 12.287 120.081 11.4658C120.081 10.6518 120.329 10.0076 120.824 9.5333C121.32 9.05194 121.914 8.81125 122.608 8.81125C123.316 8.81125 123.928 9.09441 124.445 9.66072V8.91744H126.059V13.3241C126.059 14.3363 125.818 15.0832 125.337 15.5645C124.827 16.0742 124.01 16.3291 122.884 16.3291ZM122.088 12.4427C122.35 12.6834 122.679 12.8038 123.075 12.8038C123.472 12.8038 123.801 12.6799 124.063 12.4321C124.332 12.1844 124.466 11.8623 124.466 11.4658C124.466 11.0836 124.332 10.7686 124.063 10.5208C123.801 10.273 123.472 10.1492 123.075 10.1492C122.679 10.1492 122.35 10.273 122.088 10.5208C121.826 10.7686 121.695 11.0907 121.695 11.4871C121.695 11.8764 121.826 12.195 122.088 12.4427ZM127.501 14.6089V8.91744H129.115V9.72443C129.589 9.11565 130.145 8.81125 130.782 8.81125C131.391 8.81125 131.865 8.99884 132.205 9.37403C132.545 9.74921 132.715 10.266 132.715 10.9243V14.6089H131.101V11.434C131.101 11.0588 131.016 10.7721 130.846 10.5739C130.676 10.3757 130.435 10.2766 130.124 10.2766C129.812 10.2766 129.564 10.3757 129.38 10.5739C129.203 10.7721 129.115 11.0588 129.115 11.434V14.6089H127.501Z" fill="#1E1E1C"/>
<path d="M63.7382 27.2988L66.9238 19.8129H68.4316L71.6171 27.2988H69.9075L69.2279 25.6317H66.0849L65.4053 27.2988H63.7382ZM66.6689 24.1876H68.6439L67.6564 21.7773L66.6689 24.1876ZM73.2985 27.3413L71.5465 21.6074H73.1817L74.0949 25.0584L75.1673 21.5861H76.5584L77.6414 25.069L78.5758 21.6074H80.1792L78.406 27.3413H76.9512L75.8575 23.8479L74.7426 27.3413H73.2985ZM82.5662 27.405C82.007 27.405 81.5398 27.2493 81.1646 26.9378C80.7965 26.6263 80.6124 26.1945 80.6124 25.6424C80.6124 25.0407 80.8177 24.5876 81.2283 24.2832C81.6459 23.9788 82.2052 23.8266 82.906 23.8266C83.3803 23.8266 83.8439 23.9045 84.297 24.0602V23.9647C84.297 23.2709 83.89 22.9241 83.0759 22.9241C82.5874 22.9241 82.0636 23.0267 81.5044 23.232L81.1009 22.0003C81.7946 21.6959 82.5308 21.5437 83.3095 21.5437C84.166 21.5437 84.8067 21.756 85.2314 22.1808C85.642 22.5913 85.8473 23.1966 85.8473 23.9965V27.2988H84.2864V26.683C83.8546 27.1643 83.2812 27.405 82.5662 27.405ZM83.0546 26.2901C83.4298 26.2901 83.7342 26.1981 83.9678 26.014C84.2014 25.8229 84.3182 25.5822 84.3182 25.292V25.0053C84.0138 24.8637 83.6705 24.7929 83.2883 24.7929C82.9343 24.7929 82.6582 24.8637 82.46 25.0053C82.2689 25.1398 82.1733 25.338 82.1733 25.5999C82.1733 25.8123 82.2547 25.9821 82.4175 26.1096C82.5804 26.2299 82.7927 26.2901 83.0546 26.2901ZM87.2361 27.2988V21.6074H88.8501V22.7542C89.2182 21.8835 89.8235 21.4658 90.6659 21.5012V23.1895H90.5809C90.0288 23.1895 89.6005 23.3594 89.2961 23.6992C88.9988 24.0319 88.8501 24.531 88.8501 25.1964V27.2988H87.2361ZM93.9066 27.405C93.1987 27.405 92.5899 27.1396 92.0803 26.6086C91.5706 26.0777 91.3157 25.3557 91.3157 24.4425C91.3157 23.5364 91.567 22.8214 92.0696 22.2976C92.5793 21.7667 93.1917 21.5012 93.9066 21.5012C94.6145 21.5012 95.2056 21.7844 95.6799 22.3507V19.5474H97.2939V27.2988H95.6799V26.4812C95.2268 27.0971 94.6358 27.405 93.9066 27.405ZM93.3332 25.5999C93.6022 25.8901 93.9314 26.0352 94.3207 26.0352C94.7101 26.0352 95.0357 25.8901 95.2976 25.5999C95.5666 25.3026 95.7011 24.9168 95.7011 24.4425C95.7011 23.9824 95.5666 23.6072 95.2976 23.3169C95.0357 23.0196 94.7101 22.871 94.3207 22.871C93.9314 22.871 93.6022 23.0196 93.3332 23.3169C93.0642 23.6072 92.9297 23.9894 92.9297 24.4637C92.9297 24.9239 93.0642 25.3026 93.3332 25.5999ZM101.718 27.2988V26.0034L104.192 23.9753C104.68 23.5718 105.016 23.2497 105.2 23.009C105.384 22.7612 105.477 22.4887 105.477 22.1914C105.477 21.887 105.384 21.6499 105.2 21.48C105.016 21.3101 104.776 21.2251 104.478 21.2251C104.202 21.2251 103.951 21.303 103.724 21.4587C103.505 21.6074 103.25 21.8622 102.96 22.2232L101.813 21.2994C102.203 20.7685 102.602 20.3792 103.013 20.1314C103.431 19.8837 103.955 19.7598 104.585 19.7598C105.356 19.7598 105.976 19.9721 106.443 20.3969C106.91 20.8145 107.144 21.3738 107.144 22.0746C107.144 22.4781 107.066 22.8426 106.91 23.1683C106.754 23.4868 106.553 23.77 106.305 24.0177C106.057 24.2584 105.685 24.5699 105.19 24.9522L103.979 25.8866H107.218V27.2988H101.718ZM114.067 26.3326C113.451 27.0617 112.655 27.4262 111.678 27.4262C110.701 27.4262 109.908 27.0617 109.3 26.3326C108.691 25.6034 108.386 24.6867 108.386 23.5824C108.386 22.4852 108.694 21.572 109.31 20.8429C109.926 20.1066 110.722 19.7385 111.699 19.7385C112.669 19.7385 113.458 20.1031 114.067 20.8322C114.683 21.5614 114.991 22.4781 114.991 23.5824C114.991 24.6796 114.683 25.5963 114.067 26.3326ZM110.51 25.2813C110.815 25.7273 111.211 25.9503 111.699 25.9503C112.188 25.9503 112.577 25.7308 112.867 25.292C113.165 24.846 113.313 24.2761 113.313 23.5824C113.313 22.9028 113.161 22.34 112.857 21.8941C112.552 21.441 112.16 21.2145 111.678 21.2145C111.197 21.2145 110.807 21.4375 110.51 21.8835C110.213 22.3223 110.064 22.8887 110.064 23.5824C110.064 24.2691 110.213 24.8354 110.51 25.2813ZM115.986 27.2988V26.0034L118.46 23.9753C118.949 23.5718 119.285 23.2497 119.469 23.009C119.653 22.7612 119.745 22.4887 119.745 22.1914C119.745 21.887 119.653 21.6499 119.469 21.48C119.285 21.3101 119.044 21.2251 118.747 21.2251C118.471 21.2251 118.219 21.303 117.993 21.4587C117.773 21.6074 117.519 21.8622 117.228 22.2232L116.082 21.2994C116.471 20.7685 116.871 20.3792 117.281 20.1314C117.699 19.8837 118.223 19.7598 118.853 19.7598C119.625 19.7598 120.244 19.9721 120.711 20.3969C121.178 20.8145 121.412 21.3738 121.412 22.0746C121.412 22.4781 121.334 22.8426 121.178 23.1683C121.023 23.4868 120.821 23.77 120.573 24.0177C120.325 24.2584 119.954 24.5699 119.458 24.9522L118.248 25.8866H121.486V27.2988H115.986ZM122.602 27.2988V26.0034L125.076 23.9753C125.564 23.5718 125.901 23.2497 126.085 23.009C126.269 22.7612 126.361 22.4887 126.361 22.1914C126.361 21.887 126.269 21.6499 126.085 21.48C125.901 21.3101 125.66 21.2251 125.363 21.2251C125.087 21.2251 124.835 21.303 124.609 21.4587C124.389 21.6074 124.134 21.8622 123.844 22.2232L122.697 21.2994C123.087 20.7685 123.487 20.3792 123.897 20.1314C124.315 19.8837 124.839 19.7598 125.469 19.7598C126.24 19.7598 126.86 19.9721 127.327 20.3969C127.794 20.8145 128.028 21.3738 128.028 22.0746C128.028 22.4781 127.95 22.8426 127.794 23.1683C127.638 23.4868 127.437 23.77 127.189 24.0177C126.941 24.2584 126.57 24.5699 126.074 24.9522L124.864 25.8866H128.102V27.2988H122.602Z" fill="#1E1E1C"/>
<path d="M64.5346 39.9741V32.5413H67.3166C68.1661 32.5413 68.8421 32.7536 69.3447 33.1784C69.8473 33.6031 70.0986 34.1836 70.0986 34.9198C70.0986 35.6914 69.819 36.2895 69.2598 36.7143C68.7076 37.139 68.0139 37.3514 67.1786 37.3514H65.3735V39.9741H64.5346ZM65.3735 36.5869H67.2104C67.8263 36.5869 68.3183 36.4382 68.6864 36.1409C69.0616 35.8365 69.2492 35.433 69.2492 34.9304C69.2492 34.4136 69.0687 34.0172 68.7076 33.7411C68.3537 33.458 67.8688 33.3164 67.2529 33.3164H65.3735V36.5869ZM71.4893 39.9741V34.4844H72.3069V35.9179C72.5193 35.4436 72.8202 35.0649 73.2095 34.7817C73.5988 34.4986 74.0448 34.3676 74.5474 34.3889V35.2702H74.4837C73.8537 35.2702 73.3334 35.4896 72.9228 35.9285C72.5122 36.3674 72.3069 36.9868 72.3069 37.7867V39.9741H71.4893ZM80.1095 39.2627C79.5573 39.8219 78.8742 40.1015 78.0601 40.1015C77.246 40.1015 76.5665 39.8219 76.0214 39.2627C75.4834 38.7035 75.2144 38.0274 75.2144 37.2346C75.2144 36.4488 75.4869 35.7763 76.032 35.2171C76.5842 34.6508 77.2673 34.3676 78.0813 34.3676C78.8954 34.3676 79.575 34.6472 80.1201 35.2065C80.6652 35.7657 80.9377 36.4417 80.9377 37.2346C80.9377 38.0203 80.6616 38.6964 80.1095 39.2627ZM78.0813 39.3689C78.6689 39.3689 79.1503 39.1636 79.5254 38.753C79.9077 38.3424 80.0988 37.8363 80.0988 37.2346C80.0988 36.64 79.9006 36.1338 79.5042 35.7162C79.1149 35.2985 78.6335 35.0897 78.0601 35.0897C77.4726 35.0897 76.9912 35.2985 76.616 35.7162C76.2408 36.1267 76.0532 36.6329 76.0532 37.2346C76.0532 37.8292 76.2479 38.3354 76.6372 38.753C77.0266 39.1636 77.508 39.3689 78.0813 39.3689ZM84.723 40.0909C84.0222 40.0909 83.4098 39.8325 82.886 39.3158C82.3622 38.7919 82.1002 38.0947 82.1002 37.224C82.1002 36.3674 82.3622 35.6772 82.886 35.1534C83.4098 34.6295 84.0222 34.3676 84.723 34.3676C85.5866 34.3676 86.2874 34.757 86.8254 35.5356V32.2227H87.643V39.9741H86.8254V38.8698C86.2733 39.6839 85.5724 40.0909 84.723 40.0909ZM84.8716 39.3583C85.4026 39.3583 85.8662 39.1565 86.2626 38.753C86.6591 38.3495 86.8573 37.8363 86.8573 37.2133C86.8573 36.6046 86.6591 36.102 86.2626 35.7055C85.8662 35.302 85.4026 35.1003 84.8716 35.1003C84.3195 35.1003 83.8593 35.295 83.4912 35.6843C83.1231 36.0666 82.9391 36.5833 82.9391 37.2346C82.9391 37.8646 83.1267 38.3778 83.5019 38.7742C83.877 39.1636 84.3336 39.3583 84.8716 39.3583ZM91.4875 40.0909C90.8363 40.0909 90.3231 39.8927 89.9479 39.4963C89.5727 39.0928 89.3851 38.5583 89.3851 37.8929V34.4844H90.2027V37.6912C90.2027 38.2079 90.3337 38.615 90.5956 38.9123C90.8646 39.2025 91.2398 39.3476 91.7212 39.3476C92.1954 39.3476 92.5883 39.1884 92.8998 38.8698C93.2113 38.5513 93.367 38.1371 93.367 37.6275V34.4844H94.174V39.9741H93.367V39.0185C92.921 39.7334 92.2945 40.0909 91.4875 40.0909ZM98.4873 40.1015C97.6945 40.1015 97.0255 39.8219 96.4804 39.2627C95.9424 38.6964 95.6734 38.0203 95.6734 37.2346C95.6734 36.4488 95.9424 35.7763 96.4804 35.2171C97.0255 34.6508 97.6945 34.3676 98.4873 34.3676C99.3368 34.3676 100.069 34.6932 100.685 35.3445L100.165 35.8967C99.6553 35.3587 99.0925 35.0897 98.4767 35.0897C97.9245 35.0897 97.4573 35.2985 97.0751 35.7162C96.6999 36.1267 96.5123 36.6329 96.5123 37.2346C96.5123 37.8292 96.7034 38.3354 97.0857 38.753C97.475 39.1636 97.9564 39.3689 98.5298 39.3689C99.1173 39.3689 99.6695 39.0928 100.186 38.5406L100.728 39.0397C100.091 39.7476 99.3438 40.1015 98.4873 40.1015ZM103.916 40.0697C103.442 40.0697 103.063 39.9458 102.78 39.698C102.504 39.4432 102.366 39.0503 102.366 38.5194V35.2065H101.602V34.4844H102.366V32.828H103.184V34.4844H104.925V35.2065H103.184V38.4132C103.184 39.022 103.492 39.3264 104.107 39.3264C104.376 39.3264 104.642 39.2627 104.904 39.1353V39.8361C104.607 39.9918 104.277 40.0697 103.916 40.0697ZM109.694 39.9741V32.5413H112.274C113.435 32.5413 114.384 32.8952 115.12 33.6031C115.856 34.3039 116.224 35.1888 116.224 36.2577C116.224 37.3195 115.852 38.2044 115.109 38.9123C114.373 39.6202 113.428 39.9741 112.274 39.9741H109.694ZM110.533 39.199H112.274C113.201 39.199 113.945 38.9229 114.504 38.3707C115.07 37.8115 115.353 37.1072 115.353 36.2577C115.353 35.4153 115.07 34.7145 114.504 34.1552C113.938 33.596 113.194 33.3164 112.274 33.3164H110.533V39.199ZM118.35 37.5637C118.407 38.123 118.616 38.569 118.977 38.9017C119.345 39.2273 119.78 39.3901 120.283 39.3901C120.941 39.3901 121.518 39.1317 122.014 38.615L122.523 39.0716C121.907 39.7582 121.153 40.1015 120.262 40.1015C119.49 40.1015 118.839 39.8361 118.308 39.3052C117.784 38.7672 117.522 38.077 117.522 37.2346C117.522 36.4347 117.773 35.7586 118.276 35.2065C118.778 34.6472 119.405 34.3676 120.155 34.3676C120.941 34.3676 121.564 34.6437 122.024 35.1959C122.484 35.748 122.714 36.4417 122.714 37.2771C122.714 37.3832 122.711 37.4788 122.704 37.5637H118.35ZM118.35 36.9054H121.886C121.837 36.3745 121.66 35.9356 121.355 35.5887C121.058 35.2348 120.651 35.0578 120.134 35.0578C119.667 35.0578 119.267 35.2312 118.934 35.5781C118.602 35.925 118.407 36.3674 118.35 36.9054ZM125.961 40.0803C125.565 40.0803 125.162 40.0095 124.751 39.8679C124.347 39.7193 123.994 39.5211 123.689 39.2733L124.103 38.6893C124.726 39.1565 125.36 39.3901 126.004 39.3901C126.337 39.3901 126.609 39.3087 126.822 39.1459C127.034 38.9831 127.14 38.7672 127.14 38.4982C127.14 38.2504 127.023 38.0593 126.79 37.9248C126.563 37.7903 126.223 37.6593 125.77 37.5319C125.494 37.454 125.275 37.3832 125.112 37.3195C124.949 37.2558 124.765 37.1673 124.56 37.0541C124.355 36.9337 124.202 36.7851 124.103 36.6081C124.004 36.424 123.955 36.2081 123.955 35.9604C123.955 35.4932 124.128 35.1144 124.475 34.8242C124.829 34.534 125.278 34.3889 125.823 34.3889C126.531 34.3889 127.19 34.5906 127.798 34.9941L127.427 35.61C126.882 35.256 126.34 35.079 125.802 35.079C125.484 35.079 125.225 35.1569 125.027 35.3127C124.836 35.4613 124.74 35.656 124.74 35.8967C124.74 35.9958 124.769 36.0878 124.825 36.1727C124.882 36.2577 124.946 36.3285 125.016 36.3851C125.087 36.4417 125.197 36.5019 125.346 36.5656C125.501 36.6293 125.625 36.6753 125.717 36.7037C125.809 36.732 125.954 36.778 126.153 36.8417C126.414 36.9196 126.63 36.9939 126.8 37.0647C126.97 37.1355 127.151 37.231 127.342 37.3514C127.533 37.4717 127.675 37.6239 127.767 37.808C127.866 37.9849 127.915 38.1938 127.915 38.4345C127.915 38.9441 127.731 39.3476 127.363 39.645C126.995 39.9352 126.528 40.0803 125.961 40.0803ZM129.455 33.2845V32.382H130.39V33.2845H129.455ZM129.508 39.9741V34.4844H130.326V39.9741H129.508ZM134.655 41.6943C133.728 41.6943 132.896 41.4395 132.16 40.9298L132.531 40.2927C133.176 40.7599 133.88 40.9935 134.645 40.9935C135.26 40.9935 135.745 40.8236 136.099 40.4838C136.46 40.1511 136.641 39.6697 136.641 39.0397V38.392C136.06 39.1636 135.342 39.5494 134.485 39.5494C133.792 39.5494 133.186 39.3122 132.67 38.838C132.16 38.3566 131.905 37.7301 131.905 36.9585C131.905 36.1869 132.163 35.564 132.68 35.0897C133.197 34.6083 133.799 34.3676 134.485 34.3676C135.363 34.3676 136.078 34.7357 136.63 35.4719V34.4844H137.448V39.0185C137.448 39.8467 137.214 40.4944 136.747 40.9616C136.259 41.4501 135.561 41.6943 134.655 41.6943ZM134.645 38.8273C135.183 38.8273 135.653 38.6504 136.057 38.2964C136.46 37.9425 136.662 37.493 136.662 36.9479C136.662 36.4028 136.46 35.9568 136.057 35.61C135.66 35.2631 135.19 35.0897 134.645 35.0897C134.107 35.0897 133.653 35.2631 133.285 35.61C132.924 35.9498 132.744 36.3993 132.744 36.9585C132.744 37.4965 132.928 37.9425 133.296 38.2964C133.671 38.6504 134.121 38.8273 134.645 38.8273ZM139.275 39.9741V34.4844H140.092V35.4401C140.524 34.7251 141.151 34.3676 141.972 34.3676C142.623 34.3676 143.136 34.5694 143.512 34.9729C143.887 35.3693 144.074 35.9002 144.074 36.5656V39.9741H143.257V36.7674C143.257 36.2506 143.122 35.8471 142.853 35.5569C142.591 35.2596 142.22 35.1109 141.738 35.1109C141.264 35.1109 140.871 35.2702 140.56 35.5887C140.248 35.9073 140.092 36.3214 140.092 36.8311V39.9741H139.275Z" fill="#1E1E1C"/>
<path d="M51.0462 0.96875H0.104492V51.9104H51.0462V0.96875Z" fill="#BCBCBC"/>
<path d="M25.5742 46.8125C36.8265 46.8125 45.9482 37.6907 45.9482 26.4385C45.9482 15.1862 36.8265 6.06445 25.5742 6.06445C14.322 6.06445 5.2002 15.1862 5.2002 26.4385C5.2002 37.6907 14.322 46.8125 25.5742 46.8125Z" fill="#0C1213"/>
<path d="M20.4915 32.6507H17.8369V27.5273H20.4915V28.4697H18.8988V29.2926H20.4915V30.3545H18.8988V31.5225H20.4915V32.6507Z" fill="white"/>
<path d="M33.1162 29.7834V30.7524H34.324C34.2651 31.0134 34.1202 31.2471 33.9125 31.416C33.6637 31.6356 33.3417 31.7539 33.01 31.7478C32.5617 31.7374 32.1357 31.5501 31.8249 31.2269C31.5141 30.9037 31.3437 30.4707 31.3509 30.0224C31.3441 29.794 31.3841 29.5666 31.4686 29.3543C31.553 29.142 31.6801 28.9493 31.842 28.788C31.9996 28.6241 32.1895 28.4947 32.3997 28.4079C32.6099 28.3211 32.8357 28.2788 33.0631 28.2836C33.3401 28.2872 33.6126 28.355 33.859 28.4817C34.1054 28.6083 34.3191 28.7904 34.4833 29.0136L35.1868 28.3632C34.9068 28.0352 34.5694 27.7609 34.1913 27.5536C33.8318 27.3947 33.4429 27.3133 33.0498 27.3147C32.6946 27.304 32.3408 27.3648 32.0095 27.4934C31.6781 27.622 31.376 27.8159 31.121 28.0635C30.866 28.311 30.6633 28.6073 30.525 28.9347C30.3866 29.262 30.3154 29.6139 30.3156 29.9693C30.3118 30.324 30.3791 30.6759 30.5136 31.0042C30.6481 31.3325 30.8471 31.6305 31.0987 31.8806C31.3408 32.1363 31.6332 32.3392 31.9576 32.4762C32.282 32.6133 32.6313 32.6816 32.9834 32.677C33.3345 32.6839 33.6828 32.6138 34.0038 32.4717C34.3249 32.3295 34.6109 32.1187 34.8417 31.854C35.0465 31.6233 35.2003 31.3519 35.2929 31.0576C35.3925 30.7217 35.4417 30.3728 35.439 30.0224V29.7304L33.1162 29.7834Z" fill="white"/>
<path d="M13.0746 32.7303H11.8535V27.514H13.0879C13.536 27.4965 13.984 27.5502 14.4152 27.6732C14.7609 27.7712 15.0791 27.9484 15.3443 28.1909C15.6095 28.4392 15.8209 28.7393 15.9655 29.0726C16.11 29.406 16.1846 29.7654 16.1846 30.1288C16.1846 30.4921 16.11 30.8515 15.9655 31.1849C15.8209 31.5182 15.6095 31.8183 15.3443 32.0666C15.0703 32.2967 14.755 32.4723 14.4152 32.5843C13.9784 32.701 13.5263 32.7502 13.0746 32.7303ZM12.9286 31.748H13.141C13.4184 31.7571 13.6955 31.7258 13.9639 31.6551C14.1786 31.5842 14.3771 31.4714 14.5479 31.3233C14.7144 31.1692 14.8472 30.9824 14.938 30.7746C15.0289 30.5667 15.0758 30.3423 15.0758 30.1155C15.0758 29.8886 15.0289 29.6643 14.938 29.4564C14.8472 29.2486 14.7144 29.0617 14.5479 28.9076C14.1478 28.5965 13.6464 28.4452 13.141 28.4829H12.9286V31.748Z" fill="white"/>
<path d="M28.6562 27.5127H27.3555V32.729H28.6562V27.5127Z" fill="white"/>
<path d="M26.3333 25.6818C25.6958 25.6818 25.081 25.4453 24.6078 25.0181C24.3479 24.7829 24.1388 24.4972 23.9932 24.1783C23.8477 23.8594 23.7688 23.5142 23.7613 23.1638C23.7539 22.8134 23.818 22.4651 23.9499 22.1404C24.0817 21.8156 24.2785 21.5212 24.5281 21.2752C25.0225 20.8006 25.6812 20.5356 26.3664 20.5356C27.0517 20.5356 27.7104 20.8006 28.2047 21.2752C28.4482 21.5106 28.641 21.7934 28.7711 22.1061C28.9012 22.4188 28.966 22.7549 28.9613 23.0936C28.9677 23.4357 28.9025 23.7753 28.7699 24.0907C28.6373 24.4062 28.4403 24.6904 28.1915 24.9252C27.9481 25.1693 27.6583 25.362 27.3391 25.4919C27.0199 25.6219 26.6779 25.6865 26.3333 25.6818ZM26.3333 21.5539C26.1323 21.5488 25.9326 21.5863 25.7472 21.6641C25.5619 21.7419 25.3952 21.8582 25.2581 22.0052C25.1145 22.1469 25.0015 22.3167 24.9261 22.5039C24.8508 22.6911 24.8147 22.8918 24.8201 23.0936C24.811 23.3009 24.8466 23.5078 24.9244 23.7001C25.0023 23.8925 25.1206 24.0659 25.2714 24.2085C25.4066 24.3498 25.5696 24.4616 25.75 24.5369C25.9304 24.6123 26.1245 24.6496 26.32 24.6465C26.6282 24.6479 26.9298 24.5576 27.1865 24.3871C27.4432 24.2165 27.6433 23.9735 27.7615 23.6888C27.8796 23.4042 27.9104 23.0908 27.8498 22.7886C27.7893 22.4865 27.6403 22.2091 27.4216 21.9919C27.2844 21.8496 27.1193 21.7373 26.9365 21.6619C26.7538 21.5865 26.5574 21.5498 26.3598 21.5539H26.3333Z" fill="white"/>
<path d="M33.2092 25.6807C32.5717 25.6807 31.9569 25.4442 31.4837 25.017C31.2239 24.7818 31.0148 24.496 30.8692 24.1772C30.7237 23.8583 30.6448 23.5131 30.6373 23.1627C30.6298 22.8123 30.694 22.464 30.8259 22.1393C30.9577 21.8145 31.1545 21.5201 31.4041 21.274C31.644 21.0291 31.9314 20.8357 32.2486 20.7057C32.5658 20.5756 32.9062 20.5115 33.249 20.5175C33.7631 20.513 34.2668 20.6626 34.6952 20.9469C35.1235 21.2312 35.457 21.6372 35.6526 22.1126C35.8482 22.5881 35.897 23.1112 35.7927 23.6146C35.6884 24.1181 35.4358 24.5787 35.0675 24.9374C34.5687 25.4181 33.9019 25.6848 33.2092 25.6807ZM33.2092 21.5528C33.0082 21.5468 32.8082 21.5839 32.6227 21.6618C32.4373 21.7396 32.2706 21.8563 32.1341 22.004C31.9861 22.1431 31.8693 22.3121 31.7915 22.4997C31.7137 22.6874 31.6767 22.8894 31.6828 23.0924C31.6762 23.3007 31.7143 23.5079 31.7944 23.7002C31.8745 23.8925 31.9949 24.0654 32.1474 24.2074C32.2826 24.3486 32.4455 24.4604 32.626 24.5358C32.8064 24.6112 33.0004 24.6485 33.196 24.6454C33.3985 24.649 33.5997 24.6116 33.7875 24.5353C33.9752 24.4591 34.1455 24.3456 34.2882 24.2017C34.4308 24.0578 34.5428 23.8865 34.6175 23.6982C34.6921 23.5098 34.7278 23.3082 34.7223 23.1057C34.7288 22.9018 34.6933 22.6988 34.6179 22.5093C34.5426 22.3198 34.429 22.1478 34.2843 22.004C34.1503 21.8604 33.9879 21.7461 33.8074 21.6684C33.6269 21.5907 33.4323 21.5514 33.2358 21.5528H33.2092Z" fill="white"/>
<path d="M19.8437 22.8818V23.8109H21.0249C20.9733 24.0676 20.8263 24.2953 20.6135 24.448C20.4029 24.6259 20.1321 24.7162 19.8569 24.7002C19.6652 24.7102 19.4734 24.6813 19.2932 24.6151C19.113 24.549 18.948 24.4469 18.8084 24.3152C18.6344 24.1671 18.4963 23.9814 18.4043 23.7722C18.3124 23.5631 18.269 23.3358 18.2774 23.1074C18.2715 22.8882 18.3108 22.6702 18.3931 22.4669C18.4753 22.2636 18.5986 22.0795 18.7553 21.9261C18.9091 21.7701 19.0933 21.6472 19.2965 21.565C19.4997 21.4828 19.7175 21.4431 19.9366 21.4483C20.1832 21.4529 20.4249 21.5184 20.6402 21.6388C20.8555 21.7591 21.0378 21.9308 21.1709 22.1385L21.8479 21.5146C21.5804 21.2004 21.2562 20.9393 20.8922 20.7448C20.5423 20.5854 20.1618 20.5038 19.7773 20.5059C19.0782 20.5018 18.4057 20.7737 17.9058 21.2625C17.6581 21.5038 17.4621 21.793 17.3298 22.1124C17.1974 22.4319 17.1315 22.7749 17.136 23.1207C17.1394 23.8025 17.4119 24.4555 17.894 24.9376C18.3761 25.4197 19.0291 25.6921 19.7109 25.6956C20.0507 25.7043 20.3882 25.6387 20.6999 25.5034C21.0117 25.3682 21.2902 25.1665 21.516 24.9125C21.715 24.6927 21.8684 24.4355 21.9673 24.156C22.0558 23.8316 22.1004 23.4968 22.1001 23.1605V22.8818H19.8437Z" fill="white"/>
<path d="M38.7172 25.7095H37.4961V20.5065H38.7305C39.1779 20.4847 39.6259 20.5339 40.0578 20.6525C40.4001 20.7585 40.7166 20.9348 40.9869 21.1702C41.3301 21.4744 41.5859 21.8649 41.7276 22.3011C41.8694 22.7374 41.892 23.2036 41.7932 23.6515C41.6945 24.0994 41.4778 24.5129 41.1657 24.849C40.8536 25.1851 40.4574 25.4318 40.018 25.5635C39.5944 25.6783 39.1557 25.7275 38.7172 25.7095ZM38.5712 24.7406H38.7836C39.0659 24.7449 39.3475 24.7091 39.6198 24.6344C39.8297 24.5681 40.0239 24.4597 40.1905 24.3158C40.3645 24.1677 40.5026 23.982 40.5946 23.7728C40.6865 23.5636 40.7299 23.3364 40.7214 23.108C40.7288 22.8791 40.6864 22.6513 40.597 22.4405C40.5076 22.2296 40.3734 22.0407 40.2038 21.8869C39.7955 21.583 39.2911 21.4368 38.7836 21.4754H38.6243L38.5712 24.7406Z" fill="white"/>
<path d="M40.8939 32.6507H42.1548V27.5273H40.9204V30.8323L38.3986 27.5273H37.0713V32.6507H38.319V29.3325L40.8939 32.6507Z" fill="white"/>
<path d="M23.5864 28.5753C23.5366 28.6131 23.4954 28.661 23.4656 28.7159C23.4359 28.7709 23.4182 28.8316 23.4138 28.8939C23.4138 28.8939 23.4139 29.1593 23.905 29.3452L24.4359 29.5443C24.8207 29.6608 25.1684 29.8759 25.4446 30.1681C25.6673 30.4203 25.7859 30.7476 25.7765 31.0839C25.7801 31.3097 25.7345 31.5335 25.6428 31.7398C25.5511 31.9461 25.4155 32.1299 25.2455 32.2785C24.8756 32.5934 24.4039 32.7632 23.9182 32.7563C23.2471 32.6994 22.6174 32.4081 22.1396 31.9334L22.7502 31.2299C23.0562 31.574 23.4853 31.7838 23.9448 31.8139C24.1352 31.8095 24.3181 31.7391 24.4624 31.6148C24.5325 31.5572 24.5882 31.484 24.6251 31.401C24.6619 31.3181 24.679 31.2277 24.6748 31.137C24.6899 31.067 24.6899 30.9946 24.6748 30.9247C24.6525 30.86 24.6163 30.8011 24.5686 30.7521C24.5088 30.6858 24.4367 30.6317 24.3562 30.5928C24.2557 30.5291 24.149 30.4758 24.0377 30.4336L23.52 30.2477C22.7369 29.9425 22.3387 29.4912 22.3387 28.9204C22.3436 28.7256 22.3913 28.5342 22.4785 28.3598C22.5656 28.1855 22.6901 28.0325 22.8431 27.9117C23.2017 27.6411 23.6417 27.5007 24.0908 27.5135C24.6235 27.5436 25.1336 27.7384 25.5508 28.071L24.9535 28.7346C24.9535 28.7346 24.1704 28.0444 23.5864 28.5753Z" fill="white"/>
</svg>
