<svg width="92" height="18" viewBox="0 0 92 18" fill="none" xmlns="http://www.w3.org/2000/svg">
<g clip-path="url(#clip0_277_12644)">
<path d="M23.9045 13.6062L22.2102 13.6123C19.0634 13.6123 17.7752 12.2762 17.7752 9.1116L17.7802 2.84201C17.7802 2.28597 17.4194 1.91699 16.8731 1.91699C16.3268 1.91699 15.9579 2.29008 15.9659 2.84201V9.35827C15.9609 13.2691 18.125 15.4778 21.9511 15.4706H23.9156C24.4619 15.4757 24.8227 15.1026 24.8227 14.5404C24.8227 13.9782 24.4508 13.6123 23.9045 13.6062Z" fill="#323232"/>
<path d="M8.1554 1.91113H6.82795C2.99778 1.91113 0.836766 4.10343 0.841806 8.02141V14.5356C0.841806 15.1019 1.20263 15.4606 1.75397 15.4606C2.30532 15.4606 2.66112 15.0978 2.66112 14.5356L2.6561 8.24342C2.6561 5.07162 3.95332 3.76117 7.09104 3.76117H7.88932C10.8355 3.76117 12.3091 4.90101 12.3091 7.62159V7.8991C12.3091 10.6217 10.8355 11.7575 7.88932 11.7575L5.37855 11.7523C4.82418 11.7575 4.4714 12.1203 4.4714 12.6773C4.4714 13.2344 4.82821 13.6126 5.37855 13.6024H8.14837C11.7921 13.6096 14.1285 11.5961 14.1264 7.89191V7.6144C14.1375 3.89068 11.7991 1.91113 8.1554 1.91113Z" fill="#323232"/>
<path d="M32.7304 1.91113H31.41C27.5798 1.91113 25.4238 4.10035 25.4238 8.02141V9.35755C25.4238 13.2796 27.5758 15.4689 31.41 15.4689H32.7304C36.5606 15.4689 38.7166 13.2796 38.7166 9.35755V8.02141C38.7166 4.10035 36.5646 1.91113 32.7304 1.91113ZM36.8992 9.10574C36.8992 12.2919 35.6181 13.6157 32.4713 13.6157H31.6882C28.5404 13.6157 27.2401 12.2929 27.2401 9.10574V8.25472C27.2401 5.06854 28.5404 3.76426 31.6882 3.76426H32.4713C35.6181 3.76426 36.8992 5.06854 36.8992 8.25472V9.10574Z" fill="#323232"/>
<path d="M69.4368 14.6548C68.7383 13.9436 68.2858 13.6137 66.9835 13.6137H61.9075C58.7597 13.6137 57.4726 12.294 57.4726 9.11293V8.24239C57.4726 5.06237 58.7698 3.76117 61.9075 3.76117H62.6877C65.8294 3.76117 67.1347 5.07059 67.1277 8.24239V10.9208C67.1216 11.4902 67.4804 11.8654 68.0348 11.8654C68.5892 11.8654 68.942 11.4902 68.948 10.9208V8.02244C68.948 4.10035 66.796 1.91113 62.9618 1.91113H61.6414C57.8113 1.91113 55.6553 4.10035 55.6553 8.02244V9.35858C55.6553 13.2796 57.8153 15.4771 61.6414 15.4699H67.0551C67.6216 15.4791 67.8312 15.6528 68.057 15.881L68.3594 16.1893C68.8875 16.733 69.4238 16.7505 69.8118 16.3558C70.1999 15.9612 70.1595 15.3969 69.704 14.9313L69.4368 14.6548Z" fill="#323232"/>
<path d="M47.8437 1.91113H46.5233C42.6931 1.91113 40.5321 4.10343 40.5371 8.02141V14.5336C40.5371 15.1009 40.898 15.4586 41.4443 15.4586C41.9906 15.4586 42.3514 15.0968 42.3565 14.5336V8.24958C42.3565 5.07779 43.6527 3.76632 46.7914 3.76632H47.5715C50.7133 3.76632 52.0166 5.07573 52.0065 8.24753V14.5428C52.0065 15.1019 52.3623 15.4678 52.9136 15.4678C53.465 15.4678 53.8208 15.105 53.8258 14.5428V8.02141C53.8238 4.10343 51.6779 1.91113 47.8437 1.91113Z" fill="#323232"/>
</g>
<path d="M89.2922 2.17749C87.9928 0.860538 86.1245 0.183599 83.7396 0.163086H82.0972C77.4203 0.163086 74.7166 2.94059 74.6762 7.80224V9.35714C74.6561 11.7613 75.3138 13.6567 76.6334 14.986C77.9529 16.3153 79.8051 16.9799 82.19 17.0004H83.8284C88.4972 17.0004 91.1969 14.2229 91.2372 9.36125V7.80224C91.2574 5.38987 90.6037 3.50265 89.2922 2.17749ZM90.2768 7.80224V9.35714C90.2405 13.6567 87.9525 16.0199 83.8203 16.0199H82.2062C80.0876 16.0199 78.4452 15.4209 77.3234 14.2926C76.2016 13.1644 75.6326 11.4987 75.6528 9.36945V7.80634C75.6891 3.47393 77.9852 1.15593 82.2021 1.14362H83.7476C85.8662 1.14362 87.5086 1.74261 88.6264 2.87084C89.7441 3.99907 90.3051 5.66475 90.2889 7.79403L90.2768 7.80224Z" fill="#323232"/>
<path d="M81.0409 5.92227C80.9481 5.82822 80.8223 5.77539 80.691 5.77539C80.5598 5.77539 80.434 5.82822 80.3412 5.92227C80.2484 6.01631 80.1963 6.14386 80.1963 6.27686C80.1963 6.40985 80.2484 6.5374 80.3412 6.63144L82.2674 8.58372L80.3412 10.536C80.2734 10.6063 80.2274 10.6953 80.2091 10.7919C80.1908 10.8885 80.2009 10.9884 80.2382 11.0792C80.2755 11.17 80.3383 11.2477 80.4188 11.3025C80.4993 11.3574 80.594 11.3871 80.691 11.3878C80.8222 11.3874 80.9479 11.3347 81.0409 11.2411L82.9631 9.28882L84.8772 11.237C84.9694 11.3305 85.0945 11.3831 85.225 11.3831C85.3555 11.3831 85.4806 11.3305 85.5728 11.237C85.6651 11.1435 85.7169 11.0167 85.7169 10.8845C85.7169 10.7522 85.6651 10.6254 85.5728 10.5319L81.0409 5.92227Z" fill="#323232"/>
<path d="M84.8034 5.93146L83.6633 7.1141C83.6143 7.16341 83.5755 7.22195 83.549 7.28638C83.5224 7.35081 83.5088 7.41987 83.5088 7.48961C83.5088 7.55936 83.5224 7.62842 83.549 7.69285C83.5755 7.75728 83.6143 7.81582 83.6633 7.86513C83.7119 7.91432 83.7697 7.95337 83.8333 7.98001C83.8969 8.00665 83.9652 8.02036 84.0341 8.02036C84.103 8.02036 84.1712 8.00665 84.2348 7.98001C84.2984 7.95337 84.3562 7.91432 84.4048 7.86513L85.5578 6.69975C85.6589 6.59901 85.7162 6.46193 85.717 6.31866C85.7178 6.17539 85.6621 6.03766 85.5621 5.93578C85.462 5.8339 85.3259 5.77621 85.1836 5.7754C85.0414 5.77459 84.9046 5.83073 84.8034 5.93146Z" fill="#323232"/>
<defs>
<clipPath id="clip0_277_12644">
<rect width="90.3971" height="16.9495" fill="white" transform="translate(0.84082 0.163086)"/>
</clipPath>
</defs>
</svg>
