<svg width="146" height="52" viewBox="0 0 146 52" fill="none" xmlns="http://www.w3.org/2000/svg">
<path d="M67.8492 14.7363C66.6954 14.7363 65.7539 14.3753 65.0248 13.6532C64.3027 12.9312 63.9417 12.0109 63.9417 10.8925C63.9417 9.82354 64.3133 8.91744 65.0566 8.17415C65.7999 7.42378 66.7272 7.0486 67.8386 7.0486C68.4828 7.0486 69.0279 7.13355 69.4739 7.30344C69.9198 7.46626 70.3481 7.7211 70.7587 8.06796L69.7287 9.31032C69.4172 9.0484 69.1164 8.85726 68.8261 8.73692C68.5359 8.61658 68.189 8.55641 67.7855 8.55641C67.1909 8.55641 66.6848 8.78648 66.2671 9.24661C65.8565 9.69966 65.6512 10.2483 65.6512 10.8925C65.6512 11.572 65.8601 12.1348 66.2777 12.5808C66.7025 13.0267 67.244 13.2497 67.9023 13.2497C68.5111 13.2497 69.0243 13.1011 69.442 12.8038V11.7419H67.7962V10.3297H71.0241V13.5577C70.0968 14.3434 69.0385 14.7363 67.8492 14.7363ZM77.4183 13.8762C76.8308 14.4496 76.0981 14.7363 75.2203 14.7363C74.3425 14.7363 73.6099 14.4532 73.0223 13.8868C72.4418 13.3134 72.1516 12.6091 72.1516 11.7738C72.1516 10.9455 72.4454 10.2447 73.0329 9.67134C73.6275 9.09795 74.3638 8.81125 75.2415 8.81125C76.1193 8.81125 76.8485 9.09795 77.4289 9.67134C78.0165 10.2377 78.3103 10.9385 78.3103 11.7738C78.3103 12.602 78.0129 13.3028 77.4183 13.8762ZM75.2415 13.3453C75.6875 13.3453 76.045 13.1966 76.314 12.8993C76.583 12.5949 76.7175 12.2198 76.7175 11.7738C76.7175 11.342 76.5759 10.9739 76.2928 10.6695C76.0167 10.358 75.6592 10.2023 75.2203 10.2023C74.7743 10.2023 74.4168 10.3545 74.1478 10.6588C73.8789 10.9562 73.7444 11.3278 73.7444 11.7738C73.7444 12.2056 73.8824 12.5772 74.1585 12.8887C74.4416 13.1931 74.8026 13.3453 75.2415 13.3453ZM84.4696 13.8762C83.882 14.4496 83.1494 14.7363 82.2716 14.7363C81.3938 14.7363 80.6611 14.4532 80.0736 13.8868C79.4931 13.3134 79.2029 12.6091 79.2029 11.7738C79.2029 10.9455 79.4966 10.2447 80.0842 9.67134C80.6788 9.09795 81.415 8.81125 82.2928 8.81125C83.1706 8.81125 83.8997 9.09795 84.4802 9.67134C85.0677 10.2377 85.3615 10.9385 85.3615 11.7738C85.3615 12.602 85.0642 13.3028 84.4696 13.8762ZM82.2928 13.3453C82.7388 13.3453 83.0963 13.1966 83.3653 12.8993C83.6343 12.5949 83.7688 12.2198 83.7688 11.7738C83.7688 11.342 83.6272 10.9739 83.344 10.6695C83.068 10.358 82.7105 10.2023 82.2716 10.2023C81.8256 10.2023 81.4681 10.3545 81.1991 10.6588C80.9301 10.9562 80.7956 11.3278 80.7956 11.7738C80.7956 12.2056 80.9337 12.5772 81.2097 12.8887C81.4929 13.1931 81.8539 13.3453 82.2928 13.3453ZM88.8663 14.7151C88.1584 14.7151 87.5496 14.4496 87.0399 13.9187C86.5302 13.3878 86.2754 12.6657 86.2754 11.7525C86.2754 10.8464 86.5267 10.1315 87.0293 9.60763C87.539 9.07671 88.1513 8.81125 88.8663 8.81125C89.5741 8.81125 90.1652 9.09441 90.6395 9.66072V6.85747H92.2535V14.6089H90.6395V13.7913C90.1865 14.4071 89.5954 14.7151 88.8663 14.7151ZM88.2929 12.9099C88.5619 13.2002 88.891 13.3453 89.2804 13.3453C89.6697 13.3453 89.9953 13.2002 90.2573 12.9099C90.5263 12.6126 90.6608 12.2268 90.6608 11.7525C90.6608 11.2924 90.5263 10.9172 90.2573 10.627C89.9953 10.3297 89.6697 10.181 89.2804 10.181C88.891 10.181 88.5619 10.3297 88.2929 10.627C88.0239 10.9172 87.8894 11.2995 87.8894 11.7738C87.8894 12.2339 88.0239 12.6126 88.2929 12.9099ZM97.0489 14.6089V7.17602H99.9477C101.109 7.17602 102.057 7.52997 102.793 8.23786C103.53 8.93867 103.898 9.82354 103.898 10.8925C103.898 11.9543 103.526 12.8392 102.783 13.547C102.047 14.2549 101.102 14.6089 99.9477 14.6089H97.0489ZM98.6841 13.1329H99.9477C100.62 13.1329 101.162 12.9276 101.572 12.5171C101.983 12.0994 102.188 11.5579 102.188 10.8925C102.188 10.2341 101.979 9.69612 101.562 9.27846C101.151 8.8608 100.613 8.65198 99.9477 8.65198H98.6841V13.1329ZM107.882 14.7363C107.018 14.7363 106.307 14.4638 105.748 13.9187C105.188 13.3665 104.909 12.6516 104.909 11.7738C104.909 10.9455 105.174 10.2447 105.705 9.67134C106.236 9.09795 106.909 8.81125 107.723 8.81125C108.622 8.81125 109.308 9.10857 109.783 9.7032C110.257 10.2978 110.494 11.0305 110.494 11.9012C110.494 11.9861 110.487 12.1277 110.473 12.3259H106.512C106.59 12.687 106.749 12.963 106.99 13.1542C107.231 13.3453 107.535 13.4409 107.903 13.4409C108.406 13.4409 108.866 13.2462 109.284 12.8569L110.207 13.6745C109.634 14.3824 108.859 14.7363 107.882 14.7363ZM106.491 11.3172H108.923C108.873 10.9491 108.742 10.6553 108.53 10.4359C108.324 10.2164 108.055 10.1067 107.723 10.1067C107.397 10.1067 107.125 10.2164 106.905 10.4359C106.693 10.6482 106.555 10.942 106.491 11.3172ZM113.693 14.7151C112.794 14.7151 111.98 14.4284 111.251 13.855L111.941 12.7931C112.564 13.2462 113.162 13.4727 113.736 13.4727C114.189 13.4727 114.415 13.3241 114.415 13.0267C114.415 12.9914 114.408 12.956 114.394 12.9206C114.387 12.8852 114.369 12.8533 114.341 12.825C114.313 12.7967 114.281 12.7719 114.245 12.7507C114.217 12.7224 114.175 12.6976 114.118 12.6763C114.068 12.648 114.022 12.6268 113.98 12.6126C113.945 12.5914 113.891 12.5702 113.821 12.5489C113.75 12.5206 113.69 12.4994 113.64 12.4852C113.591 12.4711 113.523 12.4534 113.438 12.4321C113.353 12.4038 113.286 12.3826 113.237 12.3684C112.996 12.2976 112.791 12.2268 112.621 12.156C112.458 12.0782 112.285 11.9755 112.101 11.8481C111.916 11.7136 111.775 11.5473 111.676 11.349C111.584 11.1438 111.538 10.9066 111.538 10.6376C111.538 10.0784 111.736 9.63949 112.132 9.32093C112.529 8.9953 113.024 8.83249 113.619 8.83249C114.383 8.83249 115.091 9.05193 115.743 9.49083L115.127 10.6058C114.525 10.2518 114.012 10.0748 113.587 10.0748C113.191 10.0748 112.992 10.2129 112.992 10.489C112.992 10.6801 113.318 10.8854 113.969 11.1048C114.047 11.1331 114.107 11.1544 114.15 11.1685C114.341 11.2322 114.504 11.2924 114.638 11.349C114.773 11.4057 114.925 11.4835 115.095 11.5826C115.265 11.6818 115.399 11.7879 115.498 11.9012C115.605 12.0074 115.693 12.1454 115.764 12.3153C115.835 12.4852 115.87 12.6728 115.87 12.8781C115.87 13.4869 115.668 13.947 115.265 14.2585C114.868 14.5629 114.345 14.7151 113.693 14.7151ZM117.059 8.29095V6.85747H118.758V8.29095H117.059ZM117.101 14.6089V8.91744H118.715V14.6089H117.101ZM122.78 16.3291C121.852 16.3291 121.013 16.1309 120.263 15.7344L120.815 14.5239C121.431 14.8708 122.072 15.0442 122.737 15.0442C123.82 15.0442 124.362 14.5275 124.362 13.494V13.2179C124.107 13.5294 123.834 13.763 123.544 13.9187C123.261 14.0673 122.914 14.1417 122.503 14.1417C121.803 14.1417 121.204 13.901 120.709 13.4196C120.22 12.9383 119.976 12.287 119.976 11.4658C119.976 10.6518 120.224 10.0076 120.72 9.5333C121.215 9.05194 121.81 8.81125 122.503 8.81125C123.211 8.81125 123.824 9.09441 124.34 9.66072V8.91744H125.954V13.3241C125.954 14.3363 125.714 15.0832 125.232 15.5645C124.723 16.0742 123.905 16.3291 122.78 16.3291ZM121.983 12.4427C122.245 12.6834 122.574 12.8038 122.971 12.8038C123.367 12.8038 123.696 12.6799 123.958 12.4321C124.227 12.1844 124.362 11.8623 124.362 11.4658C124.362 11.0836 124.227 10.7686 123.958 10.5208C123.696 10.273 123.367 10.1492 122.971 10.1492C122.574 10.1492 122.245 10.273 121.983 10.5208C121.721 10.7686 121.59 11.0907 121.59 11.4871C121.59 11.8764 121.721 12.195 121.983 12.4427ZM127.396 14.6089V8.91744H129.01V9.72443C129.485 9.11565 130.04 8.81125 130.678 8.81125C131.286 8.81125 131.761 8.99884 132.1 9.37403C132.44 9.74921 132.61 10.266 132.61 10.9243V14.6089H130.996V11.434C130.996 11.0588 130.911 10.7721 130.741 10.5739C130.571 10.3757 130.331 10.2766 130.019 10.2766C129.708 10.2766 129.46 10.3757 129.276 10.5739C129.099 10.7721 129.01 11.0588 129.01 11.434V14.6089H127.396Z" fill="#1E1E1C"/>
<path d="M63.6337 27.2988L66.8193 19.8129H68.3271L71.5126 27.2988H69.803L69.1234 25.6317H65.9804L65.3008 27.2988H63.6337ZM66.5644 24.1876H68.5394L67.5519 21.7773L66.5644 24.1876ZM73.194 27.3413L71.442 21.6074H73.0772L73.9904 25.0584L75.0629 21.5861H76.4539L77.5369 25.069L78.4714 21.6074H80.0747L78.3015 27.3413H76.8467L75.7531 23.8479L74.6381 27.3413H73.194ZM82.4617 27.405C81.9025 27.405 81.4353 27.2493 81.0601 26.9378C80.692 26.6263 80.5079 26.1945 80.5079 25.6424C80.5079 25.0407 80.7132 24.5876 81.1238 24.2832C81.5414 23.9788 82.1007 23.8266 82.8015 23.8266C83.2758 23.8266 83.7395 23.9045 84.1925 24.0602V23.9647C84.1925 23.2709 83.7855 22.9241 82.9714 22.9241C82.4829 22.9241 81.9591 23.0267 81.3999 23.232L80.9964 22.0003C81.6901 21.6959 82.4263 21.5437 83.205 21.5437C84.0615 21.5437 84.7022 21.756 85.1269 22.1808C85.5375 22.5913 85.7428 23.1966 85.7428 23.9965V27.2988H84.1819V26.683C83.7501 27.1643 83.1767 27.405 82.4617 27.405ZM82.9502 26.2901C83.3253 26.2901 83.6297 26.1981 83.8633 26.014C84.0969 25.8229 84.2137 25.5822 84.2137 25.292V25.0053C83.9093 24.8637 83.566 24.7929 83.1838 24.7929C82.8298 24.7929 82.5537 24.8637 82.3555 25.0053C82.1644 25.1398 82.0688 25.338 82.0688 25.5999C82.0688 25.8123 82.1502 25.9821 82.3131 26.1096C82.4759 26.2299 82.6882 26.2901 82.9502 26.2901ZM87.1316 27.2988V21.6074H88.7456V22.7542C89.1137 21.8835 89.719 21.4658 90.5614 21.5012V23.1895H90.4764C89.9243 23.1895 89.496 23.3594 89.1916 23.6992C88.8943 24.0319 88.7456 24.531 88.7456 25.1964V27.2988H87.1316ZM93.8021 27.405C93.0942 27.405 92.4855 27.1396 91.9758 26.6086C91.4661 26.0777 91.2113 25.3557 91.2113 24.4425C91.2113 23.5364 91.4626 22.8214 91.9652 22.2976C92.4748 21.7667 93.0872 21.5012 93.8021 21.5012C94.51 21.5012 95.1011 21.7844 95.5754 22.3507V19.5474H97.1894V27.2988H95.5754V26.4812C95.1224 27.0971 94.5313 27.405 93.8021 27.405ZM93.2287 25.5999C93.4977 25.8901 93.8269 26.0352 94.2163 26.0352C94.6056 26.0352 94.9312 25.8901 95.1931 25.5999C95.4621 25.3026 95.5966 24.9168 95.5966 24.4425C95.5966 23.9824 95.4621 23.6072 95.1931 23.3169C94.9312 23.0196 94.6056 22.871 94.2163 22.871C93.8269 22.871 93.4977 23.0196 93.2287 23.3169C92.9597 23.6072 92.8252 23.9894 92.8252 24.4637C92.8252 24.9239 92.9597 25.3026 93.2287 25.5999ZM101.613 27.2988V26.0034L104.087 23.9753C104.576 23.5718 104.912 23.2497 105.096 23.009C105.28 22.7612 105.372 22.4887 105.372 22.1914C105.372 21.887 105.28 21.6499 105.096 21.48C104.912 21.3101 104.671 21.2251 104.374 21.2251C104.098 21.2251 103.847 21.303 103.62 21.4587C103.401 21.6074 103.146 21.8622 102.855 22.2232L101.709 21.2994C102.098 20.7685 102.498 20.3792 102.909 20.1314C103.326 19.8837 103.85 19.7598 104.48 19.7598C105.252 19.7598 105.871 19.9721 106.338 20.3969C106.806 20.8145 107.039 21.3738 107.039 22.0746C107.039 22.4781 106.961 22.8426 106.806 23.1683C106.65 23.4868 106.448 23.77 106.2 24.0177C105.952 24.2584 105.581 24.5699 105.085 24.9522L103.875 25.8866H107.113V27.2988H101.613ZM113.963 26.3326C113.347 27.0617 112.551 27.4262 111.574 27.4262C110.597 27.4262 109.804 27.0617 109.195 26.3326C108.586 25.6034 108.282 24.6867 108.282 23.5824C108.282 22.4852 108.59 21.572 109.206 20.8429C109.822 20.1066 110.618 19.7385 111.595 19.7385C112.565 19.7385 113.354 20.1031 113.963 20.8322C114.579 21.5614 114.887 22.4781 114.887 23.5824C114.887 24.6796 114.579 25.5963 113.963 26.3326ZM110.406 25.2813C110.71 25.7273 111.106 25.9503 111.595 25.9503C112.083 25.9503 112.473 25.7308 112.763 25.292C113.06 24.846 113.209 24.2761 113.209 23.5824C113.209 22.9028 113.057 22.34 112.752 21.8941C112.448 21.441 112.055 21.2145 111.574 21.2145C111.092 21.2145 110.703 21.4375 110.406 21.8835C110.108 22.3223 109.96 22.8887 109.96 23.5824C109.96 24.2691 110.108 24.8354 110.406 25.2813ZM115.882 27.2988V26.0034L118.356 23.9753C118.844 23.5718 119.18 23.2497 119.364 23.009C119.548 22.7612 119.64 22.4887 119.64 22.1914C119.64 21.887 119.548 21.6499 119.364 21.48C119.18 21.3101 118.94 21.2251 118.642 21.2251C118.366 21.2251 118.115 21.303 117.888 21.4587C117.669 21.6074 117.414 21.8622 117.124 22.2232L115.977 21.2994C116.366 20.7685 116.766 20.3792 117.177 20.1314C117.595 19.8837 118.118 19.7598 118.749 19.7598C119.52 19.7598 120.14 19.9721 120.607 20.3969C121.074 20.8145 121.308 21.3738 121.308 22.0746C121.308 22.4781 121.23 22.8426 121.074 23.1683C120.918 23.4868 120.716 23.77 120.469 24.0177C120.221 24.2584 119.849 24.5699 119.354 24.9522L118.143 25.8866H121.382V27.2988H115.882ZM125.279 27.4262C124.069 27.4262 123.103 26.998 122.381 26.1414L123.506 25.069C124.037 25.6636 124.635 25.9609 125.301 25.9609C125.612 25.9609 125.863 25.8795 126.054 25.7167C126.253 25.5468 126.352 25.3203 126.352 25.0371C126.352 24.7327 126.224 24.4991 125.97 24.3363C125.715 24.1735 125.357 24.0921 124.897 24.0921H124.217L123.963 23.0515L125.736 21.2676H122.816V19.866H127.838V21.0977L125.959 22.8922C127.29 23.1187 127.955 23.8195 127.955 24.9946C127.955 25.7096 127.711 26.2936 127.222 26.7467C126.741 27.1997 126.093 27.4262 125.279 27.4262Z" fill="#1E1E1C"/>
<path d="M64.4301 39.9741V32.5413H67.2121C68.0616 32.5413 68.7376 32.7536 69.2403 33.1784C69.7429 33.6031 69.9942 34.1836 69.9942 34.9198C69.9942 35.6914 69.7145 36.2895 69.1553 36.7143C68.6031 37.139 67.9094 37.3514 67.0741 37.3514H65.269V39.9741H64.4301ZM65.269 36.5869H67.106C67.7218 36.5869 68.2138 36.4382 68.5819 36.1409C68.9571 35.8365 69.1447 35.433 69.1447 34.9304C69.1447 34.4136 68.9642 34.0172 68.6031 33.7411C68.2492 33.458 67.7643 33.3164 67.1484 33.3164H65.269V36.5869ZM71.3848 39.9741V34.4844H72.2024V35.9179C72.4148 35.4436 72.7157 35.0649 73.105 34.7817C73.4944 34.4986 73.9403 34.3676 74.4429 34.3889V35.2702H74.3792C73.7492 35.2702 73.2289 35.4896 72.8183 35.9285C72.4077 36.3674 72.2024 36.9868 72.2024 37.7867V39.9741H71.3848ZM80.005 39.2627C79.4528 39.8219 78.7697 40.1015 77.9556 40.1015C77.1415 40.1015 76.462 39.8219 75.9169 39.2627C75.3789 38.7035 75.1099 38.0274 75.1099 37.2346C75.1099 36.4488 75.3824 35.7763 75.9275 35.2171C76.4797 34.6508 77.1628 34.3676 77.9769 34.3676C78.7909 34.3676 79.4705 34.6472 80.0156 35.2065C80.5607 35.7657 80.8332 36.4417 80.8332 37.2346C80.8332 38.0203 80.5571 38.6964 80.005 39.2627ZM77.9769 39.3689C78.5644 39.3689 79.0458 39.1636 79.421 38.753C79.8032 38.3424 79.9943 37.8363 79.9943 37.2346C79.9943 36.64 79.7961 36.1338 79.3997 35.7162C79.0104 35.2985 78.529 35.0897 77.9556 35.0897C77.3681 35.0897 76.8867 35.2985 76.5115 35.7162C76.1363 36.1267 75.9487 36.6329 75.9487 37.2346C75.9487 37.8292 76.1434 38.3354 76.5328 38.753C76.9221 39.1636 77.4035 39.3689 77.9769 39.3689ZM84.6185 40.0909C83.9177 40.0909 83.3053 39.8325 82.7815 39.3158C82.2577 38.7919 81.9957 38.0947 81.9957 37.224C81.9957 36.3674 82.2577 35.6772 82.7815 35.1534C83.3053 34.6295 83.9177 34.3676 84.6185 34.3676C85.4821 34.3676 86.1829 34.757 86.7209 35.5356V32.2227H87.5385V39.9741H86.7209V38.8698C86.1688 39.6839 85.468 40.0909 84.6185 40.0909ZM84.7671 39.3583C85.2981 39.3583 85.7617 39.1565 86.1581 38.753C86.5546 38.3495 86.7528 37.8363 86.7528 37.2133C86.7528 36.6046 86.5546 36.102 86.1581 35.7055C85.7617 35.302 85.2981 35.1003 84.7671 35.1003C84.215 35.1003 83.7549 35.295 83.3868 35.6843C83.0186 36.0666 82.8346 36.5833 82.8346 37.2346C82.8346 37.8646 83.0222 38.3778 83.3974 38.7742C83.7726 39.1636 84.2291 39.3583 84.7671 39.3583ZM91.3831 40.0909C90.7318 40.0909 90.2186 39.8927 89.8434 39.4963C89.4682 39.0928 89.2806 38.5583 89.2806 37.8929V34.4844H90.0982V37.6912C90.0982 38.2079 90.2292 38.615 90.4911 38.9123C90.7601 39.2025 91.1353 39.3476 91.6167 39.3476C92.0909 39.3476 92.4838 39.1884 92.7953 38.8698C93.1068 38.5513 93.2625 38.1371 93.2625 37.6275V34.4844H94.0695V39.9741H93.2625V39.0185C92.8165 39.7334 92.1901 40.0909 91.3831 40.0909ZM98.3828 40.1015C97.59 40.1015 96.921 39.8219 96.3759 39.2627C95.8379 38.6964 95.5689 38.0203 95.5689 37.2346C95.5689 36.4488 95.8379 35.7763 96.3759 35.2171C96.921 34.6508 97.59 34.3676 98.3828 34.3676C99.2323 34.3676 99.9649 34.6932 100.581 35.3445L100.061 35.8967C99.5508 35.3587 98.9881 35.0897 98.3722 35.0897C97.82 35.0897 97.3528 35.2985 96.9706 35.7162C96.5954 36.1267 96.4078 36.6329 96.4078 37.2346C96.4078 37.8292 96.5989 38.3354 96.9812 38.753C97.3705 39.1636 97.8519 39.3689 98.4253 39.3689C99.0128 39.3689 99.565 39.0928 100.082 38.5406L100.623 39.0397C99.9862 39.7476 99.2394 40.1015 98.3828 40.1015ZM103.812 40.0697C103.338 40.0697 102.959 39.9458 102.676 39.698C102.4 39.4432 102.262 39.0503 102.262 38.5194V35.2065H101.497V34.4844H102.262V32.828H103.079V34.4844H104.821V35.2065H103.079V38.4132C103.079 39.022 103.387 39.3264 104.003 39.3264C104.272 39.3264 104.537 39.2627 104.799 39.1353V39.8361C104.502 39.9918 104.173 40.0697 103.812 40.0697ZM109.589 39.9741V32.5413H112.17C113.331 32.5413 114.279 32.8952 115.015 33.6031C115.752 34.3039 116.12 35.1888 116.12 36.2577C116.12 37.3195 115.748 38.2044 115.005 38.9123C114.269 39.6202 113.323 39.9741 112.17 39.9741H109.589ZM110.428 39.199H112.17C113.097 39.199 113.84 38.9229 114.399 38.3707C114.966 37.8115 115.249 37.1072 115.249 36.2577C115.249 35.4153 114.966 34.7145 114.399 34.1552C113.833 33.596 113.09 33.3164 112.17 33.3164H110.428V39.199ZM118.246 37.5637C118.302 38.123 118.511 38.569 118.872 38.9017C119.24 39.2273 119.676 39.3901 120.178 39.3901C120.837 39.3901 121.414 39.1317 121.909 38.615L122.419 39.0716C121.803 39.7582 121.049 40.1015 120.157 40.1015C119.385 40.1015 118.734 39.8361 118.203 39.3052C117.679 38.7672 117.417 38.077 117.417 37.2346C117.417 36.4347 117.669 35.7586 118.171 35.2065C118.674 34.6472 119.3 34.3676 120.051 34.3676C120.837 34.3676 121.46 34.6437 121.92 35.1959C122.38 35.748 122.61 36.4417 122.61 37.2771C122.61 37.3832 122.606 37.4788 122.599 37.5637H118.246ZM118.246 36.9054H121.782C121.732 36.3745 121.555 35.9356 121.251 35.5887C120.953 35.2348 120.546 35.0578 120.03 35.0578C119.562 35.0578 119.162 35.2312 118.83 35.5781C118.497 35.925 118.302 36.3674 118.246 36.9054ZM125.857 40.0803C125.461 40.0803 125.057 40.0095 124.646 39.8679C124.243 39.7193 123.889 39.5211 123.585 39.2733L123.999 38.6893C124.622 39.1565 125.255 39.3901 125.899 39.3901C126.232 39.3901 126.505 39.3087 126.717 39.1459C126.929 38.9831 127.036 38.7672 127.036 38.4982C127.036 38.2504 126.919 38.0593 126.685 37.9248C126.459 37.7903 126.119 37.6593 125.666 37.5319C125.39 37.454 125.17 37.3832 125.007 37.3195C124.845 37.2558 124.661 37.1673 124.455 37.0541C124.25 36.9337 124.098 36.7851 123.999 36.6081C123.9 36.424 123.85 36.2081 123.85 35.9604C123.85 35.4932 124.024 35.1144 124.37 34.8242C124.724 34.534 125.174 34.3889 125.719 34.3889C126.427 34.3889 127.085 34.5906 127.694 34.9941L127.322 35.61C126.777 35.256 126.236 35.079 125.698 35.079C125.379 35.079 125.121 35.1569 124.923 35.3127C124.731 35.4613 124.636 35.656 124.636 35.8967C124.636 35.9958 124.664 36.0878 124.721 36.1727C124.777 36.2577 124.841 36.3285 124.912 36.3851C124.983 36.4417 125.092 36.5019 125.241 36.5656C125.397 36.6293 125.521 36.6753 125.613 36.7037C125.705 36.732 125.85 36.778 126.048 36.8417C126.31 36.9196 126.526 36.9939 126.696 37.0647C126.866 37.1355 127.046 37.231 127.237 37.3514C127.428 37.4717 127.57 37.6239 127.662 37.808C127.761 37.9849 127.811 38.1938 127.811 38.4345C127.811 38.9441 127.627 39.3476 127.259 39.645C126.89 39.9352 126.423 40.0803 125.857 40.0803ZM129.351 33.2845V32.382H130.285V33.2845H129.351ZM129.404 39.9741V34.4844H130.222V39.9741H129.404ZM134.551 41.6943C133.623 41.6943 132.792 41.4395 132.055 40.9298L132.427 40.2927C133.071 40.7599 133.776 40.9935 134.54 40.9935C135.156 40.9935 135.641 40.8236 135.995 40.4838C136.356 40.1511 136.536 39.6697 136.536 39.0397V38.392C135.956 39.1636 135.237 39.5494 134.381 39.5494C133.687 39.5494 133.082 39.3122 132.565 38.838C132.055 38.3566 131.801 37.7301 131.801 36.9585C131.801 36.1869 132.059 35.564 132.576 35.0897C133.092 34.6083 133.694 34.3676 134.381 34.3676C135.259 34.3676 135.974 34.7357 136.526 35.4719V34.4844H137.343V39.0185C137.343 39.8467 137.11 40.4944 136.642 40.9616C136.154 41.4501 135.457 41.6943 134.551 41.6943ZM134.54 38.8273C135.078 38.8273 135.549 38.6504 135.952 38.2964C136.356 37.9425 136.558 37.493 136.558 36.9479C136.558 36.4028 136.356 35.9568 135.952 35.61C135.556 35.2631 135.085 35.0897 134.54 35.0897C134.002 35.0897 133.549 35.2631 133.181 35.61C132.82 35.9498 132.639 36.3993 132.639 36.9585C132.639 37.4965 132.823 37.9425 133.192 38.2964C133.567 38.6504 134.016 38.8273 134.54 38.8273ZM139.17 39.9741V34.4844H139.988V35.4401C140.42 34.7251 141.046 34.3676 141.867 34.3676C142.519 34.3676 143.032 34.5694 143.407 34.9729C143.782 35.3693 143.97 35.9002 143.97 36.5656V39.9741H143.152V36.7674C143.152 36.2506 143.018 35.8471 142.749 35.5569C142.487 35.2596 142.115 35.1109 141.634 35.1109C141.159 35.1109 140.767 35.2702 140.455 35.5887C140.144 35.9073 139.988 36.3214 139.988 36.8311V39.9741H139.17Z" fill="#1E1E1C"/>
<path d="M50.9417 0.96875H0V51.9104H50.9417V0.96875Z" fill="#BCBCBC"/>
<path d="M25.4697 46.8125C36.722 46.8125 45.8437 37.6907 45.8437 26.4385C45.8437 15.1862 36.722 6.06445 25.4697 6.06445C14.2175 6.06445 5.0957 15.1862 5.0957 26.4385C5.0957 37.6907 14.2175 46.8125 25.4697 46.8125Z" fill="#0C1213"/>
<path d="M20.387 32.6507H17.7324V27.5273H20.387V28.4697H18.7943V29.2926H20.387V30.3545H18.7943V31.5225H20.387V32.6507Z" fill="white"/>
<path d="M33.0117 29.7834V30.7524H34.2195C34.1606 31.0134 34.0157 31.2471 33.8081 31.416C33.5593 31.6356 33.2373 31.7539 32.9055 31.7478C32.4572 31.7374 32.0312 31.5501 31.7204 31.2269C31.4096 30.9037 31.2393 30.4707 31.2464 30.0224C31.2396 29.794 31.2796 29.5666 31.3641 29.3543C31.4486 29.142 31.5756 28.9493 31.7375 28.788C31.8951 28.6241 32.085 28.4947 32.2952 28.4079C32.5054 28.3211 32.7312 28.2788 32.9586 28.2836C33.2356 28.2872 33.5081 28.355 33.7545 28.4817C34.0009 28.6083 34.2146 28.7904 34.3788 29.0136L35.0823 28.3632C34.8023 28.0352 34.465 27.7609 34.0868 27.5536C33.7273 27.3947 33.3384 27.3133 32.9453 27.3147C32.5901 27.304 32.2363 27.3648 31.905 27.4934C31.5736 27.622 31.2715 27.8159 31.0165 28.0635C30.7615 28.311 30.5588 28.6073 30.4205 28.9347C30.2821 29.262 30.2109 29.6139 30.2111 29.9693C30.2073 30.324 30.2746 30.6759 30.4091 31.0042C30.5436 31.3325 30.7426 31.6305 30.9942 31.8806C31.2363 32.1363 31.5287 32.3392 31.8531 32.4762C32.1775 32.6133 32.5268 32.6816 32.879 32.677C33.23 32.6839 33.5783 32.6138 33.8994 32.4717C34.2204 32.3295 34.5064 32.1187 34.7372 31.854C34.942 31.6233 35.0958 31.3519 35.1885 31.0576C35.288 30.7217 35.3372 30.3728 35.3345 30.0224V29.7304L33.0117 29.7834Z" fill="white"/>
<path d="M12.9701 32.7303H11.749V27.514H12.9834C13.4315 27.4965 13.8795 27.5502 14.3107 27.6732C14.6565 27.7712 14.9746 27.9484 15.2398 28.1909C15.505 28.4392 15.7165 28.7393 15.861 29.0726C16.0055 29.406 16.0801 29.7654 16.0801 30.1288C16.0801 30.4921 16.0055 30.8515 15.861 31.1849C15.7165 31.5182 15.505 31.8183 15.2398 32.0666C14.9658 32.2967 14.6505 32.4723 14.3107 32.5843C13.8739 32.701 13.4218 32.7502 12.9701 32.7303ZM12.8241 31.748H13.0365C13.3139 31.7571 13.5911 31.7258 13.8594 31.6551C14.0741 31.5842 14.2726 31.4714 14.4434 31.3233C14.6099 31.1692 14.7427 30.9824 14.8335 30.7746C14.9244 30.5667 14.9713 30.3423 14.9713 30.1155C14.9713 29.8886 14.9244 29.6643 14.8335 29.4564C14.7427 29.2486 14.6099 29.0617 14.4434 28.9076C14.0433 28.5965 13.5419 28.4452 13.0365 28.4829H12.8241V31.748Z" fill="white"/>
<path d="M28.5517 27.5127H27.251V32.729H28.5517V27.5127Z" fill="white"/>
<path d="M26.2288 25.6818C25.5913 25.6818 24.9765 25.4453 24.5033 25.0181C24.2434 24.7829 24.0343 24.4972 23.8887 24.1783C23.7432 23.8594 23.6643 23.5142 23.6568 23.1638C23.6494 22.8134 23.7135 22.4651 23.8454 22.1404C23.9772 21.8156 24.174 21.5212 24.4236 21.2752C24.918 20.8006 25.5767 20.5356 26.2619 20.5356C26.9472 20.5356 27.6059 20.8006 28.1002 21.2752C28.3438 21.5106 28.5365 21.7934 28.6666 22.1061C28.7967 22.4188 28.8615 22.7549 28.8568 23.0936C28.8632 23.4357 28.798 23.7753 28.6654 24.0907C28.5329 24.4062 28.3358 24.6904 28.087 24.9252C27.8436 25.1693 27.5538 25.362 27.2346 25.4919C26.9154 25.6219 26.5734 25.6865 26.2288 25.6818ZM26.2288 21.5539C26.0278 21.5488 25.8281 21.5863 25.6428 21.6641C25.4574 21.7419 25.2907 21.8582 25.1536 22.0052C25.01 22.1469 24.897 22.3167 24.8216 22.5039C24.7463 22.6911 24.7102 22.8918 24.7157 23.0936C24.7065 23.3009 24.7421 23.5078 24.8199 23.7001C24.8978 23.8925 25.0161 24.0659 25.1669 24.2085C25.3021 24.3498 25.4651 24.4616 25.6455 24.5369C25.8259 24.6123 26.02 24.6496 26.2155 24.6465C26.5237 24.6479 26.8253 24.5576 27.082 24.3871C27.3387 24.2165 27.5388 23.9735 27.657 23.6888C27.7751 23.4042 27.8059 23.0908 27.7454 22.7886C27.6848 22.4865 27.5358 22.2091 27.3171 21.9919C27.1799 21.8496 27.0148 21.7373 26.832 21.6619C26.6493 21.5865 26.4529 21.5498 26.2553 21.5539H26.2288Z" fill="white"/>
<path d="M33.1047 25.6807C32.4672 25.6807 31.8524 25.4442 31.3792 25.017C31.1194 24.7818 30.9103 24.496 30.7647 24.1772C30.6192 23.8583 30.5403 23.5131 30.5328 23.1627C30.5254 22.8123 30.5895 22.464 30.7214 22.1393C30.8532 21.8145 31.05 21.5201 31.2996 21.274C31.5396 21.0291 31.8269 20.8357 32.1441 20.7057C32.4613 20.5756 32.8017 20.5115 33.1445 20.5175C33.6586 20.513 34.1623 20.6626 34.5907 20.9469C35.019 21.2312 35.3525 21.6372 35.5481 22.1126C35.7437 22.5881 35.7925 23.1112 35.6882 23.6146C35.5839 24.1181 35.3313 24.5787 34.963 24.9374C34.4643 25.4181 33.7974 25.6848 33.1047 25.6807ZM33.1047 21.5528C32.9037 21.5468 32.7037 21.5839 32.5182 21.6618C32.3328 21.7396 32.1662 21.8563 32.0296 22.004C31.8816 22.1431 31.7648 22.3121 31.687 22.4997C31.6092 22.6874 31.5722 22.8894 31.5783 23.0924C31.5718 23.3007 31.6098 23.5079 31.6899 23.7002C31.77 23.8925 31.8904 24.0654 32.0429 24.2074C32.1781 24.3486 32.341 24.4604 32.5215 24.5358C32.7019 24.6112 32.8959 24.6485 33.0915 24.6454C33.294 24.649 33.4953 24.6116 33.683 24.5353C33.8707 24.4591 34.041 24.3456 34.1837 24.2017C34.3263 24.0578 34.4383 23.8865 34.513 23.6982C34.5876 23.5098 34.6233 23.3082 34.6178 23.1057C34.6243 22.9018 34.5888 22.6988 34.5134 22.5093C34.4381 22.3198 34.3245 22.1478 34.1798 22.004C34.0458 21.8604 33.8834 21.7461 33.7029 21.6684C33.5224 21.5907 33.3278 21.5514 33.1313 21.5528H33.1047Z" fill="white"/>
<path d="M19.7392 22.8818V23.8109H20.9205C20.8688 24.0676 20.7218 24.2953 20.509 24.448C20.2984 24.6259 20.0276 24.7162 19.7524 24.7002C19.5607 24.7102 19.3689 24.6813 19.1887 24.6151C19.0085 24.549 18.8436 24.4469 18.7039 24.3152C18.5299 24.1671 18.3918 23.9814 18.2998 23.7722C18.2079 23.5631 18.1645 23.3358 18.1729 23.1074C18.167 22.8882 18.2063 22.6702 18.2886 22.4669C18.3708 22.2636 18.4941 22.0795 18.6508 21.9261C18.8047 21.7701 18.9889 21.6472 19.192 21.565C19.3952 21.4828 19.613 21.4431 19.8321 21.4483C20.0787 21.4529 20.3204 21.5184 20.5357 21.6388C20.751 21.7591 20.9333 21.9308 21.0665 22.1385L21.7434 21.5146C21.4759 21.2004 21.1517 20.9393 20.7877 20.7448C20.4378 20.5854 20.0574 20.5038 19.6728 20.5059C18.9737 20.5018 18.3012 20.7737 17.8013 21.2625C17.5536 21.5038 17.3577 21.793 17.2253 22.1124C17.093 22.4319 17.027 22.7749 17.0315 23.1207C17.035 23.8025 17.3074 24.4555 17.7895 24.9376C18.2717 25.4197 18.9246 25.6921 19.6064 25.6956C19.9462 25.7043 20.2837 25.6387 20.5955 25.5034C20.9072 25.3682 21.1857 25.1665 21.4115 24.9125C21.6105 24.6927 21.7639 24.4355 21.8628 24.156C21.9513 23.8316 21.9959 23.4968 21.9956 23.1605V22.8818H19.7392Z" fill="white"/>
<path d="M38.6127 25.7095H37.3916V20.5065H38.626C39.0734 20.4847 39.5214 20.5339 39.9533 20.6525C40.2956 20.7585 40.6121 20.9348 40.8824 21.1702C41.2256 21.4744 41.4814 21.8649 41.6231 22.3011C41.7649 22.7374 41.7875 23.2036 41.6888 23.6515C41.59 24.0994 41.3733 24.5129 41.0612 24.849C40.7491 25.1851 40.3529 25.4318 39.9135 25.5635C39.4899 25.6783 39.0512 25.7275 38.6127 25.7095ZM38.4667 24.7406H38.6791C38.9614 24.7449 39.243 24.7091 39.5153 24.6344C39.7252 24.5681 39.9194 24.4597 40.086 24.3158C40.26 24.1677 40.3981 23.982 40.4901 23.7728C40.582 23.5636 40.6254 23.3364 40.6169 23.108C40.6243 22.8791 40.5819 22.6513 40.4925 22.4405C40.4031 22.2296 40.269 22.0407 40.0993 21.8869C39.691 21.583 39.1866 21.4368 38.6791 21.4754H38.5198L38.4667 24.7406Z" fill="white"/>
<path d="M40.7894 32.6507H42.0503V27.5273H40.816V30.8323L38.2941 27.5273H36.9668V32.6507H38.2145V29.3325L40.7894 32.6507Z" fill="white"/>
<path d="M23.4819 28.5753C23.4321 28.6131 23.3909 28.661 23.3612 28.7159C23.3314 28.7709 23.3137 28.8316 23.3094 28.8939C23.3094 28.8939 23.3094 29.1593 23.8005 29.3452L24.3314 29.5443C24.7162 29.6608 25.0639 29.8759 25.3401 30.1681C25.5628 30.4203 25.6814 30.7476 25.672 31.0839C25.6756 31.3097 25.63 31.5335 25.5383 31.7398C25.4466 31.9461 25.311 32.1299 25.141 32.2785C24.7711 32.5934 24.2994 32.7632 23.8137 32.7563C23.1426 32.6994 22.5129 32.4081 22.0352 31.9334L22.6457 31.2299C22.9517 31.574 23.3808 31.7838 23.8403 31.8139C24.0307 31.8095 24.2136 31.7391 24.3579 31.6148C24.428 31.5572 24.4837 31.484 24.5206 31.401C24.5574 31.3181 24.5745 31.2277 24.5703 31.137C24.5854 31.067 24.5854 30.9946 24.5703 30.9247C24.548 30.86 24.5118 30.8011 24.4641 30.7521C24.4043 30.6858 24.3322 30.6317 24.2517 30.5928C24.1512 30.5291 24.0445 30.4758 23.9332 30.4336L23.4155 30.2477C22.6324 29.9425 22.2342 29.4912 22.2342 28.9204C22.2391 28.7256 22.2868 28.5342 22.374 28.3598C22.4611 28.1855 22.5856 28.0325 22.7386 27.9117C23.0972 27.6411 23.5372 27.5007 23.9863 27.5135C24.519 27.5436 25.0291 27.7384 25.4463 28.071L24.849 28.7346C24.849 28.7346 24.0659 28.0444 23.4819 28.5753Z" fill="white"/>
</svg>
