<svg width="99" height="39" viewBox="0 0 99 39" fill="none" xmlns="http://www.w3.org/2000/svg">
<path d="M32.9789 16.976L30.5562 16.985C26.0566 16.985 24.2146 15.0455 24.2146 10.4521L24.2218 1.35164C24.2218 0.544533 23.7058 0.00895103 22.9247 0.00895103C22.1435 0.00895103 21.616 0.5505 21.6275 1.35164V10.8101C21.6203 16.4867 24.7147 19.6927 30.1858 19.6823H32.9948C33.776 19.6897 34.2919 19.1482 34.2919 18.3321C34.2919 17.5161 33.7601 16.985 32.9789 16.976Z" fill="#323232"/>
<path d="M10.4578 0.00148898H8.55966C3.08286 0.00148898 -0.00719374 3.18365 1.25762e-05 8.87067V18.3261C1.25762e-05 19.1482 0.515956 19.6688 1.30433 19.6688C2.0927 19.6688 2.60146 19.1422 2.60146 18.3261L2.59429 9.19291C2.59429 4.589 4.44919 2.68686 8.93584 2.68686H10.0773C14.2901 2.68686 16.3973 4.34134 16.3973 8.29033V8.69313C16.3973 12.6451 14.2901 14.2936 10.0773 14.2936L6.48714 14.2862C5.69444 14.2936 5.19 14.8202 5.19 15.6288C5.19 16.4374 5.70021 16.9864 6.48714 16.9715H10.4477C15.6579 16.982 18.9987 14.0594 18.9958 8.68269V8.27989C19.0117 2.87484 15.668 0.00148898 10.4578 0.00148898Z" fill="#323232"/>
<path d="M45.5972 0.00148898H43.7091C38.2323 0.00148898 35.1495 3.17918 35.1495 8.87067V10.8101C35.1495 16.5031 38.2266 19.6808 43.7091 19.6808H45.5972C51.074 19.6808 54.1569 16.5031 54.1569 10.8101V8.87067C54.1569 3.17918 51.0797 0.00148898 45.5972 0.00148898ZM51.5583 10.4446C51.5583 15.0694 49.7264 16.9909 45.2268 16.9909H44.1069C39.6059 16.9909 37.7466 15.0709 37.7466 10.4446V9.20932C37.7466 4.58452 39.6059 2.69133 44.1069 2.69133H45.2268C49.7264 2.69133 51.5583 4.58452 51.5583 9.20932V10.4446Z" fill="#323232"/>
<path d="M98.0851 18.4977C97.0863 17.4653 96.4392 16.9864 94.5771 16.9864H87.3188C82.8178 16.9864 80.9773 15.0709 80.9773 10.4535V9.18993C80.9773 4.57408 82.8322 2.68537 87.3188 2.68537H88.4344C92.9268 2.68537 94.7932 4.58601 94.7831 9.18993V13.0777C94.7745 13.9042 95.2876 14.4488 96.0803 14.4488C96.873 14.4488 97.3774 13.9042 97.3861 13.0777V8.87067C97.3861 3.17768 94.309 0 88.8264 0H86.9384C81.4616 0 78.3787 3.17768 78.3787 8.87067V10.8101C78.3787 16.5016 81.4673 19.6912 86.9384 19.6808H94.6794C95.4894 19.6942 95.7891 19.9463 96.112 20.2775L96.5444 20.7251C97.2996 21.5143 98.0664 21.5396 98.6212 20.9668C99.1761 20.3939 99.1185 19.5748 98.467 18.899L98.0851 18.4977Z" fill="#323232"/>
<path d="M67.2089 0.00148898H65.3209C59.8441 0.00148898 56.754 3.18365 56.7612 8.87067V18.3232C56.7612 19.1467 57.2772 19.6658 58.0583 19.6658C58.8395 19.6658 59.3555 19.1407 59.3627 18.3232V9.20186C59.3627 4.59795 61.2162 2.69432 65.7042 2.69432H66.8198C71.3122 2.69432 73.1757 4.59496 73.1613 9.19888V18.3366C73.1613 19.1482 73.6701 19.6793 74.4585 19.6793C75.2468 19.6793 75.7556 19.1526 75.7628 18.3366V8.87067C75.7599 3.18365 72.6915 0.00148898 67.2089 0.00148898Z" fill="#323232"/>
<path d="M28 38.7422V30.1473H29.514V37.367H34.0438V38.7422H28Z" fill="#323232"/>
<path d="M35.7072 38.7422V30.1473H37.2212V38.7422H35.7072Z" fill="#323232"/>
<path d="M47.2948 39L46.2608 38.0791C45.4977 38.6194 44.6237 38.8895 43.639 38.8895C42.3342 38.8895 41.2592 38.4598 40.414 37.6003C39.5688 36.7408 39.1462 35.6889 39.1462 34.4447C39.1462 33.2169 39.5729 32.1692 40.4263 31.3015C41.2798 30.4338 42.3588 30 43.6636 30C44.9684 30 46.0434 30.4297 46.8886 31.2892C47.7338 32.1487 48.1564 33.2005 48.1564 34.4447C48.1564 35.4352 47.8651 36.3151 47.2825 37.0846L48.2672 37.9195L47.2948 39ZM43.6636 37.5021C44.2134 37.5021 44.7058 37.3629 45.1407 37.0846L43.6636 35.8322L44.636 34.7271L46.1254 36.0778C46.4209 35.6276 46.5686 35.0832 46.5686 34.4447C46.5686 33.5935 46.2896 32.8731 45.7315 32.2838C45.1817 31.6862 44.4842 31.3874 43.639 31.3874C42.7938 31.3874 42.0963 31.6821 41.5464 32.2715C41.0048 32.8608 40.734 33.5853 40.734 34.4447C40.734 35.296 41.009 36.0205 41.5588 36.618C42.1168 37.2074 42.8184 37.5021 43.6636 37.5021Z" fill="#323232"/>
<path d="M53.5184 38.8772C52.3778 38.8772 51.4792 38.5539 50.8227 37.9072C50.1744 37.2606 49.8503 36.3233 49.8503 35.0955V30.1473H51.3643V35.0341C51.3643 35.8199 51.5571 36.4257 51.9428 36.8513C52.3285 37.2769 52.8619 37.4898 53.543 37.4898C54.2241 37.4898 54.7534 37.2851 55.1309 36.8759C55.5166 36.4666 55.7094 35.8731 55.7094 35.0955V30.1473H57.2234V35.0218C57.2234 36.2742 56.8952 37.2319 56.2387 37.895C55.5822 38.5498 54.6754 38.8772 53.5184 38.8772Z" fill="#323232"/>
<path d="M59.3878 38.7422V30.1473H60.9018V38.7422H59.3878Z" fill="#323232"/>
<path d="M63.2083 38.7422V30.1473H66.421C67.7668 30.1473 68.8664 30.5566 69.7199 31.3752C70.5733 32.1855 71 33.2087 71 34.4447C71 35.6726 70.5692 36.6958 69.7076 37.5143C68.8541 38.3329 67.7586 38.7422 66.421 38.7422H63.2083ZM64.7224 37.367H66.421C67.3155 37.367 68.0376 37.0969 68.5874 36.5566C69.1372 36.0082 69.4121 35.3042 69.4121 34.4447C69.4121 33.5935 69.1372 32.8936 68.5874 32.3452C68.0376 31.7967 67.3155 31.5225 66.421 31.5225H64.7224V37.367Z" fill="#323232"/>
</svg>
