<svg width="133" height="24" viewBox="0 0 133 24" fill="none" xmlns="http://www.w3.org/2000/svg">
<path d="M33.7948 18.4406H30.6239C26.2764 18.4406 24.4815 16.5545 24.4815 12.0776V3.06162C24.4815 2.71531 24.3492 2.38318 24.1135 2.1383C23.8779 1.89343 23.5584 1.75586 23.2251 1.75586C22.8919 1.75586 22.5724 1.89343 22.3367 2.1383C22.1011 2.38318 21.9687 2.71531 21.9688 3.06162V12.4507C21.9688 17.9639 24.9402 21.0936 30.245 21.0728H33.7749C34.1081 21.0728 34.4276 20.9353 34.6633 20.6904C34.8989 20.4455 35.0312 20.1134 35.0312 19.7671C35.0312 19.4208 34.8989 19.0886 34.6633 18.8438C34.4276 18.5989 34.1081 18.4613 33.7749 18.4613L33.7948 18.4406Z" fill="#323232"/>
<path d="M68.7197 2.3418H66.8428C61.3567 2.3418 58.2631 5.42926 58.2837 10.9618V20.3485C58.2679 20.5239 58.2906 20.7007 58.3503 20.8663C58.41 21.0319 58.5052 21.1823 58.6292 21.3069C58.7531 21.4314 58.9028 21.5271 59.0677 21.587C59.2325 21.647 59.4084 21.6699 59.583 21.654C59.7568 21.6663 59.9312 21.6409 60.0944 21.5797C60.2576 21.5184 60.4058 21.4227 60.529 21.2989C60.6522 21.1751 60.7475 21.0262 60.8084 20.8623C60.8694 20.6983 60.8946 20.5231 60.8824 20.3485V11.3141C60.8824 6.81758 62.7592 4.97339 67.2347 4.97339H68.369C72.8445 4.97339 74.6801 6.8383 74.6801 11.3141V20.3485C74.6801 20.6947 74.817 21.0268 75.0607 21.2716C75.3044 21.5164 75.6349 21.654 75.9795 21.654C76.3241 21.654 76.6546 21.5164 76.8982 21.2716C77.1419 21.0268 77.2788 20.6947 77.2788 20.3485V10.9618C77.2788 5.42926 74.2058 2.3418 68.7197 2.3418Z" fill="#323232"/>
<path d="M10.4593 2.3418H8.56135C3.07383 2.3418 0 5.43004 0 10.964V20.3531C0 20.6994 0.136929 21.0315 0.380666 21.2764C0.624402 21.5213 0.95498 21.6589 1.29967 21.6589C1.64437 21.6589 1.97495 21.5213 2.21868 21.2764C2.46242 21.0315 2.59935 20.6994 2.59935 20.3531V11.3164C2.59935 6.81872 4.45603 4.97406 8.95331 4.97406H10.0673C14.1933 4.97406 16.38 6.57 16.38 10.4044C16.38 14.2388 14.317 15.8762 10.0673 15.8762H6.70467C6.38554 15.9165 6.09204 16.0725 5.87926 16.3148C5.66649 16.5571 5.54908 16.8692 5.54908 17.1923C5.54908 17.5155 5.66649 17.8275 5.87926 18.0698C6.09204 18.3122 6.38554 18.4681 6.70467 18.5084H10.4593C15.658 18.5084 19 15.6689 19 10.4251C19 5.18133 15.658 2.3418 10.4593 2.3418Z" fill="#323232"/>
<path d="M100.453 19.8574C100.028 19.3648 99.4881 18.9794 98.8794 18.7336C98.2706 18.4878 97.6106 18.3888 96.9548 18.4449H89.7519C85.2655 18.4449 83.4133 16.6287 83.4133 12.2498V11.0794C83.4133 6.70053 85.286 4.90457 89.7519 4.90457H90.8632C95.3495 4.90457 97.1811 6.72071 97.1811 11.0794V15.1153C97.1662 15.2878 97.1891 15.4614 97.2484 15.6245C97.3077 15.7876 97.4019 15.9363 97.5248 16.0606C97.6477 16.1849 97.7963 16.2819 97.9607 16.3451C98.1251 16.4083 98.3014 16.4362 98.4777 16.4269C98.6531 16.433 98.8279 16.4028 98.9907 16.3385C99.1536 16.2742 99.3008 16.1771 99.423 16.0535C99.5452 15.9299 99.6396 15.7825 99.7001 15.6209C99.7606 15.4593 99.7858 15.2871 99.7742 15.1153V10.7364C99.7742 5.34851 96.7078 2.3418 91.2336 2.3418H89.3814C83.9072 2.3418 80.8408 5.34851 80.8408 10.7364V12.6131C80.8408 18.0009 83.9072 21.0278 89.3814 21.0077H97.0577C97.3255 20.9913 97.5936 21.0335 97.8428 21.1312C98.0919 21.2289 98.3158 21.3797 98.4982 21.5727L99.1568 22.2184C99.8977 22.965 100.659 23.0054 101.215 22.4606C101.357 22.326 101.466 22.1623 101.536 21.9813C101.606 21.8003 101.634 21.6064 101.618 21.4135C101.602 21.2207 101.543 21.0336 101.445 20.8657C101.347 20.6979 101.212 20.5534 101.05 20.4426L100.453 19.8574Z" fill="#323232"/>
<path d="M46.7975 2.3418H44.7523C39.312 2.3418 36.2646 5.45005 36.2646 11.0199V12.9599C36.2646 18.5298 39.312 21.6589 44.7523 21.6589H46.7975C52.2173 21.6589 55.2646 18.5298 55.2646 12.9599V11.0616C55.1828 5.45005 52.1355 2.3418 46.7975 2.3418ZM52.6672 12.5844C52.6672 17.1112 50.847 18.9887 46.4089 18.9887H45.3045C40.8255 18.9887 39.0052 17.1112 39.0052 12.5844V11.3745C39.0052 6.84773 40.8459 4.99112 45.3045 4.99112H46.4089C50.847 4.99112 52.6672 6.84773 52.6672 11.3745V12.5844Z" fill="#323232"/>
<path d="M130.164 2.81807C128.281 0.96808 125.528 0.0302734 121.976 0.0302734H119.764C116.225 0.0302734 113.477 0.968322 111.599 2.81807C109.72 4.66781 108.767 7.37437 108.767 10.8613V13.0372C108.767 16.5235 109.72 19.2298 111.599 21.08C113.479 22.9303 116.226 23.8683 119.766 23.8683H121.978C125.528 23.8683 128.281 22.93 130.164 21.08C132.047 19.23 133 16.5245 133 13.0372V10.8613C133 7.37364 132.045 4.66733 130.164 2.81807ZM131.648 13.0372C131.648 16.1594 130.827 18.5495 129.209 20.1403C127.59 21.7311 125.156 22.5386 121.976 22.5386H119.764C116.596 22.5386 114.17 21.7318 112.554 20.1408C110.938 18.5497 110.118 16.1582 110.118 13.0372V10.8613C110.118 7.73943 110.939 5.3491 112.556 3.75732C114.173 2.16554 116.598 1.35998 119.766 1.35998H121.978C125.157 1.35998 127.59 2.16699 129.209 3.75853C130.829 5.35007 131.648 7.73943 131.648 10.8613V13.0372Z" fill="#323232"/>
<path d="M125.504 11.2727H121.584V7.41657C121.584 7.23383 121.51 7.05857 121.379 6.92935C121.247 6.80013 121.069 6.72754 120.883 6.72754C120.698 6.72754 120.52 6.80013 120.388 6.92935C120.257 7.05857 120.183 7.23383 120.183 7.41657V11.2727H116.263C116.077 11.2727 115.899 11.3453 115.768 11.4745C115.636 11.6038 115.562 11.779 115.562 11.9618C115.562 12.1445 115.636 12.3198 115.768 12.449C115.899 12.5782 116.077 12.6508 116.263 12.6508H120.183V16.5069C120.183 16.6897 120.257 16.8649 120.388 16.9942C120.52 17.1234 120.698 17.196 120.883 17.196C121.069 17.196 121.247 17.1234 121.379 16.9942C121.51 16.8649 121.584 16.6897 121.584 16.5069V12.6508H125.504C125.69 12.6508 125.868 12.5782 125.999 12.449C126.131 12.3198 126.204 12.1445 126.204 11.9618C126.204 11.779 126.131 11.6038 125.999 11.4745C125.868 11.3453 125.69 11.2727 125.504 11.2727Z" fill="#323232"/>
</svg>
