<svg width="149" height="25" viewBox="0 0 149 25" fill="none" xmlns="http://www.w3.org/2000/svg">
<path d="M34.1897 19.8291L31.6782 19.8382C27.0135 19.8382 25.104 17.8674 25.104 13.1997L25.1115 3.95227C25.1115 3.13213 24.5766 2.58789 23.7668 2.58789C22.957 2.58789 22.4101 3.13819 22.4221 3.95227V13.5636C22.4146 19.3319 25.6225 22.5897 31.2942 22.5791H34.2062C35.016 22.5867 35.5509 22.0364 35.5509 21.2071C35.5509 20.3779 34.9996 19.8382 34.1897 19.8291Z" fill="#323232"/>
<path d="M10.8428 2.58008H8.87503C3.19738 2.58008 -0.00599271 5.81366 0.00147788 11.5926V21.2008C0.00147788 22.0361 0.536343 22.5652 1.35363 22.5652C2.17091 22.5652 2.69833 22.0301 2.69833 21.2008L2.69089 11.92C2.69089 7.24171 4.61382 5.30884 9.26501 5.30884H10.4483C14.8156 5.30884 17.0001 6.99006 17.0001 11.0029V11.4122C17.0001 15.428 14.8156 17.1032 10.4483 17.1032L6.72651 17.0956C5.90474 17.1032 5.3818 17.6383 5.3818 18.46C5.3818 19.2816 5.91072 19.8395 6.72651 19.8243H10.8323C16.2336 19.8349 19.6969 16.8651 19.6939 11.4016V10.9922C19.7104 5.49986 16.244 2.58008 10.8428 2.58008Z" fill="#323232"/>
<path d="M47.2708 2.58008H45.3135C39.6359 2.58008 36.4399 5.80911 36.4399 11.5926V13.5633C36.4399 19.3483 39.6299 22.5774 45.3135 22.5774H47.2708C52.9485 22.5774 56.1444 19.3483 56.1444 13.5633V11.5926C56.1444 5.80911 52.9544 2.58008 47.2708 2.58008ZM53.4505 13.1919C53.4505 17.8915 51.5514 19.844 46.8868 19.844H45.7259C41.0598 19.844 39.1323 17.893 39.1323 13.1919V11.9367C39.1323 7.23716 41.0598 5.31339 45.7259 5.31339H46.8868C51.5514 5.31339 53.4505 7.23716 53.4505 11.9367V13.1919Z" fill="#323232"/>
<path d="M101.683 21.3757C100.648 20.3267 99.9772 19.84 98.0468 19.84H90.5224C85.8563 19.84 83.9483 17.8935 83.9483 13.2016V11.9175C83.9483 7.22709 85.8712 5.30786 90.5224 5.30786H91.6789C96.336 5.30786 98.2709 7.23922 98.2605 11.9175V15.8682C98.2515 16.708 98.7834 17.2614 99.6052 17.2614C100.427 17.2614 100.95 16.708 100.959 15.8682V11.5931C100.959 5.80813 97.7689 2.5791 92.0853 2.5791H90.128C84.4503 2.5791 81.2544 5.80813 81.2544 11.5931V13.5639C81.2544 19.3473 84.4563 22.5885 90.128 22.5779H98.1529C98.9926 22.5915 99.3034 22.8477 99.638 23.1843L100.086 23.6391C100.869 24.441 101.664 24.4668 102.239 23.8847C102.815 23.3025 102.755 22.4703 102.079 21.7835L101.683 21.3757Z" fill="#323232"/>
<path d="M69.6751 2.58008H67.7178C62.0402 2.58008 58.8368 5.81366 58.8443 11.5926V21.1978C58.8443 22.0346 59.3791 22.5622 60.189 22.5622C60.9988 22.5622 61.5337 22.0286 61.5411 21.1978V11.9291C61.5411 7.25081 63.4626 5.31642 68.1153 5.31642H69.2717C73.9289 5.31642 75.8608 7.24778 75.8458 11.9261V21.2115C75.8458 22.0361 76.3733 22.5758 77.1905 22.5758C78.0078 22.5758 78.5352 22.0407 78.5427 21.2115V11.5926C78.5397 5.81366 75.3587 2.58008 69.6751 2.58008Z" fill="#323232"/>
<g clip-path="url(#clip0_5295_1711)">
<path d="M145.115 2.98387C143.106 1.03047 140.226 0.0268817 136.538 0H121.154C113.926 0 109.752 4.12186 109.688 11.3441V13.647C109.688 17.2312 110.679 20.0358 112.715 22.0072C114.752 23.9785 117.595 24.9731 121.265 25H136.593C143.812 25 147.977 20.8781 148.041 13.6559V11.3441C148.115 7.76882 147.096 4.9552 145.115 2.98387ZM146.638 11.353V13.647C146.583 20.0448 142.968 23.5036 136.547 23.5036H121.31C118.026 23.5036 115.495 22.6075 113.761 20.9498C112.027 19.2921 111.174 16.81 111.174 13.647V11.353C111.238 4.9552 114.843 1.49642 121.265 1.49642H136.446C139.721 1.49642 142.262 2.39247 143.987 4.05018C145.711 5.70789 146.583 8.17204 146.555 11.3351L146.638 11.353Z" fill="#323232"/>
<path d="M124.071 8.78163C123.914 8.73313 123.745 8.73574 123.59 8.78906C123.434 8.84238 123.301 8.94353 123.209 9.07733L120.732 12.6078L118.256 9.07733C118.164 8.94353 118.03 8.84238 117.875 8.78906C117.719 8.73574 117.55 8.73313 117.393 8.78163C117.237 8.82931 117.1 8.92454 117.002 9.05346C116.905 9.18239 116.852 9.33828 116.852 9.49848V15.5021C116.852 15.7017 116.933 15.8931 117.078 16.0343C117.222 16.1755 117.418 16.2548 117.623 16.2548C117.827 16.2548 118.023 16.1755 118.167 16.0343C118.312 15.8931 118.393 15.7017 118.393 15.5021V11.9178L120.099 14.3462C120.131 14.3863 120.168 14.4225 120.209 14.4537L120.301 14.5433C120.358 14.5763 120.42 14.6005 120.485 14.615C120.485 14.615 120.549 14.615 120.576 14.615H120.87C120.87 14.615 120.934 14.615 120.962 14.615C121.026 14.6005 121.088 14.5763 121.145 14.5433C121.191 14.5433 121.209 14.4806 121.246 14.4537C121.284 14.4222 121.318 14.3861 121.347 14.3462L123.099 11.9358V15.52C123.099 15.7196 123.18 15.9111 123.325 16.0522C123.469 16.1934 123.665 16.2727 123.87 16.2727C124.074 16.2727 124.27 16.1934 124.414 16.0522C124.559 15.9111 124.64 15.7196 124.64 15.52V9.5164C124.642 9.34969 124.587 9.18709 124.484 9.05411C124.381 8.92112 124.236 8.82529 124.071 8.78163Z" fill="#323232"/>
<path d="M130.502 9.19302C130.483 9.15941 130.458 9.12913 130.429 9.10341C130.403 9.0553 130.373 9.01019 130.337 8.96901C130.292 8.93016 130.243 8.89703 130.19 8.87044L130.107 8.80772C130.047 8.79847 129.985 8.79847 129.924 8.80772H129.814H129.695C129.637 8.79938 129.578 8.79938 129.52 8.80772C129.491 8.82643 129.464 8.8474 129.438 8.87044C129.383 8.89485 129.334 8.92819 129.291 8.96901C129.252 9.00997 129.219 9.05506 129.19 9.10341C129.167 9.13176 129.145 9.1617 129.126 9.19302L126.374 15.1966C126.293 15.3798 126.289 15.5866 126.363 15.7726C126.437 15.9586 126.582 16.1089 126.768 16.1912C126.867 16.2334 126.973 16.2547 127.08 16.2539C127.23 16.2532 127.376 16.2105 127.501 16.1311C127.626 16.0517 127.725 15.9388 127.787 15.8059L128.291 14.6948H131.355L131.86 15.8059C131.921 15.9388 132.02 16.0517 132.145 16.1311C132.271 16.2105 132.417 16.2532 132.566 16.2539C132.673 16.2547 132.779 16.2334 132.878 16.1912C133.062 16.1071 133.206 15.9567 133.28 15.7713C133.353 15.586 133.35 15.3801 133.272 15.1966L130.502 9.19302ZM128.961 13.1894L129.796 11.3973L130.63 13.1894H128.961Z" fill="#323232"/>
<path d="M140.62 8.90701C140.541 8.84513 140.449 8.79944 140.351 8.77266C140.253 8.74587 140.151 8.73853 140.05 8.75105C139.949 8.76358 139.852 8.79573 139.764 8.84561C139.676 8.89548 139.599 8.96206 139.538 9.04142L137.776 11.2726L136.006 9.04142C135.945 8.96206 135.868 8.89548 135.78 8.84561C135.692 8.79573 135.595 8.76358 135.494 8.75105C135.393 8.73853 135.29 8.74587 135.193 8.77266C135.095 8.79944 135.003 8.84513 134.924 8.90701C134.843 8.96753 134.776 9.04292 134.726 9.12885C134.675 9.21479 134.643 9.30958 134.63 9.4078C134.617 9.50602 134.625 9.60574 134.651 9.70124C134.678 9.79675 134.724 9.88616 134.786 9.96436L136.804 12.5002L134.786 15.036C134.724 15.1142 134.678 15.2037 134.651 15.2992C134.625 15.3947 134.617 15.4944 134.63 15.5926C134.643 15.6908 134.675 15.7856 134.726 15.8716C134.776 15.9575 134.843 16.0329 134.924 16.0934C135.056 16.1979 135.221 16.2549 135.391 16.2547C135.51 16.2557 135.628 16.2295 135.735 16.1782C135.841 16.1268 135.934 16.0518 136.006 15.959L137.776 13.7278L139.547 15.959C139.619 16.0512 139.712 16.1259 139.819 16.1772C139.925 16.2285 140.043 16.255 140.161 16.2547C140.332 16.2549 140.497 16.1979 140.629 16.0934C140.71 16.0329 140.777 15.9575 140.827 15.8716C140.877 15.7856 140.91 15.6908 140.923 15.5926C140.935 15.4944 140.928 15.3947 140.902 15.2992C140.875 15.2037 140.829 15.1142 140.767 15.036L138.749 12.5002L140.767 9.96436C140.829 9.88561 140.874 9.79574 140.9 9.6999C140.926 9.60406 140.932 9.50414 140.918 9.40589C140.905 9.30764 140.871 9.21299 140.82 9.12738C140.769 9.04177 140.701 8.96688 140.62 8.90701Z" fill="#323232"/>
</g>
<defs>
<clipPath id="clip0_5295_1711">
<rect width="40" height="25" fill="white" transform="translate(108.087)"/>
</clipPath>
</defs>
</svg>
