<svg width="26" height="26" viewBox="0 0 26 26" fill="none" xmlns="http://www.w3.org/2000/svg">
<path d="M21.9875 4.44479C20.6062 4.9526 3.56405 11.4973 3.31217 11.6192C2.47936 12.0132 2.38186 12.5332 3.07655 12.8867C3.14561 12.9232 4.2953 13.2889 5.63999 13.7073L8.08155 14.467L13.6228 10.9976C16.6737 9.09229 19.229 7.50791 19.3022 7.48354C19.4931 7.41854 19.6556 7.4226 19.7287 7.49979C19.7815 7.5526 19.7856 7.57698 19.7409 7.65416C19.7165 7.70698 17.6894 9.54729 15.2437 11.741C12.7981 13.9389 10.7872 15.7507 10.779 15.771C10.7709 15.7914 10.6897 16.8882 10.5962 18.2085L10.4256 20.6054L10.6125 20.581C10.714 20.5689 10.8725 20.516 10.9659 20.4632C11.0634 20.4145 11.6972 19.8376 12.3837 19.1835C13.0662 18.5295 13.6512 17.981 13.6797 17.9729C13.7081 17.9607 14.7969 18.7326 16.1009 19.6873C17.4009 20.642 18.5669 21.4667 18.6928 21.5235C19.0219 21.6779 19.3875 21.6901 19.6272 21.5642C19.8425 21.4504 20.0497 21.166 20.139 20.8695C20.1715 20.7557 20.919 17.3148 21.7925 13.2239C23.2509 6.4151 23.385 5.75698 23.385 5.40354C23.385 5.07041 23.3728 4.98916 23.2834 4.81448C23.2225 4.68854 23.1128 4.5626 23.0072 4.48948C22.7675 4.32291 22.3694 4.3026 21.9875 4.44479Z" fill="#323232"/>
</svg>
