<svg width="17" height="20" viewBox="0 0 17 20" fill="none" xmlns="http://www.w3.org/2000/svg">
<path d="M11 1H3.5V9.88462H1V11.5H3.5V13.9231H1V15.5385H3.5V19H5.16667V15.5385H12.6667V13.9231H5.16667V11.5H11C12.3256 11.4986 13.5965 10.9875 14.5339 10.079C15.4713 9.17049 15.9985 7.93869 16 6.65385V5.84615C15.9985 4.56131 15.4713 3.32951 14.5339 2.42099C13.5965 1.51247 12.3256 1.00143 11 1ZM14.3333 6.65385C14.3323 7.5104 13.9808 8.3316 13.3559 8.93728C12.731 9.54296 11.8838 9.88365 11 9.88462H5.16667V2.61538H11C11.8838 2.61635 12.731 2.95704 13.3559 3.56272C13.9808 4.1684 14.3323 4.9896 14.3333 5.84615V6.65385Z" fill="#323232" stroke="#323232" stroke-width="0.866667"/>
</svg>
