<svg width="114" height="26" viewBox="0 0 114 26" fill="none" xmlns="http://www.w3.org/2000/svg">
<path d="M24.5574 13.1141V2.28837C24.5458 1.37535 25.149 0.77063 26.0421 0.77063C26.9352 0.77063 27.5268 1.37535 27.5268 2.28837L27.5152 12.7228C27.5152 17.8926 29.6262 20.0744 34.753 20.0744L38.4879 20.0625C39.381 20.0744 39.9726 20.6673 39.9726 21.5803C39.9726 22.4933 39.381 23.1099 38.4879 23.098H34.3238C28.0719 23.1099 24.5458 19.5052 24.5574 13.1141ZM74.8509 0.94849H77.0084C83.2603 0.94849 86.7516 4.52941 86.7632 10.9324V21.7819C86.7516 22.6949 86.1716 23.2877 85.2785 23.2877C84.3854 23.2877 83.7822 22.6949 83.7938 21.7819L83.7706 11.3355C83.7822 6.15387 81.6828 4.00769 76.5676 4.00769H75.2917C70.1765 4.00769 68.0539 6.14201 68.0539 11.3355L68.0655 21.77C68.0539 22.6949 67.4739 23.2877 66.5808 23.2877C65.6877 23.2877 65.0845 22.6949 65.0961 21.77V10.9324C65.0845 4.52941 68.5991 0.94849 74.8509 0.94849ZM9.9194 0.94849H12.0768C18.0155 0.94849 21.82 4.18554 21.82 10.2802C21.82 16.3275 18.0155 19.6238 12.0768 19.612H7.80837C6.90365 19.6238 6.32369 19.0072 6.32369 18.0942C6.32369 17.1812 6.90365 16.5883 7.80837 16.5765L11.6361 16.5883C16.4381 16.5883 18.8391 14.7267 18.8391 10.2802C18.8391 5.83372 16.4381 4.00769 11.6361 4.00769H10.3602C5.24498 4.00769 3.12235 6.14201 3.12235 11.3355L3.13395 21.77C3.12235 22.6949 2.5424 23.2877 1.64927 23.2877C0.756146 23.2877 0.152994 22.6949 0.164593 21.77V10.9324C0.152994 4.52941 3.66751 0.94849 9.9194 0.94849ZM99.4873 0.94849H101.645C107.897 0.94849 111.4 4.52941 111.4 10.9324V16.1259C111.388 17.0508 110.808 17.6674 109.915 17.6674C109.022 17.6674 108.419 17.0508 108.43 16.1259L108.407 11.3237C108.419 6.14201 106.319 3.99583 101.204 3.99583H99.9281C94.8129 3.99583 92.6903 6.1183 92.6903 11.3237V12.711C92.6903 17.9045 94.8013 20.0625 99.9281 20.0625H108.152C110.274 20.0625 111.017 20.5961 112.154 21.7581L112.838 22.4577C113.58 23.2166 113.65 24.1415 113.012 24.7818C112.374 25.4339 111.504 25.3983 110.646 24.509L109.892 23.7383C109.521 23.3707 109.184 23.0862 108.256 23.0743H99.4758C93.2355 23.0862 89.7209 19.4934 89.7209 13.0904V10.9205C89.7325 4.52941 93.2355 0.94849 99.4873 0.94849ZM43.4175 11.3355V12.7228C43.4175 17.9164 45.5285 20.0744 50.6553 20.0744H51.9312C57.0464 20.0744 59.1342 17.9164 59.1342 12.7228V11.3355C59.1342 6.14201 57.0464 4.00769 51.9312 4.00769H50.6553C45.5401 4.00769 43.4175 6.13015 43.4175 11.3355ZM50.2145 0.94849H52.372C58.6239 0.94849 62.1268 4.52941 62.1268 10.9324V13.1023C62.1268 19.5052 58.6239 23.0862 52.372 23.0862H50.2145C43.9626 23.0862 40.4597 19.5052 40.4597 13.1023V10.9324C40.4597 4.52941 43.9742 0.94849 50.2145 0.94849Z" fill="white"/>
</svg>
