<svg width="105" height="34" viewBox="0 0 105 34" fill="none" xmlns="http://www.w3.org/2000/svg">
<path d="M24.7321 2.89403L24.1757 9.05418L18.0849 14.3251L19.4721 6.34339L24.7321 2.89403ZM30.7219 8.86771L27.1092 13.9235L19.1615 15.4654L24.3853 9.24064L30.7219 8.86771ZM16.5388 0.692383L19.1615 6.30759L16.5388 13.8948L13.7208 6.29323L16.5388 0.692383ZM13.4319 6.42945L14.9852 14.3179L8.71376 9.13305L8.3308 2.88685L13.4319 6.42945ZM8.5259 9.36976L13.8365 15.4151L5.79473 14.0383L2.31211 8.81755L8.5259 9.36976ZM5.75857 14.3897L13.3957 16.9857L5.74411 19.7896L0.101318 16.9857L5.75857 14.3897ZM5.86706 20.0765L13.8148 18.5347L8.59822 24.7594L2.29765 25.1323L5.86706 20.0765ZM8.26571 31.106L8.8293 24.9459L14.9203 19.675L13.533 27.6566L8.26571 31.106ZM16.4664 33.3077L13.8438 27.6924L16.4664 20.1052L19.2842 27.6996L16.4664 33.3077ZM19.5733 27.5706L18.0198 19.6821L24.2915 24.8598L24.6672 31.1132L19.5733 27.5706ZM24.4793 24.6375L19.1687 18.5921L27.2105 19.9618L30.6857 25.1897L24.4793 24.6375ZM27.2465 19.6175L19.6023 17.0215L27.2609 14.2176L32.9039 17.0215L27.2465 19.6175ZM59.659 27.0327H55.1288V18.7498H46.7619V27.0327H42.2244V6.39364H46.7619V14.5618H55.1288V6.39364H59.659V27.0327ZM71.5879 27.3913C67.614 27.3913 65.0851 26.1794 62.9898 23.9061L65.786 20.8725C67.4406 22.3785 69.0302 23.318 71.4435 23.318C72.8287 23.3109 74.1688 22.8287 75.2367 21.953C76.3047 21.0773 77.0347 19.8621 77.303 18.5132H68.8495V14.7195H77.2741C76.9651 13.4109 76.2227 12.243 75.1655 11.4031C74.1082 10.5631 72.7976 10.0996 71.4435 10.0869C69.4376 10.1032 67.512 10.8717 66.0533 12.2383L63.5534 9.1116C64.5797 8.08654 65.8068 7.28092 67.1588 6.74442C68.5107 6.20791 69.9591 5.9518 71.4145 5.992C74.2216 6.03817 76.8991 7.1716 78.8758 9.1503C80.8525 11.129 81.9717 13.7962 81.9943 16.5826C82.017 19.369 80.9413 22.0537 78.997 24.0638C77.0527 26.0739 74.3939 27.25 71.5879 27.3411V27.3913ZM99.5135 27.0327L93.1264 18.2479L90.7348 20.7219V27.0327H86.2046V6.39364H90.7348V15.4367L99.1017 6.41518H104.615L96.2259 15.1713L104.997 27.0542L99.5135 27.0327Z" fill="white"/>
</svg>
