<svg width="150" height="58" viewBox="0 0 150 58" fill="none" xmlns="http://www.w3.org/2000/svg">
<g clip-path="url(#clip0_81_4151)">
<path d="M75.211 31.5318L79.1765 27.1832V23.7487H65.3106V27.9819H72.881L69.4519 31.7181V35.1792H71.7292C73.6811 35.1792 74.6571 35.8094 74.6571 37.0607C74.6658 37.3616 74.5946 37.6594 74.4508 37.9231C74.307 38.1869 74.0959 38.407 73.8394 38.5605C73.1606 38.9408 72.3902 39.1221 71.6149 39.0841C70.6738 39.0785 69.7383 38.9381 68.8364 38.667C67.9319 38.4102 67.074 38.0087 66.2954 37.4778L64.3258 41.6045C65.3932 42.2502 66.5528 42.7261 67.7637 43.0156C69.0784 43.344 70.4276 43.5109 71.7819 43.5126C73.378 43.5636 74.9657 43.2606 76.4332 42.6251C77.5689 42.1187 78.5385 41.2969 79.2292 40.2556C79.8213 39.3017 80.1267 38.195 80.1085 37.0696C80.1274 35.7688 79.6739 34.5061 78.8335 33.5197C77.8788 32.4687 76.604 31.7691 75.211 31.5318ZM96.0142 31.0614H88.6109V23.7842H83.1859V43.1576H88.6109V35.6052H96.0142V43.1576H101.448V23.7487H96.0142V31.0614ZM119.06 24.432C117.564 23.7135 115.928 23.3407 114.272 23.3407C112.616 23.3407 110.98 23.7135 109.484 24.432C108.125 25.1482 107.007 26.2575 106.275 27.618C105.483 29.1687 105.092 30.8969 105.141 32.6411V43.1044H110.487V38.8179H117.978V43.1044H123.403V32.6588C123.452 30.9146 123.062 29.1864 122.269 27.6358C121.542 26.2667 120.424 25.1503 119.06 24.432ZM117.978 34.5847H110.487V32.1707C110.403 31.0071 110.768 29.8559 111.507 28.9581C111.862 28.5947 112.289 28.3112 112.76 28.1261C113.232 27.941 113.736 27.8586 114.241 27.8843C114.744 27.8566 115.247 27.9381 115.715 28.1234C116.184 28.3087 116.608 28.5933 116.958 28.9581C117.704 29.8517 118.07 31.0061 117.978 32.1707V34.5847ZM138.394 33.0848L145.789 23.7309H139.318L132.574 32.9162H132.433V23.7487H127.034V43.1221H132.433V33.9279L138.966 43.1221H146L138.394 33.0848ZM111.137 13.8001H114.224V17.4831H117.565V7.49912H114.224V11.049H111.137V7.49912H107.796V17.5009H111.137V13.8001ZM142.166 12.3003V17.4831H145.455V7.49912H142.307L138.896 12.6997V7.49912H135.625V17.5009H138.781L142.166 12.3003ZM138.157 6.29215C138.883 6.69933 139.7 6.91301 140.531 6.91301C141.362 6.91301 142.179 6.69933 142.905 6.29215C143.157 6.06174 143.353 5.77665 143.479 5.45841C143.606 5.14017 143.659 4.79708 143.635 4.45508H141.428C141.44 4.57881 141.427 4.7037 141.391 4.82252C141.355 4.94133 141.296 5.05172 141.217 5.1473C141.126 5.22988 141.018 5.29229 140.902 5.33049C140.785 5.3687 140.662 5.38187 140.54 5.36917C140.418 5.38187 140.295 5.3687 140.178 5.33049C140.061 5.29229 139.954 5.22988 139.863 5.1473C139.713 4.94982 139.644 4.70226 139.669 4.45508H137.445C137.418 4.79916 137.469 5.14487 137.594 5.46616C137.719 5.78744 137.914 6.07593 138.166 6.30988L138.157 6.29215ZM88.7692 17.066C89.6447 17.5186 90.6169 17.7471 91.6004 17.7316C92.4853 17.744 93.363 17.5686 94.1766 17.2169C94.9118 16.8852 95.5527 16.3726 96.0406 15.7259L93.9392 13.8267C93.6942 14.1808 93.3698 14.4715 92.9924 14.6751C92.615 14.8787 92.1953 14.9894 91.7674 14.9982C91.4549 15.0114 91.1432 14.9581 90.8524 14.8419C90.5616 14.7258 90.2982 14.5492 90.0792 14.3237C89.669 13.806 89.4455 13.1629 89.4455 12.5C89.4455 11.8371 89.669 11.1939 90.0792 10.6762C90.2982 10.4508 90.5616 10.2742 90.8524 10.158C91.1432 10.0418 91.4549 9.9886 91.7674 10.0018C92.1953 10.0106 92.615 10.1213 92.9924 10.3249C93.3698 10.5285 93.6942 10.8191 93.9392 11.1732L96.0406 9.27406C95.5527 8.6274 94.9118 8.11472 94.1766 7.78309C93.3645 7.42643 92.4858 7.25087 91.6004 7.26837C90.6169 7.25286 89.6447 7.48142 88.7692 7.93397C87.9516 8.35448 87.2665 8.99682 86.7908 9.78878C86.3244 10.6148 86.0792 11.5492 86.0792 12.5C86.0792 13.4508 86.3244 14.3851 86.7908 15.2112C87.2665 16.0032 87.9516 16.6455 88.7692 17.066ZM133.304 7.49912H130.015V17.5009H133.304V7.49912ZM129.109 13.8711C129.14 13.4099 129.066 12.9478 128.892 12.5201C128.718 12.0924 128.45 11.7106 128.107 11.404C127.275 10.8012 126.263 10.5066 125.241 10.5698H123.192V7.49912H119.904V17.5009H124.819C125.943 17.5647 127.055 17.2357 127.966 16.5691C128.352 16.2401 128.656 15.8249 128.854 15.3565C129.053 14.8882 129.14 14.3796 129.109 13.8711ZM125.425 14.8207C125.31 14.934 125.171 15.021 125.02 15.0761C124.868 15.1312 124.707 15.1531 124.546 15.1402H123.148V12.8949H124.546C125.32 12.8949 125.707 13.2233 125.707 13.8889C125.728 14.0554 125.713 14.2246 125.665 14.3852C125.616 14.5458 125.535 14.6943 125.425 14.8207ZM106.284 7.49912H97.1924V10.1171H100.094V17.5009H103.382V10.1171H106.284V7.49912ZM69.1266 14.5989C69.7241 14.585 70.3165 14.4833 70.8851 14.2971V17.5009H74.1735V7.49912H70.8851V11.6968C70.4486 11.8687 69.9816 11.9473 69.5134 11.9276C69.2949 11.9458 69.075 11.9165 68.8687 11.8414C68.6624 11.7664 68.4744 11.6475 68.3176 11.4927C68.0164 11.1121 67.8716 10.6291 67.9132 10.1438V7.48135H64.6687V10.4987C64.6311 11.0585 64.7129 11.6199 64.9086 12.145C65.1043 12.6701 65.4092 13.1468 65.803 13.5428C66.7415 14.301 67.927 14.6776 69.1266 14.5989ZM84.7685 14.9627H79.8183V13.6404H84.0036V11.2176H79.8183V10.0461H84.5839V7.49912H76.5387V17.5009H84.7773L84.7685 14.9627Z" fill="#323232"/>
<path d="M41.1134 14.8116L25.111 30.9724L16.248 22.0268L11.8518 26.4641L25.0934 39.8294L45.4746 19.249L41.1134 14.8116ZM10.1988 9.34482C10.1988 8.51631 10.5248 7.72174 11.1053 7.1359C11.6857 6.55005 12.4729 6.22094 13.2938 6.22094H20.7235V0.00865507H13.2938C10.8358 0.00628792 8.47717 0.987737 6.73501 2.73785C4.99285 4.48796 4.00931 6.86391 4 9.34482V16.8439H10.1988V9.34482ZM47.3474 9.34482V16.8439H53.5461V9.34482C53.5461 8.11337 53.3057 6.89398 52.8385 5.75638C52.3714 4.61877 51.6866 3.58527 50.8235 2.71491C49.9604 1.84455 48.9358 1.15443 47.8083 0.68398C46.6808 0.213531 45.4724 -0.0280174 44.2524 -0.0268513H36.8227V6.18543H44.2524C44.6618 6.1854 45.0672 6.26738 45.445 6.42658C45.8228 6.58579 46.1655 6.81905 46.4534 7.1129C46.7413 7.40675 46.9685 7.75533 47.1219 8.13844C47.2754 8.52156 47.352 8.93161 47.3474 9.34482ZM47.3474 33.0935V40.6015C47.3474 41.43 47.0213 42.2246 46.4409 42.8104C45.8604 43.3962 45.0732 43.7254 44.2524 43.7254H36.8227V49.9376H44.2524C45.4724 49.9388 46.6808 49.6973 47.8083 49.2268C48.9358 48.7564 49.9604 48.0662 50.8235 47.1959C51.6866 46.3255 52.3714 45.292 52.8385 44.1544C53.3057 43.0168 53.5461 41.7974 53.5461 40.566V33.058L47.3474 33.0935ZM10.1988 40.6015V33.0935H4V40.6015C4 41.8329 4.24045 43.0523 4.70761 44.1899C5.17477 45.3275 5.8595 46.361 6.72262 47.2314C7.58574 48.1017 8.61033 48.7919 9.73784 49.2623C10.8654 49.7328 12.0737 49.9743 13.2938 49.9731H20.7235V43.7609H13.2938C12.8866 43.7609 12.4834 43.6798 12.1073 43.5222C11.7312 43.3647 11.3897 43.1338 11.1022 42.8428C10.8146 42.5517 10.5868 42.2063 10.4318 41.8263C10.2768 41.4463 10.1976 41.0391 10.1988 40.6281V40.6015Z" fill="#323232"/>
</g>
<defs>
<clipPath id="clip0_81_4151">
<rect width="142" height="50" fill="white" transform="translate(4)"/>
</clipPath>
</defs>
</svg>
