<svg width="255" height="41" viewBox="0 0 255 41" fill="none" xmlns="http://www.w3.org/2000/svg">
<path d="M55.5042 30.6962H51.4905C43.985 30.6962 40.906 27.577 40.906 20.1747V5.50772C40.906 4.93138 40.6771 4.37864 40.2695 3.97111C39.862 3.56357 39.3092 3.33463 38.7329 3.33463C38.1566 3.33463 37.6038 3.56357 37.1963 3.97111C36.7888 4.37864 36.5598 4.93138 36.5598 5.50772V20.7366C36.5598 29.9106 41.7202 35.071 50.8369 35.0309H55.5214C56.0977 35.0309 56.6505 34.8019 57.058 34.3944C57.4655 33.9869 57.6945 33.4341 57.6945 32.8578C57.6945 32.2815 57.4655 31.7287 57.058 31.3212C56.6505 30.9136 56.0977 30.6847 55.5214 30.6847L55.5042 30.6962Z" fill="#323232"/>
<path d="M17.9421 3.3461H14.7771C5.60307 3.3461 0.488552 8.47209 0.500019 17.6346V32.8693C0.500019 33.4456 0.728972 33.9983 1.13651 34.4059C1.54404 34.8134 2.09678 35.0424 2.67312 35.0424C3.24946 35.0424 3.80219 34.8134 4.20973 34.4059C4.61726 33.9983 4.84622 33.4456 4.84622 32.8693V18.1564C4.84622 10.7369 7.94245 7.6751 15.4307 7.6751H17.3344C24.364 7.6751 27.8788 10.3356 27.8788 16.7V17.3594C27.8788 23.7296 24.364 26.3844 17.3344 26.3844H11.3483C10.772 26.3844 10.2192 26.6133 9.8117 27.0209C9.40416 27.4284 9.17521 27.9811 9.17521 28.5575C9.17521 29.1338 9.40416 29.6865 9.8117 30.0941C10.2192 30.5016 10.772 30.7306 11.3483 30.7306H17.9536C26.646 30.7306 32.2135 26.0346 32.2078 17.3709V16.723C32.202 7.97325 26.6345 3.3461 17.9421 3.3461Z" fill="#323232"/>
<path d="M76.547 3.3461H73.3992C64.2538 3.3461 59.1221 8.46636 59.1221 17.6346V20.7538C59.1221 29.9278 64.2825 35.0424 73.3992 35.0424H76.547C85.6923 35.0424 90.8241 29.9221 90.8241 20.7538V17.6346C90.8241 8.46636 85.6923 3.3461 76.547 3.3461ZM86.4893 20.169C86.4893 27.6229 83.439 30.7134 75.9277 30.7134H74.0585C66.553 30.7134 63.4511 27.6229 63.4511 20.169V18.1794C63.4511 10.7255 66.553 7.6751 74.0585 7.6751H75.922C83.4332 7.6751 86.4836 10.7255 86.4836 18.1794L86.4893 20.169Z" fill="#323232"/>
<path d="M164.079 33.1502C162.41 31.4817 161.332 30.7134 158.23 30.7134H146.132C138.627 30.7134 135.548 27.6229 135.548 20.1862V18.1507C135.548 10.6968 138.644 7.66935 146.132 7.66935H148.024C155.518 7.66935 158.626 10.7312 158.609 18.1507V24.4177C158.584 24.7093 158.623 25.0028 158.722 25.2782C158.821 25.5535 158.978 25.8044 159.183 26.0138C159.387 26.2232 159.634 26.3861 159.907 26.4916C160.18 26.5971 160.472 26.6426 160.765 26.6252C161.057 26.6404 161.35 26.5934 161.623 26.4875C161.896 26.3815 162.144 26.2189 162.349 26.0104C162.555 25.8019 162.715 25.5522 162.817 25.2776C162.919 25.0031 162.962 24.7101 162.943 24.4177V17.6346C162.943 8.46062 157.783 3.34036 148.666 3.34036H145.519C136.373 3.34036 131.241 8.46062 131.241 17.6346V20.7538C131.241 29.9278 136.402 35.0882 145.519 35.0424H158.402C158.847 35.008 159.293 35.0765 159.707 35.2426C160.12 35.4086 160.49 35.6678 160.788 35.9999L161.516 36.7224C162.777 37.9952 164.056 38.0354 164.956 37.1122C165.856 36.1891 165.787 34.8703 164.704 33.7809L164.079 33.1502Z" fill="#323232"/>
<path d="M112.595 3.3461H109.442C100.302 3.3461 95.159 8.47209 95.1704 17.6347V32.8693C95.1991 33.4271 95.4408 33.9525 95.8457 34.3372C96.2507 34.7219 96.7879 34.9364 97.3464 34.9364C97.9049 34.9364 98.4421 34.7219 98.847 34.3372C99.252 33.9525 99.4937 33.4271 99.5224 32.8693V18.1679C99.5224 10.7541 102.613 7.68656 110.107 7.68656H111.97C119.459 7.68656 122.566 10.7484 122.555 18.1679V32.8922C122.534 33.1803 122.576 33.4695 122.677 33.7401C122.778 34.0107 122.937 34.2563 123.141 34.4603C123.346 34.6643 123.592 34.8218 123.863 34.9223C124.133 35.0227 124.423 35.0637 124.711 35.0424C124.999 35.0624 125.289 35.0207 125.56 34.9201C125.831 34.8195 126.078 34.6622 126.284 34.4587C126.489 34.2552 126.649 34.0103 126.753 33.7402C126.856 33.4701 126.901 33.181 126.884 32.8922V17.6347C126.855 8.47209 121.735 3.3461 112.595 3.3461Z" fill="#323232"/>
<path d="M250.338 5.4676C247.218 2.36563 242.752 0.771643 237.047 0.731506H194.531C188.826 0.777376 184.353 2.37136 181.24 5.47333C178.126 8.5753 176.532 13.0591 176.578 18.7298V22.3879C176.682 33.8555 183.144 40.3748 194.313 40.3748H237.265C248.434 40.3748 254.896 33.8325 254.999 22.3879V18.7298C255.045 13.0534 253.48 8.5925 250.338 5.4676ZM252.688 18.7241V22.365C252.602 32.5138 247.018 37.9723 237.047 37.9838H194.531C184.56 37.9838 178.975 32.5138 178.889 22.365V18.7126C178.843 13.707 180.185 9.81953 182.868 7.15906C185.552 4.49859 189.468 3.14542 194.542 3.11102H237.035C242.11 3.15116 246.037 4.51006 248.709 7.15906C251.381 9.80806 252.723 13.707 252.688 18.7126V18.7241Z" fill="#323232"/>
<path d="M197.787 15.754V21.4304C197.787 23.1505 197.329 24.498 196.417 25.444C195.365 26.3306 194.034 26.8169 192.659 26.8169C191.283 26.8169 189.952 26.3306 188.9 25.444C188.423 24.9178 188.056 24.301 187.821 23.6302C187.587 22.9594 187.49 22.2484 187.535 21.5393V15.754C187.535 15.4696 187.648 15.1969 187.849 14.9958C188.051 14.7947 188.323 14.6818 188.608 14.6818H188.791C188.933 14.6802 189.074 14.7068 189.206 14.76C189.338 14.8131 189.457 14.8917 189.559 14.9914C189.66 15.091 189.74 15.2097 189.796 15.3406C189.851 15.4714 189.88 15.6119 189.881 15.754V21.4476C189.824 22.2988 190.085 23.1407 190.614 23.8099C190.881 24.0838 191.203 24.2973 191.559 24.4358C191.915 24.5743 192.297 24.6346 192.679 24.6126C193.056 24.634 193.434 24.5757 193.788 24.4413C194.142 24.3069 194.463 24.0996 194.731 23.8328C195.259 23.1899 195.522 22.3695 195.465 21.5393V15.754C195.467 15.4691 195.581 15.1964 195.783 14.9955C195.985 14.7945 196.258 14.6818 196.543 14.6818H196.727C197.009 14.6848 197.279 14.7991 197.477 14.9998C197.676 15.2006 197.787 15.4716 197.787 15.754Z" fill="#323232"/>
<path d="M209.1 25.5358C209.1 25.8207 208.987 26.094 208.786 26.296C208.586 26.498 208.313 26.6122 208.028 26.6137H201.721C201.435 26.6137 201.161 26.5002 200.959 26.298C200.756 26.0958 200.643 25.8217 200.643 25.5358V15.754C200.644 15.4691 200.759 15.1964 200.961 14.9955C201.163 14.7945 201.436 14.6818 201.721 14.6818H201.921C202.206 14.6818 202.479 14.7947 202.68 14.9958C202.881 15.1969 202.994 15.4696 202.994 15.754V24.4636H208.045C208.326 24.4681 208.595 24.583 208.792 24.7836C208.99 24.9842 209.1 25.2544 209.1 25.5358Z" fill="#323232"/>
<path d="M218.549 15.754C218.552 15.8977 218.527 16.0406 218.474 16.1744C218.421 16.3082 218.343 16.4301 218.242 16.5331C218.142 16.6361 218.022 16.7181 217.89 16.7743C217.757 16.8305 217.615 16.8599 217.471 16.8606H214.84V25.5358C214.84 25.8217 214.726 26.0958 214.524 26.298C214.322 26.5002 214.048 26.6137 213.762 26.6137H213.578C213.293 26.6122 213.021 26.498 212.82 26.296C212.619 26.094 212.506 25.8207 212.506 25.5358V16.8606H209.868C209.58 16.8606 209.302 16.7458 209.098 16.5415C208.894 16.3372 208.779 16.0601 208.779 15.7712C208.779 15.4822 208.894 15.2051 209.098 15.0008C209.302 14.7965 209.58 14.6818 209.868 14.6818H217.46C217.602 14.6802 217.743 14.7068 217.875 14.76C218.006 14.8131 218.126 14.8917 218.228 14.9914C218.329 15.091 218.409 15.2097 218.465 15.3406C218.52 15.4714 218.549 15.6119 218.549 15.754Z" fill="#323232"/>
<path d="M227.844 22.1414C228.578 21.9114 229.234 21.4804 229.736 20.8972C230.275 20.2176 230.552 19.367 230.516 18.5005C230.528 18.0197 230.445 17.5413 230.272 17.0927C230.098 16.644 229.838 16.2339 229.507 15.8859C229.041 15.4687 228.497 15.1476 227.907 14.941C227.316 14.7343 226.691 14.6463 226.066 14.6818H221.806C221.521 14.6818 221.248 14.7945 221.046 14.9955C220.844 15.1964 220.73 15.4691 220.728 15.754V25.5358C220.728 25.8217 220.842 26.0959 221.044 26.298C221.246 26.5002 221.52 26.6137 221.806 26.6137H221.99C222.275 26.6122 222.547 26.498 222.748 26.296C222.949 26.094 223.062 25.8207 223.062 25.5358V22.5542H225.407L227.947 26.1608C228.048 26.3008 228.181 26.4149 228.334 26.4936C228.488 26.5724 228.658 26.6136 228.83 26.6137H228.962C229.159 26.6159 229.353 26.5635 229.522 26.4623C229.691 26.3611 229.828 26.215 229.919 26.0404C230.011 25.866 230.053 25.6693 230.038 25.4727C230.024 25.2761 229.955 25.0874 229.839 24.928L227.844 22.1414ZM225.9 20.4557H223.033V16.8319H225.9C226.509 16.7865 227.115 16.9481 227.62 17.2906C227.805 17.4608 227.952 17.6674 228.053 17.8973C228.153 18.1273 228.205 18.3756 228.205 18.6266C228.205 18.8776 228.153 19.1259 228.053 19.3559C227.952 19.5858 227.805 19.7924 227.62 19.9626C227.124 20.3269 226.514 20.5018 225.9 20.4557Z" fill="#323232"/>
<path d="M243.927 25.1058L239.621 15.2379C239.536 15.0473 239.398 14.8852 239.223 14.7713C239.048 14.6574 238.844 14.5964 238.635 14.5958H237.953C237.744 14.5958 237.539 14.6573 237.365 14.7725C237.191 14.8877 237.054 15.0515 236.972 15.2437L232.66 25.1058C232.589 25.2696 232.56 25.4486 232.575 25.6267C232.59 25.8047 232.649 25.9762 232.747 26.1258C232.844 26.2753 232.978 26.3982 233.135 26.4834C233.292 26.5686 233.468 26.6134 233.647 26.6137H233.704C233.914 26.6136 234.12 26.5515 234.295 26.4353C234.471 26.319 234.608 26.1538 234.69 25.9601L235.607 23.8042H240.911L241.817 25.9544C241.898 26.1505 242.036 26.318 242.212 26.4354C242.389 26.5529 242.597 26.615 242.809 26.6137H242.924C243.102 26.6134 243.278 26.5686 243.435 26.4834C243.592 26.3982 243.726 26.2753 243.824 26.1258C243.921 25.9762 243.981 25.8047 243.996 25.6267C244.011 25.4486 243.981 25.2696 243.91 25.1058H243.927ZM236.473 21.6999L238.256 17.5487L240.051 21.6999H236.473Z" fill="#323232"/>
</svg>
