<svg width="272" height="41" viewBox="0 0 272 41" fill="none" xmlns="http://www.w3.org/2000/svg">
<g clip-path="url(#clip0_2454_949)">
<path d="M56.0535 31.9391H51.962C44.305 31.9391 41.1487 28.7828 41.1487 21.1843V6.2211C41.1487 4.87675 40.272 4 38.9276 4C37.5833 4 36.7065 4.87675 36.7065 6.2211V21.7688C36.7065 31.1208 41.967 36.3813 51.2606 36.3228H56.0535C57.3978 36.3228 58.2746 35.4461 58.2746 34.1017C58.2746 32.8158 57.3978 31.9391 56.0535 31.9391Z" fill="#323232"/>
<path d="M17.7688 4H14.554C5.2605 4 0 9.20205 0 18.554V34.1017C0 35.4461 0.876746 36.3228 2.2211 36.3228C3.56544 36.3228 4.44219 35.4461 4.44219 34.1017V19.0801C4.44219 11.54 7.59849 8.38375 15.2554 8.38375H17.1843C24.3736 8.38375 27.9391 11.0724 27.9391 17.5604V18.2033C27.9391 24.6913 24.3736 27.38 17.1843 27.38H11.1055C9.76114 27.38 8.88439 28.2567 8.88439 29.6011C8.88439 30.9454 9.76114 31.8222 11.1055 31.8222H17.8272C26.7116 31.8222 32.3813 27.0293 32.3813 18.2033V17.5604C32.3228 8.676 26.6532 4 17.7688 4Z" fill="#323232"/>
<path d="M77.5046 4H74.2899C64.9963 4 59.7358 9.20205 59.7358 18.554V21.7103C59.7358 31.0623 64.9963 36.2644 74.2899 36.2644H77.5046C86.7982 36.2644 92.0587 31.0623 92.0587 21.7103V18.554C92.0587 9.20205 86.8566 4 77.5046 4ZM87.6749 21.1258C87.6749 28.7243 84.5771 31.8806 76.9201 31.8806H74.9913C67.3343 31.8806 64.178 28.7243 64.178 21.1258V19.0801C64.178 11.4816 67.3343 8.38375 74.9913 8.38375H76.9201C84.5771 8.38375 87.6749 11.4816 87.6749 19.0801V21.1258Z" fill="#323232"/>
<path d="M166.758 33.3355C165.063 31.6405 163.952 30.8806 160.796 30.8806H148.463C140.806 30.8806 137.65 27.7243 137.65 20.1258V18.0216C137.65 10.4231 140.806 7.3253 148.463 7.3253H150.333C157.99 7.3253 161.146 10.4231 161.146 18.0216V24.3927C161.146 25.737 162.023 26.6722 163.368 26.6722C164.712 26.6722 165.589 25.7955 165.589 24.3927V17.554C165.589 8.20205 160.328 3 151.035 3H147.82C138.526 3 133.266 8.20205 133.266 17.554V20.7103C133.266 30.0623 138.526 35.3228 147.82 35.2644H160.971C162.374 35.2644 162.842 35.6735 163.426 36.258L164.186 37.0179C165.472 38.3038 166.758 38.3622 167.693 37.427C168.628 36.4918 168.511 35.1475 167.459 34.0369L166.758 33.3355Z" fill="#323232"/>
<path d="M114.27 4H111.055C101.761 4 96.501 9.20205 96.501 18.554V34.1017C96.501 35.4461 97.3777 36.3228 98.7221 36.3228C100.066 36.3228 100.943 35.4461 100.943 34.1017V19.1385C100.943 11.5985 104.099 8.44219 111.756 8.44219H113.627C121.284 8.44219 124.44 11.54 124.44 19.1385V34.1602C124.44 35.5045 125.317 36.3813 126.661 36.3813C128.005 36.3813 128.882 35.5045 128.882 34.1602V18.554C128.824 9.20205 123.563 4 114.27 4Z" fill="#323232"/>
<path d="M235.729 5.06402C232.514 1.90773 227.955 0.271127 222.11 0.212677H197.97C197.912 0.212677 197.795 0.212677 197.736 0.212677C186.222 0.212677 179.617 6.93442 179.5 18.6829V22.4237C179.441 28.2687 181.078 32.8277 184.293 36.0425C187.507 39.1988 192.067 40.8354 197.97 40.8938H222.11C222.168 40.8938 222.285 40.8938 222.344 40.8938C233.8 40.8938 240.463 34.1721 240.522 22.4237V18.6829C240.58 12.8379 238.943 8.27877 235.729 5.06402ZM238.125 18.6829V22.4237C238.008 32.8277 232.28 38.4389 222.051 38.4389H197.912C192.709 38.3805 188.676 36.9777 185.929 34.289C183.182 31.5418 181.779 27.5673 181.838 22.4237V18.6829C181.955 8.27877 187.624 2.66758 197.912 2.66758H222.051C227.253 2.72603 231.286 4.12882 234.034 6.81752C236.839 9.50622 238.184 13.5393 238.125 18.6829Z" fill="#323232"/>
<path d="M202.354 14.4744C201.827 14.2991 201.301 14.5329 201.009 14.942L197.093 20.6701L193.177 14.942C192.885 14.4744 192.3 14.2991 191.833 14.4744C191.307 14.6498 190.956 15.1174 190.956 15.6434V25.4046C190.956 26.106 191.482 26.632 192.183 26.632C192.885 26.632 193.411 26.106 193.411 25.4046V19.618L196.099 23.5926C196.158 23.6511 196.216 23.7095 196.275 23.768C196.333 23.8264 196.333 23.8849 196.392 23.9433C196.509 24.0018 196.567 24.0602 196.684 24.0602C196.742 24.0602 196.801 24.1187 196.859 24.1187C196.918 24.1187 197.035 24.1187 197.093 24.1187C197.152 24.1187 197.268 24.1187 197.327 24.1187C197.385 24.1187 197.444 24.0602 197.502 24.0602C197.619 24.0018 197.678 24.0018 197.794 23.9433C197.853 23.8849 197.911 23.8264 197.97 23.768C198.028 23.7095 198.087 23.6511 198.145 23.5926L200.834 19.618V25.4046C200.834 26.106 201.36 26.632 202.061 26.632C202.763 26.632 203.289 26.106 203.289 25.4046V15.6434C203.23 15.1174 202.88 14.6498 202.354 14.4744Z" fill="#323232"/>
<path d="M212.583 15.1759C212.583 15.1174 212.524 15.059 212.466 15.0005C212.407 14.9421 212.349 14.8252 212.29 14.7667C212.232 14.7083 212.115 14.6498 212.057 14.5914C211.998 14.5914 211.998 14.5329 211.94 14.4745C211.823 14.416 211.764 14.416 211.647 14.416C211.589 14.416 211.53 14.3576 211.472 14.3576C211.414 14.3576 211.355 14.3576 211.297 14.416C211.18 14.416 211.121 14.416 211.004 14.4745C210.946 14.4745 210.946 14.5329 210.888 14.5914C210.829 14.6498 210.712 14.7083 210.654 14.7667C210.595 14.8252 210.537 14.8836 210.478 15.0005C210.42 15.059 210.42 15.1174 210.361 15.1759L206.036 24.937C205.744 25.58 206.036 26.2814 206.679 26.5736C206.854 26.6321 207.03 26.6905 207.147 26.6905C207.614 26.6905 208.082 26.3983 208.257 25.9891L209.076 24.1772H213.868L214.687 25.9891C214.862 26.4567 215.33 26.6905 215.797 26.6905C215.973 26.6905 216.148 26.6321 216.265 26.5736C216.908 26.2814 217.142 25.58 216.908 24.937L212.583 15.1759ZM210.128 21.6638L211.472 18.6829L212.816 21.6638H210.128Z" fill="#323232"/>
<path d="M228.656 14.7083C228.13 14.2991 227.37 14.416 226.961 14.9421L224.156 18.5659L221.35 14.9421C220.941 14.416 220.181 14.2991 219.655 14.7083C219.129 15.1174 219.012 15.8773 219.421 16.4033L222.636 20.5532L219.421 24.7032C219.012 25.2292 219.129 25.9891 219.655 26.3982C219.889 26.5736 220.122 26.632 220.415 26.632C220.765 26.632 221.116 26.4567 221.408 26.1644L224.214 22.5405L227.02 26.1644C227.253 26.4567 227.604 26.632 228.013 26.632C228.247 26.632 228.539 26.5736 228.773 26.3982C229.299 25.9891 229.416 25.2292 229.007 24.7032L225.792 20.5532L229.007 16.4033C229.299 15.8773 229.182 15.1174 228.656 14.7083Z" fill="#323232"/>
<path d="M252.328 5.12248C251.802 4.65488 251.042 4.42108 250.107 4.42108H247.068V12.5456H248.003V9.68158H249.99C250.926 9.68158 251.685 9.44777 252.27 8.98017C252.854 8.51257 253.205 7.86962 253.205 6.99288C253.147 6.17458 252.854 5.59008 252.328 5.12248ZM251.627 8.33723C251.218 8.68793 250.692 8.80483 249.99 8.80483H248.003V5.23938H250.049C250.75 5.23938 251.276 5.41473 251.627 5.70698C252.036 5.99923 252.211 6.46683 252.211 6.99288C252.211 7.57737 252.036 7.98653 251.627 8.33723Z" fill="#323232"/>
<path d="M259.225 9.21399C259.868 9.09709 260.453 8.80484 260.804 8.39569C261.213 7.98654 261.388 7.46049 261.388 6.81754C261.388 6.17459 261.154 5.59009 260.745 5.18094C260.219 4.65489 259.459 4.36264 258.407 4.36264H254.9V12.4872H255.835V9.33089H258.173L260.511 12.4872H261.622L259.225 9.21399ZM255.894 8.57104V5.29784H258.407C259.05 5.29784 259.576 5.41474 259.927 5.70699C260.278 5.99924 260.453 6.40839 260.453 6.87599C260.453 7.40204 260.278 7.81119 259.868 8.10344C259.459 8.39569 258.992 8.57104 258.349 8.57104H255.894Z" fill="#323232"/>
<path d="M270.331 5.47318C269.571 4.65488 268.578 4.24573 267.35 4.24573C266.123 4.24573 265.129 4.65488 264.369 5.47318C263.609 6.29147 263.2 7.28512 263.2 8.45412C263.2 9.62312 263.609 10.6168 264.369 11.4351C265.129 12.2534 266.123 12.6625 267.35 12.6625C268.578 12.6625 269.571 12.2534 270.331 11.4351C271.091 10.6168 271.5 9.62312 271.5 8.45412C271.5 7.28512 271.091 6.29147 270.331 5.47318ZM269.63 10.8506C269.045 11.4935 268.285 11.8442 267.35 11.8442C266.415 11.8442 265.655 11.4935 265.071 10.8506C264.486 10.2076 264.135 9.38932 264.135 8.45412C264.135 7.51892 264.428 6.70062 265.012 6.05767C265.597 5.41473 266.356 5.06403 267.292 5.06403C268.227 5.06403 268.987 5.41473 269.571 6.05767C270.156 6.70062 270.506 7.51892 270.506 8.45412C270.565 9.38932 270.214 10.2076 269.63 10.8506Z" fill="#323232"/>
</g>
<defs>
<clipPath id="clip0_2454_949">
<rect width="271.5" height="40.6812" fill="white" transform="translate(0 0.212677)"/>
</clipPath>
</defs>
</svg>
