<svg width="248" height="43" viewBox="0 0 248 43" fill="none" xmlns="http://www.w3.org/2000/svg">
<g clip-path="url(#clip0_2343_4959)">
<path d="M58.47 33.264H54.2286C46.3595 33.264 43.1288 29.9533 43.1228 22.1109V6.57203C43.1228 5.96143 42.8825 5.37583 42.4549 4.94407C42.0273 4.51231 41.4474 4.26974 40.8426 4.26974C40.2379 4.26974 39.6579 4.51231 39.2303 4.94407C38.8027 5.37583 38.5625 5.96143 38.5625 6.57203V22.7245C38.5625 32.4135 43.9771 37.9111 53.5368 37.8685H58.452C59.0567 37.8685 59.6367 37.626 60.0643 37.1942C60.4919 36.7624 60.7321 36.1768 60.7321 35.5662C60.7321 34.9556 60.4919 34.37 60.0643 33.9383C59.6367 33.5065 59.0567 33.264 58.452 33.264H58.47Z" fill="#323232"/>
<path d="M19.0579 4.28796H15.7369C6.17122 4.28796 0.756659 9.71868 0.756659 19.4259V35.5662C0.734335 35.8746 0.777957 36.1843 0.884564 36.4741C0.991172 36.764 1.15827 37.0274 1.37453 37.2463C1.59079 37.4652 1.85115 37.6347 2.13796 37.7431C2.42476 37.8515 2.7313 37.8963 3.03679 37.8746C3.3418 37.8943 3.64746 37.848 3.93335 37.7389C4.21924 37.6298 4.47877 37.4603 4.6946 37.2418C4.91043 37.0233 5.07759 36.7608 5.18491 36.4719C5.29223 36.1829 5.33723 35.8742 5.31692 35.5662V19.9787C5.30489 12.1182 8.57768 8.87431 16.3987 8.87431H18.4021C25.7719 8.87431 29.4598 11.699 29.4598 18.4358V19.1222C29.4598 25.8711 25.7719 28.6837 18.4021 28.6837H12.1152C11.5105 28.6837 10.9305 28.9262 10.5029 29.358C10.0753 29.7898 9.83506 30.3754 9.83506 30.986C9.83506 31.5966 10.0753 32.1822 10.5029 32.6139C10.9305 33.0457 11.5105 33.2883 12.1152 33.2883H19.0579C28.1784 33.2883 34.0201 28.3131 34.0201 19.1344V18.4358C34.0201 9.19019 28.1784 4.28796 19.0579 4.28796Z" fill="#323232"/>
<path d="M80.5551 4.28796H77.2462C67.6564 4.28796 62.272 9.71261 62.272 19.4259V22.7305C62.272 32.45 67.6865 37.8746 77.2462 37.8746H80.5551C90.1449 37.8746 95.5294 32.4439 95.5294 22.7305V19.4259C95.5294 9.71261 90.1449 4.28796 80.5551 4.28796ZM90.9992 22.1109C90.9992 30.008 87.7926 33.2883 79.9174 33.2883H77.9441C70.0689 33.2883 66.8142 30.008 66.8142 22.1109V20.003C66.8142 12.106 70.0689 8.87431 77.9441 8.87431H79.9054C87.7805 8.87431 90.9992 12.106 90.9992 20.003V22.1109Z" fill="#323232"/>
<path d="M172.404 35.8639C170.659 34.1023 169.522 33.2822 166.267 33.2822H153.567C145.692 33.2822 142.461 30.014 142.461 22.1292V19.9727C142.461 12.0756 145.71 8.86824 153.567 8.86824H155.523C163.386 8.86824 166.653 12.1121 166.634 19.9727V26.6122C166.609 26.9212 166.649 27.2321 166.753 27.5239C166.857 27.8156 167.022 28.0814 167.237 28.3032C167.451 28.525 167.71 28.6977 167.997 28.8094C168.283 28.9212 168.59 28.9695 168.897 28.951C169.203 28.9671 169.51 28.9174 169.796 28.8051C170.083 28.6928 170.342 28.5205 170.558 28.2994C170.773 28.0784 170.94 27.8137 171.046 27.5229C171.153 27.2321 171.198 26.9217 171.177 26.6122V19.4259C171.177 9.70654 165.792 4.28189 156.202 4.28189H152.894C143.298 4.28189 137.925 9.70654 137.925 19.4259V22.7305C137.925 32.45 143.34 37.9171 152.9 37.8685H166.448C166.915 37.8316 167.385 37.904 167.82 38.0799C168.255 38.2558 168.644 38.5306 168.957 38.883L169.721 39.6484C171.038 40.997 172.38 41.0395 173.33 40.0615C174.281 39.0835 174.197 37.6863 173.06 36.5321L172.404 35.8639Z" fill="#323232"/>
<path d="M118.373 4.28796H115.064C105.468 4.28796 100.071 9.71868 100.084 19.4259V35.5662C100.084 36.1768 100.324 36.7624 100.751 37.1942C101.179 37.626 101.759 37.8685 102.364 37.8685C102.968 37.8685 103.548 37.626 103.976 37.1942C104.404 36.7624 104.644 36.1768 104.644 35.5662V19.997C104.644 12.1364 107.886 8.88646 115.75 8.88646H117.705C125.562 8.88646 128.829 12.1303 128.811 19.9909V35.5905C128.789 35.8958 128.833 36.2022 128.939 36.4888C129.045 36.7755 129.211 37.0357 129.426 37.2518C129.64 37.4679 129.899 37.6349 130.183 37.7413C130.467 37.8477 130.771 37.8911 131.073 37.8685C131.376 37.8887 131.679 37.8438 131.964 37.7369C132.248 37.63 132.507 37.4634 132.723 37.2482C132.939 37.0329 133.107 36.7739 133.217 36.4882C133.326 36.2025 133.375 35.8965 133.359 35.5905V19.4259C133.335 9.71868 127.968 4.28796 118.373 4.28796Z" fill="#323232"/>
<path d="M242.866 5.10197C239.599 1.81559 234.906 0.126844 228.92 0.0782471H204.001C192.257 0.0782471 185.471 7.0094 185.351 19.1344V23.01C185.297 29.0117 186.951 33.7378 190.26 37.0545C193.569 40.3713 198.232 42.0297 204.218 42.0782H229.131C240.856 42.0782 247.636 35.1471 247.739 23.0161V19.1404C247.805 13.1326 246.162 8.41264 242.866 5.10197ZM245.338 19.1465V22.9978C245.248 33.756 239.382 39.5634 228.92 39.5634H204.254C198.929 39.5208 194.802 38.0751 191.987 35.2686C189.171 32.4621 187.745 28.3314 187.775 23.0221V19.1526C187.866 8.40049 193.665 2.64782 204.224 2.60529H228.89C234.22 2.64782 238.335 4.0875 241.145 6.89398C243.954 9.70046 245.356 13.8312 245.32 19.1344L245.338 19.1465Z" fill="#323232"/>
<path d="M208.736 14.8274C208.48 14.7473 208.206 14.7525 207.953 14.8423C207.701 14.932 207.484 15.1015 207.334 15.3256L203.315 21.2605L199.29 15.3256C199.141 15.1007 198.924 14.9306 198.672 14.8408C198.419 14.751 198.144 14.7463 197.889 14.8274C197.633 14.909 197.41 15.0709 197.252 15.2894C197.094 15.508 197.009 15.7718 197.01 16.0424V26.1263C197.01 26.4614 197.142 26.7827 197.377 27.0197C197.611 27.2567 197.93 27.3898 198.262 27.3898C198.594 27.3898 198.912 27.2567 199.146 27.0197C199.381 26.7827 199.513 26.4614 199.513 26.1263V20.1245L202.28 24.2127C202.333 24.279 202.394 24.3382 202.461 24.3889C202.504 24.4439 202.553 24.4948 202.605 24.5408C202.699 24.6 202.8 24.6451 202.906 24.6744C202.955 24.6973 203.005 24.7176 203.057 24.7352C203.137 24.7412 203.217 24.7412 203.297 24.7352C203.375 24.7412 203.454 24.7412 203.532 24.7352C203.586 24.7352 203.634 24.6866 203.688 24.6744C203.794 24.644 203.895 24.599 203.989 24.5408C204.044 24.4947 204.094 24.4439 204.139 24.3889C204.203 24.3364 204.262 24.2774 204.314 24.2127L207.111 20.1245V26.1202C207.111 26.4553 207.243 26.7767 207.478 27.0136C207.713 27.2506 208.031 27.3837 208.363 27.3837C208.695 27.3837 209.013 27.2506 209.248 27.0136C209.482 26.7767 209.614 26.4553 209.614 26.1202V16.0363C209.613 15.767 209.527 15.505 209.369 15.2878C209.212 15.0707 208.99 14.9095 208.736 14.8274Z" fill="#323232"/>
<path d="M219.186 15.526C219.156 15.4653 219.108 15.4228 219.078 15.3681C219.033 15.29 218.98 15.2168 218.921 15.1494C218.849 15.082 218.768 15.0247 218.68 14.9793C218.632 14.949 218.596 14.9064 218.548 14.8821H218.542C218.448 14.8499 218.352 14.8275 218.253 14.8153C218.187 14.8153 218.127 14.7849 218.061 14.7849C217.995 14.7849 217.934 14.7849 217.874 14.8153C217.776 14.8275 217.679 14.8499 217.586 14.8821H217.555C217.509 14.9111 217.465 14.9436 217.423 14.9793C217.337 15.0269 217.256 15.0839 217.182 15.1494C217.123 15.2168 217.071 15.29 217.026 15.3681C216.996 15.4228 216.948 15.4653 216.918 15.526L212.472 25.5917C212.4 25.744 212.36 25.9091 212.353 26.0773C212.346 26.2456 212.372 26.4136 212.43 26.5715C212.488 26.7294 212.576 26.874 212.691 26.9968C212.805 27.1196 212.942 27.2181 213.094 27.2866C213.247 27.355 213.411 27.392 213.578 27.3953C213.745 27.3987 213.911 27.3683 214.065 27.3061C214.22 27.2438 214.362 27.1509 214.48 27.0328C214.599 26.9147 214.694 26.7738 214.758 26.6183L215.576 24.7534H220.497L221.322 26.6183C221.386 26.7738 221.48 26.9147 221.599 27.0328C221.718 27.1509 221.859 27.2438 222.014 27.3061C222.169 27.3683 222.335 27.3987 222.501 27.3953C222.668 27.392 222.833 27.355 222.985 27.2866C223.137 27.2181 223.275 27.1196 223.389 26.9968C223.503 26.874 223.592 26.7294 223.65 26.5715C223.708 26.4136 223.734 26.2456 223.727 26.0773C223.72 25.9091 223.679 25.744 223.608 25.5917L219.186 15.526ZM216.689 22.2081L218.037 19.1344L219.39 22.2081H216.689Z" fill="#323232"/>
<path d="M235.628 15.0401C235.365 14.836 235.033 14.7452 234.704 14.7873C234.375 14.8293 234.076 15.001 233.871 15.2648L230.996 19.0129L228.114 15.2648C228.013 15.1336 227.888 15.0237 227.745 14.9414C227.602 14.8591 227.445 14.806 227.282 14.7851C227.119 14.7642 226.953 14.776 226.794 14.8197C226.636 14.8635 226.487 14.9384 226.357 15.0401C226.227 15.1418 226.118 15.2683 226.037 15.4125C225.955 15.5567 225.903 15.7157 225.882 15.8804C225.861 16.0451 225.873 16.2123 225.916 16.3725C225.96 16.5327 226.034 16.6826 226.135 16.8139L229.413 21.0661L226.135 25.3183C225.976 25.5052 225.874 25.7346 225.842 25.9786C225.81 26.2226 225.849 26.4708 225.955 26.6929C226.06 26.9149 226.227 27.1013 226.435 27.2294C226.643 27.3574 226.884 27.4216 227.127 27.4141C227.318 27.4139 227.506 27.3694 227.677 27.2841C227.848 27.1988 227.998 27.0749 228.114 26.922L230.996 23.1619L233.871 26.9099C234.075 27.1749 234.374 27.3475 234.704 27.3896C235.033 27.4318 235.366 27.3401 235.628 27.1347C235.891 26.9292 236.062 26.627 236.103 26.2943C236.145 25.9617 236.054 25.6259 235.851 25.3609L232.578 21.1086L235.851 16.8564C235.959 16.7244 236.04 16.5715 236.087 16.4069C236.135 16.2424 236.149 16.0698 236.128 15.8997C236.107 15.7296 236.052 15.5656 235.966 15.4178C235.88 15.27 235.765 15.1414 235.628 15.0401Z" fill="#323232"/>
</g>
<defs>
<clipPath id="clip0_2343_4959">
<rect width="247" height="42" fill="white" transform="translate(0.756836 0.0782471)"/>
</clipPath>
</defs>
</svg>
