<svg width="246" height="40" viewBox="0 0 246 40" fill="none" xmlns="http://www.w3.org/2000/svg">
<g clip-path="url(#clip0_2607_11801)">
<path d="M55.0522 30.8685H51.0064C43.5 30.8685 40.4183 27.7943 40.4125 20.5121V6.08312C40.4125 5.51613 40.1834 4.97236 39.7755 4.57144C39.3676 4.17052 38.8144 3.94528 38.2375 3.94528C37.6607 3.94528 37.1074 4.17052 36.6995 4.57144C36.2917 4.97236 36.0625 5.51613 36.0625 6.08312V21.0818C36.0625 30.0788 41.2274 35.1836 50.3464 35.1442H55.035C55.6119 35.1442 56.1651 34.9189 56.573 34.518C56.9809 34.1171 57.21 33.5733 57.21 33.0063C57.21 32.4393 56.9809 31.8956 56.573 31.4946C56.1651 31.0937 55.6119 30.8685 55.035 30.8685H55.0522Z" fill="#323232"/>
<path d="M17.457 3.96222H14.2892C5.16449 3.96222 -0.00043934 9.00503 -0.00043934 18.0189V33.0063C-0.0217334 33.2927 0.019877 33.5802 0.12157 33.8494C0.223263 34.1186 0.382659 34.3631 0.588949 34.5664C0.795239 34.7697 1.0436 34.927 1.31718 35.0277C1.59076 35.1283 1.88317 35.17 2.17457 35.1498C2.46552 35.1681 2.75709 35.1252 3.0298 35.0238C3.30251 34.9225 3.55007 34.7651 3.75595 34.5622C3.96183 34.3593 4.12129 34.1156 4.22366 33.8473C4.32603 33.579 4.36896 33.2923 4.34958 33.0063V18.5322C4.3381 11.2331 7.46002 8.22097 14.9205 8.22097H16.8315C23.8615 8.22097 27.3794 10.8439 27.3794 17.0995V17.7369C27.3794 24.0037 23.8615 26.621 16.8315 26.621H10.8344C10.2576 26.621 9.70437 26.8463 9.29648 27.2472C8.88858 27.6481 8.65943 28.1919 8.65943 28.7589C8.65943 29.3259 8.88858 29.8696 9.29648 30.2705C9.70437 30.6715 10.2576 30.8967 10.8344 30.8967H17.457C26.1571 30.8967 31.7295 26.2769 31.7295 17.7538V17.0995C31.7295 8.51429 26.1571 3.96222 17.457 3.96222Z" fill="#323232"/>
<path d="M76.119 3.96222H72.9626C63.8149 3.96222 58.6787 8.99939 58.6787 18.0189V21.0875C58.6787 30.1126 63.8436 35.1498 72.9626 35.1498H76.119C85.2666 35.1498 90.4029 30.107 90.4029 21.0875V18.0189C90.4029 8.99939 85.2666 3.96222 76.119 3.96222ZM86.0815 20.5121C86.0815 27.8451 83.0228 30.8911 75.5107 30.8911H73.6283C66.1162 30.8911 63.0115 27.8451 63.0115 20.5121V18.5548C63.0115 11.2218 66.1162 8.22097 73.6283 8.22097H75.4992C83.0113 8.22097 86.0815 11.2218 86.0815 18.5548V20.5121Z" fill="#323232"/>
<path d="M163.734 33.2827C162.07 31.6469 160.991 30.8854 157.88 30.8854H145.766C138.254 30.8854 135.166 27.8507 135.166 20.529V18.5266C135.166 11.1936 138.265 8.21532 145.766 8.21532H147.625C155.126 8.21532 158.242 11.2275 158.225 18.5266V24.6919C158.2 24.9788 158.239 25.2675 158.338 25.5384C158.437 25.8093 158.594 26.0561 158.799 26.2621C159.004 26.4681 159.251 26.6284 159.524 26.7321C159.797 26.8359 160.09 26.8807 160.382 26.8636C160.675 26.8786 160.968 26.8324 161.241 26.7282C161.514 26.6239 161.761 26.4638 161.967 26.2586C162.172 26.0533 162.331 25.8076 162.433 25.5375C162.535 25.2674 162.577 24.9792 162.557 24.6919V18.0189C162.557 8.99374 157.421 3.95657 148.274 3.95657H145.117C135.969 3.95657 130.845 8.99374 130.845 18.0189V21.0875C130.845 30.1126 136.01 35.1893 145.129 35.1442H158.052C158.498 35.1099 158.946 35.1771 159.361 35.3404C159.776 35.5038 160.147 35.759 160.446 36.0862L161.174 36.7969C162.431 38.0491 163.711 38.0886 164.618 37.1805C165.524 36.2723 165.45 34.9749 164.359 33.9032L163.734 33.2827Z" fill="#323232"/>
<path d="M112.193 3.96222H109.037C99.8833 3.96222 94.7356 9.00503 94.7471 18.0189V33.0063C94.7471 33.5733 94.9762 34.1171 95.3841 34.518C95.792 34.9189 96.3452 35.1442 96.9221 35.1442C97.4989 35.1442 98.0522 34.9189 98.4601 34.518C98.868 34.1171 99.0971 33.5733 99.0971 33.0063V18.5491C99.0971 11.25 102.19 8.23225 109.691 8.23225H111.556C119.057 8.23225 122.167 11.2444 122.15 18.5435V33.0289C122.129 33.3124 122.171 33.5968 122.272 33.863C122.374 34.1292 122.532 34.3709 122.737 34.5715C122.941 34.7722 123.188 34.9272 123.459 35.026C123.73 35.1248 124.019 35.1651 124.308 35.1442C124.597 35.1629 124.886 35.1212 125.157 35.022C125.429 34.9227 125.676 34.768 125.882 34.5681C126.088 34.3683 126.248 34.1278 126.353 33.8624C126.457 33.5971 126.504 33.313 126.488 33.0289V18.0189C126.466 9.00503 121.346 3.96222 112.193 3.96222Z" fill="#323232"/>
<path d="M211.107 4.71808C207.991 1.66644 203.515 0.098318 197.805 0.0531921H193.874C182.671 0.0531921 176.198 6.48926 176.083 17.7482V21.3469C176.032 26.92 177.61 31.3085 180.772 34.3883C183.934 37.4681 188.37 39.0081 194.08 39.0532H198.006C209.19 39.0532 215.658 32.6171 215.756 21.3582V17.7538C215.819 12.1751 214.252 7.79227 211.107 4.71808ZM213.483 17.7594V21.3357C213.38 31.3254 207.784 36.7179 197.805 36.7179H194.109C189.03 36.6784 185.099 35.336 182.413 32.7299C179.727 30.1239 178.367 26.2882 178.396 21.3582V17.7651C178.482 7.78099 184.014 2.43922 194.086 2.39974H197.782C202.866 2.43922 206.792 3.77607 209.472 6.38209C212.152 8.98811 213.489 12.8238 213.454 17.7482L213.483 17.7594Z" fill="#323232"/>
<path d="M203.877 18.4081H197.11V11.7577C197.11 11.4533 196.987 11.1613 196.768 10.946C196.549 10.7307 196.252 10.6098 195.943 10.6098C195.633 10.6098 195.336 10.7307 195.117 10.946C194.898 11.1613 194.775 11.4533 194.775 11.7577V18.4081H188.009C187.7 18.4081 187.403 18.5288 187.185 18.7435C186.966 18.9582 186.844 19.2495 186.844 19.5532C186.844 19.8569 186.966 20.1481 187.185 20.3629C187.403 20.5776 187.7 20.6982 188.009 20.6982H194.775V27.3487C194.775 27.6531 194.898 27.9451 195.117 28.1603C195.336 28.3756 195.633 28.4966 195.943 28.4966C196.252 28.4966 196.549 28.3756 196.768 28.1603C196.987 27.9451 197.11 27.6531 197.11 27.3487V20.6982H203.877C204.186 20.6982 204.482 20.5776 204.7 20.3629C204.919 20.1481 205.042 19.8569 205.042 19.5532C205.042 19.2495 204.919 18.9582 204.7 18.7435C204.482 18.5288 204.186 18.4081 203.877 18.4081Z" fill="#323232"/>
<path d="M222.178 11.8987V4.09197H225.145C225.924 4.05022 226.692 4.2866 227.308 4.75757C227.576 4.98095 227.789 5.26192 227.929 5.57879C228.07 5.89566 228.134 6.23997 228.117 6.58517C228.137 6.94388 228.069 7.30197 227.919 7.62966C227.769 7.95736 227.542 8.24517 227.257 8.46917C226.611 8.92932 225.827 9.16365 225.03 9.13478H223.102V11.8987H222.178ZM223.073 8.34508H225.03C225.598 8.37349 226.158 8.20589 226.614 7.87126C226.802 7.71867 226.952 7.52513 227.052 7.30588C227.152 7.08662 227.198 6.84763 227.188 6.60773C227.2 6.36923 227.154 6.1313 227.054 5.91357C226.955 5.69584 226.804 5.50455 226.614 5.35549C226.159 5.04035 225.609 4.88533 225.053 4.91552H223.05L223.073 8.34508Z" fill="#323232"/>
<path d="M229.908 11.8987V4.09194H233.317C233.727 4.06591 234.138 4.12143 234.525 4.25518C234.913 4.38893 235.269 4.59817 235.572 4.87036C235.777 5.07513 235.937 5.31883 236.043 5.58653C236.148 5.85422 236.197 6.14029 236.186 6.4272C236.2 6.70508 236.156 6.98273 236.057 7.24347C235.959 7.50422 235.807 7.74269 235.613 7.94456C235.183 8.35029 234.635 8.61447 234.046 8.70042L236.468 11.8987H235.372L233.076 8.86964H230.809V11.8987H229.908ZM230.803 8.07994H233.237C233.764 8.10316 234.284 7.95006 234.712 7.6456C234.898 7.50591 235.047 7.32441 235.147 7.11634C235.246 6.90826 235.294 6.67967 235.285 6.44977C235.294 6.233 235.25 6.01736 235.156 5.82103C235.062 5.6247 234.921 5.45342 234.746 5.32162C234.308 5.02787 233.783 4.88505 233.254 4.91549H230.809L230.803 8.07994Z" fill="#323232"/>
<path d="M244.851 10.8326C244.47 11.2087 244.017 11.5071 243.518 11.7107C243.02 11.9143 242.485 12.0191 241.945 12.0191C241.405 12.0191 240.87 11.9143 240.371 11.7107C239.872 11.5071 239.419 11.2087 239.038 10.8326C238.287 10.0698 237.874 9.04546 237.89 7.98406C237.881 7.45836 237.978 6.93612 238.175 6.44729C238.372 5.95846 238.665 5.51267 239.038 5.13549C239.809 4.37873 240.855 3.9537 241.945 3.9537C243.035 3.9537 244.08 4.37873 244.851 5.13549C245.224 5.5137 245.518 5.96048 245.714 6.45024C245.911 6.94001 246.008 7.46314 245.999 7.9897C246.008 8.51453 245.911 9.03589 245.714 9.52379C245.517 10.0117 245.224 10.4565 244.851 10.8326ZM239.727 10.2686C240.01 10.5726 240.356 10.8136 240.742 10.9751C241.129 11.1366 241.545 11.215 241.965 11.2049C242.382 11.2159 242.797 11.1384 243.181 10.9779C243.565 10.8173 243.91 10.5773 244.191 10.2742C244.767 9.65038 245.073 8.83134 245.047 7.9897C245.075 7.14245 244.763 6.31817 244.18 5.69392C243.891 5.39878 243.544 5.16399 243.161 5.00362C242.777 4.84326 242.364 4.7606 241.948 4.7606C241.531 4.7606 241.118 4.84326 240.735 5.00362C240.351 5.16399 240.004 5.39878 239.715 5.69392C239.129 6.31499 238.814 7.13717 238.837 7.98406C238.814 8.83294 239.134 9.65623 239.727 10.2742V10.2686Z" fill="#323232"/>
</g>
<defs>
<clipPath id="clip0_2607_11801">
<rect width="246" height="39" fill="white" transform="translate(0 0.0531921)"/>
</clipPath>
</defs>
</svg>
