<svg width="40" height="64" viewBox="0 0 40 64" fill="none" xmlns="http://www.w3.org/2000/svg">
<path d="M11.7381 9.94041C11.7381 9.94041 12.1568 9.83047 12.5205 10.096C12.8841 10.3615 14.4924 10.9914 14.4924 20.6093V48.8659C14.4924 58.8596 13.6039 60.1592 12.7984 60.8029C12.1916 61.2869 11.8347 61.0795 11.8347 61.0795" stroke="#323232" stroke-width="0.940879" stroke-linecap="round" stroke-linejoin="round"/>
<path d="M12.4897 9.66815C12.4897 9.66815 12.8568 9.64236 13.2096 9.91049C13.5624 10.1786 15.1188 11.1479 15.1188 20.443V48.9969C15.1188 59.0958 14.265 60.0813 13.493 60.9706C12.9885 61.5519 12.578 61.3341 12.578 61.3341" stroke="#323232" stroke-width="0.940879" stroke-linecap="round" stroke-linejoin="round"/>
<path d="M5.86943 16.4281C6.46306 16.4281 7.09875 17.0721 7.09875 22.1187V47.8038C7.09875 50.189 7.26158 54.7386 6.0141 54.7386C4.76663 54.7386 4.85347 51.47 4.85347 49.4823V19.7224C4.85347 17.6192 5.23678 16.4281 5.86943 16.4281Z" fill="#323232" stroke="#323232" stroke-width="0.940879" stroke-linecap="round" stroke-linejoin="round"/>
<path d="M35.498 35.7434C35.4904 34.8732 35.4752 34.0031 35.4612 33.1328C35.4515 32.5287 35.4394 31.9247 35.425 31.3208C35.403 30.4272 35.3825 29.5335 35.3539 28.6396C35.3216 27.6318 35.2774 26.6169 35.2408 25.6092C35.2164 24.9396 35.1743 24.2773 35.1479 23.6075C35.1378 23.3542 35.1224 23.0934 35.1072 22.8403C35.0612 22.0693 35.0188 21.3063 34.9709 20.5355C34.9461 20.1376 34.9224 19.736 34.8925 19.3388C34.8491 18.7612 34.8087 18.1812 34.762 17.604C34.7112 16.9785 34.6655 16.3216 34.5966 15.698C34.4928 14.7558 34.3736 13.8316 34.2527 12.8912C34.0577 11.3755 33.8499 9.85503 33.6521 8.33953C33.4722 6.96207 33.2995 5.62492 33.1168 4.2478C33.0916 4.05752 33.0561 2.56341 33.0441 2.54663C33.0322 2.52985 32.74 2.27747 32.6379 2.19132C32.6152 2.17212 32.4768 2.14375 32.3014 2.1332C31.4555 2.08251 30.5667 2.05362 29.661 2.0346C28.9239 2.01903 28.1817 2 27.4445 2C26.6227 2 25.8484 2.00761 25.027 2.0346C24.8064 2.04186 24.4904 2.04774 24.4295 2.10292C24.2978 2.22194 24.0345 3.59064 24.0073 3.64686C23.3167 5.07414 22.4774 6.02399 21.4759 6.80293C20.3673 7.66507 19.0499 8.2674 17.6916 8.60766C16.6644 8.86488 15.8773 8.97939 14.9292 9.1337C13.0952 9.43226 11.3152 9.90122 9.69476 10.8462C8.73417 11.4058 7.8556 12.0521 7.09952 12.875C6.44309 13.5887 5.9121 14.3695 5.50171 15.2479C5.13561 16.0317 4.89615 16.8567 4.72798 17.7022C4.55497 18.5671 4.55029 19.4428 4.52036 20.316C4.4804 21.5058 4.49407 22.691 4.48749 23.8817C4.48144 24.9507 4.47659 26.008 4.47659 27.077C4.47659 29.5569 4.4778 32.0485 4.4778 34.5284C4.4778 37.2742 4.47261 40.0199 4.4778 42.7655C4.48011 43.9803 4.48807 45.1951 4.50168 46.4099C4.52365 48.1916 4.56293 49.9751 4.57383 51.7578C4.57832 52.4843 4.7631 53.5406 5.01363 54.4029C5.54306 56.2258 6.545 57.7601 7.99851 58.9778C9.20495 59.9885 10.5342 60.692 12.021 61.1919C13.588 61.7182 15.2218 61.9247 16.8637 61.9818C17.527 62.0048 18.239 62.0131 18.9004 61.9636C20.3039 61.8586 20.5996 61.7882 21.4472 61.6329C23.4606 61.2635 25.3505 60.6105 27.1351 59.5993C28.8987 58.6 30.4224 57.2574 31.5512 55.5669C32.1801 54.6252 32.718 53.6047 33.1762 52.5672C33.8881 50.9557 34.3909 49.2821 34.7634 47.5644C35.0672 46.1632 35.3262 44.2732 35.3916 43.3168C35.4499 42.4621 35.5145 41.606 35.5207 40.7501C35.533 39.0806 35.5127 37.4127 35.498 35.7434Z" stroke="#323232" stroke-width="0.940879" stroke-linecap="round" stroke-linejoin="round"/>
</svg>
