<svg width="40" height="64" viewBox="0 0 40 64" fill="none" xmlns="http://www.w3.org/2000/svg">
<path d="M11.5745 8.91668C11.5745 8.91668 12.0015 8.80458 12.3723 9.07531C12.7431 9.34605 14.383 9.98833 14.383 19.7954V48.6076C14.383 58.7979 13.477 60.123 12.6556 60.7794C12.037 61.2729 11.673 61.0614 11.673 61.0614" stroke="#323232" stroke-width="0.959381" stroke-linecap="round" stroke-linejoin="round"/>
<path d="M12.3409 8.63899C12.3409 8.63899 12.7153 8.61269 13.075 8.88609C13.4347 9.15949 15.0217 10.1479 15.0217 19.6257V48.7412C15.0217 59.0387 14.1511 60.0435 13.3639 60.9503C12.8495 61.543 12.4309 61.321 12.4309 61.321" stroke="#323232" stroke-width="0.959381" stroke-linecap="round" stroke-linejoin="round"/>
<path d="M5.59045 15.532C6.19576 15.532 6.84395 16.1887 6.84395 21.3344V47.5247C6.84395 49.9568 7.00998 54.5958 5.73797 54.5958C4.46597 54.5958 4.55451 51.263 4.55451 49.2361V18.8911C4.55451 16.7465 4.94537 15.532 5.59045 15.532Z" stroke="#323232" stroke-width="0.959381" stroke-linecap="round" stroke-linejoin="round"/>
<path d="M35.8028 35.2271C35.795 34.3397 35.7795 33.4525 35.7652 32.5651C35.7554 31.9492 35.7431 31.3333 35.7284 30.7175C35.706 29.8063 35.685 28.8951 35.6559 27.9835C35.6229 26.9559 35.5779 25.9211 35.5405 24.8936C35.5156 24.2108 35.4727 23.5355 35.4457 22.8525C35.4355 22.5943 35.4198 22.3283 35.4043 22.0702C35.3574 21.2841 35.3141 20.5061 35.2653 19.7201C35.24 19.3144 35.2159 18.9048 35.1853 18.4999C35.1411 17.9109 35.1 17.3195 35.0523 16.7309C35.0005 16.0931 34.9539 15.4234 34.8837 14.7875C34.7778 13.8267 34.6563 12.8843 34.5329 11.9255C34.3341 10.38 34.1222 8.8296 33.9206 7.2843C33.7371 5.87975 33.5611 4.5163 33.3748 3.1121C33.349 2.91808 33.3128 2.57449 33.3007 2.55738C33.2885 2.54027 32.9905 2.28292 32.8864 2.19508C32.8633 2.1755 32.7222 2.14657 32.5433 2.13582C31.6808 2.08413 30.7745 2.05468 29.851 2.03528C29.0994 2.0194 28.3426 2 27.5909 2C26.7529 2 25.949 2.00353 25.1113 2.03104C24.8864 2.03845 24.5787 2.04868 24.5166 2.10495C24.3824 2.2263 24.1139 2.44202 24.0862 2.49934C23.3819 3.95469 22.5261 4.92322 21.505 5.71748C20.3745 6.59657 19.0312 7.21075 17.6462 7.55769C16.5988 7.81998 15.7963 7.93674 14.8295 8.09408C12.9594 8.39852 11.1444 8.87669 9.49211 9.84028C8.51264 10.4109 7.61678 11.0699 6.84583 11.9089C6.1765 12.6367 5.63507 13.4329 5.21661 14.3286C4.84331 15.1278 4.59914 15.9689 4.42766 16.8311C4.25125 17.713 4.24648 18.6059 4.21596 19.4963C4.17521 20.7094 4.18915 21.918 4.18244 23.1321C4.17627 24.2221 4.17133 25.3002 4.17133 26.3902C4.17133 28.9189 4.17256 31.4595 4.17256 33.9882C4.17256 36.7879 4.16727 39.5877 4.17256 42.3872C4.17492 43.6259 4.18303 44.8646 4.19691 46.1033C4.21932 47.9201 4.25936 49.7386 4.27048 51.5564C4.27506 52.2972 4.46348 53.3742 4.71893 54.2535C5.25877 56.1122 6.28041 57.6768 7.7625 58.9183C8.99267 59.9489 10.3481 60.6663 11.8641 61.176C13.4619 61.7126 15.1278 61.9232 16.802 61.9814C17.4784 62.0049 18.2044 62.0133 18.8788 61.9629C20.3099 61.8558 20.6114 61.784 21.4757 61.6256C23.5287 61.2491 25.4557 60.5832 27.2754 59.5521C29.0737 58.5331 30.6274 57.1642 31.7784 55.4404C32.4196 54.4801 32.9681 53.4397 33.4353 52.3817C34.1612 50.7385 34.6739 49.032 35.0537 47.2805C35.3635 45.8518 35.6276 43.9246 35.6943 42.9494C35.7538 42.0779 35.8196 41.2049 35.8259 40.3322C35.8384 38.6299 35.8178 36.9292 35.8028 35.2271Z" stroke="#323232" stroke-width="0.959381" stroke-linecap="round" stroke-linejoin="round"/>
<path d="M6.02094 50.1277C6.1267 50.1277 6.21243 49.9848 6.21243 49.8085C6.21243 49.6323 6.1267 49.4894 6.02094 49.4894C5.91519 49.4894 5.82945 49.6323 5.82945 49.8085C5.82945 49.9848 5.91519 50.1277 6.02094 50.1277Z" stroke="#323232" stroke-width="0.959381" stroke-linecap="round" stroke-linejoin="round"/>
</svg>
