<svg width="40" height="64" viewBox="0 0 40 64" fill="none" xmlns="http://www.w3.org/2000/svg">
<path d="M16.1239 61.0247C15.3839 60.3552 15.331 58.8664 15.3971 58.2057L17.181 59.8354L22.3346 60.0997L23.1935 59.8354C23.8982 59.395 24.4268 58.5654 24.603 58.2057C24.7439 59.8266 24.001 60.9219 23.6119 61.267C23.3403 61.5092 22.6032 61.9938 21.828 61.9938C20.859 61.9938 19.0971 61.9497 18.3042 61.9938C17.5114 62.0378 17.0489 61.8616 16.1239 61.0247Z" stroke="#323232" stroke-width="0.679697" stroke-linecap="round"/>
<path d="M15.3968 58.2056V21.5363C15.9958 22.8753 17.2258 23.2431 17.791 23.3018C18.9656 23.3239 21.6118 23.4083 22.5985 23.2321C23.5851 23.0559 24.3457 22.0281 24.6026 21.5363V58.2056C23.8803 59.6328 22.8628 60.0776 22.4443 60.1217C21.2477 60.1364 18.5902 60.1569 17.5331 60.1217C16.4759 60.0864 15.6684 58.8296 15.3968 58.2056Z" fill="white" stroke="#323232" stroke-width="0.679697" stroke-linecap="round" stroke-linejoin="round"/>
<path d="M15.683 16.4697V9.26794H24.2502V16.4697C24.2502 16.7129 24.053 16.9101 23.8098 16.9101H16.1235C15.8802 16.9101 15.683 16.7129 15.683 16.4697Z" stroke="#323232" stroke-width="0.679697" stroke-linecap="round"/>
<path d="M15.9262 15.0825H24.0301" stroke="#323232" stroke-width="0.679697" stroke-linecap="round"/>
<path d="M15.9262 13.8929H24.0301" stroke="#323232" stroke-width="0.679697" stroke-linecap="round"/>
<rect x="19.6802" y="10.9752" width="0.506544" height="3.85414" stroke="#323232" stroke-width="0.506544"/>
<path d="M19.2933 16.2481L19.1931 16.2481C19.0072 16.2481 18.9309 16.1681 18.9309 15.9788L18.9309 15.6036C18.9309 15.5888 18.9252 15.5747 18.9151 15.5643C18.905 15.5538 18.8913 15.548 18.877 15.548C18.8627 15.548 18.849 15.5538 18.8389 15.5643C18.8288 15.5747 18.8232 15.5888 18.8232 15.6036L18.8232 15.9931C18.8232 16.2278 18.951 16.3598 19.177 16.3588L19.293 16.3588C19.3073 16.3588 19.321 16.3529 19.3311 16.3425C19.3412 16.3321 19.3469 16.3179 19.3469 16.3032C19.3469 16.2885 19.3412 16.2743 19.3311 16.2639C19.321 16.2535 19.3073 16.2476 19.293 16.2476L19.2933 16.2481Z" fill="#323232" stroke="#323232" stroke-width="0.0203909"/>
<path d="M18.3625 15.548L18.284 15.548C18.0574 15.548 17.93 15.6791 17.9302 15.9135L17.9302 16.3032C17.9309 16.3175 17.9369 16.3309 17.947 16.3408C17.957 16.3506 17.9703 16.3561 17.9842 16.3561C17.998 16.3561 18.0113 16.3506 18.0213 16.3408C18.0314 16.3309 18.0374 16.3175 18.0381 16.3032L18.0381 15.9268C18.0381 15.737 18.1148 15.6587 18.3005 15.6587L18.3477 15.6587C18.5218 15.6587 18.6089 15.7269 18.6089 15.8896L18.6089 15.9062C18.6089 16.0691 18.5218 16.137 18.3477 16.137L18.1994 16.137C18.1923 16.137 18.1853 16.1385 18.1787 16.1413C18.1722 16.144 18.1663 16.1481 18.1613 16.1533C18.1563 16.1585 18.1523 16.1646 18.1496 16.1713C18.1469 16.1781 18.1455 16.1853 18.1455 16.1926C18.1455 16.1999 18.1469 16.2071 18.1496 16.2139C18.1523 16.2206 18.1563 16.2268 18.1613 16.2319C18.1663 16.2371 18.1722 16.2412 18.1787 16.244C18.1853 16.2468 18.1923 16.2482 18.1994 16.2482L18.363 16.2482C18.5783 16.2482 18.7164 16.1281 18.7163 15.9064L18.7163 15.8899C18.7158 15.6663 18.5777 15.548 18.3625 15.548Z" fill="#323232" stroke="#323232" stroke-width="0.0203909"/>
<path d="M19.8149 15.5479L19.7369 15.5479C19.5102 15.5479 19.3831 15.6789 19.3831 15.9134L19.3831 15.9932C19.3831 16.2279 19.5109 16.3587 19.7369 16.3587L19.8149 16.3587C20.0422 16.3587 20.1687 16.2278 20.1687 15.9932L20.1687 15.9134C20.1687 15.6789 20.0415 15.5479 19.8149 15.5479ZM20.0612 15.9783C20.0612 16.1689 19.9855 16.2481 19.7995 16.2481L19.7533 16.2481C19.5672 16.2481 19.4905 16.1689 19.4905 15.9783L19.4905 15.9274C19.4905 15.7367 19.5672 15.6587 19.7533 15.6587L19.7995 15.6587C19.9855 15.6587 20.0612 15.7367 20.0612 15.9274L20.0612 15.9783Z" fill="#323232" stroke="#323232" stroke-width="0.0203909"/>
<path d="M21.9842 16.3107C21.9429 16.268 21.9162 16.2483 21.8391 16.2483L21.5392 16.2483C21.3532 16.2483 21.2769 16.1694 21.2769 15.979L21.2769 15.927C21.2769 15.7363 21.3535 15.6588 21.5392 15.6588L21.5852 15.6588C21.7708 15.6588 21.848 15.7372 21.8475 15.927L21.8475 16.0876C21.8469 16.095 21.8479 16.1025 21.8503 16.1096C21.8528 16.1166 21.8567 16.1231 21.8617 16.1284C21.8668 16.1338 21.8729 16.1379 21.8797 16.1406C21.8865 16.1433 21.8937 16.1445 21.901 16.1441C21.9082 16.1444 21.9155 16.1432 21.9222 16.1405C21.929 16.1378 21.9351 16.1337 21.9402 16.1283C21.9453 16.123 21.9493 16.1166 21.9518 16.1096C21.9544 16.1026 21.9554 16.0951 21.9549 16.0876L21.9549 15.9141C21.9549 15.6794 21.8271 15.5484 21.6011 15.5484L21.5231 15.5484C21.2958 15.5484 21.1693 15.6794 21.1693 15.9141L21.1693 15.9939C21.1693 16.2285 21.2972 16.3605 21.5231 16.3594L21.843 16.3594C21.854 16.3585 21.8651 16.3602 21.8754 16.3645C21.8857 16.3687 21.8948 16.3754 21.9022 16.3839L21.9203 16.4023C21.9515 16.4349 21.9832 16.4359 22.0055 16.4123C22.0278 16.3887 22.0261 16.355 21.9993 16.3271L21.9842 16.3107Z" fill="#323232" stroke="#323232" stroke-width="0.0203909"/>
<path d="M20.708 15.5479L20.6298 15.5479C20.4033 15.5479 20.2757 15.679 20.2762 15.9134L20.2762 16.3031C20.2762 16.3179 20.2818 16.332 20.2919 16.3425C20.302 16.3529 20.3157 16.3587 20.33 16.3587C20.3443 16.3587 20.358 16.3529 20.3681 16.3425C20.3782 16.332 20.3839 16.3179 20.3839 16.3031L20.3839 15.9272C20.3839 15.7374 20.4605 15.6589 20.646 15.6589L20.6922 15.6589C20.8779 15.6589 20.9549 15.7373 20.9545 15.9271L20.9545 16.3037C20.954 16.3111 20.955 16.3185 20.9575 16.3254C20.96 16.3323 20.964 16.3386 20.969 16.3438C20.9741 16.3491 20.9802 16.3531 20.9869 16.3557C20.9936 16.3582 21.0008 16.3593 21.0079 16.3587C21.0151 16.3592 21.0223 16.3582 21.029 16.3556C21.0357 16.353 21.0418 16.349 21.0469 16.3438C21.052 16.3386 21.056 16.3323 21.0586 16.3254C21.0612 16.3185 21.0623 16.3111 21.0619 16.3037L21.0619 15.9134C21.0613 15.679 20.9345 15.5479 20.708 15.5479Z" fill="#323232" stroke="#323232" stroke-width="0.0203909"/>
<path d="M18.2046 2.33985H21.7954C23.2619 2.33985 24.4508 3.5287 24.4508 4.99522V8.54102C24.4508 9.77644 23.4493 10.7779 22.2139 10.7779H17.3677C16.3634 10.7779 15.5492 9.96378 15.5492 8.95947V4.99521C15.5492 3.5287 16.7381 2.33985 18.2046 2.33985Z" fill="white" stroke="#323232" stroke-width="0.679697"/>
<path d="M20.8042 37.4752C20.6347 37.3063 20.3912 37.2195 20.0805 37.2173H19.8667C19.2573 37.2173 18.9052 37.5735 18.8989 38.1967V38.3956C18.8961 38.7043 18.982 38.9472 19.1537 39.1177C19.3254 39.2882 19.5673 39.3731 19.8779 39.3756H20.0915C20.6999 39.3756 21.0518 39.0194 21.0571 38.3962V38.197C21.0605 37.8882 20.9753 37.6453 20.8042 37.4752ZM20.9322 38.197V38.3953C20.9275 38.9482 20.6234 39.2451 20.0805 39.246H19.8792C19.6032 39.2438 19.389 39.1695 19.2429 39.0253C19.0968 38.8811 19.0228 38.6684 19.0244 38.3959V38.1976C19.0291 37.6447 19.33 37.3494 19.8779 37.3469H20.079C20.3553 37.349 20.5691 37.4233 20.7149 37.5676C20.8607 37.7118 20.9334 37.9238 20.9312 38.1967L20.9322 38.197Z" fill="#323232" stroke="#323232" stroke-width="0.271879"/>
</svg>
