<svg width="40" height="64" viewBox="0 0 40 64" fill="none" xmlns="http://www.w3.org/2000/svg">
<path d="M14.0978 9.95311L13.7541 9.71461L13.7541 9.71461L14.0978 9.95311ZM14.6021 9.22632V8.80797H14.3832L14.2584 8.98783L14.6021 9.22632ZM12.0002 12.1216L12.25 12.4572L12.25 12.4572L12.0002 12.1216ZM10.7647 13.0412L11.0145 13.3768L10.7647 13.0412ZM19.0049 62.9905H19.4233V62.5865L19.0196 62.5724L19.0049 62.9905ZM19.0049 62.9999H18.5866V63.4183H19.0049V62.9999ZM20.9951 62.9999V63.4183H21.4134V62.9999H20.9951ZM20.9951 62.9905L20.9804 62.5724L20.5767 62.5865V62.9905H20.9951ZM29.2353 13.0412L28.9855 13.3768L28.9855 13.3768L29.2353 13.0412ZM27.9998 12.1216L28.2496 11.786L28.2496 11.786L27.9998 12.1216ZM25.9022 9.95311L26.2459 9.71462L26.2459 9.71462L25.9022 9.95311ZM25.3979 9.22632L25.7416 8.98783L25.6168 8.80797H25.3979V9.22632ZM14.4415 10.1916L14.9458 9.46481L14.2584 8.98783L13.7541 9.71461L14.4415 10.1916ZM12.25 12.4572C13.0984 11.8257 13.8386 11.0605 14.4415 10.1916L13.7541 9.71461C13.2028 10.5091 12.5261 11.2086 11.7504 11.786L12.25 12.4572ZM11.0145 13.3768L12.25 12.4572L11.7504 11.786L10.5149 12.7056L11.0145 13.3768ZM4.78364 25.7815C4.78364 20.8943 7.09397 16.2948 11.0145 13.3768L10.5149 12.7056C6.38228 15.7814 3.94695 20.6299 3.94695 25.7815H4.78364ZM4.78364 47.8187V25.7815H3.94695V47.8187H4.78364ZM19.0196 62.5724C11.1105 62.295 4.78364 55.7956 4.78364 47.8187H3.94695C3.94695 56.2479 10.6323 63.1155 18.9903 63.4085L19.0196 62.5724ZM18.5866 62.9905V62.9999H19.4233V62.9905H18.5866ZM19.0049 63.4183H19.5466V62.5816H19.0049V63.4183ZM19.5466 63.4183H20.4534V62.5816H19.5466V63.4183ZM20.9951 62.5816H20.4534V63.4183H20.9951V62.5816ZM20.5767 62.9905V62.9999H21.4134V62.9905H20.5767ZM21.0097 63.4085C29.3677 63.1155 36.0531 56.2479 36.0531 47.8187H35.2164C35.2164 55.7956 28.8895 62.295 20.9804 62.5724L21.0097 63.4085ZM36.0531 47.8187V25.7815H35.2164V47.8187H36.0531ZM36.0531 25.7815C36.0531 20.6299 33.6177 15.7814 29.4851 12.7056L28.9855 13.3768C32.906 16.2948 35.2164 20.8943 35.2164 25.7815H36.0531ZM29.4851 12.7056L28.2496 11.786L27.75 12.4572L28.9855 13.3768L29.4851 12.7056ZM28.2496 11.786C27.4739 11.2086 26.7972 10.5091 26.2459 9.71462L25.5585 10.1916C26.1615 11.0605 26.9016 11.8257 27.75 12.4572L28.2496 11.786ZM26.2459 9.71462L25.7416 8.98783L25.0542 9.46481L25.5585 10.1916L26.2459 9.71462ZM25.3979 8.80797H20.9951V9.64467H25.3979V8.80797ZM20.9951 8.80797H19.0049V9.64467H20.9951V8.80797ZM14.6021 9.64467H19.0049V8.80797H14.6021V9.64467Z" fill="#323232"/>
<path d="M25.7757 10.8494L26.468 47.9354C26.468 51.0852 23.9146 53.6386 20.7648 53.6386H19.2097C16.0599 53.6386 13.5065 51.0852 13.5065 47.9354L14.1881 11.1159C14.1942 10.7858 14.2586 10.4594 14.3782 10.1518L14.4495 9.96847C14.5525 9.70373 14.6146 9.42487 14.6338 9.14145L15.0016 3.69915C15.0892 2.40275 16.0559 1.33203 17.3468 1.18367C18.1982 1.08583 19.1534 1.00171 19.9319 0.999967C20.7444 0.998145 21.7454 1.0852 22.6297 1.18619C23.9187 1.33342 24.8855 2.40032 24.9765 3.69457L25.3692 9.28365C25.3872 9.53888 25.4555 9.78804 25.5702 10.0167C25.7001 10.2755 25.7703 10.56 25.7757 10.8494Z" fill="#323232" stroke="#323232" stroke-width="0.233558"/>
<path d="M14.0009 18.2272C15.6846 16.9428 20.4445 15.1446 26.014 18.2272" stroke="#323232" stroke-width="0.233558"/>
<circle cx="20.7901" cy="25.3365" r="3.15158" transform="rotate(-180 20.7901 25.3365)" stroke="url(#paint0_linear_632_600)" stroke-width="0.375074"/>
<path d="M19.5559 20.5337L19.3724 20.5337C19.0319 20.5337 18.8921 20.3928 18.8921 20.0589L18.8921 19.3974C18.8921 19.3714 18.8817 19.3465 18.8633 19.3281C18.8448 19.3097 18.8197 19.2994 18.7935 19.2994C18.7674 19.2994 18.7423 19.3097 18.7238 19.3281C18.7053 19.3465 18.6949 19.3714 18.6949 19.3974L18.6949 20.0843C18.6949 20.498 18.9291 20.7308 19.3428 20.729L19.5554 20.729C19.5815 20.729 19.6066 20.7186 19.6251 20.7003C19.6436 20.6819 19.654 20.6569 19.654 20.6309C19.654 20.6049 19.6436 20.58 19.6251 20.5616C19.6066 20.5433 19.5815 20.5329 19.5554 20.5329L19.5559 20.5337Z" fill="#898A8D" stroke="#898A8D" stroke-width="0.0890102"/>
<path d="M17.8518 19.2994L17.7081 19.2994C17.2931 19.2994 17.0598 19.5306 17.0603 19.9438L17.0603 20.6309C17.0616 20.6561 17.0725 20.6798 17.0909 20.6972C17.1093 20.7145 17.1337 20.7242 17.159 20.7242C17.1844 20.7242 17.2087 20.7145 17.2271 20.6972C17.2455 20.6798 17.2565 20.6561 17.2578 20.6309L17.2578 19.9674C17.2578 19.6327 17.3983 19.4946 17.7383 19.4946L17.8247 19.4946C18.1434 19.4946 18.3029 19.6149 18.3029 19.9017L18.3029 19.9309C18.3029 20.2182 18.1434 20.3379 17.8247 20.3379L17.5531 20.3379C17.5401 20.3379 17.5273 20.3405 17.5153 20.3454C17.5034 20.3503 17.4925 20.3575 17.4833 20.3667C17.4742 20.3758 17.4669 20.3866 17.462 20.3984C17.457 20.4103 17.4545 20.4231 17.4545 20.436C17.4545 20.4488 17.457 20.4616 17.462 20.4735C17.4669 20.4854 17.4742 20.4962 17.4833 20.5053C17.4925 20.5144 17.5034 20.5216 17.5153 20.5265C17.5273 20.5314 17.5401 20.534 17.5531 20.534L17.8528 20.534C18.247 20.534 18.4999 20.3222 18.4996 19.9314L18.4996 19.9022C18.4988 19.5081 18.2459 19.2994 17.8518 19.2994Z" fill="#898A8D" stroke="#898A8D" stroke-width="0.0890102"/>
<path d="M20.5104 19.2994L20.3675 19.2994C19.9525 19.2994 19.7197 19.5303 19.7197 19.9438L19.7197 20.0845C19.7197 20.4983 19.9538 20.729 20.3675 20.729L20.5104 20.729C20.9267 20.729 21.1582 20.498 21.1582 20.0845L21.1582 19.9438C21.1582 19.5303 20.9254 19.2994 20.5104 19.2994ZM20.9615 20.0581C20.9615 20.3943 20.8229 20.534 20.4823 20.534L20.3977 20.534C20.0569 20.534 19.9164 20.3943 19.9164 20.0581L19.9164 19.9684C19.9164 19.6322 20.0569 19.4946 20.3977 19.4946L20.4823 19.4946C20.8229 19.4946 20.9615 19.6322 20.9615 19.9684L20.9615 20.0581Z" fill="#898A8D" stroke="#898A8D" stroke-width="0.0890102"/>
<path d="M24.4813 20.6443C24.4056 20.5691 24.3567 20.5344 24.2157 20.5344L23.6664 20.5344C23.3258 20.5344 23.1861 20.3953 23.1861 20.0596L23.1861 19.9678C23.1861 19.6316 23.3264 19.4951 23.6664 19.4951L23.7507 19.4951C24.0905 19.4951 24.2318 19.6332 24.231 19.9678L24.231 20.251C24.2299 20.2641 24.2317 20.2774 24.2362 20.2898C24.2407 20.3022 24.2478 20.3135 24.2571 20.323C24.2664 20.3324 24.2776 20.3398 24.29 20.3445C24.3023 20.3493 24.3156 20.3513 24.3289 20.3506C24.3421 20.3512 24.3554 20.3491 24.3678 20.3443C24.3802 20.3396 24.3914 20.3322 24.4008 20.3228C24.4101 20.3134 24.4174 20.3022 24.422 20.2898C24.4266 20.2774 24.4286 20.2642 24.4277 20.251L24.4277 19.9451C24.4277 19.5313 24.1936 19.3004 23.7799 19.3004L23.637 19.3004C23.2207 19.3004 22.9892 19.5313 22.9892 19.9451L22.9892 20.0857C22.9892 20.4995 23.2233 20.7323 23.637 20.7302L24.2227 20.7302C24.2429 20.7286 24.2632 20.7317 24.282 20.7392C24.3009 20.7467 24.3177 20.7584 24.3312 20.7734L24.3643 20.806C24.4215 20.8634 24.4795 20.8652 24.5204 20.8235C24.5612 20.7819 24.5581 20.7224 24.5089 20.6733L24.4813 20.6443Z" fill="#898A8D" stroke="#898A8D" stroke-width="0.0890102"/>
<path d="M22.1456 19.2994L22.0025 19.2994C21.5878 19.2994 21.3541 19.5306 21.3549 19.9438L21.3549 20.6309C21.3549 20.6569 21.3653 20.6819 21.3838 20.7002C21.4023 20.7186 21.4274 20.729 21.4535 20.729C21.4797 20.729 21.5048 20.7186 21.5233 20.7002C21.5418 20.6819 21.5521 20.6569 21.5521 20.6309L21.5521 19.9681C21.5521 19.6335 21.6924 19.4951 22.0322 19.4951L22.1167 19.4951C22.4568 19.4951 22.5978 19.6332 22.5971 19.9679L22.5971 20.632C22.5961 20.645 22.598 20.658 22.6026 20.6702C22.6072 20.6824 22.6144 20.6935 22.6237 20.7027C22.6329 20.7119 22.6441 20.719 22.6564 20.7235C22.6687 20.7281 22.6818 20.7299 22.6949 20.729C22.708 20.7299 22.7211 20.728 22.7335 20.7234C22.7458 20.7189 22.757 20.7118 22.7663 20.7026C22.7757 20.6935 22.783 20.6824 22.7877 20.6702C22.7924 20.6581 22.7945 20.645 22.7938 20.632L22.7938 19.9438C22.7927 19.5306 22.5604 19.2994 22.1456 19.2994Z" fill="#898A8D" stroke="#898A8D" stroke-width="0.0890102"/>
<g clip-path="url(#clip0_632_600)">
<path d="M21.3089 41.1526C21.7617 40.6892 22.1319 40.1998 22.2773 39.5684C22.4258 38.9551 22.3857 38.3113 22.1624 37.7211L22.2286 37.695C22.3176 37.7515 22.4025 37.814 22.4829 37.8823C22.7154 38.1078 22.9575 38.3421 23.0507 38.6539C23.1108 38.8668 23.1135 39.0919 23.0586 39.3062C22.9406 39.7008 22.7389 40.0653 22.4672 40.3748C22.1863 40.7071 21.8321 40.9698 21.4325 41.1421C21.3922 41.1524 21.3504 41.1559 21.3089 41.1526Z" fill="white"/>
</g>
<g clip-path="url(#clip1_632_600)">
<path d="M21.8646 39.3181C21.6898 38.6943 21.451 38.129 20.9769 37.6873C20.52 37.2521 19.9424 36.9649 19.3197 36.8633L19.3301 36.7929C19.4235 36.744 19.5202 36.7017 19.6195 36.6663C19.9311 36.5777 20.255 36.4851 20.5716 36.5603C20.7861 36.6148 20.9823 36.7249 21.1405 36.8797C21.4232 37.1792 21.638 37.5361 21.7703 37.9261C21.9176 38.3356 21.9679 38.7736 21.9174 39.2058C21.9061 39.2459 21.8883 39.2838 21.8646 39.3181Z" fill="white"/>
</g>
<g clip-path="url(#clip2_632_600)">
<path d="M18.1096 40.0517C18.2844 40.6755 18.5232 41.2408 18.9973 41.6825C19.4542 42.1177 20.0318 42.4049 20.6546 42.5065L20.6441 42.5769C20.5507 42.6258 20.454 42.6681 20.3548 42.7035C20.0432 42.7921 19.7192 42.8847 19.4026 42.8095C19.1881 42.755 18.9919 42.6449 18.8338 42.4901C18.551 42.1907 18.3362 41.8337 18.204 41.4437C18.0567 41.0342 18.0063 40.5962 18.0568 40.164C18.0681 40.1239 18.086 40.086 18.1096 40.0517Z" fill="white"/>
</g>
<g clip-path="url(#clip3_632_600)">
<path d="M20.7561 37.8507C20.1284 37.6902 19.5194 37.6144 18.8999 37.8041C18.2945 37.9822 17.757 38.3388 17.3576 38.8273L17.3019 38.7831C17.3063 38.6777 17.318 38.5729 17.3369 38.4692C17.416 38.155 17.4978 37.8282 17.7212 37.5916C17.8756 37.4331 18.0691 37.3182 18.2822 37.2587C18.6829 37.1635 19.0995 37.156 19.5034 37.2365C19.9316 37.3136 20.3361 37.489 20.6852 37.7489C20.7142 37.7787 20.7382 37.8131 20.7561 37.8507Z" fill="white"/>
</g>
<g clip-path="url(#clip4_632_600)">
<path d="M19.2186 41.5194C19.8463 41.68 20.4553 41.7558 21.0748 41.566C21.6802 41.3879 22.2177 41.0313 22.6171 40.5429L22.6728 40.5871C22.6684 40.6924 22.6567 40.7973 22.6378 40.901C22.5587 41.2152 22.4769 41.542 22.2535 41.7786C22.0991 41.9371 21.9056 42.0519 21.6925 42.1115C21.2918 42.2066 20.8752 42.2142 20.4713 42.1337C20.0431 42.0565 19.6386 41.8812 19.2895 41.6213C19.2605 41.5915 19.2365 41.557 19.2186 41.5194Z" fill="white"/>
</g>
<g clip-path="url(#clip5_632_600)">
<path d="M18.7433 38.2174C18.2905 38.6808 17.9203 39.1702 17.7749 39.8016C17.6264 40.4149 17.6665 41.0587 17.8898 41.6489L17.8237 41.675C17.7347 41.6185 17.6497 41.556 17.5693 41.4877C17.3368 41.2622 17.0947 41.0279 17.0015 40.7161C16.9414 40.5032 16.9387 40.2781 16.9937 40.0638C17.1116 39.6692 17.3133 39.3047 17.585 38.9952C17.866 38.6629 18.2201 38.4002 18.6197 38.2279C18.66 38.2176 18.7018 38.2141 18.7433 38.2174Z" fill="white"/>
</g>
<path d="M20.3294 40.3955H19.7631C19.7029 40.3955 19.6542 40.3504 19.6542 40.2945V39.2238C19.6542 39.1679 19.7029 39.1228 19.7631 39.1228H20.3294C20.3897 39.1228 20.4383 39.1679 20.4383 39.2238V40.2945C20.4383 40.3504 20.3897 40.3955 20.3294 40.3955Z" fill="white" stroke="white" stroke-width="0.112487" stroke-miterlimit="10" stroke-linecap="round" stroke-linejoin="round"/>
<path d="M19.8281 39.001C19.8281 38.9529 19.8671 38.9139 19.9152 38.9139L20.1769 38.9139C20.225 38.9139 20.264 38.9529 20.264 39.001L20.264 39.2287C20.264 39.2965 20.2462 39.3498 20.2236 39.3498L19.8685 39.3498C19.8459 39.3498 19.8281 39.2965 19.8281 39.2287L19.8281 39.001Z" fill="white" stroke="white" stroke-width="0.112487" stroke-miterlimit="10" stroke-linecap="round" stroke-linejoin="round"/>
<path d="M20.3836 39.6193H19.7087C19.6782 39.6193 19.6542 39.6371 19.6542 39.6597V40.3546C19.6542 40.3772 19.6782 40.3949 19.7087 40.3949H20.3836C20.4141 40.3949 20.438 40.3772 20.438 40.3546V39.6597C20.438 39.6371 20.4141 39.6193 20.3836 39.6193Z" fill="white"/>
<circle cx="19.9876" cy="47.3303" r="2.69988" stroke="white" stroke-width="0.522522"/>
<g clip-path="url(#clip6_632_600)">
<path d="M21.3089 34.5343C21.7618 34.071 22.1319 33.5816 22.2774 32.9501C22.4258 32.3369 22.3857 31.6931 22.1624 31.1029L22.2286 31.0768C22.3176 31.1332 22.4026 31.1958 22.4829 31.264C22.7154 31.4896 22.9576 31.7239 23.0507 32.0357C23.1108 32.2486 23.1135 32.4737 23.0586 32.688C22.9406 33.0826 22.7389 33.4471 22.4672 33.7566C22.1863 34.0889 21.8321 34.3515 21.4326 34.5239C21.3922 34.5341 21.3504 34.5377 21.3089 34.5343Z" fill="white"/>
</g>
<g clip-path="url(#clip7_632_600)">
<path d="M21.8649 32.7C21.6901 32.0762 21.4513 31.5109 20.9772 31.0692C20.5202 30.634 19.9427 30.3468 19.3199 30.2452L19.3304 30.1748C19.4238 30.1259 19.5205 30.0836 19.6197 30.0482C19.9313 29.9596 20.2553 29.867 20.5719 29.9422C20.7863 29.9967 20.9826 30.1068 21.1407 30.2616C21.4235 30.5611 21.6383 30.918 21.7705 31.308C21.9178 31.7175 21.9682 32.1555 21.9177 32.5877C21.9064 32.6278 21.8885 32.6657 21.8649 32.7Z" fill="white"/>
</g>
<g clip-path="url(#clip8_632_600)">
<path d="M18.1098 33.4332C18.2846 34.0571 18.5234 34.6224 18.9975 35.064C19.4544 35.4992 20.032 35.7864 20.6547 35.8881L20.6443 35.9585C20.5509 36.0073 20.4542 36.0496 20.355 36.0851C20.0433 36.1737 19.7194 36.2662 19.4028 36.191C19.1883 36.1366 18.9921 36.0264 18.8339 35.8717C18.5512 35.5722 18.3364 35.2153 18.2042 34.8252C18.0569 34.4158 18.0065 33.9777 18.057 33.5455C18.0683 33.5055 18.0862 33.4675 18.1098 33.4332Z" fill="white"/>
</g>
<g clip-path="url(#clip9_632_600)">
<path d="M20.7561 31.2324C20.1284 31.0719 19.5194 30.996 18.8999 31.1858C18.2945 31.3639 17.757 31.7205 17.3576 32.209L17.3019 32.1647C17.3063 32.0594 17.318 31.9545 17.3369 31.8508C17.416 31.5367 17.4978 31.2099 17.7212 30.9733C17.8756 30.8148 18.0691 30.6999 18.2822 30.6403C18.6829 30.5452 19.0995 30.5376 19.5034 30.6181C19.9316 30.6953 20.3361 30.8707 20.6852 31.1305C20.7142 31.1604 20.7382 31.1948 20.7561 31.2324Z" fill="white"/>
</g>
<g clip-path="url(#clip10_632_600)">
<path d="M19.2186 34.9008C19.8462 35.0614 20.4552 35.1372 21.0747 34.9475C21.6801 34.7694 22.2176 34.4128 22.617 33.9243L22.6727 33.9685C22.6683 34.0738 22.6566 34.1787 22.6377 34.2824C22.5586 34.5966 22.4768 34.9234 22.2534 35.16C22.099 35.3185 21.9055 35.4333 21.6924 35.4929C21.2917 35.5881 20.8752 35.5956 20.4713 35.5151C20.043 35.438 19.6385 35.2626 19.2894 35.0027C19.2604 34.9729 19.2364 34.9385 19.2186 34.9008Z" fill="white"/>
</g>
<g clip-path="url(#clip11_632_600)">
<path d="M18.7433 31.599C18.2905 32.0623 17.9203 32.5517 17.7749 33.1832C17.6264 33.7964 17.6665 34.4402 17.8898 35.0304L17.8237 35.0565C17.7347 35.0001 17.6497 34.9375 17.5693 34.8693C17.3368 34.6437 17.0947 34.4094 17.0015 34.0976C16.9414 33.8847 16.9387 33.6596 16.9937 33.4453C17.1116 33.0507 17.3133 32.6862 17.585 32.3767C17.866 32.0444 18.2201 31.7818 18.6197 31.6094C18.66 31.5992 18.7018 31.5956 18.7433 31.599Z" fill="white"/>
</g>
<path d="M20.375 33.228V33.228C20.3765 33.225 20.3787 33.2224 20.3806 33.2195L20.7762 32.6047C20.7891 32.5845 20.8198 32.5845 20.8327 32.6047L21.2318 33.2245V33.2245C21.2334 33.2275 21.2356 33.2301 21.2374 33.233C21.2843 33.311 21.3104 33.4022 21.3062 33.4995C21.2969 33.757 21.0802 33.965 20.8163 33.9713C20.5337 33.9776 20.302 33.7563 20.302 33.4813C20.3027 33.3885 20.3292 33.302 20.375 33.228Z" fill="white"/>
<defs>
<linearGradient id="paint0_linear_632_600" x1="20.7901" y1="21.9974" x2="20.7901" y2="28.6756" gradientUnits="userSpaceOnUse">
<stop stop-color="#797979"/>
<stop offset="1" stop-color="#2E2E2E" stop-opacity="0"/>
</linearGradient>
<clipPath id="clip0_632_600">
<rect width="1.78888" height="3.45756" fill="white" transform="translate(21.3089 37.695)"/>
</clipPath>
<clipPath id="clip1_632_600">
<rect width="1.78888" height="3.45756" fill="white" transform="translate(18.8705 37.5895) rotate(-60)"/>
</clipPath>
<clipPath id="clip2_632_600">
<rect width="1.78888" height="3.45756" fill="white" transform="translate(21.1042 41.7804) rotate(120)"/>
</clipPath>
<clipPath id="clip3_632_600">
<rect width="1.78888" height="3.45756" fill="white" transform="translate(17.7617 39.5795) rotate(-120)"/>
</clipPath>
<clipPath id="clip4_632_600">
<rect width="1.78888" height="3.45756" fill="white" transform="translate(22.213 39.7906) rotate(60)"/>
</clipPath>
<clipPath id="clip5_632_600">
<rect width="1.78888" height="3.45756" fill="white" transform="translate(18.7433 41.675) rotate(180)"/>
</clipPath>
<clipPath id="clip6_632_600">
<rect width="1.78888" height="3.45756" fill="white" transform="translate(21.3089 31.0768)"/>
</clipPath>
<clipPath id="clip7_632_600">
<rect width="1.78888" height="3.45756" fill="white" transform="translate(18.8705 30.9713) rotate(-60)"/>
</clipPath>
<clipPath id="clip8_632_600">
<rect width="1.78888" height="3.45756" fill="white" transform="translate(21.1044 35.162) rotate(120)"/>
</clipPath>
<clipPath id="clip9_632_600">
<rect width="1.78888" height="3.45756" fill="white" transform="translate(17.7617 32.9612) rotate(-120)"/>
</clipPath>
<clipPath id="clip10_632_600">
<rect width="1.78888" height="3.45756" fill="white" transform="translate(22.213 33.1721) rotate(60)"/>
</clipPath>
<clipPath id="clip11_632_600">
<rect width="1.78888" height="3.45756" fill="white" transform="translate(18.7433 35.0565) rotate(180)"/>
</clipPath>
</defs>
</svg>
