<svg width="40" height="64" viewBox="0 0 40 64" fill="none" xmlns="http://www.w3.org/2000/svg">
<path d="M19.9645 1.00012H21.706C23.0035 1.07172 23.2084 1.25073 23.7889 1.78774C24.2533 2.21735 24.4604 3.63746 24.506 4.29381C25.4279 16.2871 25.6328 42.2189 25.7352 53.7707L25.7 59.5165L25.6328 59.5704C25.1411 59.7136 21.6491 59.7017 19.9645 59.6778" stroke="#323232" stroke-width="0.955957"/>
<path d="M19.9645 1.00012H18.2443C16.9626 1.07172 16.7602 1.25073 16.1868 1.78774C15.728 2.21735 15.5234 3.63746 15.4784 4.29381C14.5677 16.2871 14.3654 42.2189 14.2642 53.7707V59.5165L14.3654 59.5704C14.8511 59.7136 18.3005 59.7017 19.9645 59.6778" stroke="#323232" stroke-width="0.955957"/>
<path d="M14.2643 60.0443H14.3346C15.6848 60.1381 18.6007 60.1303 19.8899 60.1147C22.2527 60.171 24.6482 60.1069 25.5507 60.0678H25.665C25.6931 60.4243 25.6562 61.3111 25.41 61.8506C25.3632 61.9992 25.2076 62.3833 24.8475 62.6716C24.4959 62.9531 23.6872 62.9766 23.4059 62.9766L19.8899 63L16.3387 62.9766C15.0026 63 14.7565 62.5074 14.4752 61.8975C14.2502 61.4096 14.2643 60.4353 14.2643 60.0443Z" stroke="#323232" stroke-width="0.955957"/>
<mask id="path-4-inside-1_632_426" fill="white">
<path fill-rule="evenodd" clip-rule="evenodd" d="M20.01 39.7062C19.8739 39.7062 19.7637 39.8165 19.7637 39.9525V40.1987H19.5172C19.3812 40.1987 19.2709 40.309 19.2709 40.445C19.2709 40.5811 19.3812 40.6913 19.5172 40.6913H19.7637V40.9377C19.7637 41.0738 19.8739 41.184 20.01 41.184C20.146 41.184 20.2563 41.0738 20.2563 40.9377V40.6913H20.5025C20.6385 40.6913 20.7488 40.5811 20.7488 40.445C20.7488 40.309 20.6385 40.1987 20.5025 40.1987H20.2563V39.9525C20.2563 39.8165 20.146 39.7062 20.01 39.7062Z"/>
</mask>
<path d="M19.7637 40.1987V41.1547H20.7196V40.1987H19.7637ZM19.7637 40.6913H20.7196V39.7354H19.7637V40.6913ZM20.2563 40.6913V39.7354H19.3003V40.6913H20.2563ZM20.5025 40.1987L20.5025 39.2428H20.5025V40.1987ZM20.2563 40.1987H19.3003V41.1547H20.2563V40.1987ZM20.7196 39.9525C20.7196 40.3444 20.4019 40.6621 20.01 40.6621V38.7502C19.346 38.7502 18.8077 39.2885 18.8077 39.9525H20.7196ZM20.7196 40.1987V39.9525H18.8077V40.1987H20.7196ZM19.5172 41.1547H19.7637V39.2428H19.5172V41.1547ZM20.2269 40.445C20.2269 40.837 19.9091 41.1547 19.5172 41.1547V39.2428C18.8532 39.2428 18.3149 39.781 18.3149 40.445L20.2269 40.445ZM19.5172 39.7354C19.9091 39.7354 20.2269 40.0531 20.2269 40.445L18.3149 40.445C18.3149 41.109 18.8532 41.6473 19.5172 41.6473V39.7354ZM19.7637 39.7354H19.5172V41.6473H19.7637V39.7354ZM20.7196 40.9377V40.6913H18.8077V40.9377H20.7196ZM20.01 40.2281C20.4019 40.2281 20.7196 40.5458 20.7196 40.9377H18.8077C18.8077 41.6017 19.346 42.14 20.01 42.14V40.2281ZM19.3003 40.9377C19.3003 40.5458 19.618 40.2281 20.01 40.2281V42.14C20.674 42.14 21.2122 41.6017 21.2122 40.9377H19.3003ZM19.3003 40.6913V40.9377H21.2122V40.6913H19.3003ZM20.5025 39.7354H20.2563V41.6473H20.5025V39.7354ZM19.7928 40.445C19.7928 40.0531 20.1105 39.7354 20.5025 39.7354V41.6473C21.1665 41.6473 21.7047 41.109 21.7047 40.445H19.7928ZM20.5025 41.1547C20.1105 41.1547 19.7928 40.837 19.7928 40.445H21.7047C21.7047 39.781 21.1665 39.2428 20.5025 39.2428L20.5025 41.1547ZM20.2563 41.1547H20.5025V39.2428H20.2563V41.1547ZM19.3003 39.9525V40.1987H21.2122V39.9525H19.3003ZM20.01 40.6621C19.618 40.6621 19.3003 40.3444 19.3003 39.9525H21.2122C21.2122 39.2885 20.674 38.7502 20.01 38.7502V40.6621Z" fill="#323232" mask="url(#path-4-inside-1_632_426)"/>
<path d="M19.4592 45.4288L19.4592 45.2409C19.4592 44.8922 19.6091 44.7491 19.9642 44.7491L20.6678 44.7491C20.6954 44.7491 20.722 44.7384 20.7415 44.7195C20.761 44.7006 20.772 44.6749 20.772 44.6481C20.772 44.6213 20.761 44.5956 20.7415 44.5767C20.722 44.5578 20.6954 44.5471 20.6678 44.5471L19.9373 44.5471C19.4972 44.5471 19.2496 44.7869 19.2516 45.2106L19.2516 45.4283C19.2516 45.455 19.2625 45.4807 19.2821 45.4997C19.3016 45.5186 19.3282 45.5292 19.3558 45.5292C19.3835 45.5292 19.41 45.5186 19.4295 45.4997C19.4491 45.4807 19.46 45.455 19.46 45.4283L19.4592 45.4288Z" fill="#323232" stroke="#323232" stroke-width="0.191191"/>
<path d="M20.772 43.6832L20.772 43.5361C20.772 43.1112 20.5261 42.8721 20.0866 42.8727L19.3558 42.8727C19.3291 42.874 19.3038 42.8852 19.2854 42.9041C19.2669 42.9229 19.2567 42.9478 19.2567 42.9738C19.2567 42.9998 19.2669 43.0247 19.2854 43.0435C19.3038 43.0623 19.3291 43.0736 19.3558 43.0749L20.0616 43.0749C20.4175 43.0749 20.5644 43.2188 20.5644 43.567L20.5644 43.6555C20.5644 43.9819 20.4365 44.1452 20.1314 44.1452L20.1004 44.1452C19.7948 44.1452 19.6674 43.9819 19.6674 43.6555L19.6674 43.3773C19.6674 43.3641 19.6647 43.3509 19.6595 43.3387C19.6543 43.3264 19.6466 43.3153 19.6369 43.3059C19.6272 43.2965 19.6157 43.2891 19.6031 43.284C19.5904 43.279 19.5769 43.2763 19.5632 43.2763C19.5495 43.2763 19.5359 43.279 19.5233 43.284C19.5107 43.2891 19.4992 43.2965 19.4895 43.3059C19.4798 43.3153 19.4721 43.3264 19.4669 43.3387C19.4616 43.3509 19.459 43.3641 19.459 43.3773L19.459 43.6843C19.459 44.0879 19.6842 44.3469 20.0998 44.3467L20.1309 44.3467C20.5501 44.3459 20.772 44.0869 20.772 43.6832Z" fill="#323232" stroke="#323232" stroke-width="0.191191"/>
<path d="M20.772 46.4067L20.772 46.2604C20.772 45.8354 20.5264 45.5969 20.0866 45.5969L19.937 45.5969C19.4969 45.5969 19.2516 45.8367 19.2516 46.2604L19.2516 46.4067C19.2516 46.833 19.4972 47.0701 19.937 47.0701L20.0866 47.0701C20.5264 47.0701 20.772 46.8316 20.772 46.4067ZM19.965 46.8687C19.6075 46.8687 19.459 46.7267 19.459 46.3779L19.459 46.2913C19.459 45.9422 19.6075 45.7984 19.965 45.7984L20.0605 45.7984C20.418 45.7984 20.5644 45.9422 20.5644 46.2913L20.5644 46.3779C20.5644 46.7267 20.418 46.8687 20.0605 46.8687L19.965 46.8687Z" fill="#323232" stroke="#323232" stroke-width="0.191191"/>
<path d="M19.3417 50.4747C19.4217 50.3972 19.4586 50.3471 19.4586 50.2027L19.4586 49.6402C19.4586 49.2914 19.6065 49.1484 19.9635 49.1484L20.0612 49.1484C20.4187 49.1484 20.564 49.292 20.564 49.6402L20.564 49.7265C20.564 50.0745 20.4171 50.2192 20.0612 50.2184L19.76 50.2184C19.746 50.2173 19.7319 50.2191 19.7187 50.2237C19.7055 50.2283 19.6935 50.2356 19.6834 50.2451C19.6734 50.2546 19.6656 50.2661 19.6605 50.2787C19.6555 50.2914 19.6533 50.305 19.6541 50.3186C19.6534 50.3322 19.6556 50.3458 19.6607 50.3585C19.6658 50.3712 19.6736 50.3827 19.6836 50.3922C19.6936 50.4018 19.7056 50.4092 19.7188 50.414C19.7319 50.4187 19.746 50.4207 19.76 50.4198L20.0854 50.4198C20.5255 50.4198 20.7711 50.18 20.7711 49.7564L20.7711 49.6101C20.7711 49.1838 20.5255 48.9467 20.0854 48.9467L19.9358 48.9467C19.4957 48.9467 19.2481 49.1865 19.2503 49.6101L19.2503 50.2099C19.252 50.2306 19.2487 50.2514 19.2408 50.2706C19.2328 50.2899 19.2204 50.3071 19.2044 50.321L19.1698 50.3548C19.1087 50.4134 19.1068 50.4729 19.1511 50.5147C19.1953 50.5565 19.2586 50.5533 19.3109 50.503L19.3417 50.4747Z" fill="#323232" stroke="#323232" stroke-width="0.191191"/>
<path d="M20.772 48.0819L20.772 47.9354C20.772 47.5107 20.5261 47.2714 20.0866 47.2722L19.3558 47.2722C19.3282 47.2722 19.3016 47.2829 19.2821 47.3018C19.2625 47.3207 19.2516 47.3464 19.2516 47.3732C19.2516 47.4 19.2625 47.4257 19.2821 47.4446C19.3016 47.4635 19.3282 47.4742 19.3558 47.4742L20.0608 47.4742C20.4167 47.4742 20.5638 47.6178 20.5638 47.9658L20.5638 48.0524C20.5638 48.4006 20.4169 48.545 20.061 48.5442L19.3547 48.5442C19.3409 48.5433 19.327 48.5452 19.314 48.5499C19.3011 48.5546 19.2893 48.562 19.2795 48.5715C19.2697 48.581 19.2621 48.5924 19.2573 48.605C19.2525 48.6176 19.2505 48.631 19.2516 48.6444C19.2506 48.6578 19.2526 48.6713 19.2574 48.6839C19.2623 48.6965 19.2698 48.708 19.2796 48.7176C19.2893 48.7272 19.3011 48.7346 19.314 48.7395C19.327 48.7443 19.3408 48.7464 19.3547 48.7457L20.0866 48.7457C20.5261 48.7446 20.772 48.5067 20.772 48.0819Z" fill="#323232" stroke="#323232" stroke-width="0.191191"/>
<path d="M14.2643 60.0442V59.5164C17.0792 59.7627 22.7913 59.5868 25.6649 59.4812V60.0442H25.5242C20.6543 60.3538 16.0354 60.1732 14.3346 60.0442H14.2643Z" fill="#323232" stroke="#323232" stroke-width="0.955957"/>
</svg>
