<svg width="40" height="64" viewBox="0 0 40 64" fill="none" xmlns="http://www.w3.org/2000/svg">
<path d="M11.738 9.94041C11.738 9.94041 12.1568 9.83047 12.5205 10.096C12.8841 10.3615 14.4924 10.9914 14.4924 20.6093V48.8659C14.4924 58.8596 13.6038 60.1592 12.7983 60.8029C12.1916 61.2869 11.8347 61.0795 11.8347 61.0795" stroke="#323232" stroke-width="0.940879" stroke-linecap="round" stroke-linejoin="round"/>
<path d="M13.1152 9.66803C13.1152 9.66803 13.4823 9.64224 13.8351 9.91036C14.1879 10.1785 15.7443 11.1478 15.7443 20.4429V48.9968C15.7443 59.0957 14.8905 60.0811 14.1185 60.9705C13.614 61.5518 13.2035 61.334 13.2035 61.334" stroke="#323232" stroke-width="0.940879" stroke-linecap="round" stroke-linejoin="round"/>
<path d="M5.86943 16.4281C6.46306 16.4281 7.09875 17.0721 7.09875 22.1187V47.8038C7.09875 50.189 7.26158 54.7386 6.0141 54.7386C4.76663 54.7386 4.85347 51.47 4.85347 49.4823V19.7224C4.85347 17.6192 5.23678 16.4281 5.86943 16.4281Z" stroke="#323232" stroke-width="0.940879" stroke-linecap="round" stroke-linejoin="round"/>
<path d="M35.4981 35.7434C35.4905 34.8732 35.4752 34.0031 35.4612 33.1328C35.4515 32.5287 35.4395 31.9247 35.4251 31.3208C35.4031 30.4272 35.3825 29.5335 35.3539 28.6396C35.3216 27.6318 35.2775 26.6169 35.2408 25.6092C35.2164 24.9396 35.1744 24.2773 35.1479 23.6075C35.1378 23.3542 35.1224 23.0934 35.1072 22.8403C35.0612 22.0693 35.0188 21.3063 34.9709 20.5355C34.9461 20.1376 34.9224 19.736 34.8925 19.3388C34.8491 18.7612 34.8088 18.1812 34.7621 17.604C34.7112 16.9785 34.6655 16.3216 34.5967 15.698C34.4928 14.7558 34.3736 13.8316 34.2527 12.8912C34.0577 11.3755 33.8499 9.85503 33.6522 8.33953C33.4722 6.96207 33.2996 5.62492 33.1168 4.2478C33.0916 4.05752 33.0561 2.56341 33.0442 2.54663C33.0322 2.52985 32.74 2.27747 32.6379 2.19132C32.6153 2.17212 32.4769 2.14375 32.3014 2.1332C31.4555 2.08251 30.5668 2.05362 29.661 2.0346C28.924 2.01903 28.1817 2 27.4445 2C26.6227 2 25.8485 2.00761 25.027 2.0346C24.8064 2.04186 24.4904 2.04774 24.4295 2.10292C24.2979 2.22194 24.0345 3.59064 24.0074 3.64686C23.3167 5.07414 22.4774 6.02399 21.476 6.80293C20.3673 7.66507 19.0499 8.2674 17.6916 8.60766C16.6644 8.86488 15.8773 8.97939 14.9292 9.1337C13.0952 9.43226 11.3153 9.90122 9.69479 10.8462C8.7342 11.4058 7.85563 12.0521 7.09955 12.875C6.44312 13.5887 5.91213 14.3695 5.50174 15.2479C5.13564 16.0317 4.89618 16.8567 4.72801 17.7022C4.555 18.5671 4.55032 19.4428 4.52039 20.316C4.48043 21.5058 4.4941 22.691 4.48752 23.8817C4.48147 24.9507 4.47662 26.008 4.47662 27.077C4.47662 29.5569 4.47783 32.0485 4.47783 34.5284C4.47783 37.2742 4.47264 40.0199 4.47783 42.7655C4.48014 43.9803 4.4881 45.1951 4.50171 46.4099C4.52368 48.1916 4.56296 49.9751 4.57386 51.7578C4.57835 52.4843 4.76313 53.5406 5.01366 54.4029C5.54309 56.2258 6.54503 57.7601 7.99854 58.9778C9.20498 59.9885 10.5343 60.692 12.021 61.1919C13.588 61.7182 15.2218 61.9247 16.8637 61.9818C17.5271 62.0048 18.239 62.0131 18.9005 61.9636C20.304 61.8586 20.5996 61.7882 21.4473 61.6329C23.4606 61.2635 25.3505 60.6105 27.1352 59.5993C28.8987 58.6 30.4225 57.2574 31.5512 55.5669C32.1801 54.6252 32.718 53.6047 33.1762 52.5672C33.8882 50.9557 34.3909 49.2821 34.7634 47.5644C35.0673 46.1632 35.3263 44.2732 35.3917 43.3168C35.45 42.4621 35.5145 41.606 35.5207 40.7501C35.533 39.0806 35.5128 37.4127 35.4981 35.7434Z" stroke="#323232" stroke-width="0.940879" stroke-linecap="round" stroke-linejoin="round"/>
<path d="M6.29163 50.3566C6.39536 50.3566 6.47945 50.2165 6.47945 50.0437C6.47945 49.8981 6.59303 45.9744 6.5123 45.1526C6.49713 44.9981 6.51637 44.7961 6.33956 44.6858C6.26237 44.6821 5.99786 44.6527 5.98269 44.8071C5.90196 45.629 5.96104 49.8982 5.96104 50.0437C5.96104 50.2165 6.18791 50.3566 6.29163 50.3566Z" stroke="#323232" stroke-width="0.940879" stroke-linecap="round" stroke-linejoin="round"/>
</svg>
