<svg width="40" height="64" viewBox="0 0 40 64" fill="none" xmlns="http://www.w3.org/2000/svg">
<path d="M17.195 34.3034L17.195 34.1394C17.195 33.8349 17.3641 33.71 17.7646 33.71L18.5581 33.71C18.5893 33.71 18.6192 33.7007 18.6412 33.6842C18.6633 33.6677 18.6757 33.6452 18.6757 33.6219C18.6757 33.5985 18.6633 33.576 18.6412 33.5595C18.6192 33.543 18.5893 33.5337 18.5581 33.5337L17.7342 33.5337C17.2379 33.5337 16.9587 33.743 16.9608 34.1129L16.9608 34.3029C16.9608 34.3263 16.9732 34.3488 16.9953 34.3653C17.0173 34.3818 17.0472 34.3911 17.0784 34.3911C17.1096 34.3911 17.1395 34.3818 17.1615 34.3653C17.1836 34.3488 17.196 34.3263 17.196 34.3029L17.195 34.3034Z" fill="#323232" stroke="#323232" stroke-width="0.109091"/>
<path d="M18.6757 32.3976L18.6757 32.2265C18.6757 31.732 18.3974 31.454 17.9 31.4546L17.073 31.4546C17.0428 31.4561 17.0142 31.4692 16.9933 31.4911C16.9725 31.513 16.9608 31.542 16.9608 31.5722C16.9608 31.6024 16.9725 31.6315 16.9933 31.6534C17.0142 31.6752 17.0428 31.6883 17.073 31.6899L17.8717 31.6899C18.2745 31.6899 18.4407 31.8573 18.4407 32.2624L18.4407 32.3653C18.4407 32.7451 18.2959 32.9351 17.9508 32.9351L17.9156 32.9351C17.5698 32.9351 17.4257 32.7451 17.4257 32.3653L17.4257 32.0417C17.4257 32.0263 17.4226 32.011 17.4167 31.9967C17.4108 31.9825 17.4021 31.9695 17.3911 31.9586C17.3802 31.9477 17.3672 31.9391 17.3529 31.9332C17.3385 31.9273 17.3232 31.9242 17.3077 31.9242C17.2922 31.9242 17.2769 31.9273 17.2626 31.9332C17.2483 31.9391 17.2353 31.9477 17.2243 31.9586C17.2133 31.9695 17.2047 31.9825 17.1987 31.9967C17.1928 32.011 17.1898 32.0263 17.1898 32.0417L17.1898 32.3988C17.1898 32.8684 17.4447 33.1697 17.915 33.1694L17.9501 33.1694C18.4245 33.1685 18.6757 32.8672 18.6757 32.3976Z" fill="#323232" stroke="#323232" stroke-width="0.109091"/>
<path d="M18.6757 35.4301L18.6757 35.2598C18.6757 34.7651 18.3986 34.4875 17.9026 34.4875L17.7339 34.4875C17.2375 34.4875 16.9608 34.7667 16.9608 35.2598L16.9608 35.4301C16.9608 35.9263 17.2378 36.2024 17.7339 36.2024L17.9026 36.2024C18.3986 36.2024 18.6757 35.9248 18.6757 35.4301ZM17.7655 35.9679C17.3622 35.9679 17.1947 35.8026 17.1947 35.3966L17.1947 35.2958C17.1947 34.8895 17.3622 34.722 17.7655 34.722L17.8731 34.722C18.2764 34.722 18.4415 34.8895 18.4415 35.2958L18.4415 35.3966C18.4415 35.8026 18.2764 35.9679 17.8731 35.9679L17.7655 35.9679Z" fill="#323232" stroke="#323232" stroke-width="0.109091"/>
<path d="M17.1906 40.2154C17.2737 40.1322 17.312 40.0784 17.312 39.9233L17.312 39.3193C17.312 38.9448 17.4658 38.7912 17.8367 38.7912L17.9381 38.7912C18.3096 38.7912 18.4605 38.9454 18.4605 39.3193L18.4605 39.412C18.4605 39.7857 18.3079 39.941 17.9381 39.9402L17.6252 39.9402C17.6107 39.939 17.5961 39.9409 17.5823 39.9458C17.5686 39.9508 17.5561 39.9586 17.5457 39.9688C17.5352 39.979 17.5271 39.9914 17.5219 40.005C17.5166 40.0186 17.5143 40.0332 17.5152 40.0478C17.5144 40.0624 17.5168 40.077 17.5221 40.0906C17.5273 40.1042 17.5354 40.1166 17.5458 40.1269C17.5562 40.1371 17.5687 40.1451 17.5824 40.1502C17.596 40.1553 17.6106 40.1574 17.6252 40.1565L17.9633 40.1565C18.4205 40.1565 18.6757 39.899 18.6757 39.4441L18.6757 39.287C18.6757 38.8292 18.4205 38.5746 17.9633 38.5746L17.8078 38.5746C17.3506 38.5746 17.0934 38.8321 17.0957 39.287L17.0957 39.931C17.0974 39.9533 17.094 39.9756 17.0858 39.9963C17.0775 40.017 17.0646 40.0355 17.048 40.0503L17.012 40.0867C16.9485 40.1496 16.9465 40.2134 16.9925 40.2583C17.0386 40.3033 17.1043 40.2998 17.1586 40.2458L17.1906 40.2154Z" fill="#323232" stroke="#323232" stroke-width="0.109091"/>
<path d="M18.6757 37.4484L18.6757 37.2779C18.6757 36.7836 18.3984 36.5052 17.9028 36.5061L17.0787 36.5061C17.0475 36.5061 17.0176 36.5185 16.9956 36.5405C16.9735 36.5626 16.9611 36.5925 16.9611 36.6236C16.9611 36.6548 16.9735 36.6847 16.9956 36.7067C17.0176 36.7288 17.0475 36.7411 17.0787 36.7411L17.8736 36.7411C18.2749 36.7411 18.4409 36.9083 18.4409 37.3132L18.4409 37.414C18.4409 37.8192 18.2752 37.9873 17.8739 37.9864L17.0774 37.9864C17.0618 37.9852 17.0462 37.9875 17.0316 37.993C17.0169 37.9984 17.0036 38.007 16.9926 38.0181C16.9816 38.0291 16.9731 38.0424 16.9676 38.0571C16.9622 38.0717 16.96 38.0874 16.9611 38.1029C16.96 38.1186 16.9623 38.1342 16.9677 38.1489C16.9732 38.1636 16.9817 38.1769 16.9927 38.1881C17.0037 38.1992 17.0169 38.2079 17.0315 38.2135C17.0462 38.2192 17.0618 38.2216 17.0774 38.2208L17.9028 38.2208C18.3984 38.2195 18.6757 37.9426 18.6757 37.4484Z" fill="#323232" stroke="#323232" stroke-width="0.109091"/>
<path d="M17.8182 29.2727L17.8512 29.2748" stroke="#323232" stroke-width="0.327273" stroke-linecap="round" stroke-linejoin="round"/>
<path d="M18.1727 29.5608C18.1727 29.5439 18.1751 29.5271 18.1774 29.5103C18.1798 29.4956 18.1822 29.4809 18.1869 29.4683" stroke="#323232" stroke-width="0.327273" stroke-linecap="round" stroke-linejoin="round"/>
<path d="M17.9661 29.2626C17.9546 29.2626 17.9431 29.2647 17.9293 29.2668C17.9178 29.2689 17.9063 29.2731 17.8948 29.2773C17.8833 29.2815 17.8718 29.2878 17.8603 29.2962C17.8488 29.3025 17.8396 29.3109 17.8304 29.3214C17.8212 29.3298 17.812 29.3404 17.8028 29.3509C17.7936 29.3614 17.7867 29.374 17.7798 29.3866C17.7729 29.3992 17.766 29.4118 17.7614 29.4265C17.7568 29.4413 17.7522 29.456 17.7476 29.4707C17.743 29.4854 17.7407 29.5001 17.7384 29.5169C17.7361 29.5316 17.7361 29.5485 17.7361 29.5632" stroke="#323232" stroke-width="0.327273" stroke-linecap="round" stroke-linejoin="round"/>
<path d="M17.9662 29.8562L17.9969 29.8541" stroke="#323232" stroke-width="0.327273" stroke-linecap="round" stroke-linejoin="round"/>
<path d="M17.7361 29.5613C17.7361 29.5718 17.7361 29.5802 17.7384 29.5907C17.7384 29.6012 17.7407 29.6096 17.7407 29.6201C17.743 29.6306 17.743 29.6391 17.7453 29.6475C17.7476 29.6559 17.7499 29.6664 17.7522 29.6748C17.7545 29.6832 17.7591 29.6937 17.7614 29.7021C17.766 29.7105 17.7683 29.7189 17.7729 29.7273C17.7821 29.7442 17.7913 29.7589 17.8028 29.7736C17.8143 29.7862 17.8258 29.7988 17.8373 29.8093C17.8442 29.8135 17.8511 29.8198 17.8557 29.824C17.8626 29.8283 17.8695 29.8325 17.8764 29.8367C17.8833 29.8409 17.8902 29.843 17.8971 29.8451C17.904 29.8472 17.9109 29.8493 17.9178 29.8514C17.9247 29.8535 17.9316 29.8556 17.9408 29.8556C17.9477 29.8556 17.9569 29.8577 17.9638 29.8577" stroke="#323232" stroke-width="0.327273" stroke-linecap="round" stroke-linejoin="round"/>
<path d="M19.2106 61.856C19.2155 61.856 19.2203 61.856 19.2252 61.856C19.2301 61.856 19.235 61.856 19.2399 61.856" stroke="#323232" stroke-width="1.09091" stroke-linecap="round" stroke-linejoin="round"/>
<path d="M19.559 61.856C19.5638 61.856 19.5687 61.856 19.5736 61.856C19.5785 61.856 19.5834 61.856 19.5883 61.856" stroke="#323232" stroke-width="1.09091" stroke-linecap="round" stroke-linejoin="round"/>
<path d="M20.9704 61.9849C20.9845 61.9828 20.9987 61.9807 21.0105 61.9786" stroke="#323232" stroke-width="1.09091" stroke-linecap="round" stroke-linejoin="round"/>
<path d="M25.3917 11.8495C25.3917 11.8518 25.3917 11.8518 25.3917 11.8541" stroke="#323232" stroke-width="1.09091" stroke-linecap="round" stroke-linejoin="round"/>
<path d="M19.1162 61.9919C19.1001 61.9898 19.084 61.9877 19.0679 61.9835" stroke="#323232" stroke-width="1.09091" stroke-linecap="round" stroke-linejoin="round"/>
<path d="M18.1848 29.6517C18.1801 29.6391 18.1777 29.6264 18.1754 29.6117C18.173 29.5949 18.1707 29.5781 18.1707 29.5613" stroke="#323232" stroke-width="0.327273" stroke-linecap="round" stroke-linejoin="round"/>
<path d="M20.0297 61.8932C20.0274 61.8932 20.0274 61.8932 20.0251 61.8932C19.9607 61.9037 19.894 61.9163 19.8296 61.9268C19.7652 61.9373 19.7008 61.9478 19.6387 61.9584C19.5766 61.9689 19.5145 61.9773 19.4547 61.9836" stroke="#323232" stroke-width="1.09091" stroke-linecap="round" stroke-linejoin="round"/>
<path d="M18.1961 29.559C18.1961 29.5485 18.1961 29.5401 18.1938 29.5295C18.1938 29.519 18.1915 29.5106 18.1915 29.5001C18.1892 29.4896 18.1892 29.4812 18.1869 29.4728C18.1846 29.4644 18.1823 29.4539 18.18 29.4455C18.1777 29.4371 18.1731 29.4265 18.1708 29.4181C18.1662 29.4097 18.1639 29.4013 18.1593 29.3929C18.1501 29.3761 18.1409 29.3614 18.1294 29.3467C18.1179 29.3319 18.1064 29.3214 18.0949 29.3109C18.088 29.3067 18.0811 29.3004 18.0765 29.2962C18.0696 29.292 18.0627 29.2878 18.0558 29.2836C18.0489 29.2794 18.042 29.2773 18.0351 29.2752C18.0282 29.2731 18.0213 29.271 18.0144 29.2689C18.0075 29.2668 18.0006 29.2647 17.9914 29.2647C17.9845 29.2647 17.9753 29.2626 17.9684 29.2626" stroke="#323232" stroke-width="0.327273" stroke-linecap="round" stroke-linejoin="round"/>
<path d="M17.9662 29.857C17.9777 29.857 17.9893 29.8549 18.0031 29.8528C18.0146 29.8507 18.0261 29.8465 18.0376 29.8423C18.0491 29.8381 18.0606 29.8318 18.0721 29.8234C18.0836 29.8171 18.0928 29.8087 18.1043 29.7981C18.1135 29.7897 18.1227 29.7792 18.1319 29.7687C18.1411 29.7582 18.148 29.7456 18.1549 29.733C18.1618 29.7204 18.1687 29.7078 18.1733 29.693C18.1779 29.6783 18.1825 29.6636 18.1871 29.6489C18.1917 29.6342 18.194 29.6195 18.1963 29.6026C18.1986 29.5879 18.1986 29.5711 18.1986 29.5564" stroke="#323232" stroke-width="0.327273" stroke-linecap="round" stroke-linejoin="round"/>
<path d="M19.2083 2.04377C19.2934 2.04377 19.3785 2.04377 19.4682 2.04166C19.5487 2.03956 19.6338 2.03956 19.7189 2.03746C19.7994 2.03536 19.8823 2.03326 19.9674 2.03115C20.0525 2.02905 20.1422 2.02695 20.2319 2.02485C20.3216 2.02274 20.4136 2.02064 20.508 2.01644C20.5977 2.01434 20.6897 2.01223 20.784 2.01013" stroke="#323232" stroke-width="1.09091" stroke-linecap="round" stroke-linejoin="round"/>
<path d="M19.6131 2.03922C19.5372 2.03712 19.4613 2.03502 19.3877 2.03292C19.3025 2.03082 19.2197 2.02871 19.1392 2.02661" stroke="#323232" stroke-width="1.09091" stroke-linecap="round" stroke-linejoin="round"/>
<path d="M19.1433 2.02731C19.1383 2.02294 19.1359 2.02075 19.1285 2.02075" stroke="#323232" stroke-width="1.09091" stroke-linecap="round" stroke-linejoin="round"/>
<path d="M19.6101 13.7692C19.8125 13.7335 20.0104 13.6916 20.199 13.6412C20.4244 13.5825 20.6384 13.5133 20.8408 13.4315C21.0432 13.3497 21.2365 13.2574 21.4182 13.1504C21.5999 13.0434 21.7724 12.926 21.9381 12.7918C22.1037 12.6575 22.2624 12.5107 22.4189 12.3408C22.5753 12.1709 22.734 11.9779 22.8835 11.7682" stroke="#323232" stroke-width="1.09091" stroke-linecap="round" stroke-linejoin="round"/>
<path d="M14.5455 11.7948C14.5455 12.0024 14.5639 12.1954 14.5984 12.3653C14.6329 12.5352 14.6835 12.682 14.7525 12.8142C14.8215 12.9463 14.9043 13.0638 15.0101 13.1707C15.1137 13.2756 15.2379 13.3679 15.3805 13.4476C15.5231 13.5273 15.6865 13.5965 15.8682 13.6553C16.0499 13.714 16.25 13.7601 16.4663 13.7979C16.6825 13.8356 16.9148 13.865 17.1633 13.8839C17.3979 13.9028 17.6487 13.9132 17.9086 13.9132" stroke="#323232" stroke-width="1.09091" stroke-linecap="round" stroke-linejoin="round"/>
<path d="M24.5564 10.7271C24.4529 10.7291 24.3448 10.7459 24.2321 10.7774C24.1194 10.8089 23.9998 10.855 23.8824 10.9158C23.7651 10.9746 23.6478 11.0459 23.5328 11.1298C23.4178 11.2137 23.3028 11.3101 23.1946 11.415C23.0865 11.5199 22.9853 11.6332 22.8979 11.7569" stroke="#323232" stroke-width="1.09091" stroke-linecap="round" stroke-linejoin="round"/>
<path d="M21.9389 2.00635C22.2241 2.07976 22.5094 2.17414 22.7877 2.2937C23.1328 2.44262 23.4686 2.63139 23.7746 2.89148C23.8459 2.95231 23.9149 3.01523 23.9816 3.08235C24.2048 3.30678 24.3911 3.56057 24.5475 3.84163C24.651 4.02831 24.7407 4.22547 24.8167 4.42473" stroke="#323232" stroke-width="1.09091" stroke-linecap="round" stroke-linejoin="round"/>
<path d="M24.8174 4.42249C24.9279 4.70984 25.0107 5.00558 25.0751 5.30552C25.1418 5.60965 25.1924 5.91588 25.2315 6.22421C25.3097 6.85135 25.3373 7.49108 25.3511 8.12032C25.3649 8.73278 25.3695 9.35573 25.3741 9.96819C25.3764 10.2912 25.3787 10.6037 25.3833 10.9183" stroke="#323232" stroke-width="1.09091" stroke-linecap="round" stroke-linejoin="round"/>
<path d="M14.5572 11.7609C14.5595 11.4067 14.5618 11.0549 14.5618 10.6889C14.5641 9.99937 14.5664 9.29806 14.5779 8.60857C14.5917 7.90018 14.617 7.17998 14.6929 6.47395C14.7297 6.1292 14.7803 5.78209 14.847 5.43971C14.9137 5.10204 14.9943 4.7691 15.1024 4.44324" stroke="#323232" stroke-width="1.09091" stroke-linecap="round" stroke-linejoin="round"/>
<path d="M17.9727 2.01434C17.9773 2.01223 17.9819 2.01223 17.9865 2.01223C17.9911 2.01223 17.9957 2.01223 17.998 2.01013C18.0049 2.01013 18.0049 2.01013 18.0118 2.01013C18.0164 2.01013 18.0233 2.01013 18.0302 2.01013C18.0371 2.01013 18.044 2.01013 18.0509 2.01013C18.0578 2.01013 18.067 2.01013 18.0762 2.01013C18.0854 2.01013 18.0923 2.01013 18.1038 2.01013C18.113 2.01013 18.1222 2.01013 18.1314 2.01013C18.1406 2.01013 18.1498 2.01013 18.159 2.01013" stroke="#323232" stroke-width="1.09091" stroke-linecap="round" stroke-linejoin="round"/>
<path d="M18.1592 2.01221C18.1684 2.01221 18.1799 2.01221 18.1891 2.01221C18.2006 2.01221 18.2121 2.01221 18.226 2.01221C18.2398 2.01221 18.2536 2.01221 18.2697 2.01221C18.2858 2.01221 18.3019 2.01221 18.3203 2.01221C18.3387 2.01221 18.3571 2.01221 18.3778 2.01221C18.3985 2.01221 18.4215 2.01221 18.4422 2.01221C18.4652 2.01221 18.4905 2.01221 18.5158 2.01221C18.5434 2.01221 18.571 2.01221 18.5963 2.01221C18.6262 2.01221 18.6561 2.01221 18.686 2.01221C18.7182 2.01221 18.7527 2.01221 18.7849 2.01431C18.8217 2.01431 18.8563 2.01431 18.8908 2.01641C18.9299 2.01641 18.969 2.01851 19.0058 2.01851C19.0472 2.01851 19.0886 2.02062 19.13 2.02062" stroke="#323232" stroke-width="1.09091" stroke-linecap="round" stroke-linejoin="round"/>
<path d="M15.1048 4.44583C15.1807 4.24658 15.2681 4.05151 15.3716 3.86484C15.5304 3.57748 15.719 3.31949 15.9467 3.09087C16.0088 3.02795 16.0733 2.96922 16.1377 2.91259C16.4413 2.6525 16.7749 2.45953 17.1199 2.31061C17.3983 2.18896 17.6858 2.09248 17.9733 2.01697" stroke="#323232" stroke-width="1.09091" stroke-linecap="round" stroke-linejoin="round"/>
<path d="M19.6109 13.7687C19.5442 13.7834 19.4752 13.796 19.4039 13.8086C19.236 13.838 19.0635 13.8633 18.8817 13.8822C18.7 13.9011 18.5091 13.9116 18.3135 13.9116" stroke="#323232" stroke-width="1.09091" stroke-linecap="round" stroke-linejoin="round"/>
<path d="M21.7546 2C21.7571 2 21.7571 2 21.7595 2C21.762 2 21.7669 2 21.7694 2.00219" stroke="#323232" stroke-width="1.09091" stroke-linecap="round" stroke-linejoin="round"/>
<path d="M20.7833 2.0121C20.8247 2.0121 20.8638 2.01 20.9052 2.01C20.9443 2.01 20.9811 2.00789 21.0202 2.00789C21.0547 2.00789 21.0915 2.00579 21.126 2.00579C21.1582 2.00579 21.1904 2.00369 21.2249 2.00369C21.2548 2.00369 21.2847 2.00369 21.3146 2.00159C21.3423 2.00159 21.3699 2.00159 21.3952 2.00159C21.4205 2.00159 21.4435 2.00159 21.4688 2.00159C21.4918 2.00159 21.5125 2.00159 21.5332 2.00159C21.5516 2.00159 21.5723 2.00159 21.5907 2.00159C21.6068 2.00159 21.6252 2.00159 21.6413 2.00159C21.6551 2.00159 21.6712 2.00159 21.685 2.00159C21.6988 2.00159 21.7103 2.00159 21.7218 2.00159C21.7333 2.00159 21.7425 2.00159 21.7517 2.00159" stroke="#323232" stroke-width="1.09091" stroke-linecap="round" stroke-linejoin="round"/>
<path d="M17.9066 13.9132C17.9184 13.9132 17.9325 13.9132 17.9467 13.9132" stroke="#323232" stroke-width="1.09091" stroke-linecap="round" stroke-linejoin="round"/>
<path d="M18.2901 13.9132C18.2395 13.9132 18.1912 13.9132 18.1429 13.9132C18.1107 13.9132 18.0762 13.9132 18.0417 13.9132C18.0233 13.9132 18.0049 13.9132 17.9865 13.9132C17.9727 13.9132 17.9589 13.9132 17.9451 13.9132" stroke="#323232" stroke-width="1.09091" stroke-linecap="round" stroke-linejoin="round"/>
<path d="M25.3948 11.7065C25.3925 11.6016 25.3856 11.5051 25.3695 11.4149C25.3511 11.31 25.3212 11.2136 25.2798 11.1297C25.2384 11.0458 25.1832 10.9745 25.1165 10.9136C25.0498 10.8549 24.9693 10.8067 24.8818 10.7752C24.7944 10.7437 24.7001 10.727 24.6012 10.7249" stroke="#323232" stroke-width="1.09091" stroke-linecap="round" stroke-linejoin="round"/>
<path d="M25.3832 10.9183C25.3855 11.1805 25.3902 11.4427 25.3973 11.7091" stroke="#323232" stroke-width="1.09091" stroke-linecap="round" stroke-linejoin="round"/>
<path d="M21.7387 2.00377C21.7412 2.00377 21.7461 2.00159 21.7485 2.00159C21.751 2.00159 21.7534 2.00159 21.7559 2.00159" stroke="#323232" stroke-width="1.09091" stroke-linecap="round" stroke-linejoin="round"/>
<path d="M24.5576 10.7271C24.5624 10.7271 24.5649 10.7271 24.5698 10.7271C24.5747 10.7271 24.5771 10.7271 24.582 10.7271" stroke="#323232" stroke-width="1.09091" stroke-linecap="round" stroke-linejoin="round"/>
<path d="M22.8955 11.7549C22.8955 11.7571 22.893 11.7571 22.893 11.7593C22.893 11.7614 22.8906 11.7614 22.8906 11.7636C22.8906 11.7658 22.8881 11.7658 22.8881 11.768" stroke="#323232" stroke-width="1.09091" stroke-linecap="round" stroke-linejoin="round"/>
<path d="M21.7685 2.00159C21.7777 2.00159 21.7869 2.00159 21.7984 2.00159C21.8076 2.00159 21.8191 2.00159 21.8283 2.00159C21.8375 2.00159 21.8467 2.00159 21.8559 2.00159C21.8651 2.00159 21.8743 2.00159 21.8812 2.00159C21.8904 2.00159 21.8973 2.00159 21.9042 2.00159C21.9111 2.00159 21.918 2.00159 21.9226 2.00159C21.9272 2.00159 21.9318 2.00159 21.9341 2.00159C21.9364 2.00159 21.9364 2.00159 21.9387 2.00159" stroke="#323232" stroke-width="1.09091" stroke-linecap="round" stroke-linejoin="round"/>
<path d="M25.3962 11.7701C25.3962 11.7679 25.3962 11.7679 25.3962 11.7657C25.3962 11.7635 25.3962 11.7635 25.3962 11.7613C25.3962 11.7591 25.3962 11.7591 25.3962 11.757" stroke="#323232" stroke-width="1.09091" stroke-linecap="round" stroke-linejoin="round"/>
<path d="M24.6013 10.7271C24.5964 10.7271 24.594 10.7271 24.5891 10.7271C24.5842 10.7271 24.5818 10.7271 24.5769 10.7271" stroke="#323232" stroke-width="1.09091" stroke-linecap="round" stroke-linejoin="round"/>
<path d="M25.3941 11.7576C25.3941 11.7407 25.3941 11.7239 25.3941 11.707" stroke="#323232" stroke-width="1.09091" stroke-linecap="round" stroke-linejoin="round"/>
<path d="M25.3917 11.8536C25.3941 11.8978 25.3941 11.9419 25.3941 11.984" stroke="#323232" stroke-width="1.09091" stroke-linecap="round" stroke-linejoin="round"/>
<path d="M19.2339 61.9998C19.2016 61.9998 19.1717 61.9977 19.1441 61.9956C19.1349 61.9956 19.1257 61.9935 19.1188 61.9935" stroke="#323232" stroke-width="1.09091" stroke-linecap="round" stroke-linejoin="round"/>
<path d="M19.4564 61.9855C19.4149 61.9897 19.3758 61.9939 19.339 61.996C19.3022 61.9981 19.2677 62.0002 19.2332 62.0002" stroke="#323232" stroke-width="1.09091" stroke-linecap="round" stroke-linejoin="round"/>
<path d="M20.8457 61.9939C20.8802 61.9939 20.9101 61.9918 20.9354 61.9897C20.9469 61.9876 20.9584 61.9876 20.9676 61.9855" stroke="#323232" stroke-width="1.09091" stroke-linecap="round" stroke-linejoin="round"/>
<path d="M20.6232 61.979C20.7037 61.9874 20.7796 61.9916 20.8463 61.9937" stroke="#323232" stroke-width="1.09091" stroke-linecap="round" stroke-linejoin="round"/>
<path d="M19.2353 61.8552C19.2606 61.8552 19.2882 61.8552 19.3158 61.8573C19.3434 61.8573 19.3687 61.8573 19.3963 61.8573" stroke="#323232" stroke-width="1.09091" stroke-linecap="round" stroke-linejoin="round"/>
<path d="M19.396 61.8573C19.4236 61.8573 19.4489 61.8573 19.4765 61.8573C19.5041 61.8573 19.5294 61.8573 19.557 61.8552" stroke="#323232" stroke-width="1.09091" stroke-linecap="round" stroke-linejoin="round"/>
<path d="M25.3941 11.9839L25.4539 54.0066" stroke="#323232" stroke-width="1.09091" stroke-linecap="round" stroke-linejoin="round"/>
<path d="M19.0703 61.9833C19.0358 61.977 19.0082 61.9665 18.9921 61.956C18.976 61.9455 18.9668 61.9329 18.9691 61.9224C18.9691 61.9202 18.9691 61.916 18.9714 61.9139" stroke="#323232" stroke-width="1.09091" stroke-linecap="round" stroke-linejoin="round"/>
<path d="M18.9688 61.9141C18.9734 61.9057 18.9826 61.8973 18.9964 61.8889C19.0148 61.8784 19.0447 61.8699 19.0792 61.8636C19.116 61.8573 19.1597 61.8552 19.2103 61.8552" stroke="#323232" stroke-width="1.09091" stroke-linecap="round" stroke-linejoin="round"/>
<path d="M19.1164 61.9914C19.0934 61.9893 19.0704 61.9851 19.0474 61.983C18.6103 61.9242 18.1733 61.8278 17.7546 61.6872C17.4671 61.5907 17.1726 61.4691 16.8966 61.3265C16.6504 61.1964 16.4112 61.0475 16.1835 60.8629C16.1812 60.8608 16.1789 60.8587 16.1743 60.8566C15.9672 60.6846 15.7809 60.4917 15.6153 60.2672C15.4565 60.0512 15.3254 59.8184 15.2173 59.573C15.1322 59.3779 15.0609 59.1766 14.9988 58.9731C14.893 58.6165 14.8216 58.2474 14.7687 57.8824C14.7664 57.8656 14.7641 57.8489 14.7618 57.8342C14.7043 57.4231 14.6698 57.0036 14.6468 56.5904C14.6008 55.7766 14.5985 54.8558 14.5985 54.0336" stroke="#323232" stroke-width="1.09091" stroke-linecap="round" stroke-linejoin="round"/>
<path d="M25.4539 54.0067C25.4562 54.831 25.4562 55.7497 25.4125 56.5656C25.3895 56.9788 25.3573 57.3962 25.2997 57.8073C25.2974 57.8262 25.2951 57.843 25.2928 57.8619C25.2399 58.2268 25.1686 58.5981 25.0651 58.9546C25.0053 59.156 24.9363 59.3552 24.8512 59.5461C24.7408 59.7957 24.6096 60.0327 24.4463 60.253C24.283 60.4732 24.099 60.6662 23.8919 60.8382C23.8873 60.8402 23.885 60.8444 23.8804 60.8465C23.6596 61.029 23.4249 61.1779 23.1834 61.3059C22.9097 61.4506 22.6175 61.5744 22.33 61.6708C21.909 61.8135 21.4719 61.9163 21.0303 61.975C21.0096 61.9771 20.9889 61.9813 20.9705 61.9834" stroke="#323232" stroke-width="1.09091" stroke-linecap="round" stroke-linejoin="round"/>
<path d="M20.0548 61.8973C20.0019 61.9057 19.949 61.9142 19.8938 61.9226C19.8179 61.9352 19.7443 61.9478 19.6707 61.9583C19.597 61.9688 19.5257 61.9793 19.4567 61.9856" stroke="#323232" stroke-width="1.09091" stroke-linecap="round" stroke-linejoin="round"/>
<path d="M19.5836 61.8526C19.6365 61.8505 19.694 61.8526 19.7584 61.8589C19.8228 61.8652 19.8941 61.8736 19.9677 61.882C20.0413 61.8925 20.1149 61.9051 20.1886 61.9157C20.2622 61.9283 20.3381 61.9388 20.4117 61.9493C20.4853 61.9598 20.5566 61.9682 20.6256 61.9766" stroke="#323232" stroke-width="1.09091" stroke-linecap="round" stroke-linejoin="round"/>
<path d="M14.6053 54.0322L14.5455 12.0094" stroke="#323232" stroke-width="1.09091" stroke-linecap="round" stroke-linejoin="round"/>
</svg>
