<svg width="40" height="64" viewBox="0 0 40 64" fill="none" xmlns="http://www.w3.org/2000/svg">
<path d="M19.9824 1H21.7238C23.0214 1.0704 23.2263 1.2464 23.8068 1.7744C24.2711 2.1968 24.4783 3.59306 24.5238 4.23839C25.4458 16.0304 25.6507 41.5268 25.7531 52.8847V58.4111L25.6507 58.5871C25.159 58.7279 21.6669 58.7161 19.9824 58.6927" stroke="#323232" stroke-width="0.958868"/>
<path d="M19.9824 1H18.2622C16.9804 1.0704 16.7781 1.2464 16.2047 1.7744C15.7459 2.1968 15.5413 3.59306 15.4963 4.23839C14.5856 16.0304 14.3833 41.5268 14.2821 52.8847V58.4111L14.3833 58.5871C14.869 58.7279 18.3184 58.7161 19.9824 58.6927" stroke="#323232" stroke-width="0.958868"/>
<path d="M14.2468 58.672L14.3875 58.5664C15.7387 58.7072 18.6569 58.6954 19.9471 58.672C22.3117 58.7564 24.7091 58.6602 25.6123 58.6016L25.7178 58.7072C25.746 59.242 25.7178 60.4665 25.4715 61.2758C25.4246 61.4987 25.2689 62.0749 24.9085 62.5074C24.5566 62.9296 23.7473 62.9648 23.4658 62.9648L19.9471 63L16.3932 62.9648C15.0561 63 14.8098 62.2611 14.5283 61.3462C14.3031 60.6143 14.2468 59.2584 14.2468 58.672Z" fill="#323232" stroke="#323232" stroke-width="0.958868"/>
<mask id="path-4-inside-1_632_442" fill="white">
<path fill-rule="evenodd" clip-rule="evenodd" d="M20.1581 59.4106C20.022 59.4106 19.9117 59.5209 19.9117 59.657V59.9034H19.6657C19.5296 59.9034 19.4194 60.0136 19.4194 60.1497C19.4194 60.2857 19.5296 60.396 19.6657 60.396H19.9117V60.6422C19.9117 60.7782 20.022 60.8885 20.1581 60.8885C20.2941 60.8885 20.4044 60.7782 20.4044 60.6422V60.396H20.6509C20.787 60.396 20.8972 60.2857 20.8972 60.1497C20.8972 60.0136 20.787 59.9034 20.6509 59.9034H20.4044V59.657C20.4044 59.5209 20.2941 59.4106 20.1581 59.4106Z"/>
</mask>
<path d="M19.9117 59.9034V60.8622H20.8706V59.9034H19.9117ZM19.4194 60.1497L20.3782 60.1497L19.4194 60.1497ZM19.9117 60.396H20.8706V59.4371H19.9117V60.396ZM20.4044 60.396V59.4371H19.4455V60.396H20.4044ZM20.6509 59.9034L20.6509 58.9445H20.6509V59.9034ZM20.4044 59.9034H19.4455V60.8622H20.4044V59.9034ZM20.8706 59.657C20.8706 60.0505 20.5516 60.3695 20.1581 60.3695V58.4518C19.4925 58.4518 18.9529 58.9914 18.9529 59.657H20.8706ZM20.8706 59.9034V59.657H18.9529V59.9034H20.8706ZM19.6657 60.8622H19.9117V58.9445H19.6657V60.8622ZM20.3782 60.1497C20.3782 60.5432 20.0592 60.8622 19.6657 60.8622V58.9445C19.0001 58.9445 18.4605 59.4841 18.4605 60.1497L20.3782 60.1497ZM19.6657 59.4371C20.0592 59.4371 20.3782 59.7561 20.3782 60.1497L18.4605 60.1497C18.4605 60.8153 19.0001 61.3548 19.6657 61.3548V59.4371ZM19.9117 59.4371H19.6657V61.3548H19.9117V59.4371ZM20.8706 60.6422V60.396H18.9529V60.6422H20.8706ZM20.1581 59.9296C20.5516 59.9296 20.8706 60.2487 20.8706 60.6422H18.9529C18.9529 61.3078 19.4925 61.8474 20.1581 61.8474V59.9296ZM19.4455 60.6422C19.4455 60.2487 19.7645 59.9296 20.1581 59.9296V61.8474C20.8237 61.8474 21.3632 61.3078 21.3632 60.6422H19.4455ZM19.4455 60.396V60.6422H21.3632V60.396H19.4455ZM20.6509 59.4371H20.4044V61.3548H20.6509V59.4371ZM19.9384 60.1497C19.9384 59.7561 20.2574 59.4371 20.6509 59.4371V61.3548C21.3165 61.3548 21.8561 60.8153 21.8561 60.1497H19.9384ZM20.6509 60.8622C20.2574 60.8622 19.9384 60.5432 19.9384 60.1497H21.8561C21.8561 59.4841 21.3165 58.9445 20.6509 58.9445L20.6509 60.8622ZM20.4044 60.8622H20.6509V58.9445H20.4044V60.8622ZM19.4455 59.657V59.9034H21.3632V59.657H19.4455ZM20.1581 60.3695C19.7645 60.3695 19.4455 60.0505 19.4455 59.657H21.3632C21.3632 58.9914 20.8237 58.4518 20.1581 58.4518V60.3695Z" fill="white" mask="url(#path-4-inside-1_632_442)"/>
<path d="M19.6067 39.2358L19.6067 39.048C19.6067 38.6992 19.7567 38.5561 20.1117 38.5561L20.8153 38.5561C20.843 38.5561 20.8695 38.5455 20.889 38.5265C20.9086 38.5076 20.9196 38.4819 20.9196 38.4551C20.9196 38.4283 20.9086 38.4026 20.889 38.3837C20.8695 38.3648 20.843 38.3541 20.8153 38.3541L20.0848 38.3541C19.6447 38.3541 19.3972 38.5939 19.3991 39.0176L19.3991 39.2353C19.3991 39.262 19.4101 39.2877 19.4296 39.3067C19.4492 39.3256 19.4757 39.3362 19.5033 39.3362C19.531 39.3362 19.5575 39.3256 19.577 39.3067C19.5966 39.2877 19.6076 39.262 19.6076 39.2353L19.6067 39.2358Z" fill="#323232" stroke="#323232" stroke-width="0.191774"/>
<path d="M20.9196 37.4902L20.9196 37.3431C20.9196 36.9182 20.6737 36.6792 20.2341 36.6797L19.5033 36.6797C19.4766 36.681 19.4514 36.6923 19.4329 36.7111C19.4145 36.7299 19.4042 36.7549 19.4042 36.7808C19.4042 36.8068 19.4145 36.8317 19.4329 36.8505C19.4514 36.8694 19.4766 36.8806 19.5033 36.8819L20.2091 36.8819C20.565 36.8819 20.7119 37.0258 20.7119 37.374L20.7119 37.4625C20.7119 37.7889 20.584 37.9522 20.279 37.9522L20.2479 37.9522C19.9423 37.9522 19.815 37.7889 19.815 37.4625L19.815 37.1843C19.815 37.1711 19.8123 37.1579 19.807 37.1457C19.8018 37.1334 19.7941 37.1223 19.7844 37.1129C19.7747 37.1036 19.7633 37.0961 19.7506 37.091C19.738 37.086 19.7244 37.0834 19.7107 37.0834C19.697 37.0834 19.6835 37.086 19.6708 37.091C19.6582 37.0961 19.6467 37.1036 19.637 37.1129C19.6273 37.1223 19.6196 37.1334 19.6144 37.1457C19.6092 37.1579 19.6065 37.1711 19.6065 37.1843L19.6065 37.4913C19.6065 37.8949 19.8317 38.1539 20.2473 38.1537L20.2784 38.1537C20.6976 38.1529 20.9196 37.8939 20.9196 37.4902Z" fill="#323232" stroke="#323232" stroke-width="0.191774"/>
<path d="M20.9196 40.2135L20.9196 40.0673C20.9196 39.6423 20.6739 39.4038 20.2341 39.4038L20.0845 39.4038C19.6444 39.4038 19.3991 39.6436 19.3991 40.0673L19.3991 40.2135C19.3991 40.6399 19.6447 40.877 20.0845 40.877L20.2341 40.877C20.6739 40.877 20.9196 40.6385 20.9196 40.2135ZM20.1126 40.6756C19.755 40.6756 19.6065 40.5335 19.6065 40.1848L19.6065 40.0982C19.6065 39.7491 19.755 39.6052 20.1126 39.6052L20.208 39.6052C20.5656 39.6052 20.7119 39.7491 20.7119 40.0982L20.7119 40.1848C20.7119 40.5335 20.5656 40.6756 20.208 40.6756L20.1126 40.6756Z" fill="#323232" stroke="#323232" stroke-width="0.191774"/>
<path d="M19.4901 44.2817C19.5702 44.2042 19.607 44.1541 19.607 44.0097L19.607 43.4472C19.607 43.0984 19.755 42.9554 20.112 42.9554L20.2097 42.9554C20.5672 42.9554 20.7124 43.099 20.7124 43.4472L20.7124 43.5336C20.7124 43.8815 20.5656 44.0262 20.2097 44.0254L19.9085 44.0254C19.8945 44.0243 19.8804 44.0261 19.8672 44.0307C19.854 44.0353 19.842 44.0426 19.8319 44.0521C19.8219 44.0616 19.8141 44.0731 19.809 44.0857C19.8039 44.0984 19.8017 44.112 19.8026 44.1256C19.8019 44.1392 19.8041 44.1528 19.8092 44.1655C19.8143 44.1782 19.8221 44.1897 19.8321 44.1992C19.8421 44.2088 19.8541 44.2162 19.8672 44.221C19.8804 44.2257 19.8945 44.2277 19.9085 44.2268L20.2339 44.2268C20.6739 44.2268 20.9196 43.987 20.9196 43.5634L20.9196 43.4171C20.9196 42.9908 20.6739 42.7537 20.2339 42.7537L20.0842 42.7537C19.6442 42.7537 19.3966 42.9935 19.3988 43.4171L19.3988 44.0169C19.4005 44.0376 19.3972 44.0584 19.3892 44.0776C19.3813 44.0969 19.3688 44.1141 19.3529 44.128L19.3182 44.1618C19.2572 44.2204 19.2552 44.2799 19.2995 44.3217C19.3438 44.3635 19.4071 44.3603 19.4593 44.31L19.4901 44.2817Z" fill="#323232" stroke="#323232" stroke-width="0.191774"/>
<path d="M20.9196 41.8888L20.9196 41.7423C20.9196 41.3176 20.6737 41.0783 20.2341 41.0791L19.5033 41.0791C19.4757 41.0791 19.4492 41.0897 19.4296 41.1087C19.4101 41.1276 19.3991 41.1533 19.3991 41.1801C19.3991 41.2069 19.4101 41.2326 19.4296 41.2515C19.4492 41.2704 19.4757 41.2811 19.5033 41.2811L20.2083 41.2811C20.5642 41.2811 20.7113 41.4247 20.7113 41.7727L20.7113 41.8593C20.7113 42.2075 20.5645 42.3519 20.2086 42.3511L19.5022 42.3511C19.4884 42.3502 19.4745 42.3521 19.4616 42.3568C19.4486 42.3615 19.4368 42.3689 19.427 42.3784C19.4172 42.3879 19.4097 42.3993 19.4048 42.4119C19.4 42.4245 19.3981 42.4379 19.3991 42.4513C19.3981 42.4647 19.4001 42.4782 19.405 42.4908C19.4098 42.5034 19.4173 42.5149 19.4271 42.5245C19.4368 42.534 19.4486 42.5415 19.4615 42.5463C19.4745 42.5512 19.4884 42.5533 19.5022 42.5526L20.2341 42.5526C20.6737 42.5515 20.9196 42.3135 20.9196 41.8888Z" fill="#323232" stroke="#323232" stroke-width="0.191774"/>
</svg>
