<svg width="40" height="64" viewBox="0 0 40 64" fill="none" xmlns="http://www.w3.org/2000/svg">
<path d="M27.4467 27.1262L27.8921 27.2281L28.0215 26.6631L27.4418 26.6692L27.4467 27.1262ZM27.3173 27.6912L26.8719 27.5892L26.8719 27.5892L27.3173 27.6912ZM26.8671 27.1323L26.8719 27.5892L26.8719 27.5892L26.8671 27.1323ZM13.28 27.2767L13.2849 27.7336L13.28 27.2767ZM12.8131 27.2816L12.8082 26.8247L12.3413 26.8297L12.3564 27.2964L12.8131 27.2816ZM12.8282 27.7484L13.2849 27.7336L13.2849 27.7336L12.8282 27.7484ZM12.8304 27.9744L12.8541 28.4307L13.283 28.4084L13.2873 27.9789L12.8304 27.9744ZM12.5432 61.1965L12.467 61.6471L12.467 61.6471L12.5432 61.1965ZM27.1817 61.2063L27.1025 60.7563L27.1025 60.7563L27.1817 61.2063ZM27.2646 28.0321L26.8093 27.9927L26.7756 28.382L27.155 28.4757L27.2646 28.0321ZM27.0013 27.0242L26.8719 27.5892L27.7628 27.7932L27.8921 27.2281L27.0013 27.0242ZM26.8719 27.5892L27.4515 27.5831L27.4418 26.6692L26.8622 26.6754L26.8719 27.5892ZM13.2849 27.7336L26.8719 27.5892L26.8622 26.6754L13.2752 26.8198L13.2849 27.7336ZM12.818 27.7386L13.2849 27.7336L13.2752 26.8198L12.8082 26.8247L12.818 27.7386ZM13.2849 27.7336L13.2698 27.2669L12.3564 27.2964L12.3715 27.7631L13.2849 27.7336ZM13.2873 27.9789C13.2882 27.89 13.2873 27.8074 13.2849 27.7336L12.3715 27.7631C12.3734 27.8229 12.3742 27.8925 12.3734 27.9699L13.2873 27.9789ZM11.3179 30.0507C11.3179 29.1836 11.9984 28.4752 12.8541 28.4307L12.8067 27.5181C11.4678 27.5877 10.404 28.6948 10.404 30.0507H11.3179ZM11.3179 59.1839V30.0507H10.404V59.1839H11.3179ZM12.6195 60.746C11.8658 60.6185 11.3179 59.9603 11.3179 59.1839H10.404C10.404 60.3941 11.2618 61.4432 12.467 61.6471L12.6195 60.746ZM19.9905 61.5431C17.7307 61.5431 14.5566 61.0738 12.6195 60.746L12.467 61.6471C14.4023 61.9746 17.6453 62.457 19.9905 62.457V61.5431ZM27.1025 60.7563C25.243 61.0834 22.2265 61.5431 19.9905 61.5431V62.457C22.3141 62.457 25.4003 61.9837 27.2608 61.6563L27.1025 60.7563ZM28.3866 59.2009C28.3866 59.9719 27.8478 60.6251 27.1025 60.7563L27.2608 61.6563C28.457 61.4459 29.3005 60.4013 29.3005 59.2009H28.3866ZM28.3866 30.0507V59.2009H29.3005V30.0507H28.3866ZM27.155 28.4757C27.8624 28.6504 28.3866 29.2899 28.3866 30.0507H29.3005C29.3005 28.8598 28.48 27.8616 27.3741 27.5885L27.155 28.4757ZM26.8719 27.5892C26.8412 27.7234 26.8209 27.8585 26.8093 27.9927L27.7198 28.0715C27.7281 27.9757 27.7423 27.8826 27.7628 27.7932L26.8719 27.5892Z" fill="#323232"/>
<mask id="path-2-inside-1_634_667" fill="white">
<path d="M11.2127 22.3515H28.4965L28.7266 22.8508H10.9827L11.2127 22.3515Z"/>
</mask>
<path d="M11.2127 22.3515V21.4376H10.6275L10.3826 21.9691L11.2127 22.3515ZM28.4965 22.3515L29.3266 21.9691L29.0817 21.4376H28.4965V22.3515ZM28.7266 22.8508V23.7647H30.1538L29.5566 22.4684L28.7266 22.8508ZM10.9827 22.8508L10.1526 22.4684L9.55543 23.7647H10.9827V22.8508ZM11.2127 23.2654H28.4965V21.4376H11.2127V23.2654ZM27.6665 22.7339L27.8965 23.2332L29.5566 22.4684L29.3266 21.9691L27.6665 22.7339ZM28.7266 21.9369H10.9827V23.7647H28.7266V21.9369ZM11.8127 23.2332L12.0428 22.7339L10.3826 21.9691L10.1526 22.4684L11.8127 23.2332Z" fill="#323232" mask="url(#path-2-inside-1_634_667)"/>
<path d="M12.7541 2.45695H26.9862C27.5689 2.45695 28.0413 2.92935 28.0413 3.51208V22.9136H11.699V3.51208C11.699 2.92935 12.1714 2.45695 12.7541 2.45695Z" stroke="#323232" stroke-width="0.913901"/>
<path d="M10.9318 30.6502H28.8026" stroke="#323232" stroke-width="0.913901"/>
<path d="M11.202 52.8496C14.5204 53.1826 22.6236 53.6488 28.4897 52.8496" stroke="#323232" stroke-width="0.913901"/>
<path d="M11.202 58.0114C14.5204 58.5119 22.6236 59.2126 28.4897 58.0114" stroke="#323232" stroke-width="0.913901"/>
<path d="M13.5128 30.6216V52.9424" stroke="#323232" stroke-width="0.913901"/>
<rect x="11.3179" y="22.5628" width="17.3641" height="4.56951" rx="0.456951" fill="white" stroke="#323232" stroke-width="0.913901"/>
<path d="M12.8708 3.55078V21.894" stroke="#323232" stroke-width="0.456951"/>
<path d="M13.788 3.55072V21.8939" stroke="#323232" stroke-width="0.456951"/>
<path d="M14.7627 3.55072V21.8939" stroke="#323232" stroke-width="0.456951"/>
<path d="M15.909 3.55072V21.8939" stroke="#323232" stroke-width="0.456951"/>
<path d="M17.1702 3.55072V21.8939" stroke="#323232" stroke-width="0.456951"/>
<path d="M27.0866 3.55072V21.8939" stroke="#323232" stroke-width="0.456951"/>
<path d="M26.1693 3.55072V21.8939" stroke="#323232" stroke-width="0.456951"/>
<path d="M25.1947 3.55072V21.8939" stroke="#323232" stroke-width="0.456951"/>
<path d="M24.0484 3.55072V21.8939" stroke="#323232" stroke-width="0.456951"/>
<path d="M22.7872 3.55072V21.8939" stroke="#323232" stroke-width="0.456951"/>
<path d="M20.6081 37.1371L20.3619 37.1371C19.9048 37.1371 19.7173 36.9406 19.7173 36.4753L19.7173 35.5532C19.7173 35.5169 19.7033 35.4822 19.6785 35.4566C19.6537 35.431 19.62 35.4166 19.5849 35.4166C19.5498 35.4166 19.5162 35.431 19.4914 35.4566C19.4665 35.4822 19.4526 35.5169 19.4526 35.5532L19.4526 36.5106C19.4526 37.0873 19.7669 37.4117 20.3221 37.4092L20.6074 37.4092C20.6425 37.4092 20.6761 37.3948 20.701 37.3692C20.7258 37.3436 20.7397 37.3088 20.7397 37.2726C20.7397 37.2364 20.7258 37.2016 20.701 37.176C20.6761 37.1504 20.6425 37.136 20.6074 37.136L20.6081 37.1371Z" fill="#323232"/>
<path d="M18.3205 35.4179L18.1278 35.4179C17.5708 35.4179 17.2576 35.7402 17.2583 36.3162L17.2583 37.2739C17.26 37.309 17.2748 37.342 17.2994 37.3662C17.3241 37.3904 17.3568 37.4039 17.3908 37.4039C17.4248 37.4039 17.4575 37.3904 17.4822 37.3662C17.5069 37.342 17.5216 37.309 17.5233 37.2739L17.5233 36.349C17.5233 35.8826 17.7119 35.6901 18.1683 35.6901L18.2842 35.6901C18.712 35.6901 18.926 35.8577 18.926 36.2574L18.926 36.2982C18.926 36.6986 18.712 36.8655 18.2842 36.8655L17.9197 36.8655C17.9023 36.8655 17.8851 36.8691 17.869 36.8759C17.853 36.8828 17.8384 36.8929 17.8261 36.9056C17.8138 36.9182 17.8041 36.9333 17.7974 36.9499C17.7908 36.9664 17.7873 36.9842 17.7873 37.0022C17.7873 37.0201 17.7908 37.0379 17.7974 37.0544C17.8041 37.071 17.8138 37.0861 17.8261 37.0988C17.8384 37.1114 17.853 37.1215 17.869 37.1284C17.8851 37.1352 17.9023 37.1388 17.9197 37.1388L18.3219 37.1388C18.851 37.1388 19.1904 36.8436 19.19 36.2989L19.19 36.2582C19.189 35.7088 18.8496 35.4179 18.3205 35.4179Z" fill="#323232"/>
<path d="M21.8896 35.4179L21.6979 35.4179C21.141 35.4179 20.8284 35.7398 20.8284 36.3162L20.8284 36.5123C20.8284 37.089 21.1427 37.4106 21.6979 37.4106L21.8896 37.4106C22.4483 37.4106 22.7591 37.0887 22.7591 36.5123L22.7591 36.3162C22.7591 35.7398 22.4466 35.4179 21.8896 35.4179ZM22.4951 36.4755C22.4951 36.9441 22.309 37.1388 21.8519 37.1388L21.7384 37.1388C21.281 37.1388 21.0924 36.9441 21.0924 36.4755L21.0924 36.3504C21.0924 35.8818 21.281 35.6901 21.7384 35.6901L21.8519 35.6901C22.309 35.6901 22.4951 35.8818 22.4951 36.3504L22.4951 36.4755Z" fill="#323232"/>
<path d="M27.221 37.2912C27.1194 37.1864 27.0538 37.138 26.8645 37.138L26.1274 37.138C25.6703 37.138 25.4828 36.9441 25.4828 36.4762L25.4828 36.3483C25.4828 35.8797 25.671 35.6893 26.1274 35.6893L26.2405 35.6893C26.6966 35.6893 26.8862 35.8818 26.8851 36.3483L26.8851 36.743C26.8836 36.7613 26.886 36.7798 26.892 36.7971C26.8981 36.8144 26.9076 36.8302 26.9201 36.8433C26.9325 36.8565 26.9476 36.8667 26.9642 36.8734C26.9808 36.88 26.9986 36.8829 27.0164 36.8818C27.0342 36.8827 27.0521 36.8798 27.0687 36.8731C27.0853 36.8664 27.1004 36.8562 27.1129 36.8431C27.1255 36.83 27.1352 36.8143 27.1414 36.797C27.1476 36.7798 27.1503 36.7614 27.1491 36.743L27.1491 36.3166C27.1491 35.7398 26.8348 35.4179 26.2796 35.4179L26.0879 35.4179C25.5292 35.4179 25.2184 35.7398 25.2184 36.3166L25.2184 36.5126C25.2184 37.0894 25.5327 37.4138 26.0879 37.4109L26.874 37.4109C26.9011 37.4087 26.9283 37.413 26.9536 37.4235C26.9788 37.4339 27.0014 37.4502 27.0196 37.4711L27.0639 37.5165C27.1407 37.5966 27.2186 37.5991 27.2734 37.5411C27.3282 37.483 27.3241 37.4001 27.2581 37.3316L27.221 37.2912Z" fill="#323232"/>
<path d="M24.0853 35.4179L23.8933 35.4179C23.3367 35.4179 23.0231 35.7402 23.0241 36.3162L23.0241 37.2739C23.0241 37.3102 23.0381 37.3449 23.0629 37.3705C23.0877 37.3962 23.1214 37.4106 23.1565 37.4106C23.1916 37.4106 23.2252 37.3962 23.2501 37.3705C23.2749 37.3449 23.2888 37.3102 23.2888 37.2739L23.2888 36.3501C23.2888 35.8836 23.477 35.6908 23.9331 35.6908L24.0466 35.6908C24.503 35.6908 24.6922 35.8833 24.6912 36.3497L24.6912 37.2754C24.6899 37.2935 24.6925 37.3117 24.6986 37.3287C24.7048 37.3457 24.7144 37.3611 24.7269 37.374C24.7393 37.3868 24.7543 37.3967 24.7708 37.403C24.7873 37.4093 24.8049 37.4119 24.8225 37.4106C24.8401 37.4118 24.8577 37.4092 24.8742 37.4029C24.8908 37.3965 24.9058 37.3867 24.9184 37.3739C24.9309 37.3611 24.9407 37.3457 24.947 37.3287C24.9534 37.3117 24.9562 37.2936 24.9552 37.2754L24.9552 36.3162C24.9538 35.7402 24.6419 35.4179 24.0853 35.4179Z" fill="#323232"/>
<rect x="10.9152" y="38.9921" width="2.51438" height="13.9017" fill="#323232"/>
</svg>
