<svg width="40" height="64" viewBox="0 0 40 64" fill="none" xmlns="http://www.w3.org/2000/svg">
<path d="M17.1427 34.3034L17.1427 34.1394C17.1427 33.8349 17.3118 33.71 17.7122 33.71L18.5058 33.71C18.5369 33.71 18.5668 33.7007 18.5889 33.6842C18.6109 33.6677 18.6233 33.6452 18.6233 33.6219C18.6233 33.5985 18.6109 33.576 18.5889 33.5595C18.5668 33.543 18.5369 33.5337 18.5058 33.5337L17.6818 33.5337C17.1855 33.5337 16.9063 33.743 16.9085 34.1129L16.9085 34.3029C16.9085 34.3263 16.9209 34.3488 16.9429 34.3653C16.965 34.3818 16.9949 34.3911 17.0261 34.3911C17.0573 34.3911 17.0872 34.3818 17.1092 34.3653C17.1313 34.3488 17.1436 34.3263 17.1436 34.3029L17.1427 34.3034Z" fill="#323232" stroke="#323232" stroke-width="0.109091"/>
<path d="M18.6233 32.3976L18.6233 32.2265C18.6233 31.732 18.3451 31.454 17.8477 31.4546L17.0207 31.4546C16.9904 31.4561 16.9619 31.4692 16.941 31.4911C16.9201 31.513 16.9085 31.542 16.9085 31.5722C16.9085 31.6024 16.9201 31.6315 16.941 31.6534C16.9619 31.6752 16.9904 31.6883 17.0207 31.6899L17.8194 31.6899C18.2221 31.6899 18.3883 31.8573 18.3883 32.2624L18.3883 32.3653C18.3883 32.7451 18.2436 32.9351 17.8984 32.9351L17.8632 32.9351C17.5174 32.9351 17.3733 32.7451 17.3733 32.3653L17.3733 32.0417C17.3733 32.0263 17.3703 32.011 17.3644 31.9967C17.3584 31.9825 17.3497 31.9695 17.3388 31.9586C17.3278 31.9477 17.3148 31.9391 17.3005 31.9332C17.2862 31.9273 17.2709 31.9242 17.2554 31.9242C17.2399 31.9242 17.2245 31.9273 17.2102 31.9332C17.1959 31.9391 17.1829 31.9477 17.172 31.9586C17.161 31.9695 17.1523 31.9825 17.1464 31.9967C17.1405 32.011 17.1374 32.0263 17.1374 32.0417L17.1374 32.3988C17.1374 32.8684 17.3923 33.1697 17.8626 33.1694L17.8978 33.1694C18.3721 33.1685 18.6233 32.8672 18.6233 32.3976Z" fill="#323232" stroke="#323232" stroke-width="0.109091"/>
<path d="M18.6233 35.4301L18.6233 35.2598C18.6233 34.7651 18.3463 34.4875 17.8503 34.4875L17.6815 34.4875C17.1852 34.4875 16.9085 34.7667 16.9085 35.2598L16.9085 35.4301C16.9085 35.9263 17.1855 36.2024 17.6815 36.2024L17.8503 36.2024C18.3463 36.2024 18.6233 35.9248 18.6233 35.4301ZM17.7132 35.9679C17.3099 35.9679 17.1424 35.8026 17.1424 35.3966L17.1424 35.2958C17.1424 34.8895 17.3099 34.722 17.7132 34.722L17.8208 34.722C18.2241 34.722 18.3891 34.8895 18.3891 35.2958L18.3891 35.3966C18.3891 35.8026 18.2241 35.9679 17.8208 35.9679L17.7132 35.9679Z" fill="#323232" stroke="#323232" stroke-width="0.109091"/>
<path d="M17.1382 40.2154C17.2214 40.1322 17.2597 40.0784 17.2597 39.9233L17.2597 39.3193C17.2597 38.9448 17.4134 38.7912 17.7843 38.7912L17.8858 38.7912C18.2573 38.7912 18.4081 38.9454 18.4081 39.3193L18.4081 39.412C18.4081 39.7857 18.2555 39.941 17.8858 39.9402L17.5729 39.9402C17.5583 39.939 17.5437 39.9409 17.53 39.9458C17.5163 39.9508 17.5038 39.9586 17.4933 39.9688C17.4829 39.979 17.4748 39.9914 17.4695 40.005C17.4643 40.0186 17.462 40.0332 17.4629 40.0478C17.4621 40.0624 17.4644 40.077 17.4697 40.0906C17.475 40.1042 17.4831 40.1166 17.4935 40.1269C17.5039 40.1371 17.5163 40.1451 17.53 40.1502C17.5437 40.1553 17.5583 40.1574 17.5729 40.1565L17.9109 40.1565C18.3681 40.1565 18.6233 39.899 18.6233 39.4441L18.6233 39.287C18.6233 38.8292 18.3681 38.5746 17.9109 38.5746L17.7555 38.5746C17.2983 38.5746 17.0411 38.8321 17.0434 39.287L17.0434 39.931C17.0451 39.9533 17.0417 39.9756 17.0334 39.9963C17.0251 40.017 17.0122 40.0355 16.9956 40.0503L16.9596 40.0867C16.8962 40.1496 16.8942 40.2134 16.9402 40.2583C16.9862 40.3033 17.0519 40.2998 17.1062 40.2458L17.1382 40.2154Z" fill="#323232" stroke="#323232" stroke-width="0.109091"/>
<path d="M18.6233 37.4484L18.6233 37.2779C18.6233 36.7836 18.346 36.5052 17.8504 36.5061L17.0263 36.5061C16.9952 36.5061 16.9653 36.5185 16.9432 36.5405C16.9212 36.5626 16.9088 36.5925 16.9088 36.6236C16.9088 36.6548 16.9212 36.6847 16.9432 36.7067C16.9653 36.7288 16.9952 36.7411 17.0263 36.7411L17.8213 36.7411C18.2226 36.7411 18.3885 36.9083 18.3885 37.3132L18.3885 37.414C18.3885 37.8192 18.2229 37.9873 17.8216 37.9864L17.0251 37.9864C17.0095 37.9852 16.9939 37.9875 16.9792 37.993C16.9646 37.9984 16.9513 38.007 16.9403 38.0181C16.9292 38.0291 16.9207 38.0424 16.9153 38.0571C16.9098 38.0717 16.9076 38.0874 16.9088 38.1029C16.9077 38.1186 16.91 38.1342 16.9154 38.1489C16.9208 38.1636 16.9293 38.1769 16.9403 38.1881C16.9513 38.1992 16.9646 38.2079 16.9792 38.2135C16.9938 38.2192 17.0095 38.2216 17.0251 38.2208L17.8504 38.2208C18.346 38.2195 18.6233 37.9426 18.6233 37.4484Z" fill="#323232" stroke="#323232" stroke-width="0.109091"/>
<path d="M17.7658 29.2727L17.7988 29.2748" stroke="#323232" stroke-width="0.327273" stroke-linecap="round" stroke-linejoin="round"/>
<path d="M18.1205 29.5608C18.1205 29.5439 18.1228 29.5271 18.1252 29.5103C18.1276 29.4956 18.1299 29.4809 18.1346 29.4683" stroke="#323232" stroke-width="0.327273" stroke-linecap="round" stroke-linejoin="round"/>
<path d="M17.9138 29.2626C17.9023 29.2626 17.8908 29.2647 17.877 29.2668C17.8655 29.2689 17.854 29.2731 17.8425 29.2773C17.831 29.2815 17.8195 29.2878 17.808 29.2962C17.7965 29.3025 17.7873 29.3109 17.7781 29.3214C17.7689 29.3298 17.7597 29.3404 17.7505 29.3509C17.7413 29.3614 17.7344 29.374 17.7275 29.3866C17.7206 29.3992 17.7137 29.4118 17.7091 29.4265C17.7045 29.4413 17.6999 29.456 17.6953 29.4707C17.6907 29.4854 17.6884 29.5001 17.6861 29.5169C17.6838 29.5316 17.6838 29.5485 17.6838 29.5632" stroke="#323232" stroke-width="0.327273" stroke-linecap="round" stroke-linejoin="round"/>
<path d="M17.9139 29.8562L17.9446 29.8541" stroke="#323232" stroke-width="0.327273" stroke-linecap="round" stroke-linejoin="round"/>
<path d="M17.6838 29.5613C17.6838 29.5718 17.6838 29.5802 17.6861 29.5907C17.6861 29.6012 17.6884 29.6096 17.6884 29.6201C17.6907 29.6306 17.6907 29.6391 17.693 29.6475C17.6953 29.6559 17.6976 29.6664 17.6999 29.6748C17.7022 29.6832 17.7068 29.6937 17.7091 29.7021C17.7137 29.7105 17.716 29.7189 17.7206 29.7273C17.7298 29.7442 17.739 29.7589 17.7505 29.7736C17.762 29.7862 17.7735 29.7988 17.785 29.8093C17.7919 29.8135 17.7988 29.8198 17.8034 29.824C17.8103 29.8283 17.8172 29.8325 17.8241 29.8367C17.831 29.8409 17.8379 29.843 17.8448 29.8451C17.8517 29.8472 17.8586 29.8493 17.8655 29.8514C17.8724 29.8535 17.8793 29.8556 17.8885 29.8556C17.8954 29.8556 17.9046 29.8577 17.9115 29.8577" stroke="#323232" stroke-width="0.327273" stroke-linecap="round" stroke-linejoin="round"/>
<path d="M19.1582 61.856C19.1631 61.856 19.168 61.856 19.1729 61.856C19.1778 61.856 19.1827 61.856 19.1875 61.856" stroke="#323232" stroke-width="1.09091" stroke-linecap="round" stroke-linejoin="round"/>
<path d="M19.5066 61.856C19.5115 61.856 19.5164 61.856 19.5213 61.856C19.5262 61.856 19.531 61.856 19.5359 61.856" stroke="#323232" stroke-width="1.09091" stroke-linecap="round" stroke-linejoin="round"/>
<path d="M20.9181 61.9849C20.9322 61.9828 20.9463 61.9807 20.9581 61.9786" stroke="#323232" stroke-width="1.09091" stroke-linecap="round" stroke-linejoin="round"/>
<path d="M25.3394 11.8495C25.3394 11.8518 25.3394 11.8518 25.3394 11.8541" stroke="#323232" stroke-width="1.09091" stroke-linecap="round" stroke-linejoin="round"/>
<path d="M19.0638 61.9919C19.0477 61.9898 19.0316 61.9877 19.0155 61.9835" stroke="#323232" stroke-width="1.09091" stroke-linecap="round" stroke-linejoin="round"/>
<path d="M18.1325 29.6517C18.1278 29.6391 18.1254 29.6264 18.1231 29.6117C18.1207 29.5949 18.1183 29.5781 18.1183 29.5613" stroke="#323232" stroke-width="0.327273" stroke-linecap="round" stroke-linejoin="round"/>
<path d="M19.9774 61.8932C19.9751 61.8932 19.9751 61.8932 19.9728 61.8932C19.9084 61.9037 19.8417 61.9163 19.7773 61.9268C19.7129 61.9373 19.6485 61.9478 19.5864 61.9584C19.5243 61.9689 19.4622 61.9773 19.4023 61.9836" stroke="#323232" stroke-width="1.09091" stroke-linecap="round" stroke-linejoin="round"/>
<path d="M18.1438 29.559C18.1438 29.5485 18.1438 29.5401 18.1415 29.5295C18.1415 29.519 18.1392 29.5106 18.1392 29.5001C18.1369 29.4896 18.1369 29.4812 18.1346 29.4728C18.1323 29.4644 18.13 29.4539 18.1277 29.4455C18.1254 29.4371 18.1208 29.4265 18.1185 29.4181C18.1139 29.4097 18.1116 29.4013 18.107 29.3929C18.0978 29.3761 18.0886 29.3614 18.0771 29.3467C18.0656 29.3319 18.0541 29.3214 18.0426 29.3109C18.0357 29.3067 18.0288 29.3004 18.0242 29.2962C18.0173 29.292 18.0104 29.2878 18.0035 29.2836C17.9966 29.2794 17.9897 29.2773 17.9828 29.2752C17.9759 29.2731 17.969 29.271 17.9621 29.2689C17.9552 29.2668 17.9483 29.2647 17.939 29.2647C17.9321 29.2647 17.9229 29.2626 17.916 29.2626" stroke="#323232" stroke-width="0.327273" stroke-linecap="round" stroke-linejoin="round"/>
<path d="M17.9139 29.857C17.9254 29.857 17.9369 29.8549 17.9507 29.8528C17.9622 29.8507 17.9738 29.8465 17.9853 29.8423C17.9968 29.8381 18.0083 29.8318 18.0198 29.8234C18.0313 29.8171 18.0405 29.8087 18.052 29.7981C18.0612 29.7897 18.0704 29.7792 18.0796 29.7687C18.0888 29.7582 18.0957 29.7456 18.1026 29.733C18.1095 29.7204 18.1164 29.7078 18.121 29.693C18.1256 29.6783 18.1302 29.6636 18.1348 29.6489C18.1394 29.6342 18.1417 29.6195 18.144 29.6026C18.1463 29.5879 18.1463 29.5711 18.1463 29.5564" stroke="#323232" stroke-width="0.327273" stroke-linecap="round" stroke-linejoin="round"/>
<path d="M19.1559 2.04377C19.241 2.04377 19.3261 2.04377 19.4158 2.04166C19.4963 2.03956 19.5814 2.03956 19.6665 2.03746C19.747 2.03536 19.8299 2.03326 19.915 2.03115C20.0001 2.02905 20.0898 2.02695 20.1795 2.02485C20.2692 2.02274 20.3612 2.02064 20.4556 2.01644C20.5453 2.01434 20.6373 2.01223 20.7316 2.01013" stroke="#323232" stroke-width="1.09091" stroke-linecap="round" stroke-linejoin="round"/>
<path d="M19.5608 2.03922C19.4848 2.03712 19.4089 2.03502 19.3353 2.03292C19.2502 2.03082 19.1674 2.02871 19.0869 2.02661" stroke="#323232" stroke-width="1.09091" stroke-linecap="round" stroke-linejoin="round"/>
<path d="M19.0909 2.02731C19.086 2.02294 19.0836 2.02075 19.0762 2.02075" stroke="#323232" stroke-width="1.09091" stroke-linecap="round" stroke-linejoin="round"/>
<path d="M19.5577 13.7692C19.7602 13.7335 19.958 13.6916 20.1466 13.6412C20.3721 13.5825 20.586 13.5133 20.7884 13.4315C20.9909 13.3497 21.1841 13.2574 21.3658 13.1504C21.5476 13.0434 21.7201 12.926 21.8857 12.7918C22.0513 12.6575 22.2101 12.5107 22.3665 12.3408C22.5229 12.1709 22.6816 11.9779 22.8312 11.7682" stroke="#323232" stroke-width="1.09091" stroke-linecap="round" stroke-linejoin="round"/>
<path d="M14.4931 11.7948C14.4931 12.0024 14.5115 12.1954 14.546 12.3653C14.5805 12.5352 14.6312 12.682 14.7002 12.8142C14.7692 12.9463 14.852 13.0638 14.9578 13.1707C15.0613 13.2756 15.1855 13.3679 15.3282 13.4476C15.4708 13.5273 15.6341 13.5965 15.8158 13.6553C15.9976 13.714 16.1977 13.7601 16.4139 13.7979C16.6302 13.8356 16.8625 13.865 17.1109 13.8839C17.3456 13.9028 17.5963 13.9132 17.8563 13.9132" stroke="#323232" stroke-width="1.09091" stroke-linecap="round" stroke-linejoin="round"/>
<path d="M24.5041 10.7271C24.4006 10.7291 24.2924 10.7459 24.1797 10.7774C24.067 10.8089 23.9474 10.855 23.8301 10.9158C23.7128 10.9746 23.5954 11.0459 23.4804 11.1298C23.3654 11.2137 23.2504 11.3101 23.1423 11.415C23.0341 11.5199 22.9329 11.6332 22.8455 11.7569" stroke="#323232" stroke-width="1.09091" stroke-linecap="round" stroke-linejoin="round"/>
<path d="M21.8866 2.00635C22.1718 2.07976 22.4571 2.17414 22.7354 2.2937C23.0805 2.44262 23.4163 2.63139 23.7223 2.89148C23.7936 2.95231 23.8626 3.01523 23.9293 3.08235C24.1525 3.30678 24.3388 3.56057 24.4952 3.84163C24.5987 4.02831 24.6884 4.22547 24.7644 4.42473" stroke="#323232" stroke-width="1.09091" stroke-linecap="round" stroke-linejoin="round"/>
<path d="M24.7651 4.42249C24.8756 4.70984 24.9584 5.00558 25.0228 5.30552C25.0895 5.60965 25.1401 5.91588 25.1792 6.22421C25.2574 6.85135 25.285 7.49108 25.2988 8.12032C25.3126 8.73278 25.3172 9.35573 25.3218 9.96819C25.3241 10.2912 25.3264 10.6037 25.331 10.9183" stroke="#323232" stroke-width="1.09091" stroke-linecap="round" stroke-linejoin="round"/>
<path d="M14.5049 11.7609C14.5072 11.4067 14.5095 11.0549 14.5095 10.6889C14.5118 9.99937 14.5141 9.29806 14.5256 8.60857C14.5394 7.90018 14.5647 7.17998 14.6406 6.47395C14.6774 6.1292 14.728 5.78209 14.7947 5.43971C14.8614 5.10204 14.9419 4.7691 15.05 4.44324" stroke="#323232" stroke-width="1.09091" stroke-linecap="round" stroke-linejoin="round"/>
<path d="M17.9203 2.01434C17.9249 2.01223 17.9295 2.01223 17.9341 2.01223C17.9387 2.01223 17.9433 2.01223 17.9456 2.01013C17.9525 2.01013 17.9525 2.01013 17.9594 2.01013C17.964 2.01013 17.9709 2.01013 17.9778 2.01013C17.9847 2.01013 17.9916 2.01013 17.9985 2.01013C18.0054 2.01013 18.0146 2.01013 18.0238 2.01013C18.033 2.01013 18.0399 2.01013 18.0514 2.01013C18.0606 2.01013 18.0698 2.01013 18.079 2.01013C18.0882 2.01013 18.0974 2.01013 18.1066 2.01013" stroke="#323232" stroke-width="1.09091" stroke-linecap="round" stroke-linejoin="round"/>
<path d="M18.1069 2.01221C18.1161 2.01221 18.1276 2.01221 18.1368 2.01221C18.1483 2.01221 18.1598 2.01221 18.1736 2.01221C18.1874 2.01221 18.2012 2.01221 18.2173 2.01221C18.2334 2.01221 18.2495 2.01221 18.2679 2.01221C18.2863 2.01221 18.3047 2.01221 18.3254 2.01221C18.3461 2.01221 18.3691 2.01221 18.3898 2.01221C18.4129 2.01221 18.4382 2.01221 18.4635 2.01221C18.4911 2.01221 18.5187 2.01221 18.544 2.01221C18.5739 2.01221 18.6038 2.01221 18.6337 2.01221C18.6659 2.01221 18.7004 2.01221 18.7326 2.01431C18.7694 2.01431 18.8039 2.01431 18.8384 2.01641C18.8775 2.01641 18.9166 2.01851 18.9534 2.01851C18.9948 2.01851 19.0362 2.02062 19.0777 2.02062" stroke="#323232" stroke-width="1.09091" stroke-linecap="round" stroke-linejoin="round"/>
<path d="M15.0524 4.44583C15.1283 4.24658 15.2158 4.05151 15.3193 3.86484C15.478 3.57748 15.6666 3.31949 15.8944 3.09087C15.9565 3.02795 16.0209 2.96922 16.0853 2.91259C16.3889 2.6525 16.7225 2.45953 17.0675 2.31061C17.3459 2.18896 17.6334 2.09248 17.921 2.01697" stroke="#323232" stroke-width="1.09091" stroke-linecap="round" stroke-linejoin="round"/>
<path d="M16.0317 13.8023L14.6126 13.3016V11.6735V8.04208V4.74479L15.7396 2.94982L17.7849 2.24036H20.5815H22.0842L23.8373 2.94982L24.7556 4.74479L25.2564 6.41431L25.5069 8.75183L25.2564 10.9641H24.7556H23.8373L22.3346 12.2997L20.9572 13.3016L19.6632 13.8023H17.7849H16.0317Z" fill="#323232"/>
<path d="M19.5586 13.7687C19.4919 13.7834 19.4229 13.796 19.3516 13.8086C19.1837 13.838 19.0111 13.8633 18.8294 13.8822C18.6477 13.9011 18.4568 13.9116 18.2612 13.9116" stroke="#323232" stroke-width="1.09091" stroke-linecap="round" stroke-linejoin="round"/>
<path d="M21.7023 2C21.7047 2 21.7047 2 21.7072 2C21.7096 2 21.7145 2 21.717 2.00219" stroke="#323232" stroke-width="1.09091" stroke-linecap="round" stroke-linejoin="round"/>
<path d="M20.731 2.0121C20.7724 2.0121 20.8115 2.01 20.8529 2.01C20.892 2.01 20.9288 2.00789 20.9679 2.00789C21.0024 2.00789 21.0392 2.00579 21.0737 2.00579C21.1059 2.00579 21.1381 2.00369 21.1726 2.00369C21.2025 2.00369 21.2324 2.00369 21.2623 2.00159C21.2899 2.00159 21.3175 2.00159 21.3429 2.00159C21.3682 2.00159 21.3912 2.00159 21.4165 2.00159C21.4395 2.00159 21.4602 2.00159 21.4809 2.00159C21.4993 2.00159 21.52 2.00159 21.5384 2.00159C21.5545 2.00159 21.5729 2.00159 21.589 2.00159C21.6028 2.00159 21.6189 2.00159 21.6327 2.00159C21.6465 2.00159 21.658 2.00159 21.6695 2.00159C21.681 2.00159 21.6902 2.00159 21.6994 2.00159" stroke="#323232" stroke-width="1.09091" stroke-linecap="round" stroke-linejoin="round"/>
<path d="M17.8543 13.9132C17.8661 13.9132 17.8802 13.9132 17.8944 13.9132" stroke="#323232" stroke-width="1.09091" stroke-linecap="round" stroke-linejoin="round"/>
<path d="M18.2378 13.9132C18.1872 13.9132 18.1389 13.9132 18.0906 13.9132C18.0584 13.9132 18.0239 13.9132 17.9894 13.9132C17.971 13.9132 17.9526 13.9132 17.9342 13.9132C17.9204 13.9132 17.9066 13.9132 17.8928 13.9132" stroke="#323232" stroke-width="1.09091" stroke-linecap="round" stroke-linejoin="round"/>
<path d="M25.3425 11.7065C25.3402 11.6016 25.3333 11.5051 25.3172 11.4149C25.2988 11.31 25.2689 11.2136 25.2275 11.1297C25.1861 11.0458 25.1309 10.9745 25.0641 10.9136C24.9974 10.8549 24.9169 10.8067 24.8295 10.7752C24.7421 10.7437 24.6478 10.727 24.5489 10.7249" stroke="#323232" stroke-width="1.09091" stroke-linecap="round" stroke-linejoin="round"/>
<path d="M25.3308 10.9183C25.3332 11.1805 25.3379 11.4427 25.345 11.7091" stroke="#323232" stroke-width="1.09091" stroke-linecap="round" stroke-linejoin="round"/>
<path d="M21.6864 2.00377C21.6889 2.00377 21.6938 2.00159 21.6962 2.00159C21.6987 2.00159 21.7011 2.00159 21.7036 2.00159" stroke="#323232" stroke-width="1.09091" stroke-linecap="round" stroke-linejoin="round"/>
<path d="M24.5052 10.7271C24.5101 10.7271 24.5125 10.7271 24.5174 10.7271C24.5223 10.7271 24.5247 10.7271 24.5296 10.7271" stroke="#323232" stroke-width="1.09091" stroke-linecap="round" stroke-linejoin="round"/>
<path d="M22.8432 11.7549C22.8432 11.7571 22.8407 11.7571 22.8407 11.7593C22.8407 11.7614 22.8383 11.7614 22.8383 11.7636C22.8383 11.7658 22.8358 11.7658 22.8358 11.768" stroke="#323232" stroke-width="1.09091" stroke-linecap="round" stroke-linejoin="round"/>
<path d="M21.7161 2.00159C21.7253 2.00159 21.7345 2.00159 21.746 2.00159C21.7552 2.00159 21.7667 2.00159 21.7759 2.00159C21.7851 2.00159 21.7943 2.00159 21.8035 2.00159C21.8127 2.00159 21.8219 2.00159 21.8288 2.00159C21.838 2.00159 21.8449 2.00159 21.8518 2.00159C21.8587 2.00159 21.8656 2.00159 21.8702 2.00159C21.8749 2.00159 21.8795 2.00159 21.8818 2.00159C21.8841 2.00159 21.8841 2.00159 21.8864 2.00159" stroke="#323232" stroke-width="1.09091" stroke-linecap="round" stroke-linejoin="round"/>
<path d="M25.3439 11.7701C25.3439 11.7679 25.3439 11.7679 25.3439 11.7657C25.3439 11.7635 25.3439 11.7635 25.3439 11.7613C25.3439 11.7591 25.3439 11.7591 25.3439 11.757" stroke="#323232" stroke-width="1.09091" stroke-linecap="round" stroke-linejoin="round"/>
<path d="M24.5491 10.7271C24.5442 10.7271 24.5417 10.7271 24.5368 10.7271C24.532 10.7271 24.5295 10.7271 24.5246 10.7271" stroke="#323232" stroke-width="1.09091" stroke-linecap="round" stroke-linejoin="round"/>
<path d="M25.3418 11.7576C25.3418 11.7407 25.3418 11.7239 25.3418 11.707" stroke="#323232" stroke-width="1.09091" stroke-linecap="round" stroke-linejoin="round"/>
<path d="M25.3394 11.8536C25.3417 11.8978 25.3417 11.9419 25.3417 11.984" stroke="#323232" stroke-width="1.09091" stroke-linecap="round" stroke-linejoin="round"/>
<path d="M19.1815 61.9998C19.1493 61.9998 19.1194 61.9977 19.0918 61.9956C19.0826 61.9956 19.0734 61.9935 19.0665 61.9935" stroke="#323232" stroke-width="1.09091" stroke-linecap="round" stroke-linejoin="round"/>
<path d="M19.404 61.9855C19.3626 61.9897 19.3235 61.9939 19.2867 61.996C19.2499 61.9981 19.2154 62.0002 19.1808 62.0002" stroke="#323232" stroke-width="1.09091" stroke-linecap="round" stroke-linejoin="round"/>
<path d="M20.7933 61.9939C20.8278 61.9939 20.8577 61.9918 20.883 61.9897C20.8946 61.9876 20.9061 61.9876 20.9153 61.9855" stroke="#323232" stroke-width="1.09091" stroke-linecap="round" stroke-linejoin="round"/>
<path d="M20.5709 61.979C20.6514 61.9874 20.7273 61.9916 20.794 61.9937" stroke="#323232" stroke-width="1.09091" stroke-linecap="round" stroke-linejoin="round"/>
<path d="M19.183 61.8552C19.2083 61.8552 19.2359 61.8552 19.2635 61.8573C19.2911 61.8573 19.3164 61.8573 19.344 61.8573" stroke="#323232" stroke-width="1.09091" stroke-linecap="round" stroke-linejoin="round"/>
<path d="M19.3436 61.8573C19.3712 61.8573 19.3965 61.8573 19.4241 61.8573C19.4517 61.8573 19.477 61.8573 19.5047 61.8552" stroke="#323232" stroke-width="1.09091" stroke-linecap="round" stroke-linejoin="round"/>
<path d="M25.3418 11.9839L25.4016 54.0066" stroke="#323232" stroke-width="1.09091" stroke-linecap="round" stroke-linejoin="round"/>
<path d="M19.018 61.9833C18.9835 61.977 18.9559 61.9665 18.9398 61.956C18.9237 61.9455 18.9145 61.9329 18.9168 61.9224C18.9168 61.9202 18.9168 61.916 18.9191 61.9139" stroke="#323232" stroke-width="1.09091" stroke-linecap="round" stroke-linejoin="round"/>
<path d="M18.9164 61.9141C18.921 61.9057 18.9302 61.8973 18.944 61.8889C18.9625 61.8784 18.9924 61.8699 19.0269 61.8636C19.0637 61.8573 19.1074 61.8552 19.158 61.8552" stroke="#323232" stroke-width="1.09091" stroke-linecap="round" stroke-linejoin="round"/>
<path d="M19.0641 61.9914C19.0411 61.9893 19.018 61.9851 18.995 61.983C18.558 61.9242 18.1209 61.8278 17.7022 61.6872C17.4147 61.5907 17.1202 61.4691 16.8442 61.3265C16.5981 61.1964 16.3588 61.0475 16.1311 60.8629C16.1288 60.8608 16.1265 60.8587 16.1219 60.8566C15.9149 60.6846 15.7285 60.4917 15.5629 60.2672C15.4042 60.0512 15.2731 59.8184 15.1649 59.573C15.0798 59.3779 15.0085 59.1766 14.9464 58.9731C14.8406 58.6165 14.7693 58.2474 14.7164 57.8824C14.7141 57.8656 14.7118 57.8489 14.7095 57.8342C14.652 57.4231 14.6175 57.0036 14.5945 56.5904C14.5484 55.7766 14.5461 54.8558 14.5461 54.0336" stroke="#323232" stroke-width="1.09091" stroke-linecap="round" stroke-linejoin="round"/>
<path d="M25.4015 54.0067C25.4038 54.831 25.4038 55.7497 25.3601 56.5656C25.3371 56.9788 25.3049 57.3962 25.2474 57.8073C25.2451 57.8262 25.2428 57.843 25.2405 57.8619C25.1876 58.2268 25.1163 58.5981 25.0127 58.9546C24.9529 59.156 24.8839 59.3552 24.7988 59.5461C24.6884 59.7957 24.5573 60.0327 24.3939 60.253C24.2306 60.4732 24.0466 60.6662 23.8396 60.8382C23.835 60.8402 23.8327 60.8444 23.8281 60.8465C23.6072 61.029 23.3726 61.1779 23.131 61.3059C22.8573 61.4506 22.5652 61.5744 22.2776 61.6708C21.8566 61.8135 21.4196 61.9163 20.9779 61.975C20.9572 61.9771 20.9365 61.9813 20.9181 61.9834" stroke="#323232" stroke-width="1.09091" stroke-linecap="round" stroke-linejoin="round"/>
<path d="M20.0025 61.8973C19.9496 61.9057 19.8967 61.9142 19.8415 61.9226C19.7655 61.9352 19.6919 61.9478 19.6183 61.9583C19.5447 61.9688 19.4734 61.9793 19.4044 61.9856" stroke="#323232" stroke-width="1.09091" stroke-linecap="round" stroke-linejoin="round"/>
<path d="M19.5312 61.8526C19.5841 61.8505 19.6416 61.8526 19.706 61.8589C19.7705 61.8652 19.8418 61.8736 19.9154 61.882C19.989 61.8925 20.0626 61.9051 20.1362 61.9157C20.2098 61.9283 20.2857 61.9388 20.3593 61.9493C20.433 61.9598 20.5043 61.9682 20.5733 61.9766" stroke="#323232" stroke-width="1.09091" stroke-linecap="round" stroke-linejoin="round"/>
<path d="M14.5529 54.0322L14.4931 12.0094" stroke="#323232" stroke-width="1.09091" stroke-linecap="round" stroke-linejoin="round"/>
</svg>
