<svg width="147" height="24" viewBox="0 0 147 24" fill="none" xmlns="http://www.w3.org/2000/svg">
<path d="M33.0217 18.8875L30.6113 18.8875C26.1005 18.8875 24.241 17.028 24.241 12.5516L24.241 3.73647C24.241 2.94449 23.7245 2.42798 22.9325 2.42798C22.1405 2.42798 21.624 2.94449 21.624 3.73647L21.624 12.8959C21.624 18.4054 24.7231 21.5044 30.1981 21.47L33.0217 21.47C33.8137 21.47 34.3302 20.9535 34.3302 20.1615C34.3302 19.404 33.8137 18.8875 33.0217 18.8875Z" fill="#323232"/>
<path d="M10.468 2.46216L8.57408 2.46216C3.09907 2.46216 -5.35837e-07 5.52679 -1.49914e-06 11.0362L-3.10063e-06 20.1957C-3.2391e-06 20.9877 0.516509 21.5042 1.30849 21.5042C2.10048 21.5042 2.61699 20.9877 2.61699 20.1957L2.61699 11.3461C2.61699 6.90415 4.47643 5.04471 8.98729 5.04471L10.1236 5.04471C14.359 5.04471 16.4595 6.62868 16.4595 10.4509L16.4595 10.8296C16.4595 14.6518 14.359 16.2358 10.1236 16.2358L6.54247 16.2358C5.75049 16.2358 5.23398 16.7523 5.23398 17.5443C5.23398 18.3363 5.75048 18.8528 6.54247 18.8528L10.5024 18.8528C15.7364 18.8528 19.0765 16.0292 19.0765 10.8296L19.0765 10.4509C19.042 5.25132 15.7019 2.46216 10.468 2.46216Z" fill="#323232"/>
<path d="M45.6603 2.46216L43.7665 2.46216C38.2915 2.46216 35.1924 5.52679 35.1924 11.0362L35.1924 12.8957C35.1924 18.4051 38.2914 21.4698 43.7665 21.4698L45.6603 21.4698C51.1354 21.4698 54.2344 18.4051 54.2344 12.8957L54.2344 11.0362C54.2344 5.52679 51.1698 2.46216 45.6603 2.46216ZM51.6519 12.5858C51.6519 17.0622 49.8269 18.9216 45.316 18.9216L44.1797 18.9216C39.6688 18.9216 37.8094 17.0622 37.8094 12.5858L37.8094 11.3806C37.8094 6.90415 39.6688 5.07915 44.1797 5.07915L45.316 5.07915C49.8269 5.07915 51.6519 6.90415 51.6519 11.3806L51.6519 12.5858Z" fill="#323232"/>
<path d="M98.2405 20.3679C97.2419 19.3693 96.5876 18.9216 94.7282 18.9216L87.4626 18.9216C82.9518 18.9216 81.0923 17.0622 81.0923 12.5858L81.0923 11.3461C81.0923 6.86972 82.9518 5.04471 87.4626 5.04471L88.5645 5.04471C93.0754 5.04471 94.9348 6.86972 94.9348 11.3461L94.9348 15.0995C94.9348 15.8914 95.4513 16.4424 96.2433 16.4424C97.0353 16.4424 97.5518 15.9259 97.5518 15.0995L97.5518 11.0362C97.5518 5.52679 94.4527 2.46216 88.9777 2.46216L87.0838 2.46216C81.6088 2.46216 78.5098 5.52679 78.5098 11.0362L78.5098 12.8957C78.5098 18.4051 81.6088 21.5042 87.0838 21.4698L94.8315 21.4698C95.6579 21.4698 95.9334 21.7108 96.2777 22.0551L96.7254 22.5028C97.4829 23.2603 98.2405 23.2948 98.7914 22.7438C99.3424 22.1929 99.2735 21.4009 98.6537 20.7466L98.2405 20.3679Z" fill="#323232"/>
<path d="M67.3185 2.46216L65.4247 2.46216C59.9497 2.46216 56.8506 5.52679 56.8506 11.0362L56.8506 20.1957C56.8506 20.9877 57.3671 21.5042 58.1591 21.5042C58.9511 21.5042 59.4676 20.9877 59.4676 20.1957L59.4676 11.3806C59.4676 6.93859 61.327 5.07915 65.8379 5.07915L66.9398 5.07915C71.4506 5.07915 73.3101 6.90415 73.3101 11.3806L73.3101 20.2301C73.3101 21.0221 73.8266 21.5386 74.6186 21.5386C75.4105 21.5386 75.9271 21.0221 75.9271 20.2301L75.9271 11.0707C75.8926 5.56123 72.7936 2.46216 67.3185 2.46216Z" fill="#323232"/>
<path d="M144.21 2.94397C142.35 1.08453 139.664 0.120378 136.221 0.0859428L116.456 0.0859394C116.421 0.0859394 116.352 0.0859394 116.318 0.0859394C109.603 0.0859382 105.712 4.01142 105.643 10.8982L105.643 13.102C105.609 16.511 106.573 19.1968 108.467 21.0563C110.327 22.9157 113.012 23.8799 116.456 23.9143L136.221 23.9143C136.255 23.9143 136.324 23.9143 136.359 23.9143C143.073 23.9143 146.964 19.9888 146.999 13.102L146.999 10.8982C147.033 7.48927 146.069 4.80341 144.21 2.94397ZM145.621 10.8982L145.621 13.0676C145.553 19.1624 142.212 22.4336 136.221 22.4336L116.456 22.4336C113.426 22.3992 111.05 21.6072 109.431 19.9888C107.813 18.4049 107.021 16.0633 107.021 13.0331L107.021 10.8638C107.09 4.76897 110.395 1.49773 116.421 1.49774L136.186 1.49774C139.251 1.53217 141.593 2.32416 143.211 3.94256C144.829 5.56096 145.656 7.86804 145.621 10.8982Z" fill="#323232"/>
<path d="M119.039 8.45336C118.729 8.35006 118.419 8.48779 118.247 8.72883L115.94 12.1034L113.633 8.72883C113.461 8.45336 113.116 8.35005 112.841 8.45336C112.531 8.55666 112.324 8.83213 112.324 9.14204L112.324 14.8581C112.324 15.2369 112.634 15.5812 113.047 15.5812C113.461 15.5812 113.77 15.2713 113.77 14.8581L113.77 11.4491L115.354 13.7562C115.389 13.7906 115.423 13.8251 115.458 13.8595C115.492 13.8939 115.527 13.9284 115.561 13.9628C115.63 13.9972 115.664 14.0317 115.733 14.0317C115.768 14.0317 115.802 14.0661 115.836 14.0661C115.905 14.0661 115.94 14.0661 116.009 14.0661C116.043 14.0661 116.078 14.0661 116.112 14.0661C116.146 14.0661 116.181 14.0317 116.215 14.0317C116.25 13.9972 116.319 13.9972 116.353 13.9628C116.387 13.9284 116.422 13.8939 116.456 13.8595C116.491 13.8251 116.525 13.7906 116.56 13.7562L118.144 11.4491L118.144 14.8581C118.144 15.2369 118.453 15.5812 118.867 15.5812C119.28 15.5812 119.59 15.2713 119.59 14.8581L119.59 9.14204C119.555 8.83213 119.349 8.52223 119.039 8.45336Z" fill="#323232"/>
<path d="M139.561 13.0676L137.667 8.83217C137.667 8.79773 137.633 8.7633 137.599 8.7633C137.564 8.72886 137.53 8.66 137.495 8.62556C137.461 8.59113 137.426 8.55669 137.358 8.52226C137.323 8.48782 137.289 8.48783 137.254 8.45339C137.254 8.45339 137.254 8.45339 137.22 8.45339C137.185 8.41896 137.116 8.41896 137.048 8.41896C137.013 8.41896 136.979 8.38452 136.944 8.38452C136.91 8.38452 136.875 8.38452 136.807 8.41896C136.772 8.41896 136.703 8.41896 136.669 8.45339C136.669 8.45339 136.669 8.45339 136.634 8.45339C136.6 8.45339 136.566 8.48782 136.531 8.52226C136.497 8.55669 136.462 8.55669 136.428 8.59113C136.393 8.62556 136.359 8.69443 136.325 8.72886C136.325 8.7633 136.29 8.7633 136.256 8.79773L133.708 14.5138C133.535 14.8926 133.708 15.3058 134.086 15.4435C134.19 15.4779 134.293 15.5124 134.362 15.5124C134.637 15.5124 134.913 15.3402 135.016 15.0992L135.498 14.0317L138.322 14.0317L138.804 15.0992C138.907 15.3746 139.183 15.5124 139.458 15.5124C139.561 15.5124 139.665 15.4779 139.733 15.4435C140.112 15.2713 140.25 14.8581 140.112 14.5138L139.561 13.0676ZM136.256 12.6543L137.013 10.8982L137.771 12.6543L136.256 12.6543Z" fill="#323232"/>
<path d="M124.274 8.41895C122.311 8.41895 120.692 10.0373 120.692 12.0001C120.692 13.9628 122.311 15.5812 124.274 15.5812C125.341 15.5812 126.202 15.3402 127.166 14.8237C127.51 14.6171 127.648 14.2039 127.441 13.8595C127.235 13.5152 126.822 13.3775 126.477 13.5841C125.754 13.9973 125.1 14.1694 124.308 14.1694C123.378 14.1694 122.586 13.5841 122.276 12.7576L127.132 12.7576C127.51 12.7576 127.855 12.4477 127.855 12.0345C127.855 10.0029 126.236 8.41895 124.274 8.41895ZM122.242 11.277C122.552 10.4506 123.344 9.86518 124.274 9.86518C125.203 9.86518 125.995 10.4506 126.305 11.277L122.242 11.277Z" fill="#323232"/>
<path d="M134.362 9.14208C134.362 8.69444 134.018 8.3501 133.57 8.3501L128.818 8.3501C128.371 8.3501 128.026 8.69444 128.026 9.14208C128.026 9.58972 128.371 9.93406 128.818 9.93406L130.471 9.93406L130.471 14.8581C130.471 15.2369 130.781 15.5812 131.194 15.5812C131.608 15.5812 131.917 15.2713 131.917 14.8581L131.917 9.93406L133.57 9.93406C133.983 9.93406 134.362 9.55529 134.362 9.14208Z" fill="#323232"/>
</svg>
