<svg width="80" height="80" viewBox="0 0 80 80" fill="none" xmlns="http://www.w3.org/2000/svg">
<circle cx="40" cy="40" r="40" fill="#F5F5F7"/>
<path d="M17.4994 46.18C15.9794 46.18 14.7094 45.66 13.6894 44.62C12.6694 43.57 12.1594 42.28 12.1594 40.75C12.1594 39.23 12.6694 37.945 13.6894 36.895C14.7094 35.845 16.0044 35.32 17.5744 35.32C18.4844 35.32 19.2544 35.46 19.8844 35.74C20.5244 36.02 21.1244 36.425 21.6844 36.955L20.4994 38.32C19.5594 37.45 18.5794 37.015 17.5594 37.015C16.5594 37.015 15.7294 37.375 15.0694 38.095C14.4194 38.815 14.0944 39.7 14.0944 40.75C14.0944 41.79 14.4244 42.675 15.0844 43.405C15.7444 44.125 16.5694 44.485 17.5594 44.485C18.1594 44.485 18.6894 44.375 19.1494 44.155C19.6094 43.925 20.0844 43.58 20.5744 43.12L21.7594 44.32C21.1694 44.94 20.5444 45.405 19.8844 45.715C19.2244 46.025 18.4294 46.18 17.4994 46.18ZM23.6986 46V35.5H25.5436V40.78L30.5386 35.5H32.8036L28.4386 40.015L32.9986 46H30.7636L27.1786 41.275L25.5436 42.955V46H23.6986ZM43.5228 44.59C42.4828 45.65 41.1678 46.18 39.5778 46.18C37.9878 46.18 36.6778 45.655 35.6478 44.605C34.6178 43.555 34.1028 42.27 34.1028 40.75C34.1028 39.25 34.6228 37.97 35.6628 36.91C36.7028 35.85 38.0178 35.32 39.6078 35.32C41.1978 35.32 42.5078 35.845 43.5378 36.895C44.5678 37.945 45.0828 39.23 45.0828 40.75C45.0828 42.25 44.5628 43.53 43.5228 44.59ZM37.0428 43.405C37.7228 44.125 38.5778 44.485 39.6078 44.485C40.6378 44.485 41.4828 44.125 42.1428 43.405C42.8128 42.685 43.1478 41.8 43.1478 40.75C43.1478 39.71 42.8078 38.83 42.1278 38.11C41.4578 37.38 40.6078 37.015 39.5778 37.015C38.5478 37.015 37.6978 37.375 37.0278 38.095C36.3678 38.815 36.0378 39.7 36.0378 40.75C36.0378 41.79 36.3728 42.675 37.0428 43.405ZM47.3119 46V35.5H51.4519C52.6719 35.5 53.6419 35.82 54.3619 36.46C55.0819 37.1 55.4419 37.96 55.4419 39.04C55.4419 40.17 55.0419 41.05 54.2419 41.68C53.4519 42.31 52.4519 42.625 51.2419 42.625H49.1569V46H47.3119ZM49.1569 40.96H51.3019C51.9919 40.96 52.5419 40.785 52.9519 40.435C53.3619 40.085 53.5669 39.625 53.5669 39.055C53.5669 38.455 53.3619 37.995 52.9519 37.675C52.5519 37.345 52.0019 37.18 51.3019 37.18H49.1569V40.96ZM66.2864 44.59C65.2464 45.65 63.9314 46.18 62.3414 46.18C60.7514 46.18 59.4414 45.655 58.4114 44.605C57.3814 43.555 56.8664 42.27 56.8664 40.75C56.8664 39.25 57.3864 37.97 58.4264 36.91C59.4664 35.85 60.7814 35.32 62.3714 35.32C63.9614 35.32 65.2714 35.845 66.3014 36.895C67.3314 37.945 67.8464 39.23 67.8464 40.75C67.8464 42.25 67.3264 43.53 66.2864 44.59ZM59.8064 43.405C60.4864 44.125 61.3414 44.485 62.3714 44.485C63.4014 44.485 64.2464 44.125 64.9064 43.405C65.5764 42.685 65.9114 41.8 65.9114 40.75C65.9114 39.71 65.5714 38.83 64.8914 38.11C64.2214 37.38 63.3714 37.015 62.3414 37.015C61.3114 37.015 60.4614 37.375 59.7914 38.095C59.1314 38.815 58.8014 39.7 58.8014 40.75C58.8014 41.79 59.1364 42.675 59.8064 43.405Z" fill="#898A8D"/>
</svg>
