<svg width="31" height="15" viewBox="0 0 31 15" fill="none" xmlns="http://www.w3.org/2000/svg">
<rect width="31" height="15" rx="7.5" fill="#E21E25"/>
<path d="M11.4463 4.45991C11.2111 5.00352 11.1717 5.50686 11.0472 5.98549C10.748 7.12488 10.7516 7.12213 11.3584 8.05927C11.7245 8.62576 11.9139 9.26729 12.0823 9.9134C12.1738 10.2502 12.2653 10.587 12.3614 10.9201C12.4374 11.18 12.5701 11.4015 12.8712 11.4335C13.1128 11.46 13.1018 11.6165 13.1018 11.795C13.1018 12.0467 12.9188 11.989 12.7833 11.9908C12.3431 11.9908 11.9011 11.9689 11.4627 11.9991C11.1488 12.021 11.0463 11.8911 10.9923 11.6083C10.8093 10.6712 10.6629 9.72579 10.3517 8.81977C10.2282 8.46469 10.0497 8.1517 9.67998 8.00619C9.42739 7.90735 9.25351 7.91467 9.26449 8.28074C9.2892 9.06961 9.27273 9.85941 9.27639 10.6492C9.27639 11.0528 9.42007 11.3658 9.8566 11.4527C10.0735 11.4957 10.0497 11.6476 10.046 11.8005C10.046 12.0064 9.89687 11.9918 9.75777 11.9908H7.48082C7.34629 11.9908 7.19529 12.0146 7.19346 11.8023C7.19346 11.6412 7.19346 11.482 7.40395 11.4674C7.94207 11.4308 7.96312 11.0372 7.96495 10.6437C7.97227 9.01928 7.97136 7.39485 7.97319 5.77043C7.97319 5.37599 7.9622 4.98064 7.97319 4.5862C7.98691 4.15241 7.88167 3.80007 7.41585 3.67103C7.21451 3.61337 7.17333 3.4761 7.1898 3.2894C7.21176 3.05055 7.38748 3.10088 7.53024 3.10088C8.25872 3.10088 8.9872 3.10271 9.71567 3.10637C9.85935 3.10637 10.0332 3.06336 10.0515 3.3013C10.0662 3.49715 10.0122 3.60514 9.79712 3.64541C9.44661 3.71038 9.29652 3.95931 9.29378 4.30341C9.28554 5.22865 9.28462 6.1548 9.26998 7.08095C9.26998 7.31706 9.36973 7.36374 9.57656 7.33445C9.87582 7.29236 10.0579 7.11939 10.198 6.86131C10.5274 6.25181 10.6711 5.58739 10.8093 4.91932C10.9109 4.42879 11.0216 3.93917 11.2824 3.50264C11.481 3.17043 11.7556 2.92242 12.1711 3.00021C12.5866 3.078 12.7476 3.40929 12.8172 3.79C12.8894 4.1337 12.8592 4.49106 12.7302 4.81774C12.6387 5.03555 12.5188 5.22682 12.2598 5.26068C12.0008 5.29454 11.8746 5.11242 11.7492 4.94128C11.6513 4.80309 11.5725 4.65758 11.4463 4.45991Z" fill="white"/>
<path d="M20.8538 2.99568C21.5374 2.99568 22.2211 3.00849 22.9038 2.9911C23.1857 2.98378 23.2699 3.07713 23.2699 3.35717C23.2525 3.99779 23.2644 4.63291 23.2598 5.27079C23.2598 5.38427 23.3046 5.53893 23.1335 5.56822C22.9312 5.60299 22.9386 5.42453 22.902 5.30007C22.793 4.92119 22.664 4.55055 22.5176 4.18357C22.3474 3.75984 22.0664 3.59237 21.6134 3.57223C20.6195 3.53013 20.6204 3.51092 20.6214 4.47734C20.6214 5.13077 20.6351 5.7842 20.6214 6.43763C20.614 6.72682 20.7193 6.78631 20.9874 6.78173C23.2799 6.74695 24.4047 8.48303 23.5005 10.6447C23.0896 11.6248 22.5368 11.9964 21.4661 12.0009C20.5857 12.0046 19.7047 12.0046 18.823 12.0009C18.6949 12.0009 18.4991 12.0861 18.4835 11.8289C18.4707 11.6211 18.511 11.4766 18.7581 11.4564C19.1424 11.4262 19.2642 11.1599 19.2651 10.8222C19.2718 8.64959 19.2754 6.47698 19.2761 4.30437C19.2761 3.96759 19.1379 3.70951 18.7992 3.61067C18.5641 3.54112 18.4176 3.42764 18.4853 3.16315C18.5531 2.89867 18.7837 3.01032 18.9429 3.00666C19.5771 2.98469 20.2159 2.99568 20.8538 2.99568Z" fill="white"/>
<path d="M16.5205 8.67519C16.7493 8.35946 16.8033 8.04281 16.8866 7.73989C16.9698 7.43696 16.9726 7.15875 16.5809 7.05992C16.5505 7.05639 16.5211 7.04654 16.4947 7.03099C16.4683 7.01544 16.4454 6.99454 16.4276 6.96963C16.4098 6.94472 16.3973 6.91635 16.3911 6.88635C16.3849 6.85635 16.385 6.82538 16.3915 6.79543C16.418 6.61789 16.5544 6.64443 16.6715 6.64351C17.0809 6.64351 17.4903 6.64351 17.8997 6.64351C18.0067 6.64351 18.1202 6.64351 18.1358 6.79269C18.1458 6.89152 18.1239 6.98762 18.015 7.00409C17.4531 7.09012 17.3515 7.56051 17.1858 7.97875C17.1246 8.10074 17.075 8.2282 17.0376 8.35946C16.9827 8.65597 16.6267 8.89026 16.8298 9.23436C17.1044 9.70293 17.3707 10.1989 17.9756 10.3243C18.1312 10.3573 18.2895 10.3701 18.2502 10.5906C18.2108 10.8112 18.036 10.7151 17.9189 10.7197C17.6004 10.7316 17.2783 10.7087 16.9634 10.7279C16.5928 10.7499 16.2743 10.7279 16.1489 10.2877C16.0995 10.1148 15.9824 10.091 15.8588 10.2493C15.7933 10.3325 15.7207 10.41 15.6419 10.4808C14.8137 11.2349 13.6844 10.9201 13.4043 9.8402C13.1627 8.90947 13.3796 8.07941 14.1365 7.46533C14.4055 7.24661 14.4001 7.09378 14.2591 6.83478C13.9681 6.30032 13.8308 5.73658 13.9928 5.12708C14.1758 4.44528 14.7643 4.02887 15.415 4.13412C15.9897 4.22564 16.31 4.69603 16.2908 5.42542C16.2771 5.91504 16.1297 6.36347 15.7646 6.69202C15.5431 6.89244 15.5623 7.04436 15.6923 7.2704C15.9494 7.73257 16.1801 8.21211 16.5205 8.67519Z" fill="white"/>
<path d="M20.607 9.21131C20.607 8.71163 20.6152 8.21103 20.607 7.71135C20.6005 7.44961 20.7095 7.37182 20.962 7.38646C21.5185 7.42032 21.8818 7.65095 22.0548 8.18449C22.3184 8.99735 22.3145 9.87331 22.0438 10.6838C21.9859 10.8728 21.8825 11.0447 21.7427 11.1844C21.5478 11.3739 21.3299 11.4828 21.0453 11.3848C20.92 11.3488 20.8105 11.2715 20.7345 11.1656C20.6584 11.0597 20.6203 10.9312 20.6262 10.801C20.6152 10.2711 20.6262 9.7412 20.6262 9.21131H20.607Z" fill="#E21E25"/>
<path d="M14.607 7.60352C14.9877 8.27067 15.3538 8.92868 15.7391 9.5757C15.848 9.75874 15.7738 9.85025 15.6475 9.95001C15.3382 10.198 14.8788 10.1285 14.5969 9.79169C14.1686 9.28011 14.1631 8.20387 14.607 7.60352Z" fill="#E21E25"/>
<path d="M15.1378 6.76892C14.8532 6.24545 14.6208 5.78146 14.6592 5.23053C14.6784 4.95597 14.7782 4.69698 15.0848 4.68142C15.3758 4.66495 15.492 4.91937 15.5423 5.16189C15.654 5.71831 15.5368 6.23172 15.1378 6.76892Z" fill="#E21E25"/>
</svg>
