<svg width="43" height="15" viewBox="0 0 43 15" fill="none" xmlns="http://www.w3.org/2000/svg">
<rect width="43" height="15" rx="7.5" fill="#90A2B1"/>
<path d="M7.99965 10.608C7.08765 10.608 6.32565 10.296 5.71365 9.672C5.10165 9.042 4.79565 8.268 4.79565 7.35C4.79565 6.438 5.10165 5.667 5.71365 5.037C6.32565 4.407 7.10265 4.092 8.04465 4.092C8.59065 4.092 9.05265 4.176 9.43065 4.344C9.81465 4.512 10.1746 4.755 10.5106 5.073L9.79965 5.892C9.23565 5.37 8.64765 5.109 8.03565 5.109C7.43565 5.109 6.93765 5.325 6.54165 5.757C6.15165 6.189 5.95665 6.72 5.95665 7.35C5.95665 7.974 6.15465 8.505 6.55065 8.943C6.94665 9.375 7.44165 9.591 8.03565 9.591C8.39565 9.591 8.71365 9.525 8.98965 9.393C9.26565 9.255 9.55065 9.048 9.84465 8.772L10.5556 9.492C10.2016 9.864 9.82665 10.143 9.43065 10.329C9.03465 10.515 8.55765 10.608 7.99965 10.608ZM11.7192 10.5V4.2H12.8262V7.368L15.8232 4.2H17.1822L14.5632 6.909L17.2992 10.5H15.9582L13.8072 7.665L12.8262 8.673V10.5H11.7192ZM23.6137 9.654C22.9897 10.29 22.2007 10.608 21.2467 10.608C20.2927 10.608 19.5067 10.293 18.8887 9.663C18.2707 9.033 17.9617 8.262 17.9617 7.35C17.9617 6.45 18.2737 5.682 18.8977 5.046C19.5217 4.41 20.3107 4.092 21.2647 4.092C22.2187 4.092 23.0047 4.407 23.6227 5.037C24.2407 5.667 24.5497 6.438 24.5497 7.35C24.5497 8.25 24.2377 9.018 23.6137 9.654ZM19.7257 8.943C20.1337 9.375 20.6467 9.591 21.2647 9.591C21.8827 9.591 22.3897 9.375 22.7857 8.943C23.1877 8.511 23.3887 7.98 23.3887 7.35C23.3887 6.726 23.1847 6.198 22.7767 5.766C22.3747 5.328 21.8647 5.109 21.2467 5.109C20.6287 5.109 20.1187 5.325 19.7167 5.757C19.3207 6.189 19.1227 6.72 19.1227 7.35C19.1227 7.974 19.3237 8.505 19.7257 8.943ZM25.8871 10.5V4.2H28.3711C29.1031 4.2 29.6851 4.392 30.1171 4.776C30.5491 5.16 30.7651 5.676 30.7651 6.324C30.7651 7.002 30.5251 7.53 30.0451 7.908C29.5711 8.286 28.9711 8.475 28.2451 8.475H26.9941V10.5H25.8871ZM26.9941 7.476H28.2811C28.6951 7.476 29.0251 7.371 29.2711 7.161C29.5171 6.951 29.6401 6.675 29.6401 6.333C29.6401 5.973 29.5171 5.697 29.2711 5.505C29.0311 5.307 28.7011 5.208 28.2811 5.208H26.9941V7.476ZM37.2719 9.654C36.6479 10.29 35.8589 10.608 34.9049 10.608C33.9509 10.608 33.1649 10.293 32.5469 9.663C31.9289 9.033 31.6199 8.262 31.6199 7.35C31.6199 6.45 31.9319 5.682 32.5559 5.046C33.1799 4.41 33.9689 4.092 34.9229 4.092C35.8769 4.092 36.6629 4.407 37.2809 5.037C37.8989 5.667 38.2079 6.438 38.2079 7.35C38.2079 8.25 37.8959 9.018 37.2719 9.654ZM33.3839 8.943C33.7919 9.375 34.3049 9.591 34.9229 9.591C35.5409 9.591 36.0479 9.375 36.4439 8.943C36.8459 8.511 37.0469 7.98 37.0469 7.35C37.0469 6.726 36.8429 6.198 36.4349 5.766C36.0329 5.328 35.5229 5.109 34.9049 5.109C34.2869 5.109 33.7769 5.325 33.3749 5.757C32.9789 6.189 32.7809 6.72 32.7809 7.35C32.7809 7.974 32.9819 8.505 33.3839 8.943Z" fill="white"/>
</svg>
