<svg width="147" height="33" viewBox="0 0 147 33" fill="none" xmlns="http://www.w3.org/2000/svg">
<g clip-path="url(#clip0_1400_1094)">
<path d="M33.0223 18.5157H30.6119C26.101 18.5157 24.2415 16.6845 24.2415 12.2759V3.59433C24.2415 3.25255 24.1037 2.92478 23.8583 2.6831C23.6129 2.44143 23.2801 2.30566 22.933 2.30566C22.586 2.30566 22.2532 2.44143 22.0078 2.6831C21.7624 2.92478 21.6245 3.25255 21.6245 3.59433V12.615C21.6245 18.0409 24.7236 21.093 30.1986 21.0591H33.0223C33.3647 21.0591 33.6932 20.9251 33.9353 20.6867C34.1775 20.4482 34.3136 20.1247 34.3136 19.7874C34.3136 19.4501 34.1775 19.1267 33.9353 18.8882C33.6932 18.6497 33.3647 18.5157 33.0223 18.5157Z" fill="#323232"/>
<path d="M10.468 2.33984H8.57414C3.09909 2.33984 0 5.35803 0 10.784V19.8046C2.0685e-08 20.1464 0.137861 20.4742 0.383253 20.7159C0.628645 20.9575 0.961468 21.0933 1.3085 21.0933C1.65554 21.0933 1.98836 20.9575 2.23376 20.7159C2.47915 20.4742 2.61701 20.1464 2.61701 19.8046V11.0892C2.61701 6.71452 4.47646 4.88326 8.98735 4.88326H10.1237C14.3591 4.88326 16.4596 6.44322 16.4596 10.2075V10.5805C16.4596 14.3448 14.3591 15.9047 10.1237 15.9047H6.54252C6.37068 15.9047 6.20053 15.9381 6.04177 16.0028C5.88302 16.0676 5.73877 16.1625 5.61727 16.2822C5.49576 16.4018 5.39937 16.5439 5.33362 16.7003C5.26786 16.8566 5.23401 17.0242 5.23401 17.1934C5.23401 17.3626 5.26786 17.5302 5.33362 17.6866C5.39937 17.8429 5.49576 17.985 5.61727 18.1046C5.73877 18.2243 5.88302 18.3192 6.04177 18.384C6.20053 18.4487 6.37068 18.4821 6.54252 18.4821H10.5025C15.7365 18.4821 19.0766 15.7013 19.0766 10.5805V10.2075C19.0422 5.08673 15.702 2.33984 10.468 2.33984Z" fill="#323232"/>
<path d="M45.6599 2.33984H43.766C38.291 2.33984 35.1919 5.35803 35.1919 10.784V12.6153C35.1919 18.0412 38.291 21.0594 43.766 21.0594H45.6599C51.135 21.0594 54.2341 18.0412 54.2341 12.6153V10.784C54.2341 5.35803 51.1694 2.33984 45.6599 2.33984ZM51.6515 12.31C51.6515 16.7186 49.8265 18.5499 45.3156 18.5499H44.1792C39.6684 18.5499 37.8089 16.7186 37.8089 12.31V11.1231C37.8089 6.71452 39.6684 4.91717 44.1792 4.91717H45.3156C49.8265 4.91717 51.6515 6.71452 51.6515 11.1231V12.31Z" fill="#323232"/>
<path d="M98.2411 19.9742C97.2425 18.9908 96.5883 18.5499 94.7288 18.5499H87.4632C82.9523 18.5499 81.0928 16.7186 81.0928 12.31V11.0892C81.0928 6.68061 82.9523 4.88326 87.4632 4.88326H88.5651C93.076 4.88326 94.9354 6.68061 94.9354 11.0892V14.7856C94.9231 14.9595 94.9483 15.134 95.0092 15.2977C95.0701 15.4614 95.1655 15.6105 95.289 15.7354C95.4126 15.8603 95.5615 15.958 95.726 16.0223C95.8906 16.0865 96.0671 16.1158 96.2439 16.1082C96.4215 16.1186 96.5992 16.0912 96.7651 16.0279C96.9309 15.9646 97.081 15.867 97.2051 15.7415C97.3293 15.616 97.4245 15.4657 97.4844 15.3008C97.5444 15.1359 97.5675 14.9602 97.5524 14.7856V10.784C97.5524 5.35803 94.4533 2.33984 88.9783 2.33984H87.0844C81.6093 2.33984 78.5103 5.35803 78.5103 10.784V12.6153C78.5103 18.0412 81.6093 21.0933 87.0844 21.0594H94.8321C95.1025 21.0335 95.3753 21.0723 95.6271 21.1727C95.879 21.2731 96.1024 21.432 96.2783 21.6359L96.726 22.0768C97.4835 22.8228 98.2411 22.8568 98.7921 22.3142C99.343 21.7716 99.2741 20.9916 98.6543 20.3472L98.2411 19.9742Z" fill="#323232"/>
<path d="M67.3191 2.33984H65.4252C59.9502 2.33984 56.8511 5.35803 56.8511 10.784V19.8046C56.8511 20.1464 56.9889 20.4742 57.2343 20.7159C57.4797 20.9575 57.8125 21.0933 58.1596 21.0933C58.5066 21.0933 58.8394 20.9575 59.0848 20.7159C59.3302 20.4742 59.4681 20.1464 59.4681 19.8046V11.1231C59.4681 6.74844 61.3275 4.91717 65.8384 4.91717H66.9403C71.4512 4.91717 73.3107 6.71452 73.3107 11.1231V19.8386C73.3107 20.1803 73.4485 20.5081 73.6939 20.7498C73.9393 20.9915 74.2721 21.1272 74.6192 21.1272C74.9662 21.1272 75.299 20.9915 75.5444 20.7498C75.7898 20.5081 75.9277 20.1803 75.9277 19.8386V10.8179C75.8932 5.39195 72.7942 2.33984 67.3191 2.33984Z" fill="#323232"/>
<path d="M144.211 2.81472C142.351 0.983456 139.666 0.0339122 136.222 0H116.319C109.604 0 105.713 3.866 105.644 10.6484V12.8188C105.61 16.1761 106.574 18.8213 108.468 20.6526C110.362 22.4838 113.013 23.4334 116.457 23.4673H136.36C143.075 23.4673 146.966 19.6013 147 12.8188V10.6484C147.034 7.29113 146.07 4.64598 144.211 2.81472ZM145.623 10.6484V12.7849C145.554 18.7874 142.214 22.009 136.222 22.009H116.457C113.427 21.9751 111.051 21.1952 109.432 19.6013C107.814 18.0074 107.022 15.7353 107.022 12.751V10.6145C107.091 4.61207 110.396 1.3904 116.422 1.3904H136.188C139.252 1.42431 141.594 2.20429 143.212 3.79817C144.831 5.39205 145.657 7.66417 145.623 10.6484Z" fill="#323232"/>
<path d="M119.039 8.24044C118.895 8.1935 118.74 8.19465 118.597 8.2437C118.453 8.29275 118.331 8.38697 118.247 8.51174L115.94 11.8351L113.633 8.51174C113.55 8.38697 113.427 8.29275 113.284 8.2437C113.141 8.19465 112.985 8.1935 112.841 8.24044C112.694 8.28546 112.564 8.37528 112.471 8.49708C112.379 8.61889 112.327 8.76645 112.325 8.91869V14.5481C112.326 14.7367 112.402 14.9173 112.538 15.0507C112.673 15.1841 112.856 15.2594 113.048 15.2603C113.143 15.2626 113.239 15.2458 113.327 15.2108C113.416 15.1758 113.497 15.1235 113.564 15.0569C113.632 14.9903 113.685 14.9108 113.721 14.8234C113.756 14.7359 113.773 14.6423 113.771 14.5481V11.1908L115.355 13.4629L115.458 13.5647L115.562 13.6664C115.63 13.7003 115.665 13.7342 115.734 13.7342C115.803 13.7342 115.803 13.7681 115.837 13.7681H116.112C116.147 13.7681 116.181 13.7342 116.216 13.7342C116.25 13.7342 116.319 13.7003 116.354 13.6664L116.457 13.5647L116.56 13.4629L118.144 11.1908V14.5481C118.145 14.7367 118.221 14.9173 118.357 15.0507C118.492 15.1841 118.676 15.2594 118.867 15.2603C118.963 15.2626 119.058 15.2458 119.147 15.2108C119.236 15.1758 119.316 15.1235 119.384 15.0569C119.451 14.9903 119.505 14.9108 119.54 14.8234C119.576 14.7359 119.593 14.6423 119.59 14.5481V8.91869C119.579 8.76401 119.52 8.61638 119.422 8.49528C119.323 8.37418 119.19 8.28533 119.039 8.24044Z" fill="#323232"/>
<path d="M139.562 12.785L137.668 8.61383C137.667 8.59635 137.659 8.57997 137.646 8.56757C137.634 8.55517 137.617 8.54753 137.599 8.546C137.565 8.51209 137.53 8.44426 137.496 8.41035C137.457 8.36846 137.41 8.33398 137.358 8.30861C137.324 8.2747 137.289 8.2747 137.255 8.24079H137.22C137.169 8.21003 137.108 8.19803 137.048 8.20688C137.014 8.20688 136.979 8.17297 136.945 8.17297C136.897 8.17155 136.849 8.18329 136.807 8.20688C136.759 8.2018 136.71 8.21382 136.669 8.24079H136.635C136.601 8.24079 136.566 8.2747 136.532 8.30861C136.497 8.34253 136.463 8.34253 136.428 8.37644C136.394 8.41035 136.36 8.47818 136.325 8.51209C136.291 8.546 136.291 8.546 136.256 8.57991L133.708 14.2093C133.669 14.2936 133.648 14.3848 133.646 14.4774C133.644 14.57 133.661 14.6621 133.696 14.7479C133.732 14.8337 133.785 14.9114 133.852 14.9762C133.919 15.0411 133.999 15.0917 134.087 15.125C134.175 15.1596 134.268 15.1824 134.362 15.1928C134.499 15.1922 134.633 15.1537 134.749 15.0817C134.864 15.0098 134.957 14.9073 135.017 14.7859L135.499 13.7346H138.322L138.804 14.7859C138.86 14.9104 138.951 15.0158 139.068 15.0884C139.185 15.1609 139.321 15.1973 139.459 15.1928C139.554 15.1905 139.649 15.1674 139.734 15.125C139.906 15.051 140.042 14.914 140.112 14.7429C140.183 14.5719 140.183 14.3805 140.113 14.2093L139.562 12.785ZM136.256 12.3781L137.014 10.6486L137.771 12.3781H136.256Z" fill="#323232"/>
<path d="M124.274 8.20703C123.324 8.20703 122.413 8.57861 121.741 9.24003C121.07 9.90145 120.692 10.7985 120.692 11.7339C120.692 12.6693 121.07 13.5664 121.741 14.2278C122.413 14.8892 123.324 15.2608 124.274 15.2608C125.288 15.267 126.285 15.0096 127.166 14.5147C127.325 14.4219 127.44 14.2718 127.488 14.0963C127.537 13.9208 127.513 13.7338 127.424 13.5749C127.334 13.416 127.185 13.2978 127.008 13.2453C126.832 13.1929 126.641 13.2103 126.477 13.2939C125.822 13.6797 125.071 13.8792 124.308 13.8704C123.866 13.8701 123.434 13.7368 123.071 13.4883C122.708 13.2399 122.431 12.888 122.276 12.48H127.132C127.323 12.4791 127.506 12.4038 127.642 12.2704C127.777 12.137 127.854 11.9564 127.855 11.7678C127.859 11.3019 127.769 10.8399 127.591 10.4083C127.413 9.97663 127.15 9.584 126.817 9.25299C126.484 8.92198 126.088 8.65914 125.651 8.47962C125.215 8.30011 124.747 8.20746 124.274 8.20703ZM122.242 11.0217C122.397 10.6143 122.674 10.2631 123.037 10.0152C123.4 9.76726 123.832 9.63442 124.274 9.63442C124.715 9.63442 125.147 9.76726 125.51 10.0152C125.873 10.2631 126.15 10.6143 126.305 11.0217H122.242Z" fill="#323232"/>
<path d="M134.362 8.91878C134.364 8.81584 134.345 8.71359 134.306 8.61813C134.267 8.52266 134.208 8.43595 134.134 8.36315C134.061 8.29035 133.972 8.23297 133.876 8.19442C133.779 8.15587 133.675 8.13696 133.57 8.13879H128.818C128.608 8.13879 128.407 8.22097 128.258 8.36724C128.11 8.51352 128.026 8.71191 128.026 8.91878C128.026 9.12564 128.11 9.32403 128.258 9.47031C128.407 9.61658 128.608 9.69876 128.818 9.69876H130.471V14.5482C130.472 14.7368 130.549 14.9174 130.684 15.0508C130.819 15.1842 131.003 15.2595 131.194 15.2604C131.29 15.2627 131.385 15.2459 131.474 15.2109C131.563 15.1759 131.643 15.1236 131.711 15.057C131.779 14.9904 131.832 14.9109 131.867 14.8235C131.903 14.736 131.92 14.6424 131.917 14.5482V9.69876H133.57C133.778 9.69041 133.974 9.60556 134.121 9.46105C134.268 9.31655 134.354 9.12297 134.362 8.91878Z" fill="#323232"/>
<path d="M116.178 32.9996C115.463 32.9985 114.775 32.7307 114.253 32.2502L114.597 31.8636C114.821 32.0724 115.08 32.2421 115.362 32.3655C115.636 32.4751 115.93 32.5293 116.226 32.5249C116.5 32.5376 116.771 32.4587 116.994 32.3011C117.086 32.2337 117.16 32.1456 117.211 32.0441C117.261 31.9426 117.286 31.8307 117.283 31.7178C117.287 31.6136 117.265 31.5102 117.22 31.4158C117.175 31.3215 117.108 31.239 117.025 31.1752C116.727 30.9977 116.395 30.8822 116.05 30.836C115.61 30.7673 115.192 30.6003 114.828 30.3477C114.702 30.2398 114.602 30.1048 114.537 29.9531C114.472 29.8015 114.443 29.6372 114.453 29.4728C114.45 29.2971 114.488 29.123 114.564 28.9642C114.641 28.8054 114.753 28.6661 114.893 28.5571C115.212 28.3089 115.61 28.1814 116.016 28.1977C116.624 28.1903 117.215 28.3932 117.686 28.7708L117.352 29.1642C116.968 28.8405 116.48 28.6614 115.975 28.6589C115.713 28.6464 115.454 28.7217 115.241 28.8725C115.154 28.9364 115.083 29.0198 115.034 29.1159C114.986 29.2119 114.961 29.318 114.962 29.4253C114.959 29.5314 114.981 29.6368 115.028 29.7325C115.075 29.8281 115.144 29.9112 115.231 29.9747C115.549 30.1582 115.899 30.2802 116.264 30.3341C116.69 30.4009 117.094 30.5672 117.442 30.8191C117.565 30.9239 117.663 31.055 117.727 31.2025C117.792 31.3499 117.821 31.5099 117.813 31.6703C117.819 31.8541 117.781 32.0366 117.702 32.2032C117.623 32.3698 117.505 32.516 117.359 32.63C117.025 32.8815 116.612 33.0099 116.192 32.9929" fill="#323232"/>
<path d="M118.891 32.9324V28.2559H119.435L121.164 30.8095L122.892 28.2559H123.436V32.9324H122.899V29.1444L121.171 31.6505H121.143L119.415 29.1511V32.9324H118.891Z" fill="#323232"/>
<path d="M124.373 32.9355L126.539 28.2217H127.038L129.204 32.9355H128.626L128.071 31.6977H125.485L124.927 32.9355H124.373ZM125.695 31.2229H127.861L126.78 28.8491L125.695 31.2229Z" fill="#323232"/>
<path d="M130.141 32.9323V28.2558H132.183C132.429 28.2399 132.675 28.2732 132.908 28.3537C133.14 28.4341 133.354 28.56 133.536 28.7238C133.658 28.8471 133.754 28.9937 133.817 29.1546C133.879 29.3156 133.908 29.4875 133.901 29.6598C133.909 29.8263 133.883 29.9928 133.823 30.149C133.764 30.3052 133.673 30.448 133.557 30.5686C133.299 30.8105 132.972 30.969 132.62 31.023L134.08 32.9323H133.419L132.041 31.118H130.685V32.9323H130.141ZM130.674 30.6432H132.134C132.45 30.6567 132.76 30.5646 133.016 30.3821C133.127 30.2988 133.217 30.1903 133.277 30.0658C133.337 29.9412 133.365 29.8043 133.36 29.6665C133.365 29.5362 133.339 29.4066 133.282 29.2885C133.226 29.1705 133.142 29.0675 133.037 28.9883C132.775 28.8122 132.461 28.7263 132.145 28.7441H130.678L130.674 30.6432Z" fill="#323232"/>
<path d="M136.298 32.9324V28.7442H134.707V28.2559H138.436V28.7442H136.842V32.9324H136.298Z" fill="#323232"/>
</g>
<defs>
<clipPath id="clip0_1400_1094">
<rect width="147" height="33" fill="white"/>
</clipPath>
</defs>
</svg>
