<svg width="40" height="64" viewBox="0 0 40 64" fill="none" xmlns="http://www.w3.org/2000/svg">
<path fill-rule="evenodd" clip-rule="evenodd" d="M5.95071 28.4015C5.92221 26.5782 5.8804 23.9028 7.3163 22.4659C8.86692 20.9141 10.5205 20.8328 12.1866 20.7509C12.3987 20.7405 12.611 20.7301 12.8233 20.7166C14.0828 20.6366 15.4406 20.5945 16.7228 20.5548C17.0705 20.544 17.4127 20.5334 17.7459 20.5222V20.5221C17.7466 20.5221 17.7472 20.5222 17.7479 20.5222C18.9841 20.4809 20.1787 20.5026 20.9644 20.5439C22.6652 20.5609 24.6804 20.6015 26.4923 20.7165C26.7046 20.73 26.9169 20.7404 27.129 20.7508C28.7951 20.8327 30.4487 20.914 31.9993 22.4658C33.4352 23.9027 33.3934 26.5781 33.3649 28.4014C33.363 28.5216 33.3612 28.6381 33.3598 28.7502C33.295 33.3934 33.1655 43.8459 33.1655 48.5107C33.1655 54.3416 32.8428 55.7669 30.9627 58.3585C29.1385 60.8728 27.0119 61.857 23.6416 61.857H21.5697V61.8571H15.674C12.3037 61.8571 10.1771 60.8729 8.35291 58.3586C6.47276 55.767 6.15011 54.3417 6.15011 48.5107C6.15011 43.846 6.02053 33.3935 5.95575 28.7503C5.95441 28.6381 5.95259 28.5217 5.95071 28.4015Z" fill="#323232"/>
<path d="M5 17.2154C5.5399 16.8699 7.5397 16.1529 11.2197 16.0492C14.8996 15.9456 20.1389 16.006 22.2985 16.0492C24.3285 15.9629 29.0105 15.9326 31.4984 16.5028C32.319 16.6323 34.051 16.9563 34.4139 17.2154" stroke="#323232" stroke-width="0.5"/>
<path d="M17.1802 0.5L17.2057 0.251305L17.1872 0.249405L17.1686 0.25027L17.1802 0.5ZM17.2449 0.506524L17.2203 0.755308L17.493 0.782301L17.4949 0.508315L17.2449 0.506524ZM13.7464 0.953518L13.6346 0.729911L13.6346 0.729911L13.7464 0.953518ZM12.8955 1.54209L12.7162 1.36783L12.7162 1.36783L12.8955 1.54209ZM12.7098 1.73098L12.533 1.5542L12.533 1.5542L12.7098 1.73098ZM12.1462 2.65754L12.3695 2.76986L12.3695 2.76986L12.1462 2.65754ZM11.1549 4.19293L10.9781 4.01615L10.9692 4.02504L10.9613 4.03477L11.1549 4.19293ZM7.00844 9.63514L7.23543 9.73991L7.23543 9.73991L7.00844 9.63514ZM6.76674 10.0863L6.98433 10.2094L6.98433 10.2094L6.76674 10.0863ZM5.00001 17.1506L4.75033 17.1379L4.747 17.2036L4.7764 17.2624L5.00001 17.1506ZM5.0648 17.2802H5.3148V17.2211L5.2884 17.1683L5.0648 17.2802ZM5.0648 42.9363L5.3148 42.9398V42.9363H5.0648ZM5.32395 54.0799L5.0795 54.1323L5.0795 54.1323L5.32395 54.0799ZM5.37724 54.3294L5.13274 54.3815L5.13274 54.3815L5.37724 54.3294ZM7.20281 59.1981L7.41829 59.0714L7.41829 59.0714L7.20281 59.1981ZM12.2563 63.215L12.1634 63.4471L12.1738 63.4513L12.1845 63.4545L12.2563 63.215ZM15.1718 63.4742V63.2242H15.1618L15.1518 63.225L15.1718 63.4742ZM24.2421 63.4742L24.262 63.225L24.2521 63.2242H24.2421V63.4742ZM27.1576 63.215L27.2294 63.4545L27.2401 63.4513L27.2504 63.4471L27.1576 63.215ZM32.2111 59.1981L31.9956 59.0714L31.9956 59.0714L32.2111 59.1981ZM34.0366 54.3294L33.7921 54.2773L33.7921 54.2773L34.0366 54.3294ZM34.0899 54.0799L34.3344 54.1323L34.3344 54.1323L34.0899 54.0799ZM34.3491 42.9363H34.0991L34.0991 42.9398L34.3491 42.9363ZM34.3491 33.6068V33.3568H34.0991V33.6068H34.3491ZM34.5434 33.6068V33.8568H34.6772L34.7515 33.7455L34.5434 33.6068ZM34.673 33.4124L34.881 33.5511L34.923 33.4881V33.4124H34.673ZM34.673 27.3223H34.923V27.2633L34.8966 27.2105L34.673 27.3223ZM34.5434 27.0632L34.767 26.9514L34.6979 26.8132H34.5434V27.0632ZM34.3491 27.0632H34.0991V27.3132H34.3491V27.0632ZM34.3491 17.2802L34.1255 17.1683L34.0991 17.2211V17.2802H34.3491ZM34.4139 17.1506L34.6375 17.2624L34.6669 17.2036L34.6635 17.1379L34.4139 17.1506ZM32.6471 10.0863L32.4295 10.2094L32.4295 10.2094L32.6471 10.0863ZM32.4054 9.63514L32.1784 9.73991L32.1784 9.73991L32.4054 9.63514ZM28.259 4.19293L28.4526 4.03477L28.4446 4.02504L28.4358 4.01615L28.259 4.19293ZM27.2677 2.65753L27.0443 2.76986L27.0443 2.76986L27.2677 2.65753ZM26.7041 1.73098L26.5273 1.90775L26.5273 1.90775L26.7041 1.73098ZM26.5184 1.54209L26.6976 1.36783L26.6976 1.36783L26.5184 1.54209ZM25.6675 0.953518L25.7793 0.729911L25.7793 0.729911L25.6675 0.953518ZM22.2337 0.5L22.2453 0.25027L22.2267 0.249405L22.2082 0.251305L22.2337 0.5ZM22.1689 0.506524L21.9189 0.508351L21.9209 0.782296L22.1936 0.755308L22.1689 0.506524ZM22.1689 0.5L22.4189 0.498173L22.4169 0.222516L22.1427 0.251374L22.1689 0.5ZM19.7069 0.614334L19.7062 0.864337L19.7077 0.864333L19.7069 0.614334ZM17.245 0.5L17.2712 0.251374L16.997 0.222511L16.995 0.498209L17.245 0.5ZM17.1547 0.748695C17.1766 0.750938 17.1984 0.753142 17.2203 0.755308L17.2696 0.25774C17.2483 0.255631 17.227 0.253486 17.2057 0.251305L17.1547 0.748695ZM13.8582 1.17712C13.9534 1.12952 14.1437 1.07635 14.4171 1.02512C14.6823 0.975417 15.0015 0.931677 15.3372 0.894232C16.0081 0.819387 16.7314 0.771144 17.1918 0.74973L17.1686 0.25027C16.7004 0.272048 15.9659 0.320988 15.2817 0.397315C14.9398 0.435457 14.6071 0.4808 14.325 0.533678C14.051 0.58503 13.7986 0.647935 13.6346 0.729911L13.8582 1.17712ZM13.0747 1.71636C13.2103 1.5769 13.2718 1.51466 13.3616 1.45108C13.4555 1.38465 13.5851 1.3137 13.8582 1.17712L13.6346 0.729911C13.3654 0.864513 13.2024 0.951233 13.0727 1.04298C12.9391 1.1376 12.8463 1.23406 12.7162 1.36783L13.0747 1.71636ZM12.8866 1.90775C12.9618 1.83251 13.023 1.76955 13.0747 1.71636L12.7162 1.36783C12.6646 1.42097 12.6055 1.48169 12.533 1.5542L12.8866 1.90775ZM12.3695 2.76986C12.468 2.57412 12.5563 2.3987 12.6438 2.24781C12.732 2.09573 12.8113 1.98308 12.8866 1.90775L12.533 1.5542C12.412 1.67526 12.307 1.83189 12.2113 1.99699C12.1148 2.16328 12.0195 2.35295 11.9228 2.54521L12.3695 2.76986ZM11.3317 4.36971C11.8058 3.89562 12.1174 3.27128 12.3695 2.76986L11.9228 2.54521C11.664 3.05982 11.3856 3.60864 10.9781 4.01615L11.3317 4.36971ZM7.23543 9.73991C7.30095 9.59795 7.50454 9.29014 7.8139 8.86274C8.11701 8.44397 8.50626 7.93097 8.92613 7.38956C9.76563 6.30705 10.7231 5.11667 11.3485 4.35109L10.9613 4.03477C10.3341 4.80251 9.37385 5.99634 8.53102 7.08315C8.10972 7.62641 7.71665 8.14435 7.40886 8.56958C7.10731 8.98619 6.87143 9.33543 6.78145 9.53038L7.23543 9.73991ZM6.98433 10.2094C7.08128 10.0381 7.17021 9.88123 7.23543 9.73991L6.78145 9.53038C6.72673 9.64894 6.64945 9.78593 6.54914 9.96323L6.98433 10.2094ZM5.24969 17.1632C5.46654 12.8803 6.45911 11.1379 6.98433 10.2094L6.54914 9.96323C5.99312 10.9461 4.97181 12.7636 4.75033 17.1379L5.24969 17.1632ZM5.2884 17.1683L5.22361 17.0388L4.7764 17.2624L4.84119 17.392L5.2884 17.1683ZM5.3148 27.0632V17.2802H4.8148V27.0632H5.3148ZM5.3148 27.5167V27.0632H4.8148V27.5167H5.3148ZM5.3148 28.4885V27.5167H4.8148V28.4885H5.3148ZM5.3148 30.9505V28.4885H4.8148V30.9505H5.3148ZM5.3148 32.6998V30.9505H4.8148V32.6998H5.3148ZM5.3148 33.6068V32.6998H4.8148V33.6068H5.3148ZM5.3148 42.9363V33.6068H4.8148V42.9363H5.3148ZM5.5684 54.0275C5.49559 53.6877 5.43828 53.0242 5.39589 52.1516C5.35384 51.2859 5.32717 50.2331 5.31153 49.1265C5.28026 46.9137 5.2932 44.4931 5.31477 42.9398L4.81482 42.9328C4.7932 44.4894 4.78022 46.9149 4.81158 49.1336C4.82726 50.2428 4.85403 51.302 4.89648 52.1759C4.93859 53.0428 4.99682 53.7464 5.0795 54.1323L5.5684 54.0275ZM5.62175 54.2773C5.60432 54.1956 5.58657 54.1123 5.5684 54.0275L5.0795 54.1323C5.09761 54.2168 5.1153 54.2998 5.13274 54.3815L5.62175 54.2773ZM7.41829 59.0714C6.20244 57.0044 5.97516 55.935 5.62175 54.2773L5.13274 54.3815C5.49128 56.0633 5.73261 57.1919 6.98732 59.3249L7.41829 59.0714ZM12.3491 62.9829C10.1098 62.0872 8.67552 61.2087 7.41829 59.0714L6.98732 59.3249C8.32162 61.5932 9.86758 62.5288 12.1634 63.4471L12.3491 62.9829ZM15.1518 63.225C13.8914 63.3258 12.7349 63.0976 12.3281 62.9756L12.1845 63.4545C12.6415 63.5916 13.8606 63.8299 15.1917 63.7234L15.1518 63.225ZM16.7915 63.2242H15.1718V63.7242H16.7915V63.2242ZM16.7915 63.7242H19.0591V63.2242H16.7915V63.7242ZM19.0591 63.7242H20.3548V63.2242H19.0591V63.7242ZM20.3548 63.7242H22.6224V63.2242H20.3548V63.7242ZM22.6224 63.7242H24.2421V63.2242H22.6224V63.7242ZM24.2222 63.7234C25.5533 63.8299 26.7724 63.5916 27.2294 63.4545L27.0857 62.9756C26.679 63.0976 25.5224 63.3258 24.262 63.225L24.2222 63.7234ZM27.2504 63.4471C29.5463 62.5288 31.0922 61.5932 32.4265 59.3249L31.9956 59.0714C30.7383 61.2087 29.3041 62.0872 27.0647 62.9829L27.2504 63.4471ZM32.4265 59.3249C33.6813 57.1919 33.9226 56.0633 34.2811 54.3815L33.7921 54.2773C33.4387 55.935 33.2114 57.0044 31.9956 59.0714L32.4265 59.3249ZM34.2811 54.3815C34.2986 54.2998 34.3163 54.2168 34.3344 54.1323L33.8455 54.0275C33.8273 54.1123 33.8095 54.1956 33.7921 54.2773L34.2811 54.3815ZM34.3344 54.1323C34.4171 53.7464 34.4753 53.0428 34.5174 52.1759C34.5598 51.302 34.5866 50.2428 34.6023 49.1336C34.6336 46.9149 34.6207 44.4894 34.5991 42.9328L34.0991 42.9398C34.1207 44.4931 34.1336 46.9137 34.1023 49.1265C34.0867 50.2331 34.06 51.2859 34.018 52.1516C33.9756 53.0242 33.9183 53.6877 33.8455 54.0275L34.3344 54.1323ZM34.5991 42.9363V33.6068H34.0991V42.9363H34.5991ZM34.3491 33.8568H34.5434V33.3568H34.3491V33.8568ZM34.7515 33.7455L34.881 33.5511L34.465 33.2737L34.3354 33.4681L34.7515 33.7455ZM34.923 33.4124V27.3223H34.423V33.4124H34.923ZM34.8966 27.2105L34.767 26.9514L34.3198 27.175L34.4494 27.4341L34.8966 27.2105ZM34.5434 26.8132H34.3491V27.3132H34.5434V26.8132ZM34.5991 27.0632V17.2802H34.0991V27.0632H34.5991ZM34.5727 17.392L34.6375 17.2624L34.1903 17.0388L34.1255 17.1683L34.5727 17.392ZM34.6635 17.1379C34.4421 12.7636 33.4208 10.9461 32.8647 9.96324L32.4295 10.2094C32.9548 11.1379 33.9473 12.8803 34.1642 17.1632L34.6635 17.1379ZM32.8647 9.96324C32.7644 9.78593 32.6871 9.64894 32.6324 9.53038L32.1784 9.73991C32.2437 9.88123 32.3326 10.0381 32.4295 10.2094L32.8647 9.96324ZM32.6324 9.53038C32.5424 9.33543 32.3066 8.98619 32.005 8.56958C31.6972 8.14435 31.3042 7.62641 30.8829 7.08315C30.04 5.99634 29.0798 4.80251 28.4526 4.03477L28.0654 4.35109C28.6908 5.11667 29.6482 6.30705 30.4877 7.38956C30.9076 7.93097 31.2969 8.44397 31.6 8.86275C31.9093 9.29014 32.1129 9.59795 32.1784 9.73991L32.6324 9.53038ZM28.4358 4.01615C28.0283 3.60864 27.7498 3.05982 27.491 2.54521L27.0443 2.76986C27.2965 3.27128 27.6081 3.89562 28.0822 4.36971L28.4358 4.01615ZM27.491 2.54521C27.3943 2.35295 27.299 2.16328 27.2026 1.99699C27.1069 1.83189 27.0019 1.67526 26.8808 1.5542L26.5273 1.90775C26.6026 1.98308 26.6819 2.09573 26.7701 2.24781C26.8576 2.3987 26.9459 2.57412 27.0443 2.76986L27.491 2.54521ZM26.8808 1.5542C26.8083 1.48169 26.7493 1.42097 26.6976 1.36783L26.3391 1.71636C26.3908 1.76955 26.452 1.83251 26.5273 1.90775L26.8808 1.5542ZM26.6976 1.36783C26.5676 1.23406 26.4748 1.1376 26.3411 1.04298C26.2115 0.951233 26.0485 0.864513 25.7793 0.729911L25.5557 1.17712C25.8288 1.3137 25.9584 1.38465 26.0522 1.45108C26.1421 1.51466 26.2035 1.5769 26.3391 1.71636L26.6976 1.36783ZM25.7793 0.729911C25.6153 0.647935 25.3629 0.58503 25.0889 0.533678C24.8068 0.4808 24.4741 0.435457 24.1322 0.397315C23.4479 0.320988 22.7135 0.272048 22.2453 0.25027L22.2221 0.74973C22.6825 0.771144 23.4058 0.819387 24.0767 0.894232C24.4124 0.931677 24.7316 0.975417 24.9968 1.02512C25.2701 1.07635 25.4604 1.12952 25.5557 1.17712L25.7793 0.729911ZM22.2082 0.251305C22.1869 0.253486 22.1656 0.255631 22.1443 0.25774L22.1936 0.755308C22.2155 0.753142 22.2373 0.750938 22.2592 0.748695L22.2082 0.251305ZM21.9189 0.501827L21.9189 0.508351L22.4189 0.504697L22.4189 0.498173L21.9189 0.501827ZM19.7077 0.864333C20.7913 0.861007 21.7131 0.799362 22.1951 0.748626L22.1427 0.251374C21.6789 0.300196 20.7742 0.361057 19.7062 0.364335L19.7077 0.864333ZM19.7077 0.364335C18.6397 0.361057 17.735 0.300196 17.2712 0.251374L17.2188 0.748626C17.7008 0.799362 18.6225 0.861007 19.7062 0.864333L19.7077 0.364335ZM16.995 0.498209L16.9949 0.504734L17.4949 0.508315L17.495 0.501791L16.995 0.498209Z" fill="#323232"/>
<rect x="18.2168" y="55.2179" width="3.23941" height="3.23941" rx="1" stroke="white" stroke-width="0.719072"/>
</svg>
