<svg width="34" height="34" viewBox="0 0 34 34" fill="none" xmlns="http://www.w3.org/2000/svg">
<path d="M16.9994 29.37C23.8315 29.37 29.37 23.8315 29.37 16.9994C29.37 10.1672 23.8315 4.62866 16.9994 4.62866C10.1672 4.62866 4.62866 10.1672 4.62866 16.9994C4.62866 23.8315 10.1672 29.37 16.9994 29.37Z" fill="#E21E25"/>
<path d="M16.9995 27.0752C22.5641 27.0752 27.0752 22.5641 27.0752 16.9995C27.0752 11.4349 22.5641 6.92383 16.9995 6.92383C11.4349 6.92383 6.92383 11.4349 6.92383 16.9995C6.92383 22.5641 11.4349 27.0752 16.9995 27.0752Z" fill="white"/>
<path d="M13.3853 13.8965C13.1706 14.3927 13.1347 14.8522 13.021 15.2892C12.7479 16.3293 12.7512 16.3268 13.3051 17.1823C13.6393 17.6995 13.8122 18.2851 13.966 18.875C14.0495 19.1824 14.133 19.4899 14.2208 19.794C14.2901 20.0313 14.4113 20.2334 14.6861 20.2627C14.9067 20.2869 14.8967 20.4298 14.8967 20.5927C14.8967 20.8224 14.7296 20.7698 14.6059 20.7715C14.2041 20.7715 13.8005 20.7514 13.4003 20.779C13.1138 20.7991 13.0202 20.6804 12.9709 20.4223C12.8038 19.5667 12.6702 18.7037 12.3861 17.8766C12.2733 17.5524 12.1104 17.2667 11.7729 17.1339C11.5423 17.0436 11.3835 17.0503 11.3936 17.3845C11.4161 18.1047 11.4011 18.8257 11.4044 19.5467C11.4044 19.9151 11.5356 20.2009 11.9341 20.2802C12.1321 20.3195 12.1104 20.4582 12.1071 20.5977C12.1071 20.7857 11.9709 20.7723 11.8439 20.7715H9.76525C9.64244 20.7715 9.50459 20.7932 9.50292 20.5994C9.50292 20.4523 9.50292 20.307 9.69507 20.2936C10.1863 20.2602 10.2055 19.9009 10.2072 19.5417C10.2139 18.0587 10.2131 16.5758 10.2147 15.0928C10.2147 14.7328 10.2047 14.3718 10.2147 14.0118C10.2273 13.6157 10.1312 13.2941 9.70593 13.1763C9.52213 13.1237 9.48454 12.9983 9.49957 12.8279C9.51962 12.6099 9.68003 12.6558 9.81037 12.6558C10.4754 12.6558 11.1404 12.6575 11.8055 12.6608C11.9366 12.6608 12.0954 12.6215 12.1121 12.8388C12.1254 13.0176 12.0761 13.1161 11.8798 13.1529C11.5598 13.2122 11.4228 13.4395 11.4203 13.7536C11.4128 14.5983 11.4119 15.4437 11.3986 16.2892C11.3986 16.5048 11.4896 16.5474 11.6785 16.5207C11.9517 16.4822 12.1179 16.3243 12.2457 16.0887C12.5465 15.5323 12.6777 14.9258 12.8038 14.3159C12.8966 13.8681 12.9977 13.4211 13.2358 13.0226C13.4171 12.7193 13.6677 12.4929 14.047 12.5639C14.4263 12.6349 14.5733 12.9374 14.6368 13.2849C14.7028 13.5987 14.6752 13.9249 14.5575 14.2231C14.4739 14.422 14.3645 14.5966 14.128 14.6275C13.8916 14.6584 13.7763 14.4921 13.6618 14.3359C13.5725 14.2098 13.5006 14.0769 13.3853 13.8965Z" fill="#E21E25"/>
<path d="M21.9737 12.5598C22.5978 12.5598 23.2219 12.5715 23.8451 12.5556C24.1025 12.5489 24.1793 12.6342 24.1793 12.8898C24.1635 13.4746 24.1743 14.0544 24.1701 14.6368C24.1701 14.7404 24.2111 14.8816 24.0549 14.9083C23.8702 14.94 23.8769 14.7771 23.8435 14.6635C23.7441 14.3176 23.6263 13.9793 23.4926 13.6442C23.3372 13.2574 23.0807 13.1045 22.6671 13.0861C21.7598 13.0477 21.7607 13.0302 21.7615 13.9124C21.7615 14.5089 21.774 15.1055 21.7615 15.702C21.7548 15.966 21.8509 16.0203 22.0957 16.0161C24.1885 15.9844 25.2153 17.5692 24.3899 19.5426C24.0147 20.4374 23.5101 20.7766 22.5326 20.7808C21.7289 20.7841 20.9247 20.7841 20.1198 20.7808C20.0029 20.7808 19.8241 20.8584 19.8099 20.6237C19.7982 20.434 19.8349 20.302 20.0605 20.2837C20.4114 20.2561 20.5225 20.013 20.5234 19.7047C20.5295 17.7213 20.5328 15.7379 20.5334 13.7545C20.5334 13.4471 20.4072 13.2115 20.0981 13.1212C19.8834 13.0577 19.7497 12.9541 19.8115 12.7127C19.8734 12.4712 20.0839 12.5732 20.2293 12.5698C20.8082 12.5498 21.3914 12.5598 21.9737 12.5598Z" fill="#E21E25"/>
<path d="M18.0175 17.7446C18.2264 17.4563 18.2757 17.1673 18.3517 16.8907C18.4277 16.6142 18.4302 16.3602 18.0727 16.27C18.0449 16.2668 18.0181 16.2578 17.994 16.2436C17.9699 16.2294 17.949 16.2103 17.9327 16.1876C17.9164 16.1648 17.9051 16.1389 17.8994 16.1115C17.8937 16.0842 17.8938 16.0559 17.8997 16.0285C17.9239 15.8665 18.0484 15.8907 18.1554 15.8899C18.5291 15.8899 18.9028 15.8899 19.2766 15.8899C19.3743 15.8899 19.4779 15.8899 19.4921 16.026C19.5013 16.1163 19.4812 16.204 19.3818 16.219C18.8689 16.2976 18.7761 16.727 18.6249 17.1088C18.569 17.2202 18.5237 17.3365 18.4896 17.4563C18.4394 17.727 18.1144 17.9409 18.2999 18.255C18.5505 18.6828 18.7937 19.1356 19.3459 19.2501C19.4879 19.2802 19.6325 19.2919 19.5965 19.4932C19.5606 19.6945 19.401 19.6068 19.2941 19.611C19.0034 19.6219 18.7093 19.601 18.4219 19.6185C18.0835 19.6386 17.7928 19.6185 17.6783 19.2167C17.6332 19.0588 17.5263 19.037 17.4135 19.1816C17.3536 19.2576 17.2874 19.3283 17.2155 19.3929C16.4594 20.0814 15.4284 19.794 15.1728 18.8081C14.9522 17.9585 15.1502 17.2007 15.8411 16.6401C16.0868 16.4404 16.0818 16.3009 15.9531 16.0645C15.6874 15.5766 15.5621 15.0619 15.71 14.5055C15.8771 13.8831 16.4143 13.5029 17.0083 13.599C17.5329 13.6826 17.8254 14.112 17.8078 14.7779C17.7953 15.2248 17.6608 15.6342 17.3274 15.9341C17.1252 16.1171 17.1428 16.2558 17.2614 16.4621C17.4962 16.8841 17.7067 17.3218 18.0175 17.7446Z" fill="#E21E25"/>
<path d="M21.7483 18.2341C21.7483 17.778 21.7558 17.321 21.7483 16.8648C21.7424 16.6258 21.8419 16.5548 22.0724 16.5682C22.5804 16.5991 22.9121 16.8096 23.07 17.2967C23.3107 18.0388 23.3072 18.8385 23.06 19.5784C23.0072 19.7509 22.9128 19.9079 22.7851 20.0354C22.6071 20.2083 22.4083 20.3077 22.1485 20.2183C22.0341 20.1854 21.9341 20.1149 21.8647 20.0182C21.7953 19.9215 21.7604 19.8042 21.7658 19.6853C21.7558 19.2016 21.7658 18.7178 21.7658 18.2341H21.7483Z" fill="#FEFDFD"/>
<path d="M16.2709 16.7664C16.6185 17.3754 16.9527 17.9761 17.3044 18.5668C17.4038 18.7339 17.3362 18.8174 17.2209 18.9085C16.9385 19.1349 16.5191 19.0714 16.2618 18.7639C15.8708 18.2969 15.8657 17.3144 16.2709 16.7664Z" fill="#FEFCFD"/>
<path d="M16.9769 15.8908C16.7171 15.4129 16.5049 14.9893 16.5399 14.4863C16.5575 14.2357 16.6486 13.9993 16.9284 13.9851C17.1941 13.97 17.3002 14.2023 17.3462 14.4237C17.4481 14.9316 17.3412 15.4003 16.9769 15.8908Z" fill="#FEFBFC"/>
</svg>
