<svg width="200" height="44" viewBox="0 0 200 44" fill="none" xmlns="http://www.w3.org/2000/svg">
<g clip-path="url(#clip0_3760_298)">
<path d="M44.929 24.6881H41.6496C35.5123 24.6881 32.9824 22.2464 32.9824 16.3683V4.79293C32.9824 4.33722 32.7949 3.90019 32.461 3.57796C32.1271 3.25573 31.6743 3.07471 31.2022 3.07471C30.73 3.07471 30.2772 3.25573 29.9433 3.57796C29.6094 3.90019 29.4219 4.33722 29.4219 4.79293V16.8205C29.4219 24.0551 33.6383 28.1245 41.0874 28.0793H44.929C45.395 28.0793 45.8418 27.9007 46.1713 27.5827C46.5008 27.2647 46.6859 26.8334 46.6859 26.3837C46.6859 25.934 46.5008 25.5027 46.1713 25.1847C45.8418 24.8668 45.395 24.6881 44.929 24.6881Z" fill="white"/>
<path d="M14.2422 3.11993H11.6655C4.21645 3.11993 0 7.14419 0 14.3788V26.4063C2.81429e-08 26.862 0.187567 27.2991 0.521433 27.6213C0.8553 27.9435 1.30812 28.1246 1.78028 28.1246C2.25244 28.1246 2.70526 27.9435 3.03912 27.6213C3.37299 27.2991 3.56056 26.862 3.56056 26.4063V14.7857C3.56056 8.95284 6.09042 6.51116 12.2277 6.51116H13.7737C19.5362 6.51116 22.394 8.59111 22.394 13.6101V14.1075C22.394 19.1265 19.5362 21.2065 13.7737 21.2065H8.90138C8.66759 21.2065 8.4361 21.2509 8.2201 21.3373C8.00411 21.4236 7.80785 21.5502 7.64254 21.7097C7.47722 21.8693 7.34609 22.0587 7.25662 22.2671C7.16715 22.4756 7.12111 22.699 7.12111 22.9247C7.12111 23.1503 7.16715 23.3737 7.25662 23.5822C7.34609 23.7907 7.47722 23.9801 7.64254 24.1396C7.80785 24.2992 8.00411 24.4258 8.2201 24.5121C8.4361 24.5985 8.66759 24.6429 8.90138 24.6429H14.2891C21.4102 24.6429 25.9546 20.9352 25.9546 14.1075V13.6101C25.9077 6.78245 21.3633 3.11993 14.2422 3.11993Z" fill="white"/>
<path d="M62.1221 3.11993H59.5454C52.0963 3.11993 47.8799 7.14419 47.8799 14.3788V16.8205C47.8799 24.0551 52.0963 28.0793 59.5454 28.0793H62.1221C69.5712 28.0793 73.7876 24.0551 73.7876 16.8205V14.3788C73.7876 7.14419 69.618 3.11993 62.1221 3.11993ZM70.2739 16.4135C70.2739 22.2917 67.7909 24.7333 61.6536 24.7333H60.1076C53.9703 24.7333 51.4404 22.2917 51.4404 16.4135V14.831C51.4404 8.95284 53.9703 6.55637 60.1076 6.55637H61.6536C67.7909 6.55637 70.2739 8.95284 70.2739 14.831V16.4135Z" fill="white"/>
<path d="M133.661 26.6324C132.302 25.3211 131.412 24.7333 128.882 24.7333H118.997C112.86 24.7333 110.33 22.2917 110.33 16.4135V14.7857C110.33 8.90762 112.86 6.51116 118.997 6.51116H120.496C126.634 6.51116 129.164 8.90762 129.164 14.7857V19.7143C129.147 19.9462 129.181 20.1789 129.264 20.3971C129.347 20.6153 129.477 20.8142 129.645 20.9807C129.813 21.1472 130.015 21.2775 130.239 21.3632C130.463 21.4488 130.703 21.4879 130.944 21.4778C131.185 21.4916 131.427 21.4551 131.653 21.3707C131.879 21.2863 132.083 21.1561 132.252 20.9888C132.421 20.8215 132.55 20.6211 132.632 20.4012C132.713 20.1813 132.745 19.947 132.724 19.7143V14.3788C132.724 7.14419 128.508 3.11993 121.059 3.11993H118.482C111.033 3.11993 106.816 7.14419 106.816 14.3788V16.8205C106.816 24.0551 111.033 28.1246 118.482 28.0793H129.023C129.391 28.0448 129.762 28.0966 130.105 28.2305C130.447 28.3643 130.751 28.5762 130.991 28.848L131.6 29.4358C132.63 30.4306 133.661 30.4758 134.411 29.7523C135.16 29.0289 135.067 27.9889 134.223 27.1298L133.661 26.6324Z" fill="white"/>
<path d="M91.5909 3.11993H89.0141C81.5651 3.11993 77.3486 7.14419 77.3486 14.3788V26.4063C77.3486 26.862 77.5362 27.2991 77.8701 27.6213C78.2039 27.9435 78.6568 28.1246 79.1289 28.1246C79.6011 28.1246 80.0539 27.9435 80.3878 27.6213C80.7216 27.2991 80.9092 26.862 80.9092 26.4063V14.831C80.9092 8.99806 83.439 6.55637 89.5763 6.55637H91.0755C97.2128 6.55637 99.7426 8.95284 99.7426 14.831V26.4516C99.7426 26.9073 99.9302 27.3443 100.264 27.6665C100.598 27.9888 101.051 28.1698 101.523 28.1698C101.995 28.1698 102.448 27.9888 102.782 27.6665C103.116 27.3443 103.303 26.9073 103.303 26.4516V14.424C103.256 7.1894 99.0399 3.11993 91.5909 3.11993Z" fill="white"/>
<path d="M196.205 3.75296C193.675 1.31127 190.021 0.0452163 185.336 0H158.257C149.121 0 143.827 5.15466 143.734 14.1979V17.0918C143.687 21.5682 144.999 25.0951 147.575 27.5367C150.152 29.9784 153.759 31.2445 158.444 31.2897H185.523C194.659 31.2897 199.953 26.135 200 17.0918V14.1979C200.047 9.72151 198.735 6.19464 196.205 3.75296ZM198.126 14.1979V17.0466C198.032 25.0498 193.488 29.3454 185.336 29.3454H158.444C154.322 29.3002 151.089 28.2602 148.887 26.135C146.685 24.0099 145.608 20.9804 145.608 17.0013V14.1527C145.701 6.14942 150.199 1.85387 158.397 1.85387H185.289C189.459 1.89908 192.644 2.93906 194.846 5.06423C197.048 7.18939 198.173 10.2189 198.126 14.1979Z" fill="white"/>
<path d="M161.958 10.9876C161.762 10.925 161.55 10.9265 161.356 10.9919C161.161 11.0573 160.994 11.1829 160.88 11.3493L157.741 15.7805L154.603 11.3493C154.489 11.1829 154.322 11.0573 154.127 10.9919C153.933 10.9265 153.721 10.925 153.525 10.9876C153.324 11.0476 153.148 11.1673 153.022 11.3298C152.896 11.4922 152.826 11.6889 152.822 11.8919V19.3978C152.823 19.6493 152.928 19.8901 153.112 20.0679C153.296 20.2457 153.546 20.3462 153.806 20.3473C153.936 20.3504 154.066 20.328 154.186 20.2814C154.307 20.2348 154.417 20.1649 154.509 20.0761C154.601 19.9873 154.673 19.8814 154.722 19.7648C154.77 19.6482 154.793 19.5233 154.79 19.3978V14.9214L156.945 17.9509L157.086 18.0865L157.226 18.2222C157.32 18.2674 157.367 18.3126 157.46 18.3126C157.554 18.3126 157.554 18.3578 157.601 18.3578H157.976C158.023 18.3578 158.069 18.3126 158.116 18.3126C158.163 18.3126 158.257 18.2674 158.304 18.2222L158.444 18.0865L158.585 17.9509L160.74 14.9214V19.3978C160.741 19.6493 160.845 19.8901 161.029 20.0679C161.214 20.2457 161.463 20.3462 161.724 20.3473C161.854 20.3504 161.983 20.328 162.104 20.2814C162.225 20.2348 162.334 20.1649 162.426 20.0761C162.518 19.9873 162.591 19.8814 162.639 19.7648C162.687 19.6482 162.711 19.5233 162.707 19.3978V11.8919C162.692 11.6857 162.612 11.4888 162.478 11.3273C162.344 11.1659 162.163 11.0474 161.958 10.9876Z" fill="white"/>
<path d="M189.881 17.0465L187.304 11.4849C187.302 11.4616 187.291 11.4398 187.274 11.4233C187.257 11.4067 187.234 11.3965 187.21 11.3945C187.163 11.3493 187.117 11.2589 187.07 11.2136C187.016 11.1578 186.953 11.1118 186.882 11.078C186.835 11.0328 186.789 11.0328 186.742 10.9876H186.695C186.625 10.9465 186.542 10.9305 186.461 10.9423C186.414 10.9423 186.367 10.8971 186.32 10.8971C186.255 10.8952 186.19 10.9109 186.133 10.9423C186.067 10.9356 186 10.9516 185.945 10.9876H185.898C185.852 10.9876 185.805 11.0328 185.758 11.078C185.711 11.1232 185.664 11.1232 185.617 11.1684C185.571 11.2136 185.524 11.3041 185.477 11.3493C185.43 11.3945 185.43 11.3945 185.383 11.4397L181.916 18.9456C181.863 19.0579 181.834 19.1796 181.831 19.303C181.829 19.4265 181.852 19.5493 181.9 19.6636C181.949 19.778 182.021 19.8817 182.112 19.9681C182.203 20.0546 182.312 20.1221 182.432 20.1665C182.552 20.2126 182.678 20.2431 182.806 20.2569C182.993 20.2561 183.175 20.2047 183.332 20.1088C183.489 20.0129 183.616 19.8762 183.697 19.7143L184.352 18.3126H188.194L188.85 19.7143C188.925 19.8804 189.05 20.0209 189.209 20.1177C189.367 20.2144 189.553 20.2629 189.74 20.2569C189.87 20.2539 189.998 20.223 190.115 20.1665C190.349 20.0679 190.533 19.8851 190.63 19.6571C190.726 19.4291 190.726 19.1738 190.63 18.9456L189.881 17.0465ZM185.383 16.5039L186.414 14.1979L187.444 16.5039H185.383Z" fill="white"/>
<path d="M169.079 10.9424C167.787 10.9424 166.548 11.4378 165.634 12.3197C164.72 13.2016 164.207 14.3977 164.207 15.6449C164.207 16.892 164.72 18.0881 165.634 18.97C166.548 19.8519 167.787 20.3473 169.079 20.3473C170.459 20.3556 171.816 20.0125 173.015 19.3526C173.231 19.2288 173.388 19.0287 173.453 18.7947C173.519 18.5607 173.487 18.3114 173.365 18.0995C173.243 17.8877 173.041 17.73 172.8 17.6601C172.56 17.5901 172.301 17.6133 172.078 17.7248C171.186 18.2392 170.165 18.5053 169.126 18.4935C168.525 18.4932 167.938 18.3154 167.443 17.9841C166.949 17.6528 166.572 17.1837 166.362 16.6396H172.968C173.228 16.6384 173.478 16.538 173.662 16.3602C173.846 16.1824 173.95 15.9415 173.952 15.6901C173.957 15.0689 173.835 14.4528 173.593 13.8773C173.351 13.3018 172.993 12.7783 172.54 12.337C172.087 11.8956 171.548 11.5452 170.954 11.3058C170.36 11.0665 169.723 10.9429 169.079 10.9424ZM166.315 14.6953C166.526 14.152 166.904 13.6838 167.398 13.3532C167.892 13.0227 168.478 12.8455 169.079 12.8455C169.68 12.8455 170.267 13.0227 170.761 13.3532C171.255 13.6838 171.633 14.152 171.843 14.6953H166.315Z" fill="white"/>
<path d="M182.806 11.8919C182.808 11.7546 182.782 11.6183 182.729 11.491C182.676 11.3637 182.596 11.2481 182.496 11.151C182.395 11.054 182.276 10.9775 182.144 10.9261C182.012 10.8747 181.871 10.8495 181.728 10.8519H175.263C174.977 10.8519 174.703 10.9615 174.501 11.1565C174.299 11.3515 174.186 11.6161 174.186 11.8919C174.186 12.1677 174.299 12.4322 174.501 12.6273C174.703 12.8223 174.977 12.9319 175.263 12.9319H177.512V19.3978C177.513 19.6493 177.617 19.8901 177.801 20.0679C177.986 20.2457 178.235 20.3461 178.496 20.3473C178.626 20.3504 178.755 20.328 178.876 20.2814C178.997 20.2348 179.107 20.1649 179.199 20.0761C179.291 19.9873 179.363 19.8814 179.411 19.7648C179.459 19.6482 179.483 19.5233 179.48 19.3978V12.9319H181.728C182.01 12.9207 182.278 12.8076 182.477 12.6149C182.677 12.4222 182.794 12.1641 182.806 11.8919Z" fill="white"/>
<path d="M158.065 44C157.093 43.9984 156.157 43.6414 155.446 43.0007L155.915 42.4853C156.22 42.7637 156.571 42.99 156.955 43.1545C157.328 43.3006 157.728 43.3728 158.131 43.367C158.504 43.3839 158.872 43.2787 159.175 43.0685C159.301 42.9788 159.402 42.8613 159.47 42.726C159.539 42.5906 159.573 42.4414 159.569 42.2908C159.574 42.152 159.545 42.014 159.484 41.8882C159.423 41.7625 159.331 41.6525 159.218 41.5674C158.812 41.3307 158.361 41.1768 157.892 41.1152C157.293 41.0236 156.724 40.8009 156.229 40.4641C156.057 40.3202 155.922 40.1402 155.833 39.938C155.745 39.7358 155.705 39.5167 155.718 39.2975C155.714 39.0632 155.766 38.8312 155.87 38.6194C155.974 38.4077 156.127 38.222 156.318 38.0767C156.751 37.7457 157.293 37.5757 157.845 37.5974C158.672 37.5876 159.476 37.858 160.117 38.3615L159.663 38.886C159.14 38.4545 158.476 38.2157 157.789 38.2123C157.432 38.1957 157.081 38.2961 156.791 38.4972C156.672 38.5823 156.575 38.6935 156.509 38.8216C156.443 38.9497 156.41 39.0911 156.411 39.2342C156.407 39.3757 156.437 39.5162 156.501 39.6438C156.565 39.7713 156.659 39.8821 156.777 39.9667C157.209 40.2114 157.686 40.3741 158.182 40.446C158.762 40.535 159.312 40.7567 159.785 41.0926C159.953 41.2323 160.085 41.4071 160.173 41.6038C160.261 41.8004 160.301 42.0137 160.291 42.2275C160.298 42.4726 160.246 42.7159 160.138 42.938C160.031 43.1602 159.871 43.3551 159.672 43.5071C159.217 43.8424 158.656 44.0136 158.084 43.991" fill="white"/>
<path d="M161.757 43.9096V37.6742H162.497L164.849 41.079L167.201 37.6742H167.941V43.9096H167.21V38.8589L164.858 42.2004H164.821L162.469 38.8679V43.9096H161.757Z" fill="white"/>
<path d="M169.215 43.9141L172.162 37.629H172.841L175.788 43.9141H175.001L174.246 42.2637H170.728L169.969 43.9141H169.215ZM171.014 41.6307H173.961L172.49 38.4655L171.014 41.6307Z" fill="white"/>
<path d="M177.062 43.9096V37.6743H179.841C180.175 37.6531 180.511 37.6975 180.827 37.8047C181.144 37.912 181.434 38.0798 181.682 38.2982C181.848 38.4626 181.978 38.6581 182.064 38.8727C182.149 39.0873 182.188 39.3165 182.178 39.5462C182.189 39.7683 182.154 39.9902 182.073 40.1985C181.993 40.4068 181.869 40.5972 181.71 40.758C181.359 41.0805 180.914 41.2918 180.436 41.3639L182.422 43.9096H181.523L179.649 41.4905H177.803V43.9096H177.062ZM177.789 40.8575H179.775C180.204 40.8754 180.627 40.7527 180.974 40.5093C181.126 40.3983 181.248 40.2536 181.33 40.0876C181.411 39.9215 181.45 39.7389 181.443 39.5552C181.45 39.3815 181.414 39.2086 181.337 39.0513C181.26 38.8939 181.146 38.7566 181.003 38.6509C180.646 38.4161 180.22 38.3016 179.789 38.3254H177.793L177.789 40.8575Z" fill="white"/>
<path d="M185.439 43.9096V38.3253H183.274V37.6742H188.348V38.3253H186.179V43.9096H185.439Z" fill="white"/>
</g>
<defs>
<clipPath id="clip0_3760_298">
<rect width="200" height="44" fill="white"/>
</clipPath>
</defs>
</svg>
